<?xml version="1.0" encoding="UTF-8"?>
<svg xmlns="http://www.w3.org/2000/svg" xmlns:xlink="http://www.w3.org/1999/xlink" width="756" height="504" viewBox="0 0 756 504">
<defs>
<g>
<g id="glyph-0-0">
<path d="M 9.125 -17.640625 L 9.125 5.875 L 2.0625 5.875 L 2.0625 -17.640625 Z M 8.21875 -16.765625 L 2.984375 -16.765625 L 2.984375 5 L 8.21875 5 Z M 5.4375 -7.578125 C 6.113281 -7.578125 6.59375 -7.394531 6.875 -7.03125 C 7.164062 -6.675781 7.3125 -6.210938 7.3125 -5.640625 C 7.3125 -5.046875 7.179688 -4.585938 6.921875 -4.265625 C 6.671875 -3.941406 6.265625 -3.738281 5.703125 -3.65625 L 5.703125 -2.90625 C 5.703125 -2.78125 5.660156 -2.679688 5.578125 -2.609375 C 5.492188 -2.535156 5.398438 -2.5 5.296875 -2.5 C 5.179688 -2.5 5.082031 -2.535156 5 -2.609375 C 4.914062 -2.679688 4.875 -2.78125 4.875 -2.90625 L 4.875 -4.3125 C 5.46875 -4.34375 5.867188 -4.453125 6.078125 -4.640625 C 6.296875 -4.828125 6.40625 -5.148438 6.40625 -5.609375 C 6.40625 -5.984375 6.332031 -6.269531 6.1875 -6.46875 C 6.039062 -6.664062 5.769531 -6.765625 5.375 -6.765625 C 5.050781 -6.765625 4.757812 -6.703125 4.5 -6.578125 C 4.40625 -6.546875 4.332031 -6.53125 4.28125 -6.53125 C 4.15625 -6.53125 4.054688 -6.566406 3.984375 -6.640625 C 3.910156 -6.710938 3.875 -6.804688 3.875 -6.921875 C 3.875 -7.128906 4.039062 -7.289062 4.375 -7.40625 C 4.707031 -7.519531 5.0625 -7.578125 5.4375 -7.578125 Z M 5.296875 -2.015625 C 5.460938 -2.015625 5.597656 -1.957031 5.703125 -1.84375 C 5.816406 -1.726562 5.875 -1.585938 5.875 -1.421875 C 5.875 -1.242188 5.816406 -1.097656 5.703125 -0.984375 C 5.597656 -0.867188 5.460938 -0.8125 5.296875 -0.8125 C 5.117188 -0.8125 4.972656 -0.867188 4.859375 -0.984375 C 4.753906 -1.097656 4.703125 -1.242188 4.703125 -1.421875 C 4.703125 -1.585938 4.753906 -1.726562 4.859375 -1.84375 C 4.972656 -1.957031 5.117188 -2.015625 5.296875 -2.015625 Z M 5.296875 -2.015625 "/>
</g>
<g id="glyph-0-1">
<path d="M 4.390625 -11.421875 C 5.515625 -11.421875 6.367188 -10.929688 6.953125 -9.953125 C 7.535156 -8.984375 7.828125 -7.535156 7.828125 -5.609375 C 7.828125 -3.660156 7.535156 -2.203125 6.953125 -1.234375 C 6.367188 -0.265625 5.515625 0.21875 4.390625 0.21875 C 3.242188 0.21875 2.378906 -0.265625 1.796875 -1.234375 C 1.210938 -2.210938 0.921875 -3.671875 0.921875 -5.609375 C 0.921875 -9.484375 2.078125 -11.421875 4.390625 -11.421875 Z M 4.390625 -10.25 C 3.734375 -10.25 3.25 -9.890625 2.9375 -9.171875 C 2.632812 -8.460938 2.484375 -7.273438 2.484375 -5.609375 C 2.484375 -3.929688 2.632812 -2.738281 2.9375 -2.03125 C 3.25 -1.320312 3.734375 -0.96875 4.390625 -0.96875 C 5.023438 -0.96875 5.492188 -1.320312 5.796875 -2.03125 C 6.109375 -2.738281 6.265625 -3.929688 6.265625 -5.609375 C 6.265625 -7.285156 6.113281 -8.476562 5.8125 -9.1875 C 5.507812 -9.894531 5.035156 -10.25 4.390625 -10.25 Z M 4.390625 -10.25 "/>
</g>
<g id="glyph-0-2">
<path d="M 3.40625 -11.421875 C 4.039062 -11.421875 4.59375 -11.285156 5.0625 -11.015625 C 5.53125 -10.753906 5.882812 -10.394531 6.125 -9.9375 C 6.375 -9.488281 6.5 -8.984375 6.5 -8.421875 C 6.5 -7.734375 6.363281 -7.082031 6.09375 -6.46875 C 5.832031 -5.863281 5.410156 -5.1875 4.828125 -4.4375 C 4.253906 -3.6875 3.363281 -2.625 2.15625 -1.25 L 6.75 -1.25 L 6.5625 0 L 0.484375 0 L 0.484375 -1.171875 C 1.785156 -2.671875 2.734375 -3.804688 3.328125 -4.578125 C 3.929688 -5.359375 4.347656 -6.023438 4.578125 -6.578125 C 4.816406 -7.128906 4.9375 -7.710938 4.9375 -8.328125 C 4.9375 -8.921875 4.785156 -9.378906 4.484375 -9.703125 C 4.191406 -10.035156 3.796875 -10.203125 3.296875 -10.203125 C 2.867188 -10.203125 2.5 -10.101562 2.1875 -9.90625 C 1.875 -9.71875 1.546875 -9.414062 1.203125 -9 L 0.265625 -9.71875 C 1.085938 -10.851562 2.132812 -11.421875 3.40625 -11.421875 Z M 3.40625 -11.421875 "/>
</g>
<g id="glyph-0-3">
<path d="M 7.6875 -3.984375 L 7.6875 -2.765625 L 6.421875 -2.765625 L 6.421875 0 L 4.96875 0 L 4.96875 -2.765625 L 0.578125 -2.765625 L 0.578125 -3.859375 L 3.578125 -11.4375 L 4.859375 -10.953125 L 2.109375 -3.984375 L 4.984375 -3.984375 L 5.140625 -7.03125 L 6.421875 -7.03125 L 6.421875 -3.984375 Z M 7.6875 -3.984375 "/>
</g>
<g id="glyph-0-4">
<path d="M 4.90625 -7.390625 C 5.414062 -7.390625 5.878906 -7.253906 6.296875 -6.984375 C 6.722656 -6.710938 7.054688 -6.304688 7.296875 -5.765625 C 7.546875 -5.234375 7.671875 -4.582031 7.671875 -3.8125 C 7.671875 -2.976562 7.535156 -2.253906 7.265625 -1.640625 C 6.992188 -1.035156 6.609375 -0.570312 6.109375 -0.25 C 5.617188 0.0625 5.054688 0.21875 4.421875 0.21875 C 3.222656 0.21875 2.335938 -0.253906 1.765625 -1.203125 C 1.203125 -2.148438 0.921875 -3.46875 0.921875 -5.15625 C 0.921875 -6.445312 1.078125 -7.5625 1.390625 -8.5 C 1.710938 -9.4375 2.171875 -10.15625 2.765625 -10.65625 C 3.367188 -11.164062 4.078125 -11.421875 4.890625 -11.421875 C 5.671875 -11.421875 6.363281 -11.191406 6.96875 -10.734375 L 6.375 -9.78125 C 5.90625 -10.09375 5.421875 -10.25 4.921875 -10.25 C 4.191406 -10.25 3.609375 -9.867188 3.171875 -9.109375 C 2.742188 -8.347656 2.503906 -7.296875 2.453125 -5.953125 C 3.085938 -6.910156 3.90625 -7.390625 4.90625 -7.390625 Z M 4.40625 -0.953125 C 4.988281 -0.953125 5.425781 -1.195312 5.71875 -1.6875 C 6.019531 -2.175781 6.171875 -2.875 6.171875 -3.78125 C 6.171875 -4.644531 6.023438 -5.269531 5.734375 -5.65625 C 5.453125 -6.050781 5.0625 -6.25 4.5625 -6.25 C 4.15625 -6.25 3.769531 -6.109375 3.40625 -5.828125 C 3.039062 -5.546875 2.722656 -5.160156 2.453125 -4.671875 C 2.472656 -3.378906 2.632812 -2.4375 2.9375 -1.84375 C 3.25 -1.25 3.738281 -0.953125 4.40625 -0.953125 Z M 4.40625 -0.953125 "/>
</g>
<g id="glyph-0-5">
<path d="M 5.515625 -6 C 6.285156 -5.644531 6.847656 -5.226562 7.203125 -4.75 C 7.566406 -4.269531 7.75 -3.675781 7.75 -2.96875 C 7.75 -2.34375 7.601562 -1.789062 7.3125 -1.3125 C 7.019531 -0.832031 6.597656 -0.457031 6.046875 -0.1875 C 5.503906 0.0820312 4.878906 0.21875 4.171875 0.21875 C 3.460938 0.21875 2.84375 0.0859375 2.3125 -0.171875 C 1.78125 -0.441406 1.367188 -0.816406 1.078125 -1.296875 C 0.796875 -1.773438 0.65625 -2.320312 0.65625 -2.9375 C 0.65625 -4.320312 1.363281 -5.316406 2.78125 -5.921875 C 2.175781 -6.253906 1.738281 -6.625 1.46875 -7.03125 C 1.207031 -7.445312 1.078125 -7.945312 1.078125 -8.53125 C 1.078125 -9.132812 1.21875 -9.65625 1.5 -10.09375 C 1.78125 -10.53125 2.15625 -10.859375 2.625 -11.078125 C 3.101562 -11.304688 3.628906 -11.421875 4.203125 -11.421875 C 5.097656 -11.421875 5.84375 -11.171875 6.4375 -10.671875 C 7.039062 -10.179688 7.34375 -9.488281 7.34375 -8.59375 C 7.34375 -8.03125 7.195312 -7.539062 6.90625 -7.125 C 6.613281 -6.707031 6.148438 -6.332031 5.515625 -6 Z M 4.21875 -10.3125 C 3.695312 -10.3125 3.285156 -10.160156 2.984375 -9.859375 C 2.679688 -9.566406 2.53125 -9.117188 2.53125 -8.515625 C 2.53125 -8.015625 2.65625 -7.617188 2.90625 -7.328125 C 3.164062 -7.046875 3.597656 -6.78125 4.203125 -6.53125 L 4.578125 -6.359375 C 5.054688 -6.679688 5.390625 -7.003906 5.578125 -7.328125 C 5.773438 -7.660156 5.875 -8.0625 5.875 -8.53125 C 5.875 -9.125 5.726562 -9.566406 5.4375 -9.859375 C 5.144531 -10.160156 4.738281 -10.3125 4.21875 -10.3125 Z M 4.203125 -0.953125 C 4.835938 -0.953125 5.332031 -1.125 5.6875 -1.46875 C 6.050781 -1.8125 6.234375 -2.3125 6.234375 -2.96875 C 6.234375 -3.5625 6.082031 -4.023438 5.78125 -4.359375 C 5.488281 -4.691406 4.960938 -5.015625 4.203125 -5.328125 L 3.734375 -5.515625 C 3.191406 -5.234375 2.796875 -4.890625 2.546875 -4.484375 C 2.296875 -4.078125 2.171875 -3.570312 2.171875 -2.96875 C 2.171875 -2.300781 2.347656 -1.796875 2.703125 -1.453125 C 3.054688 -1.117188 3.554688 -0.953125 4.203125 -0.953125 Z M 4.203125 -0.953125 "/>
</g>
<g id="glyph-0-6">
<path d="M 4.9375 -11.234375 L 4.9375 0 L 3.4375 0 L 3.4375 -9.65625 L 1.109375 -8.078125 L 0.421875 -9.09375 L 3.609375 -11.234375 Z M 4.9375 -11.234375 "/>
</g>
<g id="glyph-0-7">
<path d="M 3.4375 -11.421875 C 4.050781 -11.421875 4.585938 -11.296875 5.046875 -11.046875 C 5.515625 -10.796875 5.867188 -10.453125 6.109375 -10.015625 C 6.359375 -9.585938 6.484375 -9.113281 6.484375 -8.59375 C 6.484375 -7.882812 6.296875 -7.304688 5.921875 -6.859375 C 5.554688 -6.421875 5.03125 -6.125 4.34375 -5.96875 C 5.082031 -5.894531 5.675781 -5.625 6.125 -5.15625 C 6.570312 -4.6875 6.796875 -4.03125 6.796875 -3.1875 C 6.796875 -2.550781 6.65625 -1.972656 6.375 -1.453125 C 6.09375 -0.941406 5.679688 -0.535156 5.140625 -0.234375 C 4.609375 0.0664062 3.992188 0.21875 3.296875 0.21875 C 2.640625 0.21875 2.054688 0.09375 1.546875 -0.15625 C 1.046875 -0.40625 0.582031 -0.789062 0.15625 -1.3125 L 1.0625 -2.078125 C 1.40625 -1.703125 1.75 -1.425781 2.09375 -1.25 C 2.4375 -1.070312 2.816406 -0.984375 3.234375 -0.984375 C 3.859375 -0.984375 4.347656 -1.179688 4.703125 -1.578125 C 5.066406 -1.984375 5.25 -2.53125 5.25 -3.21875 C 5.25 -3.957031 5.066406 -4.492188 4.703125 -4.828125 C 4.347656 -5.160156 3.828125 -5.328125 3.140625 -5.328125 L 2.4375 -5.328125 L 2.625 -6.453125 L 3.09375 -6.453125 C 3.65625 -6.453125 4.113281 -6.625 4.46875 -6.96875 C 4.832031 -7.3125 5.015625 -7.8125 5.015625 -8.46875 C 5.015625 -9.03125 4.859375 -9.46875 4.546875 -9.78125 C 4.242188 -10.09375 3.828125 -10.25 3.296875 -10.25 C 2.898438 -10.25 2.535156 -10.171875 2.203125 -10.015625 C 1.878906 -9.859375 1.546875 -9.609375 1.203125 -9.265625 L 0.421875 -10.078125 C 1.296875 -10.972656 2.300781 -11.421875 3.4375 -11.421875 Z M 3.4375 -11.421875 "/>
</g>
<g id="glyph-0-8">
<path d="M 6.453125 -10.0625 L 2.515625 -10.0625 L 2.515625 -6.703125 C 3.046875 -7.015625 3.597656 -7.171875 4.171875 -7.171875 C 5.023438 -7.171875 5.710938 -6.859375 6.234375 -6.234375 C 6.765625 -5.609375 7.03125 -4.738281 7.03125 -3.625 C 7.03125 -2.875 6.878906 -2.207031 6.578125 -1.625 C 6.285156 -1.039062 5.867188 -0.585938 5.328125 -0.265625 C 4.796875 0.0546875 4.171875 0.21875 3.453125 0.21875 C 2.816406 0.21875 2.253906 0.0976562 1.765625 -0.140625 C 1.285156 -0.390625 0.828125 -0.757812 0.390625 -1.25 L 1.28125 -2.046875 C 1.601562 -1.703125 1.929688 -1.441406 2.265625 -1.265625 C 2.597656 -1.085938 2.984375 -1 3.421875 -1 C 4.078125 -1 4.582031 -1.226562 4.9375 -1.6875 C 5.289062 -2.144531 5.46875 -2.796875 5.46875 -3.640625 C 5.46875 -5.242188 4.863281 -6.046875 3.65625 -6.046875 C 3.394531 -6.046875 3.148438 -6.007812 2.921875 -5.9375 C 2.703125 -5.863281 2.453125 -5.75 2.171875 -5.59375 L 1.078125 -5.59375 L 1.078125 -11.234375 L 6.65625 -11.234375 Z M 6.453125 -10.0625 "/>
</g>
<g id="glyph-0-9">
<path d="M 6.359375 -11.234375 L 6.359375 -10.125 L 2.515625 0.171875 L 1.15625 -0.265625 L 4.859375 -10.03125 L 0.359375 -10.03125 L 0.359375 -11.234375 Z M 6.359375 -11.234375 "/>
</g>
<g id="glyph-0-10">
<path d="M 4 -11.421875 C 5.113281 -11.421875 5.953125 -11.035156 6.515625 -10.265625 C 7.085938 -9.492188 7.375 -8.398438 7.375 -6.984375 C 7.375 -5.492188 7.171875 -4.273438 6.765625 -3.328125 C 6.367188 -2.390625 5.769531 -1.632812 4.96875 -1.0625 C 4.164062 -0.5 3.101562 -0.0195312 1.78125 0.375 L 1.4375 -0.734375 C 2.8125 -1.160156 3.851562 -1.726562 4.5625 -2.4375 C 5.269531 -3.15625 5.679688 -4.140625 5.796875 -5.390625 C 5.515625 -4.984375 5.179688 -4.664062 4.796875 -4.4375 C 4.410156 -4.207031 3.976562 -4.09375 3.5 -4.09375 C 2.976562 -4.09375 2.5 -4.238281 2.0625 -4.53125 C 1.625 -4.820312 1.28125 -5.238281 1.03125 -5.78125 C 0.78125 -6.320312 0.65625 -6.957031 0.65625 -7.6875 C 0.65625 -8.476562 0.800781 -9.148438 1.09375 -9.703125 C 1.382812 -10.265625 1.78125 -10.691406 2.28125 -10.984375 C 2.789062 -11.273438 3.363281 -11.421875 4 -11.421875 Z M 3.859375 -5.234375 C 4.617188 -5.234375 5.273438 -5.710938 5.828125 -6.671875 C 5.835938 -7.953125 5.695312 -8.867188 5.40625 -9.421875 C 5.125 -9.984375 4.660156 -10.265625 4.015625 -10.265625 C 3.429688 -10.265625 2.976562 -10.046875 2.65625 -9.609375 C 2.332031 -9.179688 2.171875 -8.535156 2.171875 -7.671875 C 2.171875 -6.878906 2.320312 -6.273438 2.625 -5.859375 C 2.925781 -5.441406 3.335938 -5.234375 3.859375 -5.234375 Z M 3.859375 -5.234375 "/>
</g>
<g id="glyph-0-11">
<path d="M 5.25 -11.78125 C 5.863281 -11.78125 6.394531 -11.6875 6.84375 -11.5 C 7.289062 -11.3125 7.726562 -11.019531 8.15625 -10.625 L 7.359375 -9.6875 C 7.035156 -9.96875 6.710938 -10.175781 6.390625 -10.3125 C 6.066406 -10.445312 5.71875 -10.515625 5.34375 -10.515625 C 4.46875 -10.515625 3.769531 -10.140625 3.25 -9.390625 C 2.738281 -8.648438 2.484375 -7.453125 2.484375 -5.796875 C 2.484375 -4.179688 2.738281 -2.988281 3.25 -2.21875 C 3.769531 -1.457031 4.46875 -1.078125 5.34375 -1.078125 C 5.78125 -1.078125 6.15625 -1.15625 6.46875 -1.3125 C 6.78125 -1.46875 7.117188 -1.695312 7.484375 -2 L 8.28125 -1.078125 C 7.4375 -0.210938 6.425781 0.21875 5.25 0.21875 C 4.394531 0.21875 3.632812 -0.00390625 2.96875 -0.453125 C 2.300781 -0.898438 1.78125 -1.570312 1.40625 -2.46875 C 1.03125 -3.375 0.84375 -4.484375 0.84375 -5.796875 C 0.84375 -7.097656 1.035156 -8.195312 1.421875 -9.09375 C 1.804688 -9.988281 2.332031 -10.660156 3 -11.109375 C 3.664062 -11.554688 4.414062 -11.78125 5.25 -11.78125 Z M 5.25 -11.78125 "/>
</g>
<g id="glyph-0-12">
<path d="M 4.4375 -9.046875 C 5.5625 -9.046875 6.4375 -8.648438 7.0625 -7.859375 C 7.695312 -7.066406 8.015625 -5.925781 8.015625 -4.4375 C 8.015625 -3 7.691406 -1.863281 7.046875 -1.03125 C 6.410156 -0.195312 5.535156 0.21875 4.421875 0.21875 C 3.285156 0.21875 2.398438 -0.1875 1.765625 -1 C 1.140625 -1.820312 0.828125 -2.960938 0.828125 -4.421875 C 0.828125 -5.890625 1.144531 -7.023438 1.78125 -7.828125 C 2.414062 -8.640625 3.300781 -9.046875 4.4375 -9.046875 Z M 4.4375 -7.84375 C 3.769531 -7.84375 3.265625 -7.566406 2.921875 -7.015625 C 2.578125 -6.460938 2.40625 -5.597656 2.40625 -4.421875 C 2.40625 -2.117188 3.078125 -0.96875 4.421875 -0.96875 C 5.765625 -0.96875 6.4375 -2.125 6.4375 -4.4375 C 6.4375 -5.613281 6.265625 -6.472656 5.921875 -7.015625 C 5.585938 -7.566406 5.09375 -7.84375 4.4375 -7.84375 Z M 4.4375 -7.84375 "/>
</g>
<g id="glyph-0-13">
<path d="M 5.3125 -9.046875 C 6.007812 -9.046875 6.554688 -8.8125 6.953125 -8.34375 C 7.359375 -7.882812 7.5625 -7.25 7.5625 -6.4375 L 7.5625 0 L 6.046875 0 L 6.046875 -6.25 C 6.046875 -6.820312 5.945312 -7.234375 5.75 -7.484375 C 5.5625 -7.734375 5.273438 -7.859375 4.890625 -7.859375 C 4.148438 -7.859375 3.476562 -7.332031 2.875 -6.28125 L 2.875 0 L 1.359375 0 L 1.359375 -8.828125 L 2.671875 -8.828125 L 2.78125 -7.53125 C 3.46875 -8.539062 4.3125 -9.046875 5.3125 -9.046875 Z M 5.3125 -9.046875 "/>
</g>
<g id="glyph-0-14">
<path d="M 5.546875 -0.390625 C 4.984375 0.015625 4.359375 0.21875 3.671875 0.21875 C 2.960938 0.21875 2.410156 0.0078125 2.015625 -0.40625 C 1.628906 -0.820312 1.4375 -1.40625 1.4375 -2.15625 L 1.4375 -7.6875 L 0.1875 -7.6875 L 0.1875 -8.828125 L 1.4375 -8.828125 L 1.4375 -10.875 L 2.953125 -11.046875 L 2.953125 -8.828125 L 4.90625 -8.828125 L 4.734375 -7.6875 L 2.953125 -7.6875 L 2.953125 -2.171875 C 2.953125 -1.410156 3.269531 -1.03125 3.90625 -1.03125 C 4.101562 -1.03125 4.28125 -1.054688 4.4375 -1.109375 C 4.601562 -1.160156 4.785156 -1.242188 4.984375 -1.359375 Z M 5.546875 -0.390625 "/>
</g>
<g id="glyph-0-15">
<path d="M 4.984375 -9.03125 C 5.273438 -9.03125 5.53125 -9 5.75 -8.9375 L 5.5 -7.46875 C 5.28125 -7.539062 5.046875 -7.578125 4.796875 -7.578125 C 4.304688 -7.578125 3.90625 -7.378906 3.59375 -6.984375 C 3.289062 -6.597656 3.050781 -6 2.875 -5.1875 L 2.875 0 L 1.359375 0 L 1.359375 -8.828125 L 2.671875 -8.828125 L 2.78125 -7.09375 C 3.21875 -8.382812 3.953125 -9.03125 4.984375 -9.03125 Z M 4.984375 -9.03125 "/>
</g>
<g id="glyph-0-16">
<path d="M 3.015625 0.21875 C 2.484375 0.21875 2.0625 0.0546875 1.75 -0.265625 C 1.4375 -0.585938 1.28125 -1.039062 1.28125 -1.625 L 1.28125 -12.40625 L 2.78125 -12.578125 L 2.78125 -1.671875 C 2.78125 -1.242188 2.960938 -1.03125 3.328125 -1.03125 C 3.472656 -1.03125 3.632812 -1.0625 3.8125 -1.125 L 4.15625 -0.0625 C 3.789062 0.125 3.410156 0.21875 3.015625 0.21875 Z M 3.015625 0.21875 "/>
</g>
<g id="glyph-0-17">
<path d="M 7.6875 -11.5625 L 7.515625 -10.28125 L 4.671875 -10.28125 L 4.671875 0 L 3.109375 0 L 3.109375 -10.28125 L 0.1875 -10.28125 L 0.1875 -11.5625 Z M 7.6875 -11.5625 "/>
</g>
<g id="glyph-0-18">
<path d="M 7.5625 -4.6875 C 7.5625 -4.445312 7.550781 -4.179688 7.53125 -3.890625 L 2.390625 -3.890625 C 2.429688 -2.859375 2.632812 -2.113281 3 -1.65625 C 3.375 -1.207031 3.878906 -0.984375 4.515625 -0.984375 C 4.921875 -0.984375 5.28125 -1.046875 5.59375 -1.171875 C 5.914062 -1.296875 6.25 -1.5 6.59375 -1.78125 L 7.265625 -0.890625 C 6.441406 -0.148438 5.503906 0.21875 4.453125 0.21875 C 3.296875 0.21875 2.398438 -0.179688 1.765625 -0.984375 C 1.140625 -1.785156 0.828125 -2.90625 0.828125 -4.34375 C 0.828125 -5.789062 1.128906 -6.9375 1.734375 -7.78125 C 2.335938 -8.625 3.175781 -9.046875 4.25 -9.046875 C 5.3125 -9.046875 6.128906 -8.664062 6.703125 -7.90625 C 7.273438 -7.15625 7.5625 -6.082031 7.5625 -4.6875 Z M 6.09375 -5.140625 C 6.09375 -6.984375 5.484375 -7.90625 4.265625 -7.90625 C 3.703125 -7.90625 3.257812 -7.671875 2.9375 -7.203125 C 2.613281 -6.742188 2.429688 -5.992188 2.390625 -4.953125 L 6.09375 -4.953125 Z M 6.09375 -5.140625 "/>
</g>
<g id="glyph-0-19">
<path d="M 6.875 -2.015625 C 6.875 -1.660156 6.921875 -1.394531 7.015625 -1.21875 C 7.117188 -1.039062 7.273438 -0.910156 7.484375 -0.828125 L 7.171875 0.203125 C 6.734375 0.128906 6.390625 -0.00390625 6.140625 -0.203125 C 5.898438 -0.398438 5.726562 -0.707031 5.625 -1.125 C 5.050781 -0.226562 4.25 0.21875 3.21875 0.21875 C 2.4375 0.21875 1.816406 -0.0234375 1.359375 -0.515625 C 0.898438 -1.003906 0.671875 -1.65625 0.671875 -2.46875 C 0.671875 -3.40625 0.976562 -4.117188 1.59375 -4.609375 C 2.207031 -5.109375 3.085938 -5.359375 4.234375 -5.359375 L 5.375 -5.359375 L 5.375 -6.109375 C 5.375 -6.722656 5.25 -7.164062 5 -7.4375 C 4.75 -7.71875 4.335938 -7.859375 3.765625 -7.859375 C 3.148438 -7.859375 2.429688 -7.703125 1.609375 -7.390625 L 1.25 -8.453125 C 2.226562 -8.847656 3.144531 -9.046875 4 -9.046875 C 5.914062 -9.046875 6.875 -8.09375 6.875 -6.1875 Z M 3.578125 -0.921875 C 4.359375 -0.921875 4.957031 -1.378906 5.375 -2.296875 L 5.375 -4.390625 L 4.40625 -4.390625 C 2.945312 -4.390625 2.21875 -3.773438 2.21875 -2.546875 C 2.21875 -2.023438 2.332031 -1.625 2.5625 -1.34375 C 2.800781 -1.0625 3.140625 -0.921875 3.578125 -0.921875 Z M 3.578125 -0.921875 "/>
</g>
<g id="glyph-0-20">
<path d="M 7.640625 -12.40625 L 7.640625 0 L 6.296875 0 L 6.203125 -1.15625 C 5.628906 -0.238281 4.859375 0.21875 3.890625 0.21875 C 2.929688 0.21875 2.1875 -0.1875 1.65625 -1 C 1.125 -1.820312 0.859375 -2.953125 0.859375 -4.390625 C 0.859375 -5.316406 0.988281 -6.128906 1.25 -6.828125 C 1.507812 -7.535156 1.878906 -8.082031 2.359375 -8.46875 C 2.847656 -8.851562 3.40625 -9.046875 4.03125 -9.046875 C 4.875 -9.046875 5.570312 -8.695312 6.125 -8 L 6.125 -12.578125 Z M 4.25 -0.96875 C 4.65625 -0.96875 5.003906 -1.078125 5.296875 -1.296875 C 5.597656 -1.523438 5.875 -1.859375 6.125 -2.296875 L 6.125 -6.734375 C 5.625 -7.484375 5.035156 -7.859375 4.359375 -7.859375 C 3.773438 -7.859375 3.304688 -7.570312 2.953125 -7 C 2.609375 -6.425781 2.441406 -5.566406 2.453125 -4.421875 C 2.453125 -3.242188 2.609375 -2.375 2.921875 -1.8125 C 3.234375 -1.25 3.675781 -0.96875 4.25 -0.96875 Z M 4.25 -0.96875 "/>
</g>
<g id="glyph-1-0">
<path d="M 11.40625 -22.046875 L 11.40625 7.34375 L 2.578125 7.34375 L 2.578125 -22.046875 Z M 10.265625 -20.953125 L 3.734375 -20.953125 L 3.734375 6.265625 L 10.265625 6.265625 Z M 6.796875 -9.46875 C 7.640625 -9.46875 8.238281 -9.242188 8.59375 -8.796875 C 8.957031 -8.347656 9.140625 -7.769531 9.140625 -7.0625 C 9.140625 -6.3125 8.976562 -5.734375 8.65625 -5.328125 C 8.34375 -4.921875 7.835938 -4.671875 7.140625 -4.578125 L 7.140625 -3.640625 C 7.140625 -3.484375 7.085938 -3.359375 6.984375 -3.265625 C 6.878906 -3.171875 6.753906 -3.125 6.609375 -3.125 C 6.472656 -3.125 6.351562 -3.171875 6.25 -3.265625 C 6.144531 -3.359375 6.09375 -3.484375 6.09375 -3.640625 L 6.09375 -5.390625 C 6.832031 -5.429688 7.332031 -5.566406 7.59375 -5.796875 C 7.863281 -6.035156 8 -6.441406 8 -7.015625 C 8 -7.472656 7.90625 -7.828125 7.71875 -8.078125 C 7.539062 -8.335938 7.207031 -8.46875 6.71875 -8.46875 C 6.3125 -8.46875 5.945312 -8.390625 5.625 -8.234375 C 5.507812 -8.191406 5.421875 -8.171875 5.359375 -8.171875 C 5.203125 -8.171875 5.078125 -8.210938 4.984375 -8.296875 C 4.890625 -8.390625 4.84375 -8.507812 4.84375 -8.65625 C 4.84375 -8.914062 5.050781 -9.113281 5.46875 -9.25 C 5.882812 -9.394531 6.328125 -9.46875 6.796875 -9.46875 Z M 6.609375 -2.515625 C 6.828125 -2.515625 7.003906 -2.441406 7.140625 -2.296875 C 7.273438 -2.160156 7.34375 -1.988281 7.34375 -1.78125 C 7.34375 -1.5625 7.273438 -1.378906 7.140625 -1.234375 C 7.003906 -1.085938 6.828125 -1.015625 6.609375 -1.015625 C 6.398438 -1.015625 6.222656 -1.085938 6.078125 -1.234375 C 5.941406 -1.378906 5.875 -1.5625 5.875 -1.78125 C 5.875 -1.988281 5.941406 -2.160156 6.078125 -2.296875 C 6.222656 -2.441406 6.398438 -2.515625 6.609375 -2.515625 Z M 6.609375 -2.515625 "/>
</g>
<g id="glyph-1-1">
<path d="M 9.625 -14.453125 L 9.390625 -12.859375 L 5.84375 -12.859375 L 5.84375 0 L 3.890625 0 L 3.890625 -12.859375 L 0.234375 -12.859375 L 0.234375 -14.453125 Z M 9.625 -14.453125 "/>
</g>
<g id="glyph-1-2">
<path d="M 3.59375 -11.046875 L 3.59375 0 L 1.703125 0 L 1.703125 -11.046875 Z M 2.640625 -16.25 C 3.003906 -16.25 3.300781 -16.128906 3.53125 -15.890625 C 3.769531 -15.660156 3.890625 -15.367188 3.890625 -15.015625 C 3.890625 -14.660156 3.773438 -14.367188 3.546875 -14.140625 C 3.328125 -13.910156 3.023438 -13.796875 2.640625 -13.796875 C 2.273438 -13.796875 1.976562 -13.910156 1.75 -14.140625 C 1.519531 -14.367188 1.40625 -14.660156 1.40625 -15.015625 C 1.40625 -15.367188 1.519531 -15.660156 1.75 -15.890625 C 1.976562 -16.128906 2.273438 -16.25 2.640625 -16.25 Z M 2.640625 -16.25 "/>
</g>
<g id="glyph-1-3">
<path d="M 11.90625 -11.3125 C 12.707031 -11.3125 13.34375 -11.015625 13.8125 -10.421875 C 14.289062 -9.828125 14.53125 -9.035156 14.53125 -8.046875 L 14.53125 0 L 12.65625 0 L 12.65625 -7.828125 C 12.65625 -9.171875 12.222656 -9.84375 11.359375 -9.84375 C 10.515625 -9.84375 9.742188 -9.203125 9.046875 -7.921875 L 9.046875 0 L 7.1875 0 L 7.1875 -7.828125 C 7.1875 -9.171875 6.75 -9.84375 5.875 -9.84375 C 5.019531 -9.84375 4.25 -9.203125 3.5625 -7.921875 L 3.5625 0 L 1.703125 0 L 1.703125 -11.046875 L 3.34375 -11.046875 L 3.484375 -9.421875 C 4.296875 -10.679688 5.273438 -11.3125 6.421875 -11.3125 C 7.023438 -11.3125 7.535156 -11.132812 7.953125 -10.78125 C 8.378906 -10.4375 8.679688 -9.941406 8.859375 -9.296875 C 9.710938 -10.640625 10.726562 -11.3125 11.90625 -11.3125 Z M 11.90625 -11.3125 "/>
</g>
<g id="glyph-1-4">
<path d="M 9.453125 -5.859375 C 9.453125 -5.566406 9.4375 -5.238281 9.40625 -4.875 L 2.984375 -4.875 C 3.035156 -3.582031 3.289062 -2.648438 3.75 -2.078125 C 4.21875 -1.515625 4.851562 -1.234375 5.65625 -1.234375 C 6.15625 -1.234375 6.601562 -1.3125 7 -1.46875 C 7.40625 -1.625 7.820312 -1.875 8.25 -2.21875 L 9.09375 -1.109375 C 8.050781 -0.191406 6.875 0.265625 5.5625 0.265625 C 4.125 0.265625 3.007812 -0.234375 2.21875 -1.234375 C 1.425781 -2.234375 1.03125 -3.632812 1.03125 -5.4375 C 1.03125 -7.238281 1.40625 -8.664062 2.15625 -9.71875 C 2.914062 -10.78125 3.96875 -11.3125 5.3125 -11.3125 C 6.644531 -11.3125 7.664062 -10.835938 8.375 -9.890625 C 9.09375 -8.953125 9.453125 -7.609375 9.453125 -5.859375 Z M 7.625 -6.421875 C 7.625 -8.734375 6.859375 -9.890625 5.328125 -9.890625 C 4.628906 -9.890625 4.078125 -9.597656 3.671875 -9.015625 C 3.265625 -8.429688 3.035156 -7.488281 2.984375 -6.1875 L 7.625 -6.1875 Z M 7.625 -6.421875 "/>
</g>
<g id="glyph-1-5">
</g>
<g id="glyph-1-6">
<path d="M 6.46875 -11.3125 C 7.675781 -11.3125 8.582031 -10.816406 9.1875 -9.828125 C 9.789062 -8.835938 10.09375 -7.414062 10.09375 -5.5625 C 10.09375 -3.769531 9.753906 -2.347656 9.078125 -1.296875 C 8.398438 -0.253906 7.453125 0.265625 6.234375 0.265625 C 5.140625 0.265625 4.257812 -0.171875 3.59375 -1.046875 L 3.59375 4.203125 L 1.703125 4.4375 L 1.703125 -11.046875 L 3.359375 -11.046875 L 3.46875 -9.5625 C 4.21875 -10.726562 5.21875 -11.3125 6.46875 -11.3125 Z M 5.796875 -1.234375 C 7.347656 -1.234375 8.125 -2.671875 8.125 -5.546875 C 8.125 -7.046875 7.945312 -8.132812 7.59375 -8.8125 C 7.238281 -9.488281 6.695312 -9.828125 5.96875 -9.828125 C 5.476562 -9.828125 5.039062 -9.679688 4.65625 -9.390625 C 4.28125 -9.097656 3.925781 -8.695312 3.59375 -8.1875 L 3.59375 -2.609375 C 4.164062 -1.691406 4.898438 -1.234375 5.796875 -1.234375 Z M 5.796875 -1.234375 "/>
</g>
<g id="glyph-1-7">
<path d="M 6.234375 -11.296875 C 6.597656 -11.296875 6.914062 -11.253906 7.1875 -11.171875 L 6.859375 -9.34375 C 6.597656 -9.425781 6.3125 -9.46875 6 -9.46875 C 5.382812 -9.46875 4.882812 -9.222656 4.5 -8.734375 C 4.113281 -8.242188 3.8125 -7.492188 3.59375 -6.484375 L 3.59375 0 L 1.703125 0 L 1.703125 -11.046875 L 3.34375 -11.046875 L 3.484375 -8.859375 C 4.035156 -10.484375 4.953125 -11.296875 6.234375 -11.296875 Z M 6.234375 -11.296875 "/>
</g>
<g id="glyph-1-8">
<path d="M 5.546875 -11.3125 C 6.960938 -11.3125 8.0625 -10.816406 8.84375 -9.828125 C 9.625 -8.835938 10.015625 -7.410156 10.015625 -5.546875 C 10.015625 -3.753906 9.613281 -2.335938 8.8125 -1.296875 C 8.019531 -0.253906 6.921875 0.265625 5.515625 0.265625 C 4.109375 0.265625 3.007812 -0.242188 2.21875 -1.265625 C 1.425781 -2.285156 1.03125 -3.703125 1.03125 -5.515625 C 1.03125 -7.359375 1.425781 -8.785156 2.21875 -9.796875 C 3.019531 -10.804688 4.128906 -11.3125 5.546875 -11.3125 Z M 5.546875 -9.8125 C 4.722656 -9.8125 4.09375 -9.460938 3.65625 -8.765625 C 3.21875 -8.078125 3 -6.992188 3 -5.515625 C 3 -2.648438 3.835938 -1.21875 5.515625 -1.21875 C 7.203125 -1.21875 8.046875 -2.660156 8.046875 -5.546875 C 8.046875 -7.015625 7.832031 -8.09375 7.40625 -8.78125 C 6.988281 -9.46875 6.367188 -9.8125 5.546875 -9.8125 Z M 5.546875 -9.8125 "/>
</g>
<g id="glyph-1-9">
<path d="M 9.5625 -15.515625 L 9.5625 0 L 7.875 0 L 7.75 -1.453125 C 7.03125 -0.304688 6.070312 0.265625 4.875 0.265625 C 3.664062 0.265625 2.726562 -0.242188 2.0625 -1.265625 C 1.40625 -2.285156 1.078125 -3.691406 1.078125 -5.484375 C 1.078125 -6.640625 1.238281 -7.660156 1.5625 -8.546875 C 1.894531 -9.429688 2.359375 -10.113281 2.953125 -10.59375 C 3.554688 -11.070312 4.253906 -11.3125 5.046875 -11.3125 C 6.085938 -11.3125 6.960938 -10.875 7.671875 -10 L 7.671875 -15.734375 Z M 5.3125 -1.21875 C 5.8125 -1.21875 6.25 -1.359375 6.625 -1.640625 C 7 -1.921875 7.347656 -2.332031 7.671875 -2.875 L 7.671875 -8.421875 C 7.035156 -9.359375 6.296875 -9.828125 5.453125 -9.828125 C 4.710938 -9.828125 4.125 -9.46875 3.6875 -8.75 C 3.257812 -8.039062 3.050781 -6.960938 3.0625 -5.515625 C 3.0625 -4.046875 3.253906 -2.960938 3.640625 -2.265625 C 4.035156 -1.566406 4.59375 -1.21875 5.3125 -1.21875 Z M 5.3125 -1.21875 "/>
</g>
<g id="glyph-2-0">
<path d="M -22.046875 -11.40625 L 7.34375 -11.40625 L 7.34375 -2.578125 L -22.046875 -2.578125 Z M -20.953125 -10.265625 L -20.953125 -3.734375 L 6.265625 -3.734375 L 6.265625 -10.265625 Z M -9.46875 -6.796875 C -9.46875 -7.640625 -9.242188 -8.238281 -8.796875 -8.59375 C -8.347656 -8.957031 -7.769531 -9.140625 -7.0625 -9.140625 C -6.3125 -9.140625 -5.734375 -8.976562 -5.328125 -8.65625 C -4.921875 -8.34375 -4.671875 -7.835938 -4.578125 -7.140625 L -3.640625 -7.140625 C -3.484375 -7.140625 -3.359375 -7.085938 -3.265625 -6.984375 C -3.171875 -6.878906 -3.125 -6.753906 -3.125 -6.609375 C -3.125 -6.472656 -3.171875 -6.351562 -3.265625 -6.25 C -3.359375 -6.144531 -3.484375 -6.09375 -3.640625 -6.09375 L -5.390625 -6.09375 C -5.429688 -6.832031 -5.566406 -7.332031 -5.796875 -7.59375 C -6.035156 -7.863281 -6.441406 -8 -7.015625 -8 C -7.472656 -8 -7.828125 -7.90625 -8.078125 -7.71875 C -8.335938 -7.539062 -8.46875 -7.207031 -8.46875 -6.71875 C -8.46875 -6.3125 -8.390625 -5.945312 -8.234375 -5.625 C -8.191406 -5.507812 -8.171875 -5.421875 -8.171875 -5.359375 C -8.171875 -5.203125 -8.210938 -5.078125 -8.296875 -4.984375 C -8.390625 -4.890625 -8.507812 -4.84375 -8.65625 -4.84375 C -8.914062 -4.84375 -9.113281 -5.050781 -9.25 -5.46875 C -9.394531 -5.882812 -9.46875 -6.328125 -9.46875 -6.796875 Z M -2.515625 -6.609375 C -2.515625 -6.828125 -2.441406 -7.003906 -2.296875 -7.140625 C -2.160156 -7.273438 -1.988281 -7.34375 -1.78125 -7.34375 C -1.5625 -7.34375 -1.378906 -7.273438 -1.234375 -7.140625 C -1.085938 -7.003906 -1.015625 -6.828125 -1.015625 -6.609375 C -1.015625 -6.398438 -1.085938 -6.222656 -1.234375 -6.078125 C -1.378906 -5.941406 -1.5625 -5.875 -1.78125 -5.875 C -1.988281 -5.875 -2.160156 -5.941406 -2.296875 -6.078125 C -2.441406 -6.222656 -2.515625 -6.398438 -2.515625 -6.609375 Z M -2.515625 -6.609375 "/>
</g>
<g id="glyph-2-1">
<path d="M 0 -8.890625 L -3.671875 -7.921875 L -3.671875 -3.0625 L 0 -2.09375 L 0 -0.140625 L -14.453125 -4.328125 L -14.453125 -6.71875 L 0 -10.90625 Z M -5.203125 -3.46875 L -5.203125 -7.515625 L -12.890625 -5.5 Z M -5.203125 -3.46875 "/>
</g>
<g id="glyph-2-2">
<path d="M -11.046875 -9.15625 L 0 -5.859375 L 0 -3.59375 L -11.046875 -0.1875 L -11.046875 -2.15625 L -1.59375 -4.71875 L -11.046875 -7.265625 Z M -11.046875 -9.15625 "/>
</g>
<g id="glyph-2-3">
<path d="M -5.859375 -9.453125 C -5.566406 -9.453125 -5.238281 -9.4375 -4.875 -9.40625 L -4.875 -2.984375 C -3.582031 -3.035156 -2.648438 -3.289062 -2.078125 -3.75 C -1.515625 -4.21875 -1.234375 -4.851562 -1.234375 -5.65625 C -1.234375 -6.15625 -1.3125 -6.601562 -1.46875 -7 C -1.625 -7.40625 -1.875 -7.820312 -2.21875 -8.25 L -1.109375 -9.09375 C -0.191406 -8.050781 0.265625 -6.875 0.265625 -5.5625 C 0.265625 -4.125 -0.234375 -3.007812 -1.234375 -2.21875 C -2.234375 -1.425781 -3.632812 -1.03125 -5.4375 -1.03125 C -7.238281 -1.03125 -8.664062 -1.40625 -9.71875 -2.15625 C -10.78125 -2.914062 -11.3125 -3.96875 -11.3125 -5.3125 C -11.3125 -6.644531 -10.835938 -7.664062 -9.890625 -8.375 C -8.953125 -9.09375 -7.609375 -9.453125 -5.859375 -9.453125 Z M -6.421875 -7.625 C -8.734375 -7.625 -9.890625 -6.859375 -9.890625 -5.328125 C -9.890625 -4.628906 -9.597656 -4.078125 -9.015625 -3.671875 C -8.429688 -3.265625 -7.488281 -3.035156 -6.1875 -2.984375 L -6.1875 -7.625 Z M -6.421875 -7.625 "/>
</g>
<g id="glyph-2-4">
<path d="M -11.296875 -6.234375 C -11.296875 -6.597656 -11.253906 -6.914062 -11.171875 -7.1875 L -9.34375 -6.859375 C -9.425781 -6.597656 -9.46875 -6.3125 -9.46875 -6 C -9.46875 -5.382812 -9.222656 -4.882812 -8.734375 -4.5 C -8.242188 -4.113281 -7.492188 -3.8125 -6.484375 -3.59375 L 0 -3.59375 L 0 -1.703125 L -11.046875 -1.703125 L -11.046875 -3.34375 L -8.859375 -3.484375 C -10.484375 -4.035156 -11.296875 -4.953125 -11.296875 -6.234375 Z M -11.296875 -6.234375 "/>
</g>
<g id="glyph-2-5">
<path d="M -2.515625 -8.59375 C -2.066406 -8.59375 -1.734375 -8.65625 -1.515625 -8.78125 C -1.304688 -8.90625 -1.144531 -9.097656 -1.03125 -9.359375 L 0.25 -8.96875 C 0.164062 -8.414062 0 -7.984375 -0.25 -7.671875 C -0.5 -7.367188 -0.882812 -7.15625 -1.40625 -7.03125 C -0.289062 -6.320312 0.265625 -5.320312 0.265625 -4.03125 C 0.265625 -3.050781 -0.0351562 -2.273438 -0.640625 -1.703125 C -1.242188 -1.128906 -2.0625 -0.84375 -3.09375 -0.84375 C -4.257812 -0.84375 -5.148438 -1.226562 -5.765625 -2 C -6.390625 -2.769531 -6.703125 -3.867188 -6.703125 -5.296875 L -6.703125 -6.71875 L -7.640625 -6.71875 C -8.410156 -6.71875 -8.96875 -6.5625 -9.3125 -6.25 C -9.65625 -5.9375 -9.828125 -5.421875 -9.828125 -4.703125 C -9.828125 -3.929688 -9.628906 -3.035156 -9.234375 -2.015625 L -10.5625 -1.546875 C -11.0625 -2.785156 -11.3125 -3.9375 -11.3125 -5 C -11.3125 -7.394531 -10.117188 -8.59375 -7.734375 -8.59375 Z M -1.15625 -4.46875 C -1.15625 -5.445312 -1.726562 -6.195312 -2.875 -6.71875 L -5.484375 -6.71875 L -5.484375 -5.5 C -5.484375 -3.675781 -4.71875 -2.765625 -3.1875 -2.765625 C -2.53125 -2.765625 -2.023438 -2.910156 -1.671875 -3.203125 C -1.328125 -3.503906 -1.15625 -3.925781 -1.15625 -4.46875 Z M -1.15625 -4.46875 "/>
</g>
<g id="glyph-2-6">
<path d="M -10.640625 -9.8125 C -10.410156 -9.207031 -10.296875 -8.273438 -10.296875 -7.015625 C -9.703125 -8.191406 -8.734375 -8.78125 -7.390625 -8.78125 C -6.285156 -8.78125 -5.394531 -8.429688 -4.71875 -7.734375 C -4.039062 -7.046875 -3.703125 -6.101562 -3.703125 -4.90625 C -3.703125 -4.457031 -3.769531 -4.054688 -3.90625 -3.703125 C -3.625 -3.304688 -3.265625 -3.109375 -2.828125 -3.109375 C -2.171875 -3.109375 -1.84375 -3.570312 -1.84375 -4.5 L -1.84375 -5.9375 C -1.84375 -7.03125 -1.566406 -7.898438 -1.015625 -8.546875 C -0.460938 -9.191406 0.238281 -9.515625 1.09375 -9.515625 C 2.125 -9.515625 2.9375 -9.113281 3.53125 -8.3125 C 4.132812 -7.519531 4.4375 -6.351562 4.4375 -4.8125 C 4.4375 -3.21875 4.160156 -2.085938 3.609375 -1.421875 C 3.066406 -0.753906 2.234375 -0.421875 1.109375 -0.421875 L 1.109375 -2.125 C 1.578125 -2.125 1.945312 -2.203125 2.21875 -2.359375 C 2.488281 -2.523438 2.691406 -2.800781 2.828125 -3.1875 C 2.960938 -3.570312 3.03125 -4.117188 3.03125 -4.828125 C 3.03125 -5.828125 2.875 -6.539062 2.5625 -6.96875 C 2.25 -7.40625 1.804688 -7.625 1.234375 -7.625 C 0.703125 -7.625 0.296875 -7.441406 0.015625 -7.078125 C -0.265625 -6.722656 -0.40625 -6.21875 -0.40625 -5.5625 L -0.40625 -4.328125 C -0.40625 -3.359375 -0.585938 -2.632812 -0.953125 -2.15625 C -1.328125 -1.6875 -1.820312 -1.453125 -2.4375 -1.453125 C -3.144531 -1.453125 -3.78125 -1.835938 -4.34375 -2.609375 C -4.675781 -2.015625 -5.097656 -1.570312 -5.609375 -1.28125 C -6.128906 -1 -6.75 -0.859375 -7.46875 -0.859375 C -8.625 -0.859375 -9.550781 -1.222656 -10.25 -1.953125 C -10.945312 -2.679688 -11.296875 -3.640625 -11.296875 -4.828125 C -11.296875 -5.929688 -11.375 -6.785156 -11.53125 -7.390625 C -11.6875 -8.003906 -11.925781 -8.632812 -12.25 -9.28125 Z M -9.96875 -4.84375 C -9.96875 -4.164062 -9.753906 -3.644531 -9.328125 -3.28125 C -8.898438 -2.925781 -8.28125 -2.75 -7.46875 -2.75 C -6.6875 -2.75 -6.078125 -2.929688 -5.640625 -3.296875 C -5.203125 -3.671875 -4.984375 -4.1875 -4.984375 -4.84375 C -4.984375 -6.238281 -5.820312 -6.9375 -7.5 -6.9375 C -8.3125 -6.9375 -8.925781 -6.757812 -9.34375 -6.40625 C -9.757812 -6.050781 -9.96875 -5.53125 -9.96875 -4.84375 Z M -9.96875 -4.84375 "/>
</g>
<g id="glyph-2-7">
</g>
<g id="glyph-2-8">
<path d="M -14.453125 -10.375 L -5.5625 -6.21875 L 0 -6.21875 L 0 -4.234375 L -5.546875 -4.234375 L -14.453125 -0.078125 L -14.453125 -2.1875 L -7.21875 -5.265625 L -14.453125 -8.34375 Z M -14.453125 -10.375 "/>
</g>
</g>
<clipPath id="clip-0">
<path clip-rule="nonzero" d="M 54.105469 348 L 745.539062 348 L 745.539062 351 L 54.105469 351 Z M 54.105469 348 "/>
</clipPath>
<clipPath id="clip-1">
<path clip-rule="nonzero" d="M 54.105469 269 L 745.539062 269 L 745.539062 272 L 54.105469 272 Z M 54.105469 269 "/>
</clipPath>
<clipPath id="clip-2">
<path clip-rule="nonzero" d="M 54.105469 190 L 745.539062 190 L 745.539062 193 L 54.105469 193 Z M 54.105469 190 "/>
</clipPath>
<clipPath id="clip-3">
<path clip-rule="nonzero" d="M 54.105469 111 L 745.539062 111 L 745.539062 114 L 54.105469 114 Z M 54.105469 111 "/>
</clipPath>
<clipPath id="clip-4">
<path clip-rule="nonzero" d="M 54.105469 33 L 745.539062 33 L 745.539062 36 L 54.105469 36 Z M 54.105469 33 "/>
</clipPath>
<clipPath id="clip-5">
<path clip-rule="nonzero" d="M 84 10.460938 L 87 10.460938 L 87 383.769531 L 84 383.769531 Z M 84 10.460938 "/>
</clipPath>
<clipPath id="clip-6">
<path clip-rule="nonzero" d="M 154 10.460938 L 157 10.460938 L 157 383.769531 L 154 383.769531 Z M 154 10.460938 "/>
</clipPath>
<clipPath id="clip-7">
<path clip-rule="nonzero" d="M 224 10.460938 L 227 10.460938 L 227 383.769531 L 224 383.769531 Z M 224 10.460938 "/>
</clipPath>
<clipPath id="clip-8">
<path clip-rule="nonzero" d="M 294 10.460938 L 297 10.460938 L 297 383.769531 L 294 383.769531 Z M 294 10.460938 "/>
</clipPath>
<clipPath id="clip-9">
<path clip-rule="nonzero" d="M 363 10.460938 L 366 10.460938 L 366 383.769531 L 363 383.769531 Z M 363 10.460938 "/>
</clipPath>
<clipPath id="clip-10">
<path clip-rule="nonzero" d="M 433 10.460938 L 436 10.460938 L 436 383.769531 L 433 383.769531 Z M 433 10.460938 "/>
</clipPath>
<clipPath id="clip-11">
<path clip-rule="nonzero" d="M 503 10.460938 L 506 10.460938 L 506 383.769531 L 503 383.769531 Z M 503 10.460938 "/>
</clipPath>
<clipPath id="clip-12">
<path clip-rule="nonzero" d="M 573 10.460938 L 576 10.460938 L 576 383.769531 L 573 383.769531 Z M 573 10.460938 "/>
</clipPath>
<clipPath id="clip-13">
<path clip-rule="nonzero" d="M 643 10.460938 L 646 10.460938 L 646 383.769531 L 643 383.769531 Z M 643 10.460938 "/>
</clipPath>
<clipPath id="clip-14">
<path clip-rule="nonzero" d="M 713 10.460938 L 716 10.460938 L 716 383.769531 L 713 383.769531 Z M 713 10.460938 "/>
</clipPath>
<clipPath id="clip-15">
<path clip-rule="nonzero" d="M 398 10.460938 L 401 10.460938 L 401 383.769531 L 398 383.769531 Z M 398 10.460938 "/>
</clipPath>
<clipPath id="clip-16">
<path clip-rule="nonzero" d="M 160 266 L 290 266 L 290 383.769531 L 160 383.769531 Z M 160 266 "/>
</clipPath>
</defs>
<rect x="-75.6" y="-50.4" width="907.2" height="604.8" fill="rgb(100%, 100%, 100%)" fill-opacity="1"/>
<rect x="-75.6" y="-50.4" width="907.2" height="604.8" fill="rgb(100%, 100%, 100%)" fill-opacity="1"/>
<g clip-path="url(#clip-0)">
<path fill="none" stroke-width="2.036959" stroke-linecap="butt" stroke-linejoin="round" stroke="rgb(92.156863%, 92.156863%, 92.156863%)" stroke-opacity="1" stroke-miterlimit="10" d="M 54.105469 349.332031 L 745.539062 349.332031 "/>
</g>
<g clip-path="url(#clip-1)">
<path fill="none" stroke-width="2.036959" stroke-linecap="butt" stroke-linejoin="round" stroke="rgb(92.156863%, 92.156863%, 92.156863%)" stroke-opacity="1" stroke-miterlimit="10" d="M 54.105469 270.527344 L 745.539062 270.527344 "/>
</g>
<g clip-path="url(#clip-2)">
<path fill="none" stroke-width="2.036959" stroke-linecap="butt" stroke-linejoin="round" stroke="rgb(92.156863%, 92.156863%, 92.156863%)" stroke-opacity="1" stroke-miterlimit="10" d="M 54.105469 191.726562 L 745.539062 191.726562 "/>
</g>
<g clip-path="url(#clip-3)">
<path fill="none" stroke-width="2.036959" stroke-linecap="butt" stroke-linejoin="round" stroke="rgb(92.156863%, 92.156863%, 92.156863%)" stroke-opacity="1" stroke-miterlimit="10" d="M 54.105469 112.921875 L 745.539062 112.921875 "/>
</g>
<g clip-path="url(#clip-4)">
<path fill="none" stroke-width="2.036959" stroke-linecap="butt" stroke-linejoin="round" stroke="rgb(92.156863%, 92.156863%, 92.156863%)" stroke-opacity="1" stroke-miterlimit="10" d="M 54.105469 34.117188 L 745.539062 34.117188 "/>
</g>
<g clip-path="url(#clip-5)">
<path fill="none" stroke-width="2.036959" stroke-linecap="butt" stroke-linejoin="round" stroke="rgb(92.156863%, 92.156863%, 92.156863%)" stroke-opacity="1" stroke-miterlimit="10" d="M 85.535156 383.769531 L 85.535156 10.460938 "/>
</g>
<g clip-path="url(#clip-6)">
<path fill="none" stroke-width="2.036959" stroke-linecap="butt" stroke-linejoin="round" stroke="rgb(92.156863%, 92.156863%, 92.156863%)" stroke-opacity="1" stroke-miterlimit="10" d="M 155.375 383.769531 L 155.375 10.460938 "/>
</g>
<g clip-path="url(#clip-7)">
<path fill="none" stroke-width="2.036959" stroke-linecap="butt" stroke-linejoin="round" stroke="rgb(92.156863%, 92.156863%, 92.156863%)" stroke-opacity="1" stroke-miterlimit="10" d="M 225.21875 383.769531 L 225.21875 10.460938 "/>
</g>
<g clip-path="url(#clip-8)">
<path fill="none" stroke-width="2.036959" stroke-linecap="butt" stroke-linejoin="round" stroke="rgb(92.156863%, 92.156863%, 92.156863%)" stroke-opacity="1" stroke-miterlimit="10" d="M 295.058594 383.769531 L 295.058594 10.460938 "/>
</g>
<g clip-path="url(#clip-9)">
<path fill="none" stroke-width="2.036959" stroke-linecap="butt" stroke-linejoin="round" stroke="rgb(92.156863%, 92.156863%, 92.156863%)" stroke-opacity="1" stroke-miterlimit="10" d="M 364.902344 383.769531 L 364.902344 10.460938 "/>
</g>
<g clip-path="url(#clip-10)">
<path fill="none" stroke-width="2.036959" stroke-linecap="butt" stroke-linejoin="round" stroke="rgb(92.156863%, 92.156863%, 92.156863%)" stroke-opacity="1" stroke-miterlimit="10" d="M 434.742188 383.769531 L 434.742188 10.460938 "/>
</g>
<g clip-path="url(#clip-11)">
<path fill="none" stroke-width="2.036959" stroke-linecap="butt" stroke-linejoin="round" stroke="rgb(92.156863%, 92.156863%, 92.156863%)" stroke-opacity="1" stroke-miterlimit="10" d="M 504.585938 383.769531 L 504.585938 10.460938 "/>
</g>
<g clip-path="url(#clip-12)">
<path fill="none" stroke-width="2.036959" stroke-linecap="butt" stroke-linejoin="round" stroke="rgb(92.156863%, 92.156863%, 92.156863%)" stroke-opacity="1" stroke-miterlimit="10" d="M 574.425781 383.769531 L 574.425781 10.460938 "/>
</g>
<g clip-path="url(#clip-13)">
<path fill="none" stroke-width="2.036959" stroke-linecap="butt" stroke-linejoin="round" stroke="rgb(92.156863%, 92.156863%, 92.156863%)" stroke-opacity="1" stroke-miterlimit="10" d="M 644.269531 383.769531 L 644.269531 10.460938 "/>
</g>
<g clip-path="url(#clip-14)">
<path fill="none" stroke-width="2.036959" stroke-linecap="butt" stroke-linejoin="round" stroke="rgb(92.156863%, 92.156863%, 92.156863%)" stroke-opacity="1" stroke-miterlimit="10" d="M 714.109375 383.769531 L 714.109375 10.460938 "/>
</g>
<g clip-path="url(#clip-15)">
<path fill="none" stroke-width="2.036959" stroke-linecap="butt" stroke-linejoin="round" stroke="rgb(49.803922%, 49.803922%, 49.803922%)" stroke-opacity="1" stroke-dasharray="8.147835 8.147835" stroke-miterlimit="10" d="M 399.824219 383.769531 L 399.824219 10.460938 "/>
</g>
<path fill="none" stroke-width="2.774144" stroke-linecap="butt" stroke-linejoin="round" stroke="rgb(77.254902%, 74.509804%, 91.372549%)" stroke-opacity="0.14902" stroke-miterlimit="10" d="M 85.535156 339.78125 L 155.375 319.308594 L 225.21875 366.800781 L 295.058594 318.195312 L 364.902344 338.976562 L 434.742188 292.722656 L 504.585938 333.53125 L 574.425781 295.859375 L 644.269531 281.640625 L 714.109375 338.75 "/>
<path fill="none" stroke-width="2.774144" stroke-linecap="butt" stroke-linejoin="round" stroke="rgb(41.568627%, 35.294118%, 80.392157%)" stroke-opacity="0.14902" stroke-miterlimit="10" d="M 85.535156 275.199219 L 155.375 300.003906 L 225.21875 262.050781 L 295.058594 268.164062 L 364.902344 254.089844 L 434.742188 209.445312 L 504.585938 125.128906 L 574.425781 107.511719 L 644.269531 61.207031 L 714.109375 27.429688 "/>
<path fill-rule="nonzero" fill="rgb(77.254902%, 74.509804%, 91.372549%)" fill-opacity="0.14902" stroke-width="1.352899" stroke-linecap="round" stroke-linejoin="round" stroke="rgb(77.254902%, 74.509804%, 91.372549%)" stroke-opacity="0.14902" stroke-miterlimit="10" d="M 89.09375 339.78125 C 89.09375 344.523438 81.976562 344.523438 81.976562 339.78125 C 81.976562 335.035156 89.09375 335.035156 89.09375 339.78125 "/>
<path fill-rule="nonzero" fill="rgb(77.254902%, 74.509804%, 91.372549%)" fill-opacity="0.14902" stroke-width="1.352899" stroke-linecap="round" stroke-linejoin="round" stroke="rgb(77.254902%, 74.509804%, 91.372549%)" stroke-opacity="0.14902" stroke-miterlimit="10" d="M 158.933594 319.308594 C 158.933594 324.050781 151.820312 324.050781 151.820312 319.308594 C 151.820312 314.566406 158.933594 314.566406 158.933594 319.308594 "/>
<path fill-rule="nonzero" fill="rgb(77.254902%, 74.509804%, 91.372549%)" fill-opacity="0.14902" stroke-width="1.352899" stroke-linecap="round" stroke-linejoin="round" stroke="rgb(77.254902%, 74.509804%, 91.372549%)" stroke-opacity="0.14902" stroke-miterlimit="10" d="M 228.777344 366.800781 C 228.777344 371.546875 221.660156 371.546875 221.660156 366.800781 C 221.660156 362.058594 228.777344 362.058594 228.777344 366.800781 "/>
<path fill-rule="nonzero" fill="rgb(77.254902%, 74.509804%, 91.372549%)" fill-opacity="0.14902" stroke-width="1.352899" stroke-linecap="round" stroke-linejoin="round" stroke="rgb(77.254902%, 74.509804%, 91.372549%)" stroke-opacity="0.14902" stroke-miterlimit="10" d="M 298.617188 318.195312 C 298.617188 322.9375 291.503906 322.9375 291.503906 318.195312 C 291.503906 313.453125 298.617188 313.453125 298.617188 318.195312 "/>
<path fill-rule="nonzero" fill="rgb(77.254902%, 74.509804%, 91.372549%)" fill-opacity="0.14902" stroke-width="1.352899" stroke-linecap="round" stroke-linejoin="round" stroke="rgb(77.254902%, 74.509804%, 91.372549%)" stroke-opacity="0.14902" stroke-miterlimit="10" d="M 368.457031 338.976562 C 368.457031 343.71875 361.34375 343.71875 361.34375 338.976562 C 361.34375 334.234375 368.457031 334.234375 368.457031 338.976562 "/>
<path fill-rule="nonzero" fill="rgb(77.254902%, 74.509804%, 91.372549%)" fill-opacity="0.14902" stroke-width="1.352899" stroke-linecap="round" stroke-linejoin="round" stroke="rgb(77.254902%, 74.509804%, 91.372549%)" stroke-opacity="0.14902" stroke-miterlimit="10" d="M 438.300781 292.722656 C 438.300781 297.464844 431.1875 297.464844 431.1875 292.722656 C 431.1875 287.976562 438.300781 287.976562 438.300781 292.722656 "/>
<path fill-rule="nonzero" fill="rgb(77.254902%, 74.509804%, 91.372549%)" fill-opacity="0.14902" stroke-width="1.352899" stroke-linecap="round" stroke-linejoin="round" stroke="rgb(77.254902%, 74.509804%, 91.372549%)" stroke-opacity="0.14902" stroke-miterlimit="10" d="M 508.140625 333.53125 C 508.140625 338.273438 501.027344 338.273438 501.027344 333.53125 C 501.027344 328.789062 508.140625 328.789062 508.140625 333.53125 "/>
<path fill-rule="nonzero" fill="rgb(77.254902%, 74.509804%, 91.372549%)" fill-opacity="0.14902" stroke-width="1.352899" stroke-linecap="round" stroke-linejoin="round" stroke="rgb(77.254902%, 74.509804%, 91.372549%)" stroke-opacity="0.14902" stroke-miterlimit="10" d="M 577.984375 295.859375 C 577.984375 300.601562 570.871094 300.601562 570.871094 295.859375 C 570.871094 291.113281 577.984375 291.113281 577.984375 295.859375 "/>
<path fill-rule="nonzero" fill="rgb(77.254902%, 74.509804%, 91.372549%)" fill-opacity="0.14902" stroke-width="1.352899" stroke-linecap="round" stroke-linejoin="round" stroke="rgb(77.254902%, 74.509804%, 91.372549%)" stroke-opacity="0.14902" stroke-miterlimit="10" d="M 647.824219 281.640625 C 647.824219 286.382812 640.710938 286.382812 640.710938 281.640625 C 640.710938 276.898438 647.824219 276.898438 647.824219 281.640625 "/>
<path fill-rule="nonzero" fill="rgb(77.254902%, 74.509804%, 91.372549%)" fill-opacity="0.14902" stroke-width="1.352899" stroke-linecap="round" stroke-linejoin="round" stroke="rgb(77.254902%, 74.509804%, 91.372549%)" stroke-opacity="0.14902" stroke-miterlimit="10" d="M 717.667969 338.75 C 717.667969 343.492188 710.554688 343.492188 710.554688 338.75 C 710.554688 334.007812 717.667969 334.007812 717.667969 338.75 "/>
<path fill-rule="nonzero" fill="rgb(41.568627%, 35.294118%, 80.392157%)" fill-opacity="0.14902" stroke-width="1.352899" stroke-linecap="round" stroke-linejoin="round" stroke="rgb(41.568627%, 35.294118%, 80.392157%)" stroke-opacity="0.14902" stroke-miterlimit="10" d="M 89.09375 275.199219 C 89.09375 279.945312 81.976562 279.945312 81.976562 275.199219 C 81.976562 270.457031 89.09375 270.457031 89.09375 275.199219 "/>
<path fill-rule="nonzero" fill="rgb(41.568627%, 35.294118%, 80.392157%)" fill-opacity="0.14902" stroke-width="1.352899" stroke-linecap="round" stroke-linejoin="round" stroke="rgb(41.568627%, 35.294118%, 80.392157%)" stroke-opacity="0.14902" stroke-miterlimit="10" d="M 158.933594 300.003906 C 158.933594 304.746094 151.820312 304.746094 151.820312 300.003906 C 151.820312 295.261719 158.933594 295.261719 158.933594 300.003906 "/>
<path fill-rule="nonzero" fill="rgb(41.568627%, 35.294118%, 80.392157%)" fill-opacity="0.14902" stroke-width="1.352899" stroke-linecap="round" stroke-linejoin="round" stroke="rgb(41.568627%, 35.294118%, 80.392157%)" stroke-opacity="0.14902" stroke-miterlimit="10" d="M 228.777344 262.050781 C 228.777344 266.792969 221.660156 266.792969 221.660156 262.050781 C 221.660156 257.308594 228.777344 257.308594 228.777344 262.050781 "/>
<path fill-rule="nonzero" fill="rgb(41.568627%, 35.294118%, 80.392157%)" fill-opacity="0.14902" stroke-width="1.352899" stroke-linecap="round" stroke-linejoin="round" stroke="rgb(41.568627%, 35.294118%, 80.392157%)" stroke-opacity="0.14902" stroke-miterlimit="10" d="M 298.617188 268.164062 C 298.617188 272.90625 291.503906 272.90625 291.503906 268.164062 C 291.503906 263.421875 298.617188 263.421875 298.617188 268.164062 "/>
<path fill-rule="nonzero" fill="rgb(41.568627%, 35.294118%, 80.392157%)" fill-opacity="0.14902" stroke-width="1.352899" stroke-linecap="round" stroke-linejoin="round" stroke="rgb(41.568627%, 35.294118%, 80.392157%)" stroke-opacity="0.14902" stroke-miterlimit="10" d="M 368.457031 254.089844 C 368.457031 258.832031 361.34375 258.832031 361.34375 254.089844 C 361.34375 249.34375 368.457031 249.34375 368.457031 254.089844 "/>
<path fill-rule="nonzero" fill="rgb(41.568627%, 35.294118%, 80.392157%)" fill-opacity="0.14902" stroke-width="1.352899" stroke-linecap="round" stroke-linejoin="round" stroke="rgb(41.568627%, 35.294118%, 80.392157%)" stroke-opacity="0.14902" stroke-miterlimit="10" d="M 438.300781 209.445312 C 438.300781 214.1875 431.1875 214.1875 431.1875 209.445312 C 431.1875 204.699219 438.300781 204.699219 438.300781 209.445312 "/>
<path fill-rule="nonzero" fill="rgb(41.568627%, 35.294118%, 80.392157%)" fill-opacity="0.14902" stroke-width="1.352899" stroke-linecap="round" stroke-linejoin="round" stroke="rgb(41.568627%, 35.294118%, 80.392157%)" stroke-opacity="0.14902" stroke-miterlimit="10" d="M 508.140625 125.128906 C 508.140625 129.875 501.027344 129.875 501.027344 125.128906 C 501.027344 120.386719 508.140625 120.386719 508.140625 125.128906 "/>
<path fill-rule="nonzero" fill="rgb(41.568627%, 35.294118%, 80.392157%)" fill-opacity="0.14902" stroke-width="1.352899" stroke-linecap="round" stroke-linejoin="round" stroke="rgb(41.568627%, 35.294118%, 80.392157%)" stroke-opacity="0.14902" stroke-miterlimit="10" d="M 577.984375 107.511719 C 577.984375 112.257812 570.871094 112.257812 570.871094 107.511719 C 570.871094 102.769531 577.984375 102.769531 577.984375 107.511719 "/>
<path fill-rule="nonzero" fill="rgb(41.568627%, 35.294118%, 80.392157%)" fill-opacity="0.14902" stroke-width="1.352899" stroke-linecap="round" stroke-linejoin="round" stroke="rgb(41.568627%, 35.294118%, 80.392157%)" stroke-opacity="0.14902" stroke-miterlimit="10" d="M 647.824219 61.207031 C 647.824219 65.949219 640.710938 65.949219 640.710938 61.207031 C 640.710938 56.464844 647.824219 56.464844 647.824219 61.207031 "/>
<path fill-rule="nonzero" fill="rgb(41.568627%, 35.294118%, 80.392157%)" fill-opacity="0.14902" stroke-width="1.352899" stroke-linecap="round" stroke-linejoin="round" stroke="rgb(41.568627%, 35.294118%, 80.392157%)" stroke-opacity="0.14902" stroke-miterlimit="10" d="M 717.667969 27.429688 C 717.667969 32.171875 710.554688 32.171875 710.554688 27.429688 C 710.554688 22.6875 717.667969 22.6875 717.667969 27.429688 "/>
<path fill="none" stroke-width="2.774144" stroke-linecap="butt" stroke-linejoin="round" stroke="rgb(77.254902%, 74.509804%, 91.372549%)" stroke-opacity="1" stroke-miterlimit="10" d="M 85.535156 336.613281 L 364.902344 336.613281 "/>
<path fill="none" stroke-width="2.774144" stroke-linecap="butt" stroke-linejoin="round" stroke="rgb(41.568627%, 35.294118%, 80.392157%)" stroke-opacity="1" stroke-miterlimit="10" d="M 85.535156 271.902344 L 364.902344 271.902344 "/>
<path fill="none" stroke-width="2.774144" stroke-linecap="butt" stroke-linejoin="round" stroke="rgb(77.254902%, 74.509804%, 91.372549%)" stroke-opacity="1" stroke-miterlimit="10" d="M 434.742188 308.5 L 714.109375 308.5 "/>
<path fill="none" stroke-width="2.774144" stroke-linecap="butt" stroke-linejoin="round" stroke="rgb(41.568627%, 35.294118%, 80.392157%)" stroke-opacity="1" stroke-miterlimit="10" d="M 434.742188 106.144531 L 714.109375 106.144531 "/>
<path fill="none" stroke-width="4.054518" stroke-linecap="butt" stroke-linejoin="miter" stroke="rgb(97.254902%, 81.960784%, 58.039216%)" stroke-opacity="1" stroke-miterlimit="10" d="M 225.21875 336.613281 L 225.21875 271.902344 "/>
<g clip-path="url(#clip-16)">
<path fill="none" stroke-width="4.054518" stroke-linecap="butt" stroke-linejoin="miter" stroke="rgb(97.254902%, 81.960784%, 58.039216%)" stroke-opacity="1" stroke-miterlimit="10" d="M 218.019531 324.140625 L 225.21875 336.613281 L 232.417969 324.140625 "/>
</g>
<path fill="none" stroke-width="4.054518" stroke-linecap="butt" stroke-linejoin="miter" stroke="rgb(97.254902%, 81.960784%, 58.039216%)" stroke-opacity="1" stroke-miterlimit="10" d="M 232.417969 284.371094 L 225.21875 271.902344 L 218.019531 284.371094 "/>
<path fill="none" stroke-width="4.054518" stroke-linecap="butt" stroke-linejoin="miter" stroke="rgb(100%, 64.705882%, 0%)" stroke-opacity="1" stroke-miterlimit="10" d="M 574.425781 308.5 L 574.425781 106.144531 "/>
<path fill="none" stroke-width="4.054518" stroke-linecap="butt" stroke-linejoin="miter" stroke="rgb(100%, 64.705882%, 0%)" stroke-opacity="1" stroke-miterlimit="10" d="M 567.226562 296.03125 L 574.425781 308.5 L 581.625 296.03125 "/>
<path fill="none" stroke-width="4.054518" stroke-linecap="butt" stroke-linejoin="miter" stroke="rgb(100%, 64.705882%, 0%)" stroke-opacity="1" stroke-miterlimit="10" d="M 581.625 118.617188 L 574.425781 106.144531 L 567.226562 118.617188 "/>
<g fill="rgb(30.196078%, 30.196078%, 30.196078%)" fill-opacity="1">
<use xlink:href="#glyph-0-1" x="35.691406" y="355.040039"/>
</g>
<g fill="rgb(30.196078%, 30.196078%, 30.196078%)" fill-opacity="1">
<use xlink:href="#glyph-0-2" x="37.691406" y="276.235352"/>
</g>
<g fill="rgb(30.196078%, 30.196078%, 30.196078%)" fill-opacity="1">
<use xlink:href="#glyph-0-3" x="36.691406" y="197.43457"/>
</g>
<g fill="rgb(30.196078%, 30.196078%, 30.196078%)" fill-opacity="1">
<use xlink:href="#glyph-0-4" x="36.691406" y="118.629883"/>
</g>
<g fill="rgb(30.196078%, 30.196078%, 30.196078%)" fill-opacity="1">
<use xlink:href="#glyph-0-5" x="36.691406" y="39.825195"/>
</g>
<g fill="rgb(30.196078%, 30.196078%, 30.196078%)" fill-opacity="1">
<use xlink:href="#glyph-0-6" x="82.035156" y="404.895508"/>
</g>
<g fill="rgb(30.196078%, 30.196078%, 30.196078%)" fill-opacity="1">
<use xlink:href="#glyph-0-2" x="151.875" y="404.895508"/>
</g>
<g fill="rgb(30.196078%, 30.196078%, 30.196078%)" fill-opacity="1">
<use xlink:href="#glyph-0-7" x="221.21875" y="404.895508"/>
</g>
<g fill="rgb(30.196078%, 30.196078%, 30.196078%)" fill-opacity="1">
<use xlink:href="#glyph-0-3" x="291.058594" y="404.895508"/>
</g>
<g fill="rgb(30.196078%, 30.196078%, 30.196078%)" fill-opacity="1">
<use xlink:href="#glyph-0-8" x="360.902344" y="404.895508"/>
</g>
<g fill="rgb(30.196078%, 30.196078%, 30.196078%)" fill-opacity="1">
<use xlink:href="#glyph-0-4" x="430.742188" y="404.895508"/>
</g>
<g fill="rgb(30.196078%, 30.196078%, 30.196078%)" fill-opacity="1">
<use xlink:href="#glyph-0-9" x="501.085938" y="404.895508"/>
</g>
<g fill="rgb(30.196078%, 30.196078%, 30.196078%)" fill-opacity="1">
<use xlink:href="#glyph-0-5" x="570.425781" y="404.895508"/>
</g>
<g fill="rgb(30.196078%, 30.196078%, 30.196078%)" fill-opacity="1">
<use xlink:href="#glyph-0-10" x="640.269531" y="404.895508"/>
</g>
<g fill="rgb(30.196078%, 30.196078%, 30.196078%)" fill-opacity="1">
<use xlink:href="#glyph-0-6" x="706.109375" y="404.895508"/>
<use xlink:href="#glyph-0-1" x="713.109375" y="404.895508"/>
</g>
<g fill="rgb(0%, 0%, 0%)" fill-opacity="1">
<use xlink:href="#glyph-1-1" x="349.324219" y="429.052734"/>
<use xlink:href="#glyph-1-2" x="359.324219" y="429.052734"/>
<use xlink:href="#glyph-1-3" x="364.324219" y="429.052734"/>
<use xlink:href="#glyph-1-4" x="380.324219" y="429.052734"/>
<use xlink:href="#glyph-1-5" x="390.324219" y="429.052734"/>
<use xlink:href="#glyph-1-6" x="395.324219" y="429.052734"/>
<use xlink:href="#glyph-1-4" x="406.324219" y="429.052734"/>
<use xlink:href="#glyph-1-7" x="416.324219" y="429.052734"/>
<use xlink:href="#glyph-1-2" x="423.324219" y="429.052734"/>
<use xlink:href="#glyph-1-8" x="428.324219" y="429.052734"/>
<use xlink:href="#glyph-1-9" x="439.324219" y="429.052734"/>
</g>
<g fill="rgb(0%, 0%, 0%)" fill-opacity="1">
<use xlink:href="#glyph-2-1" x="25.095703" y="238.117188"/>
<use xlink:href="#glyph-2-2" x="25.095703" y="227.117188"/>
<use xlink:href="#glyph-2-3" x="25.095703" y="218.117188"/>
<use xlink:href="#glyph-2-4" x="25.095703" y="208.117188"/>
<use xlink:href="#glyph-2-5" x="25.095703" y="201.117188"/>
<use xlink:href="#glyph-2-6" x="25.095703" y="191.117188"/>
<use xlink:href="#glyph-2-3" x="25.095703" y="181.117188"/>
<use xlink:href="#glyph-2-7" x="25.095703" y="171.117188"/>
<use xlink:href="#glyph-2-8" x="25.095703" y="166.117188"/>
</g>
<path fill="none" stroke-width="2.774144" stroke-linecap="butt" stroke-linejoin="round" stroke="rgb(77.254902%, 74.509804%, 91.372549%)" stroke-opacity="0.14902" stroke-miterlimit="10" d="M 319.078125 474.4375 L 332.902344 474.4375 "/>
<path fill-rule="nonzero" fill="rgb(77.254902%, 74.509804%, 91.372549%)" fill-opacity="0.14902" stroke-width="1.352899" stroke-linecap="round" stroke-linejoin="round" stroke="rgb(77.254902%, 74.509804%, 91.372549%)" stroke-opacity="0.14902" stroke-miterlimit="10" d="M 329.546875 474.4375 C 329.546875 479.179688 322.433594 479.179688 322.433594 474.4375 C 322.433594 469.695312 329.546875 469.695312 329.546875 474.4375 "/>
<path fill="none" stroke-width="2.774144" stroke-linecap="butt" stroke-linejoin="round" stroke="rgb(77.254902%, 74.509804%, 91.372549%)" stroke-opacity="1" stroke-miterlimit="10" d="M 319.078125 474.4375 L 332.902344 474.4375 "/>
<path fill="none" stroke-width="2.774144" stroke-linecap="butt" stroke-linejoin="round" stroke="rgb(41.568627%, 35.294118%, 80.392157%)" stroke-opacity="0.14902" stroke-miterlimit="10" d="M 406.28125 474.4375 L 420.105469 474.4375 "/>
<path fill-rule="nonzero" fill="rgb(41.568627%, 35.294118%, 80.392157%)" fill-opacity="0.14902" stroke-width="1.352899" stroke-linecap="round" stroke-linejoin="round" stroke="rgb(41.568627%, 35.294118%, 80.392157%)" stroke-opacity="0.14902" stroke-miterlimit="10" d="M 416.75 474.4375 C 416.75 479.179688 409.636719 479.179688 409.636719 474.4375 C 409.636719 469.695312 416.75 469.695312 416.75 474.4375 "/>
<path fill="none" stroke-width="2.774144" stroke-linecap="butt" stroke-linejoin="round" stroke="rgb(41.568627%, 35.294118%, 80.392157%)" stroke-opacity="1" stroke-miterlimit="10" d="M 406.28125 474.4375 L 420.105469 474.4375 "/>
<g fill="rgb(0%, 0%, 0%)" fill-opacity="1">
<use xlink:href="#glyph-0-11" x="345.09375" y="480.145508"/>
<use xlink:href="#glyph-0-12" x="353.09375" y="480.145508"/>
<use xlink:href="#glyph-0-13" x="362.09375" y="480.145508"/>
<use xlink:href="#glyph-0-14" x="371.09375" y="480.145508"/>
<use xlink:href="#glyph-0-15" x="376.09375" y="480.145508"/>
<use xlink:href="#glyph-0-12" x="381.09375" y="480.145508"/>
<use xlink:href="#glyph-0-16" x="390.09375" y="480.145508"/>
</g>
<g fill="rgb(0%, 0%, 0%)" fill-opacity="1">
<use xlink:href="#glyph-0-17" x="432.292969" y="480.145508"/>
<use xlink:href="#glyph-0-15" x="439.292969" y="480.145508"/>
<use xlink:href="#glyph-0-18" x="444.292969" y="480.145508"/>
<use xlink:href="#glyph-0-19" x="452.292969" y="480.145508"/>
<use xlink:href="#glyph-0-14" x="460.292969" y="480.145508"/>
<use xlink:href="#glyph-0-18" x="465.292969" y="480.145508"/>
<use xlink:href="#glyph-0-20" x="473.292969" y="480.145508"/>
</g>
</svg>
