<?xml version="1.0" encoding="UTF-8"?>
<svg xmlns="http://www.w3.org/2000/svg" xmlns:xlink="http://www.w3.org/1999/xlink" width="756" height="504" viewBox="0 0 756 504">
<defs>
<g>
<g id="glyph-0-0">
<path d="M 9.125 -17.640625 L 9.125 5.875 L 2.0625 5.875 L 2.0625 -17.640625 Z M 8.21875 -16.765625 L 2.984375 -16.765625 L 2.984375 5 L 8.21875 5 Z M 5.4375 -7.578125 C 6.113281 -7.578125 6.59375 -7.394531 6.875 -7.03125 C 7.164062 -6.675781 7.3125 -6.210938 7.3125 -5.640625 C 7.3125 -5.046875 7.179688 -4.585938 6.921875 -4.265625 C 6.671875 -3.941406 6.265625 -3.738281 5.703125 -3.65625 L 5.703125 -2.90625 C 5.703125 -2.78125 5.660156 -2.679688 5.578125 -2.609375 C 5.492188 -2.535156 5.398438 -2.5 5.296875 -2.5 C 5.179688 -2.5 5.082031 -2.535156 5 -2.609375 C 4.914062 -2.679688 4.875 -2.78125 4.875 -2.90625 L 4.875 -4.3125 C 5.46875 -4.34375 5.867188 -4.453125 6.078125 -4.640625 C 6.296875 -4.828125 6.40625 -5.148438 6.40625 -5.609375 C 6.40625 -5.984375 6.332031 -6.269531 6.1875 -6.46875 C 6.039062 -6.664062 5.769531 -6.765625 5.375 -6.765625 C 5.050781 -6.765625 4.757812 -6.703125 4.5 -6.578125 C 4.40625 -6.546875 4.332031 -6.53125 4.28125 -6.53125 C 4.15625 -6.53125 4.054688 -6.566406 3.984375 -6.640625 C 3.910156 -6.710938 3.875 -6.804688 3.875 -6.921875 C 3.875 -7.128906 4.039062 -7.289062 4.375 -7.40625 C 4.707031 -7.519531 5.0625 -7.578125 5.4375 -7.578125 Z M 5.296875 -2.015625 C 5.460938 -2.015625 5.597656 -1.957031 5.703125 -1.84375 C 5.816406 -1.726562 5.875 -1.585938 5.875 -1.421875 C 5.875 -1.242188 5.816406 -1.097656 5.703125 -0.984375 C 5.597656 -0.867188 5.460938 -0.8125 5.296875 -0.8125 C 5.117188 -0.8125 4.972656 -0.867188 4.859375 -0.984375 C 4.753906 -1.097656 4.703125 -1.242188 4.703125 -1.421875 C 4.703125 -1.585938 4.753906 -1.726562 4.859375 -1.84375 C 4.972656 -1.957031 5.117188 -2.015625 5.296875 -2.015625 Z M 5.296875 -2.015625 "/>
</g>
<g id="glyph-0-1">
<path d="M 7.6875 -3.984375 L 7.6875 -2.765625 L 6.421875 -2.765625 L 6.421875 0 L 4.96875 0 L 4.96875 -2.765625 L 0.578125 -2.765625 L 0.578125 -3.859375 L 3.578125 -11.4375 L 4.859375 -10.953125 L 2.109375 -3.984375 L 4.984375 -3.984375 L 5.140625 -7.03125 L 6.421875 -7.03125 L 6.421875 -3.984375 Z M 7.6875 -3.984375 "/>
</g>
<g id="glyph-0-2">
<path d="M 4.390625 -11.421875 C 5.515625 -11.421875 6.367188 -10.929688 6.953125 -9.953125 C 7.535156 -8.984375 7.828125 -7.535156 7.828125 -5.609375 C 7.828125 -3.660156 7.535156 -2.203125 6.953125 -1.234375 C 6.367188 -0.265625 5.515625 0.21875 4.390625 0.21875 C 3.242188 0.21875 2.378906 -0.265625 1.796875 -1.234375 C 1.210938 -2.210938 0.921875 -3.671875 0.921875 -5.609375 C 0.921875 -9.484375 2.078125 -11.421875 4.390625 -11.421875 Z M 4.390625 -10.25 C 3.734375 -10.25 3.25 -9.890625 2.9375 -9.171875 C 2.632812 -8.460938 2.484375 -7.273438 2.484375 -5.609375 C 2.484375 -3.929688 2.632812 -2.738281 2.9375 -2.03125 C 3.25 -1.320312 3.734375 -0.96875 4.390625 -0.96875 C 5.023438 -0.96875 5.492188 -1.320312 5.796875 -2.03125 C 6.109375 -2.738281 6.265625 -3.929688 6.265625 -5.609375 C 6.265625 -7.285156 6.113281 -8.476562 5.8125 -9.1875 C 5.507812 -9.894531 5.035156 -10.25 4.390625 -10.25 Z M 4.390625 -10.25 "/>
</g>
<g id="glyph-0-3">
<path d="M 6.453125 -10.0625 L 2.515625 -10.0625 L 2.515625 -6.703125 C 3.046875 -7.015625 3.597656 -7.171875 4.171875 -7.171875 C 5.023438 -7.171875 5.710938 -6.859375 6.234375 -6.234375 C 6.765625 -5.609375 7.03125 -4.738281 7.03125 -3.625 C 7.03125 -2.875 6.878906 -2.207031 6.578125 -1.625 C 6.285156 -1.039062 5.867188 -0.585938 5.328125 -0.265625 C 4.796875 0.0546875 4.171875 0.21875 3.453125 0.21875 C 2.816406 0.21875 2.253906 0.0976562 1.765625 -0.140625 C 1.285156 -0.390625 0.828125 -0.757812 0.390625 -1.25 L 1.28125 -2.046875 C 1.601562 -1.703125 1.929688 -1.441406 2.265625 -1.265625 C 2.597656 -1.085938 2.984375 -1 3.421875 -1 C 4.078125 -1 4.582031 -1.226562 4.9375 -1.6875 C 5.289062 -2.144531 5.46875 -2.796875 5.46875 -3.640625 C 5.46875 -5.242188 4.863281 -6.046875 3.65625 -6.046875 C 3.394531 -6.046875 3.148438 -6.007812 2.921875 -5.9375 C 2.703125 -5.863281 2.453125 -5.75 2.171875 -5.59375 L 1.078125 -5.59375 L 1.078125 -11.234375 L 6.65625 -11.234375 Z M 6.453125 -10.0625 "/>
</g>
<g id="glyph-0-4">
<path d="M 4.90625 -7.390625 C 5.414062 -7.390625 5.878906 -7.253906 6.296875 -6.984375 C 6.722656 -6.710938 7.054688 -6.304688 7.296875 -5.765625 C 7.546875 -5.234375 7.671875 -4.582031 7.671875 -3.8125 C 7.671875 -2.976562 7.535156 -2.253906 7.265625 -1.640625 C 6.992188 -1.035156 6.609375 -0.570312 6.109375 -0.25 C 5.617188 0.0625 5.054688 0.21875 4.421875 0.21875 C 3.222656 0.21875 2.335938 -0.253906 1.765625 -1.203125 C 1.203125 -2.148438 0.921875 -3.46875 0.921875 -5.15625 C 0.921875 -6.445312 1.078125 -7.5625 1.390625 -8.5 C 1.710938 -9.4375 2.171875 -10.15625 2.765625 -10.65625 C 3.367188 -11.164062 4.078125 -11.421875 4.890625 -11.421875 C 5.671875 -11.421875 6.363281 -11.191406 6.96875 -10.734375 L 6.375 -9.78125 C 5.90625 -10.09375 5.421875 -10.25 4.921875 -10.25 C 4.191406 -10.25 3.609375 -9.867188 3.171875 -9.109375 C 2.742188 -8.347656 2.503906 -7.296875 2.453125 -5.953125 C 3.085938 -6.910156 3.90625 -7.390625 4.90625 -7.390625 Z M 4.40625 -0.953125 C 4.988281 -0.953125 5.425781 -1.195312 5.71875 -1.6875 C 6.019531 -2.175781 6.171875 -2.875 6.171875 -3.78125 C 6.171875 -4.644531 6.023438 -5.269531 5.734375 -5.65625 C 5.453125 -6.050781 5.0625 -6.25 4.5625 -6.25 C 4.15625 -6.25 3.769531 -6.109375 3.40625 -5.828125 C 3.039062 -5.546875 2.722656 -5.160156 2.453125 -4.671875 C 2.472656 -3.378906 2.632812 -2.4375 2.9375 -1.84375 C 3.25 -1.25 3.738281 -0.953125 4.40625 -0.953125 Z M 4.40625 -0.953125 "/>
</g>
<g id="glyph-0-5">
<path d="M 5.515625 -6 C 6.285156 -5.644531 6.847656 -5.226562 7.203125 -4.75 C 7.566406 -4.269531 7.75 -3.675781 7.75 -2.96875 C 7.75 -2.34375 7.601562 -1.789062 7.3125 -1.3125 C 7.019531 -0.832031 6.597656 -0.457031 6.046875 -0.1875 C 5.503906 0.0820312 4.878906 0.21875 4.171875 0.21875 C 3.460938 0.21875 2.84375 0.0859375 2.3125 -0.171875 C 1.78125 -0.441406 1.367188 -0.816406 1.078125 -1.296875 C 0.796875 -1.773438 0.65625 -2.320312 0.65625 -2.9375 C 0.65625 -4.320312 1.363281 -5.316406 2.78125 -5.921875 C 2.175781 -6.253906 1.738281 -6.625 1.46875 -7.03125 C 1.207031 -7.445312 1.078125 -7.945312 1.078125 -8.53125 C 1.078125 -9.132812 1.21875 -9.65625 1.5 -10.09375 C 1.78125 -10.53125 2.15625 -10.859375 2.625 -11.078125 C 3.101562 -11.304688 3.628906 -11.421875 4.203125 -11.421875 C 5.097656 -11.421875 5.84375 -11.171875 6.4375 -10.671875 C 7.039062 -10.179688 7.34375 -9.488281 7.34375 -8.59375 C 7.34375 -8.03125 7.195312 -7.539062 6.90625 -7.125 C 6.613281 -6.707031 6.148438 -6.332031 5.515625 -6 Z M 4.21875 -10.3125 C 3.695312 -10.3125 3.285156 -10.160156 2.984375 -9.859375 C 2.679688 -9.566406 2.53125 -9.117188 2.53125 -8.515625 C 2.53125 -8.015625 2.65625 -7.617188 2.90625 -7.328125 C 3.164062 -7.046875 3.597656 -6.78125 4.203125 -6.53125 L 4.578125 -6.359375 C 5.054688 -6.679688 5.390625 -7.003906 5.578125 -7.328125 C 5.773438 -7.660156 5.875 -8.0625 5.875 -8.53125 C 5.875 -9.125 5.726562 -9.566406 5.4375 -9.859375 C 5.144531 -10.160156 4.738281 -10.3125 4.21875 -10.3125 Z M 4.203125 -0.953125 C 4.835938 -0.953125 5.332031 -1.125 5.6875 -1.46875 C 6.050781 -1.8125 6.234375 -2.3125 6.234375 -2.96875 C 6.234375 -3.5625 6.082031 -4.023438 5.78125 -4.359375 C 5.488281 -4.691406 4.960938 -5.015625 4.203125 -5.328125 L 3.734375 -5.515625 C 3.191406 -5.234375 2.796875 -4.890625 2.546875 -4.484375 C 2.296875 -4.078125 2.171875 -3.570312 2.171875 -2.96875 C 2.171875 -2.300781 2.347656 -1.796875 2.703125 -1.453125 C 3.054688 -1.117188 3.554688 -0.953125 4.203125 -0.953125 Z M 4.203125 -0.953125 "/>
</g>
<g id="glyph-0-6">
<path d="M 4.9375 -11.234375 L 4.9375 0 L 3.4375 0 L 3.4375 -9.65625 L 1.109375 -8.078125 L 0.421875 -9.09375 L 3.609375 -11.234375 Z M 4.9375 -11.234375 "/>
</g>
<g id="glyph-0-7">
<path d="M 3.40625 -11.421875 C 4.039062 -11.421875 4.59375 -11.285156 5.0625 -11.015625 C 5.53125 -10.753906 5.882812 -10.394531 6.125 -9.9375 C 6.375 -9.488281 6.5 -8.984375 6.5 -8.421875 C 6.5 -7.734375 6.363281 -7.082031 6.09375 -6.46875 C 5.832031 -5.863281 5.410156 -5.1875 4.828125 -4.4375 C 4.253906 -3.6875 3.363281 -2.625 2.15625 -1.25 L 6.75 -1.25 L 6.5625 0 L 0.484375 0 L 0.484375 -1.171875 C 1.785156 -2.671875 2.734375 -3.804688 3.328125 -4.578125 C 3.929688 -5.359375 4.347656 -6.023438 4.578125 -6.578125 C 4.816406 -7.128906 4.9375 -7.710938 4.9375 -8.328125 C 4.9375 -8.921875 4.785156 -9.378906 4.484375 -9.703125 C 4.191406 -10.035156 3.796875 -10.203125 3.296875 -10.203125 C 2.867188 -10.203125 2.5 -10.101562 2.1875 -9.90625 C 1.875 -9.71875 1.546875 -9.414062 1.203125 -9 L 0.265625 -9.71875 C 1.085938 -10.851562 2.132812 -11.421875 3.40625 -11.421875 Z M 3.40625 -11.421875 "/>
</g>
<g id="glyph-0-8">
<path d="M 8.765625 0 L 6.75 0 L 2.640625 -9.921875 C 2.773438 -8.441406 2.84375 -7.003906 2.84375 -5.609375 L 2.84375 0 L 1.421875 0 L 1.421875 -11.5625 L 3.421875 -11.5625 L 7.5625 -1.609375 C 7.507812 -2.003906 7.457031 -2.539062 7.40625 -3.21875 C 7.363281 -3.90625 7.34375 -4.582031 7.34375 -5.25 L 7.34375 -11.5625 L 8.765625 -11.5625 Z M 8.765625 0 "/>
</g>
<g id="glyph-0-9">
<path d="M 7.171875 -11.5625 L 6.984375 -10.34375 L 2.984375 -10.34375 L 2.984375 -6.53125 L 6.46875 -6.53125 L 6.46875 -5.328125 L 2.984375 -5.328125 L 2.984375 -1.21875 L 7.21875 -1.21875 L 7.21875 0 L 1.421875 0 L 1.421875 -11.5625 Z M 7.171875 -11.5625 "/>
</g>
<g id="glyph-0-10">
<path d="M 2.984375 -11.5625 L 2.984375 0 L 1.421875 0 L 1.421875 -11.5625 Z M 2.984375 -11.5625 "/>
</g>
<g id="glyph-0-11">
<path d="M 3.8125 -11.5625 C 4.8125 -11.5625 5.679688 -11.410156 6.421875 -11.109375 C 7.160156 -10.804688 7.757812 -10.234375 8.21875 -9.390625 C 8.6875 -8.546875 8.921875 -7.363281 8.921875 -5.84375 C 8.921875 -3.675781 8.457031 -2.160156 7.53125 -1.296875 C 6.601562 -0.429688 5.4375 0 4.03125 0 L 1.421875 0 L 1.421875 -11.5625 Z M 2.984375 -10.328125 L 2.984375 -1.203125 L 4.125 -1.203125 C 5.09375 -1.203125 5.863281 -1.535156 6.4375 -2.203125 C 7.007812 -2.867188 7.296875 -4.082031 7.296875 -5.84375 C 7.296875 -7.070312 7.144531 -8.015625 6.84375 -8.671875 C 6.550781 -9.335938 6.171875 -9.78125 5.703125 -10 C 5.234375 -10.21875 4.679688 -10.328125 4.046875 -10.328125 Z M 2.984375 -10.328125 "/>
</g>
<g id="glyph-0-12">
<path d="M 2.984375 -11.5625 L 2.984375 -1.328125 L 7.203125 -1.328125 L 7.03125 0 L 1.421875 0 L 1.421875 -11.5625 Z M 2.984375 -11.5625 "/>
</g>
<g id="glyph-0-13">
<path d="M 5.28125 -11.78125 C 6.65625 -11.78125 7.734375 -11.269531 8.515625 -10.25 C 9.304688 -9.238281 9.703125 -7.75 9.703125 -5.78125 C 9.703125 -3.84375 9.3125 -2.359375 8.53125 -1.328125 C 7.75 -0.296875 6.664062 0.21875 5.28125 0.21875 C 3.894531 0.21875 2.804688 -0.285156 2.015625 -1.296875 C 1.234375 -2.316406 0.84375 -3.804688 0.84375 -5.765625 C 0.84375 -7.046875 1.023438 -8.132812 1.390625 -9.03125 C 1.753906 -9.9375 2.269531 -10.617188 2.9375 -11.078125 C 3.601562 -11.546875 4.382812 -11.78125 5.28125 -11.78125 Z M 5.28125 -10.53125 C 3.414062 -10.53125 2.484375 -8.941406 2.484375 -5.765625 C 2.484375 -2.617188 3.414062 -1.046875 5.28125 -1.046875 C 6.195312 -1.046875 6.890625 -1.421875 7.359375 -2.171875 C 7.828125 -2.921875 8.0625 -4.125 8.0625 -5.78125 C 8.0625 -7.425781 7.820312 -8.628906 7.34375 -9.390625 C 6.875 -10.148438 6.1875 -10.53125 5.28125 -10.53125 Z M 5.28125 -10.53125 "/>
</g>
<g id="glyph-0-14">
<path d="M 7.1875 0 L 7.1875 -5.421875 L 2.984375 -5.421875 L 2.984375 0 L 1.421875 0 L 1.421875 -11.5625 L 2.984375 -11.5625 L 2.984375 -6.703125 L 7.1875 -6.703125 L 7.1875 -11.5625 L 8.75 -11.5625 L 8.75 0 Z M 7.1875 0 "/>
</g>
<g id="glyph-0-15">
<path d="M 4.171875 -11.78125 C 4.847656 -11.78125 5.441406 -11.664062 5.953125 -11.4375 C 6.460938 -11.21875 6.941406 -10.882812 7.390625 -10.4375 L 6.59375 -9.546875 C 6.21875 -9.878906 5.84375 -10.125 5.46875 -10.28125 C 5.09375 -10.445312 4.6875 -10.53125 4.25 -10.53125 C 3.6875 -10.53125 3.234375 -10.375 2.890625 -10.0625 C 2.554688 -9.757812 2.390625 -9.359375 2.390625 -8.859375 C 2.390625 -8.515625 2.453125 -8.222656 2.578125 -7.984375 C 2.710938 -7.742188 2.941406 -7.523438 3.265625 -7.328125 C 3.597656 -7.128906 4.0625 -6.929688 4.65625 -6.734375 C 5.332031 -6.484375 5.890625 -6.21875 6.328125 -5.9375 C 6.765625 -5.664062 7.097656 -5.3125 7.328125 -4.875 C 7.566406 -4.4375 7.6875 -3.882812 7.6875 -3.21875 C 7.6875 -2.5625 7.535156 -1.972656 7.234375 -1.453125 C 6.929688 -0.929688 6.5 -0.519531 5.9375 -0.21875 C 5.375 0.0703125 4.710938 0.21875 3.953125 0.21875 C 2.546875 0.21875 1.351562 -0.285156 0.375 -1.296875 L 1.1875 -2.1875 C 1.601562 -1.8125 2.023438 -1.523438 2.453125 -1.328125 C 2.890625 -1.140625 3.367188 -1.046875 3.890625 -1.046875 C 4.554688 -1.046875 5.085938 -1.234375 5.484375 -1.609375 C 5.878906 -1.984375 6.078125 -2.5 6.078125 -3.15625 C 6.078125 -3.726562 5.914062 -4.179688 5.59375 -4.515625 C 5.28125 -4.847656 4.695312 -5.160156 3.84375 -5.453125 C 2.757812 -5.835938 1.976562 -6.28125 1.5 -6.78125 C 1.03125 -7.289062 0.796875 -7.945312 0.796875 -8.75 C 0.796875 -9.320312 0.9375 -9.835938 1.21875 -10.296875 C 1.5 -10.765625 1.894531 -11.128906 2.40625 -11.390625 C 2.925781 -11.648438 3.515625 -11.78125 4.171875 -11.78125 Z M 4.171875 -11.78125 "/>
</g>
<g id="glyph-0-16">
<path d="M 5.25 -11.78125 C 5.863281 -11.78125 6.394531 -11.6875 6.84375 -11.5 C 7.289062 -11.3125 7.726562 -11.019531 8.15625 -10.625 L 7.359375 -9.6875 C 7.035156 -9.96875 6.710938 -10.175781 6.390625 -10.3125 C 6.066406 -10.445312 5.71875 -10.515625 5.34375 -10.515625 C 4.46875 -10.515625 3.769531 -10.140625 3.25 -9.390625 C 2.738281 -8.648438 2.484375 -7.453125 2.484375 -5.796875 C 2.484375 -4.179688 2.738281 -2.988281 3.25 -2.21875 C 3.769531 -1.457031 4.46875 -1.078125 5.34375 -1.078125 C 5.78125 -1.078125 6.15625 -1.15625 6.46875 -1.3125 C 6.78125 -1.46875 7.117188 -1.695312 7.484375 -2 L 8.28125 -1.078125 C 7.4375 -0.210938 6.425781 0.21875 5.25 0.21875 C 4.394531 0.21875 3.632812 -0.00390625 2.96875 -0.453125 C 2.300781 -0.898438 1.78125 -1.570312 1.40625 -2.46875 C 1.03125 -3.375 0.84375 -4.484375 0.84375 -5.796875 C 0.84375 -7.097656 1.035156 -8.195312 1.421875 -9.09375 C 1.804688 -9.988281 2.332031 -10.660156 3 -11.109375 C 3.664062 -11.554688 4.414062 -11.78125 5.25 -11.78125 Z M 5.25 -11.78125 "/>
</g>
<g id="glyph-0-17">
<path d="M 2.984375 -11.5625 L 2.984375 0 L 1.421875 0 L 1.421875 -11.5625 Z M 8.671875 -11.5625 L 4.75 -6.28125 L 8.9375 0 L 7.140625 0 L 3.0625 -6.1875 L 7 -11.5625 Z M 8.671875 -11.5625 "/>
</g>
<g id="glyph-1-0">
<path d="M 11.40625 -22.046875 L 11.40625 7.34375 L 2.578125 7.34375 L 2.578125 -22.046875 Z M 10.265625 -20.953125 L 3.734375 -20.953125 L 3.734375 6.265625 L 10.265625 6.265625 Z M 6.796875 -9.46875 C 7.640625 -9.46875 8.238281 -9.242188 8.59375 -8.796875 C 8.957031 -8.347656 9.140625 -7.769531 9.140625 -7.0625 C 9.140625 -6.3125 8.976562 -5.734375 8.65625 -5.328125 C 8.34375 -4.921875 7.835938 -4.671875 7.140625 -4.578125 L 7.140625 -3.640625 C 7.140625 -3.484375 7.085938 -3.359375 6.984375 -3.265625 C 6.878906 -3.171875 6.753906 -3.125 6.609375 -3.125 C 6.472656 -3.125 6.351562 -3.171875 6.25 -3.265625 C 6.144531 -3.359375 6.09375 -3.484375 6.09375 -3.640625 L 6.09375 -5.390625 C 6.832031 -5.429688 7.332031 -5.566406 7.59375 -5.796875 C 7.863281 -6.035156 8 -6.441406 8 -7.015625 C 8 -7.472656 7.90625 -7.828125 7.71875 -8.078125 C 7.539062 -8.335938 7.207031 -8.46875 6.71875 -8.46875 C 6.3125 -8.46875 5.945312 -8.390625 5.625 -8.234375 C 5.507812 -8.191406 5.421875 -8.171875 5.359375 -8.171875 C 5.203125 -8.171875 5.078125 -8.210938 4.984375 -8.296875 C 4.890625 -8.390625 4.84375 -8.507812 4.84375 -8.65625 C 4.84375 -8.914062 5.050781 -9.113281 5.46875 -9.25 C 5.882812 -9.394531 6.328125 -9.46875 6.796875 -9.46875 Z M 6.609375 -2.515625 C 6.828125 -2.515625 7.003906 -2.441406 7.140625 -2.296875 C 7.273438 -2.160156 7.34375 -1.988281 7.34375 -1.78125 C 7.34375 -1.5625 7.273438 -1.378906 7.140625 -1.234375 C 7.003906 -1.085938 6.828125 -1.015625 6.609375 -1.015625 C 6.398438 -1.015625 6.222656 -1.085938 6.078125 -1.234375 C 5.941406 -1.378906 5.875 -1.5625 5.875 -1.78125 C 5.875 -1.988281 5.941406 -2.160156 6.078125 -2.296875 C 6.222656 -2.441406 6.398438 -2.515625 6.609375 -2.515625 Z M 6.609375 -2.515625 "/>
</g>
<g id="glyph-1-1">
<path d="M 5.203125 -14.71875 C 6.054688 -14.71875 6.800781 -14.578125 7.4375 -14.296875 C 8.082031 -14.015625 8.679688 -13.597656 9.234375 -13.046875 L 8.25 -11.921875 C 7.769531 -12.347656 7.296875 -12.660156 6.828125 -12.859375 C 6.359375 -13.066406 5.851562 -13.171875 5.3125 -13.171875 C 4.613281 -13.171875 4.050781 -12.976562 3.625 -12.59375 C 3.195312 -12.207031 2.984375 -11.695312 2.984375 -11.0625 C 2.984375 -10.644531 3.066406 -10.285156 3.234375 -9.984375 C 3.398438 -9.679688 3.6875 -9.40625 4.09375 -9.15625 C 4.5 -8.914062 5.070312 -8.671875 5.8125 -8.421875 C 6.664062 -8.109375 7.363281 -7.773438 7.90625 -7.421875 C 8.457031 -7.078125 8.878906 -6.628906 9.171875 -6.078125 C 9.472656 -5.535156 9.625 -4.851562 9.625 -4.03125 C 9.625 -3.207031 9.429688 -2.46875 9.046875 -1.8125 C 8.671875 -1.164062 8.128906 -0.65625 7.421875 -0.28125 C 6.710938 0.0820312 5.882812 0.265625 4.9375 0.265625 C 3.1875 0.265625 1.695312 -0.359375 0.46875 -1.609375 L 1.484375 -2.734375 C 2.003906 -2.265625 2.535156 -1.90625 3.078125 -1.65625 C 3.617188 -1.414062 4.21875 -1.296875 4.875 -1.296875 C 5.695312 -1.296875 6.359375 -1.53125 6.859375 -2 C 7.359375 -2.46875 7.609375 -3.117188 7.609375 -3.953125 C 7.609375 -4.660156 7.40625 -5.222656 7 -5.640625 C 6.601562 -6.066406 5.875 -6.460938 4.8125 -6.828125 C 3.445312 -7.296875 2.46875 -7.84375 1.875 -8.46875 C 1.28125 -9.101562 0.984375 -9.925781 0.984375 -10.9375 C 0.984375 -11.65625 1.160156 -12.300781 1.515625 -12.875 C 1.878906 -13.457031 2.378906 -13.910156 3.015625 -14.234375 C 3.660156 -14.554688 4.390625 -14.71875 5.203125 -14.71875 Z M 5.203125 -14.71875 "/>
</g>
<g id="glyph-1-2">
<path d="M 6.9375 -0.484375 C 6.226562 0.015625 5.445312 0.265625 4.59375 0.265625 C 3.695312 0.265625 3.007812 0.0078125 2.53125 -0.5 C 2.050781 -1.019531 1.8125 -1.75 1.8125 -2.6875 L 1.8125 -9.625 L 0.234375 -9.625 L 0.234375 -11.046875 L 1.8125 -11.046875 L 1.8125 -13.59375 L 3.703125 -13.8125 L 3.703125 -11.046875 L 6.125 -11.046875 L 5.921875 -9.625 L 3.703125 -9.625 L 3.703125 -2.703125 C 3.703125 -1.753906 4.097656 -1.28125 4.890625 -1.28125 C 5.128906 -1.28125 5.347656 -1.3125 5.546875 -1.375 C 5.753906 -1.445312 5.984375 -1.554688 6.234375 -1.703125 Z M 6.9375 -0.484375 "/>
</g>
<g id="glyph-1-3">
<path d="M 8.59375 -2.515625 C 8.59375 -2.066406 8.65625 -1.734375 8.78125 -1.515625 C 8.90625 -1.304688 9.097656 -1.144531 9.359375 -1.03125 L 8.96875 0.25 C 8.414062 0.164062 7.984375 0 7.671875 -0.25 C 7.367188 -0.5 7.15625 -0.882812 7.03125 -1.40625 C 6.320312 -0.289062 5.320312 0.265625 4.03125 0.265625 C 3.050781 0.265625 2.273438 -0.0351562 1.703125 -0.640625 C 1.128906 -1.242188 0.84375 -2.0625 0.84375 -3.09375 C 0.84375 -4.257812 1.226562 -5.148438 2 -5.765625 C 2.769531 -6.390625 3.867188 -6.703125 5.296875 -6.703125 L 6.71875 -6.703125 L 6.71875 -7.640625 C 6.71875 -8.410156 6.5625 -8.96875 6.25 -9.3125 C 5.9375 -9.65625 5.421875 -9.828125 4.703125 -9.828125 C 3.929688 -9.828125 3.035156 -9.628906 2.015625 -9.234375 L 1.546875 -10.5625 C 2.785156 -11.0625 3.9375 -11.3125 5 -11.3125 C 7.394531 -11.3125 8.59375 -10.117188 8.59375 -7.734375 Z M 4.46875 -1.15625 C 5.445312 -1.15625 6.195312 -1.726562 6.71875 -2.875 L 6.71875 -5.484375 L 5.5 -5.484375 C 3.675781 -5.484375 2.765625 -4.71875 2.765625 -3.1875 C 2.765625 -2.53125 2.910156 -2.023438 3.203125 -1.671875 C 3.503906 -1.328125 3.925781 -1.15625 4.46875 -1.15625 Z M 4.46875 -1.15625 "/>
</g>
<g id="glyph-1-4">
<path d="M 9.453125 -5.859375 C 9.453125 -5.566406 9.4375 -5.238281 9.40625 -4.875 L 2.984375 -4.875 C 3.035156 -3.582031 3.289062 -2.648438 3.75 -2.078125 C 4.21875 -1.515625 4.851562 -1.234375 5.65625 -1.234375 C 6.15625 -1.234375 6.601562 -1.3125 7 -1.46875 C 7.40625 -1.625 7.820312 -1.875 8.25 -2.21875 L 9.09375 -1.109375 C 8.050781 -0.191406 6.875 0.265625 5.5625 0.265625 C 4.125 0.265625 3.007812 -0.234375 2.21875 -1.234375 C 1.425781 -2.234375 1.03125 -3.632812 1.03125 -5.4375 C 1.03125 -7.238281 1.40625 -8.664062 2.15625 -9.71875 C 2.914062 -10.78125 3.96875 -11.3125 5.3125 -11.3125 C 6.644531 -11.3125 7.664062 -10.835938 8.375 -9.890625 C 9.09375 -8.953125 9.453125 -7.609375 9.453125 -5.859375 Z M 7.625 -6.421875 C 7.625 -8.734375 6.859375 -9.890625 5.328125 -9.890625 C 4.628906 -9.890625 4.078125 -9.597656 3.671875 -9.015625 C 3.265625 -8.429688 3.035156 -7.488281 2.984375 -6.1875 L 7.625 -6.1875 Z M 7.625 -6.421875 "/>
</g>
<g id="glyph-1-5">
</g>
<g id="glyph-1-6">
<path d="M 11.90625 -11.3125 C 12.707031 -11.3125 13.34375 -11.015625 13.8125 -10.421875 C 14.289062 -9.828125 14.53125 -9.035156 14.53125 -8.046875 L 14.53125 0 L 12.65625 0 L 12.65625 -7.828125 C 12.65625 -9.171875 12.222656 -9.84375 11.359375 -9.84375 C 10.515625 -9.84375 9.742188 -9.203125 9.046875 -7.921875 L 9.046875 0 L 7.1875 0 L 7.1875 -7.828125 C 7.1875 -9.171875 6.75 -9.84375 5.875 -9.84375 C 5.019531 -9.84375 4.25 -9.203125 3.5625 -7.921875 L 3.5625 0 L 1.703125 0 L 1.703125 -11.046875 L 3.34375 -11.046875 L 3.484375 -9.421875 C 4.296875 -10.679688 5.273438 -11.3125 6.421875 -11.3125 C 7.023438 -11.3125 7.535156 -11.132812 7.953125 -10.78125 C 8.378906 -10.4375 8.679688 -9.941406 8.859375 -9.296875 C 9.710938 -10.640625 10.726562 -11.3125 11.90625 -11.3125 Z M 11.90625 -11.3125 "/>
</g>
<g id="glyph-1-7">
<path d="M 3.59375 -11.046875 L 3.59375 0 L 1.703125 0 L 1.703125 -11.046875 Z M 2.640625 -16.25 C 3.003906 -16.25 3.300781 -16.128906 3.53125 -15.890625 C 3.769531 -15.660156 3.890625 -15.367188 3.890625 -15.015625 C 3.890625 -14.660156 3.773438 -14.367188 3.546875 -14.140625 C 3.328125 -13.910156 3.023438 -13.796875 2.640625 -13.796875 C 2.273438 -13.796875 1.976562 -13.910156 1.75 -14.140625 C 1.519531 -14.367188 1.40625 -14.660156 1.40625 -15.015625 C 1.40625 -15.367188 1.519531 -15.660156 1.75 -15.890625 C 1.976562 -16.128906 2.273438 -16.25 2.640625 -16.25 Z M 2.640625 -16.25 "/>
</g>
<g id="glyph-1-8">
<path d="M 6.640625 -11.3125 C 7.515625 -11.3125 8.203125 -11.019531 8.703125 -10.4375 C 9.203125 -9.863281 9.453125 -9.066406 9.453125 -8.046875 L 9.453125 0 L 7.5625 0 L 7.5625 -7.8125 C 7.5625 -8.53125 7.441406 -9.046875 7.203125 -9.359375 C 6.960938 -9.671875 6.597656 -9.828125 6.109375 -9.828125 C 5.179688 -9.828125 4.34375 -9.171875 3.59375 -7.859375 L 3.59375 0 L 1.703125 0 L 1.703125 -11.046875 L 3.34375 -11.046875 L 3.484375 -9.40625 C 4.335938 -10.675781 5.390625 -11.3125 6.640625 -11.3125 Z M 6.640625 -11.3125 "/>
</g>
<g id="glyph-1-9">
<path d="M 9.28125 0 L 7.640625 0 L 7.53125 -1.65625 C 6.769531 -0.375 5.742188 0.265625 4.453125 0.265625 C 3.566406 0.265625 2.867188 -0.0195312 2.359375 -0.59375 C 1.859375 -1.164062 1.609375 -1.941406 1.609375 -2.921875 L 1.609375 -11.046875 L 3.5 -11.046875 L 3.5 -3.09375 C 3.5 -2.445312 3.617188 -1.972656 3.859375 -1.671875 C 4.109375 -1.367188 4.484375 -1.21875 4.984375 -1.21875 C 5.921875 -1.21875 6.722656 -1.832031 7.390625 -3.0625 L 7.390625 -11.046875 L 9.28125 -11.046875 Z M 9.28125 0 "/>
</g>
<g id="glyph-1-10">
<path d="M 13.359375 -11.046875 L 11.09375 0 L 8.6875 0 L 6.890625 -9.328125 L 5.109375 0 L 2.703125 0 L 0.40625 -11.046875 L 2.265625 -11.046875 L 3.984375 -1.421875 L 5.921875 -11.046875 L 7.953125 -11.046875 L 9.828125 -1.40625 L 11.578125 -11.046875 Z M 13.359375 -11.046875 "/>
</g>
<g id="glyph-1-11">
<path d="M 9.8125 -10.640625 C 9.207031 -10.410156 8.273438 -10.296875 7.015625 -10.296875 C 8.191406 -9.703125 8.78125 -8.734375 8.78125 -7.390625 C 8.78125 -6.285156 8.429688 -5.394531 7.734375 -4.71875 C 7.046875 -4.039062 6.101562 -3.703125 4.90625 -3.703125 C 4.457031 -3.703125 4.054688 -3.769531 3.703125 -3.90625 C 3.304688 -3.625 3.109375 -3.265625 3.109375 -2.828125 C 3.109375 -2.171875 3.570312 -1.84375 4.5 -1.84375 L 5.9375 -1.84375 C 7.03125 -1.84375 7.898438 -1.566406 8.546875 -1.015625 C 9.191406 -0.460938 9.515625 0.238281 9.515625 1.09375 C 9.515625 2.125 9.113281 2.9375 8.3125 3.53125 C 7.519531 4.132812 6.351562 4.4375 4.8125 4.4375 C 3.21875 4.4375 2.085938 4.160156 1.421875 3.609375 C 0.753906 3.066406 0.421875 2.234375 0.421875 1.109375 L 2.125 1.109375 C 2.125 1.578125 2.203125 1.945312 2.359375 2.21875 C 2.523438 2.488281 2.800781 2.691406 3.1875 2.828125 C 3.570312 2.960938 4.117188 3.03125 4.828125 3.03125 C 5.828125 3.03125 6.539062 2.875 6.96875 2.5625 C 7.40625 2.25 7.625 1.804688 7.625 1.234375 C 7.625 0.703125 7.441406 0.296875 7.078125 0.015625 C 6.722656 -0.265625 6.21875 -0.40625 5.5625 -0.40625 L 4.328125 -0.40625 C 3.359375 -0.40625 2.632812 -0.585938 2.15625 -0.953125 C 1.6875 -1.328125 1.453125 -1.820312 1.453125 -2.4375 C 1.453125 -3.144531 1.835938 -3.78125 2.609375 -4.34375 C 2.015625 -4.675781 1.570312 -5.097656 1.28125 -5.609375 C 1 -6.128906 0.859375 -6.75 0.859375 -7.46875 C 0.859375 -8.625 1.222656 -9.550781 1.953125 -10.25 C 2.679688 -10.945312 3.640625 -11.296875 4.828125 -11.296875 C 5.929688 -11.296875 6.785156 -11.375 7.390625 -11.53125 C 8.003906 -11.6875 8.632812 -11.925781 9.28125 -12.25 Z M 4.84375 -9.96875 C 4.164062 -9.96875 3.644531 -9.753906 3.28125 -9.328125 C 2.925781 -8.898438 2.75 -8.28125 2.75 -7.46875 C 2.75 -6.6875 2.929688 -6.078125 3.296875 -5.640625 C 3.671875 -5.203125 4.1875 -4.984375 4.84375 -4.984375 C 6.238281 -4.984375 6.9375 -5.820312 6.9375 -7.5 C 6.9375 -8.3125 6.757812 -8.925781 6.40625 -9.34375 C 6.050781 -9.757812 5.53125 -9.96875 4.84375 -9.96875 Z M 4.84375 -9.96875 "/>
</g>
<g id="glyph-2-0">
<path d="M -22.046875 -11.40625 L 7.34375 -11.40625 L 7.34375 -2.578125 L -22.046875 -2.578125 Z M -20.953125 -10.265625 L -20.953125 -3.734375 L 6.265625 -3.734375 L 6.265625 -10.265625 Z M -9.46875 -6.796875 C -9.46875 -7.640625 -9.242188 -8.238281 -8.796875 -8.59375 C -8.347656 -8.957031 -7.769531 -9.140625 -7.0625 -9.140625 C -6.3125 -9.140625 -5.734375 -8.976562 -5.328125 -8.65625 C -4.921875 -8.34375 -4.671875 -7.835938 -4.578125 -7.140625 L -3.640625 -7.140625 C -3.484375 -7.140625 -3.359375 -7.085938 -3.265625 -6.984375 C -3.171875 -6.878906 -3.125 -6.753906 -3.125 -6.609375 C -3.125 -6.472656 -3.171875 -6.351562 -3.265625 -6.25 C -3.359375 -6.144531 -3.484375 -6.09375 -3.640625 -6.09375 L -5.390625 -6.09375 C -5.429688 -6.832031 -5.566406 -7.332031 -5.796875 -7.59375 C -6.035156 -7.863281 -6.441406 -8 -7.015625 -8 C -7.472656 -8 -7.828125 -7.90625 -8.078125 -7.71875 C -8.335938 -7.539062 -8.46875 -7.207031 -8.46875 -6.71875 C -8.46875 -6.3125 -8.390625 -5.945312 -8.234375 -5.625 C -8.191406 -5.507812 -8.171875 -5.421875 -8.171875 -5.359375 C -8.171875 -5.203125 -8.210938 -5.078125 -8.296875 -4.984375 C -8.390625 -4.890625 -8.507812 -4.84375 -8.65625 -4.84375 C -8.914062 -4.84375 -9.113281 -5.050781 -9.25 -5.46875 C -9.394531 -5.882812 -9.46875 -6.328125 -9.46875 -6.796875 Z M -2.515625 -6.609375 C -2.515625 -6.828125 -2.441406 -7.003906 -2.296875 -7.140625 C -2.160156 -7.273438 -1.988281 -7.34375 -1.78125 -7.34375 C -1.5625 -7.34375 -1.378906 -7.273438 -1.234375 -7.140625 C -1.085938 -7.003906 -1.015625 -6.828125 -1.015625 -6.609375 C -1.015625 -6.398438 -1.085938 -6.222656 -1.234375 -6.078125 C -1.378906 -5.941406 -1.5625 -5.875 -1.78125 -5.875 C -1.988281 -5.875 -2.160156 -5.941406 -2.296875 -6.078125 C -2.441406 -6.222656 -2.515625 -6.398438 -2.515625 -6.609375 Z M -2.515625 -6.609375 "/>
</g>
<g id="glyph-2-1">
<path d="M -14.453125 -9.625 L -12.859375 -9.390625 L -12.859375 -5.84375 L 0 -5.84375 L 0 -3.890625 L -12.859375 -3.890625 L -12.859375 -0.234375 L -14.453125 -0.234375 Z M -14.453125 -9.625 "/>
</g>
<g id="glyph-2-2">
<path d="M -5.859375 -9.453125 C -5.566406 -9.453125 -5.238281 -9.4375 -4.875 -9.40625 L -4.875 -2.984375 C -3.582031 -3.035156 -2.648438 -3.289062 -2.078125 -3.75 C -1.515625 -4.21875 -1.234375 -4.851562 -1.234375 -5.65625 C -1.234375 -6.15625 -1.3125 -6.601562 -1.46875 -7 C -1.625 -7.40625 -1.875 -7.820312 -2.21875 -8.25 L -1.109375 -9.09375 C -0.191406 -8.050781 0.265625 -6.875 0.265625 -5.5625 C 0.265625 -4.125 -0.234375 -3.007812 -1.234375 -2.21875 C -2.234375 -1.425781 -3.632812 -1.03125 -5.4375 -1.03125 C -7.238281 -1.03125 -8.664062 -1.40625 -9.71875 -2.15625 C -10.78125 -2.914062 -11.3125 -3.96875 -11.3125 -5.3125 C -11.3125 -6.644531 -10.835938 -7.664062 -9.890625 -8.375 C -8.953125 -9.09375 -7.609375 -9.453125 -5.859375 -9.453125 Z M -6.421875 -7.625 C -8.734375 -7.625 -9.890625 -6.859375 -9.890625 -5.328125 C -9.890625 -4.628906 -9.597656 -4.078125 -9.015625 -3.671875 C -8.429688 -3.265625 -7.488281 -3.035156 -6.1875 -2.984375 L -6.1875 -7.625 Z M -6.421875 -7.625 "/>
</g>
<g id="glyph-2-3">
<path d="M -11.3125 -6.640625 C -11.3125 -7.515625 -11.019531 -8.203125 -10.4375 -8.703125 C -9.863281 -9.203125 -9.066406 -9.453125 -8.046875 -9.453125 L 0 -9.453125 L 0 -7.5625 L -7.8125 -7.5625 C -8.53125 -7.5625 -9.046875 -7.441406 -9.359375 -7.203125 C -9.671875 -6.960938 -9.828125 -6.597656 -9.828125 -6.109375 C -9.828125 -5.179688 -9.171875 -4.34375 -7.859375 -3.59375 L 0 -3.59375 L 0 -1.703125 L -11.046875 -1.703125 L -11.046875 -3.34375 L -9.40625 -3.484375 C -10.675781 -4.335938 -11.3125 -5.390625 -11.3125 -6.640625 Z M -11.3125 -6.640625 "/>
</g>
<g id="glyph-2-4">
</g>
<g id="glyph-2-5">
<path d="M -11.3125 -11.90625 C -11.3125 -12.707031 -11.015625 -13.34375 -10.421875 -13.8125 C -9.828125 -14.289062 -9.035156 -14.53125 -8.046875 -14.53125 L 0 -14.53125 L 0 -12.65625 L -7.828125 -12.65625 C -9.171875 -12.65625 -9.84375 -12.222656 -9.84375 -11.359375 C -9.84375 -10.515625 -9.203125 -9.742188 -7.921875 -9.046875 L 0 -9.046875 L 0 -7.1875 L -7.828125 -7.1875 C -9.171875 -7.1875 -9.84375 -6.75 -9.84375 -5.875 C -9.84375 -5.019531 -9.203125 -4.25 -7.921875 -3.5625 L 0 -3.5625 L 0 -1.703125 L -11.046875 -1.703125 L -11.046875 -3.34375 L -9.421875 -3.484375 C -10.679688 -4.296875 -11.3125 -5.273438 -11.3125 -6.421875 C -11.3125 -7.023438 -11.132812 -7.535156 -10.78125 -7.953125 C -10.4375 -8.378906 -9.941406 -8.679688 -9.296875 -8.859375 C -10.640625 -9.710938 -11.3125 -10.726562 -11.3125 -11.90625 Z M -11.3125 -11.90625 "/>
</g>
<g id="glyph-2-6">
<path d="M -11.3125 -6.46875 C -11.3125 -7.675781 -10.816406 -8.582031 -9.828125 -9.1875 C -8.835938 -9.789062 -7.414062 -10.09375 -5.5625 -10.09375 C -3.769531 -10.09375 -2.347656 -9.753906 -1.296875 -9.078125 C -0.253906 -8.398438 0.265625 -7.453125 0.265625 -6.234375 C 0.265625 -5.140625 -0.171875 -4.257812 -1.046875 -3.59375 L 4.203125 -3.59375 L 4.4375 -1.703125 L -11.046875 -1.703125 L -11.046875 -3.359375 L -9.5625 -3.46875 C -10.726562 -4.21875 -11.3125 -5.21875 -11.3125 -6.46875 Z M -1.234375 -5.796875 C -1.234375 -7.347656 -2.671875 -8.125 -5.546875 -8.125 C -7.046875 -8.125 -8.132812 -7.945312 -8.8125 -7.59375 C -9.488281 -7.238281 -9.828125 -6.695312 -9.828125 -5.96875 C -9.828125 -5.476562 -9.679688 -5.039062 -9.390625 -4.65625 C -9.097656 -4.28125 -8.695312 -3.925781 -8.1875 -3.59375 L -2.609375 -3.59375 C -1.691406 -4.164062 -1.234375 -4.898438 -1.234375 -5.796875 Z M -1.234375 -5.796875 "/>
</g>
<g id="glyph-2-7">
<path d="M 0.265625 -3.78125 C 0.265625 -3.101562 0.0664062 -2.566406 -0.328125 -2.171875 C -0.734375 -1.785156 -1.300781 -1.59375 -2.03125 -1.59375 L -15.515625 -1.59375 L -15.734375 -3.484375 L -2.09375 -3.484375 C -1.550781 -3.484375 -1.28125 -3.707031 -1.28125 -4.15625 C -1.28125 -4.34375 -1.320312 -4.546875 -1.40625 -4.765625 L -0.078125 -5.1875 C 0.148438 -4.738281 0.265625 -4.269531 0.265625 -3.78125 Z M 0.265625 -3.78125 "/>
</g>
<g id="glyph-2-8">
<path d="M -11.3125 -5.546875 C -11.3125 -6.960938 -10.816406 -8.0625 -9.828125 -8.84375 C -8.835938 -9.625 -7.410156 -10.015625 -5.546875 -10.015625 C -3.753906 -10.015625 -2.335938 -9.613281 -1.296875 -8.8125 C -0.253906 -8.019531 0.265625 -6.921875 0.265625 -5.515625 C 0.265625 -4.109375 -0.242188 -3.007812 -1.265625 -2.21875 C -2.285156 -1.425781 -3.703125 -1.03125 -5.515625 -1.03125 C -7.359375 -1.03125 -8.785156 -1.425781 -9.796875 -2.21875 C -10.804688 -3.019531 -11.3125 -4.128906 -11.3125 -5.546875 Z M -9.8125 -5.546875 C -9.8125 -4.722656 -9.460938 -4.09375 -8.765625 -3.65625 C -8.078125 -3.21875 -6.992188 -3 -5.515625 -3 C -2.648438 -3 -1.21875 -3.835938 -1.21875 -5.515625 C -1.21875 -7.203125 -2.660156 -8.046875 -5.546875 -8.046875 C -7.015625 -8.046875 -8.09375 -7.832031 -8.78125 -7.40625 C -9.46875 -6.988281 -9.8125 -6.367188 -9.8125 -5.546875 Z M -9.8125 -5.546875 "/>
</g>
<g id="glyph-2-9">
<path d="M 0.046875 -5.859375 C 1.347656 -5.460938 2.351562 -4.90625 3.0625 -4.1875 C 3.78125 -3.476562 4.238281 -2.46875 4.4375 -1.15625 L 3.03125 -0.9375 C 2.882812 -1.601562 2.691406 -2.128906 2.453125 -2.515625 C 2.210938 -2.910156 1.90625 -3.226562 1.53125 -3.46875 C 1.15625 -3.707031 0.644531 -3.9375 0 -4.15625 L 0 -3.46875 L -11.046875 -0.1875 L -11.046875 -2.140625 L -1.328125 -4.703125 L -11.046875 -7.265625 L -11.046875 -9.203125 Z M 0.046875 -5.859375 "/>
</g>
<g id="glyph-2-10">
<path d="M -0.484375 -6.9375 C 0.015625 -6.226562 0.265625 -5.445312 0.265625 -4.59375 C 0.265625 -3.695312 0.0078125 -3.007812 -0.5 -2.53125 C -1.019531 -2.050781 -1.75 -1.8125 -2.6875 -1.8125 L -9.625 -1.8125 L -9.625 -0.234375 L -11.046875 -0.234375 L -11.046875 -1.8125 L -13.59375 -1.8125 L -13.8125 -3.703125 L -11.046875 -3.703125 L -11.046875 -6.125 L -9.625 -5.921875 L -9.625 -3.703125 L -2.703125 -3.703125 C -1.753906 -3.703125 -1.28125 -4.097656 -1.28125 -4.890625 C -1.28125 -5.128906 -1.3125 -5.347656 -1.375 -5.546875 C -1.445312 -5.753906 -1.554688 -5.984375 -1.703125 -6.234375 Z M -0.484375 -6.9375 "/>
</g>
<g id="glyph-2-11">
<path d="M -11.296875 -6.234375 C -11.296875 -6.597656 -11.253906 -6.914062 -11.171875 -7.1875 L -9.34375 -6.859375 C -9.425781 -6.597656 -9.46875 -6.3125 -9.46875 -6 C -9.46875 -5.382812 -9.222656 -4.882812 -8.734375 -4.5 C -8.242188 -4.113281 -7.492188 -3.8125 -6.484375 -3.59375 L 0 -3.59375 L 0 -1.703125 L -11.046875 -1.703125 L -11.046875 -3.34375 L -8.859375 -3.484375 C -10.484375 -4.035156 -11.296875 -4.953125 -11.296875 -6.234375 Z M -11.296875 -6.234375 "/>
</g>
<g id="glyph-2-12">
<path d="M -2.515625 -8.59375 C -2.066406 -8.59375 -1.734375 -8.65625 -1.515625 -8.78125 C -1.304688 -8.90625 -1.144531 -9.097656 -1.03125 -9.359375 L 0.25 -8.96875 C 0.164062 -8.414062 0 -7.984375 -0.25 -7.671875 C -0.5 -7.367188 -0.882812 -7.15625 -1.40625 -7.03125 C -0.289062 -6.320312 0.265625 -5.320312 0.265625 -4.03125 C 0.265625 -3.050781 -0.0351562 -2.273438 -0.640625 -1.703125 C -1.242188 -1.128906 -2.0625 -0.84375 -3.09375 -0.84375 C -4.257812 -0.84375 -5.148438 -1.226562 -5.765625 -2 C -6.390625 -2.769531 -6.703125 -3.867188 -6.703125 -5.296875 L -6.703125 -6.71875 L -7.640625 -6.71875 C -8.410156 -6.71875 -8.96875 -6.5625 -9.3125 -6.25 C -9.65625 -5.9375 -9.828125 -5.421875 -9.828125 -4.703125 C -9.828125 -3.929688 -9.628906 -3.035156 -9.234375 -2.015625 L -10.5625 -1.546875 C -11.0625 -2.785156 -11.3125 -3.9375 -11.3125 -5 C -11.3125 -7.394531 -10.117188 -8.59375 -7.734375 -8.59375 Z M -1.15625 -4.46875 C -1.15625 -5.445312 -1.726562 -6.195312 -2.875 -6.71875 L -5.484375 -6.71875 L -5.484375 -5.5 C -5.484375 -3.675781 -4.71875 -2.765625 -3.1875 -2.765625 C -2.53125 -2.765625 -2.023438 -2.910156 -1.671875 -3.203125 C -1.328125 -3.503906 -1.15625 -3.925781 -1.15625 -4.46875 Z M -1.15625 -4.46875 "/>
</g>
</g>
<clipPath id="clip-0">
<path clip-rule="nonzero" d="M 62.105469 286 L 654.953125 286 L 654.953125 289 L 62.105469 289 Z M 62.105469 286 "/>
</clipPath>
<clipPath id="clip-1">
<path clip-rule="nonzero" d="M 62.105469 130 L 654.953125 130 L 654.953125 133 L 62.105469 133 Z M 62.105469 130 "/>
</clipPath>
<clipPath id="clip-2">
<path clip-rule="nonzero" d="M 198 10.460938 L 201 10.460938 L 201 442.894531 L 198 442.894531 Z M 198 10.460938 "/>
</clipPath>
<clipPath id="clip-3">
<path clip-rule="nonzero" d="M 341 10.460938 L 344 10.460938 L 344 442.894531 L 341 442.894531 Z M 341 10.460938 "/>
</clipPath>
<clipPath id="clip-4">
<path clip-rule="nonzero" d="M 483 10.460938 L 486 10.460938 L 486 442.894531 L 483 442.894531 Z M 483 10.460938 "/>
</clipPath>
<clipPath id="clip-5">
<path clip-rule="nonzero" d="M 625 10.460938 L 628 10.460938 L 628 442.894531 L 625 442.894531 Z M 625 10.460938 "/>
</clipPath>
</defs>
<rect x="-75.6" y="-50.4" width="907.2" height="604.8" fill="rgb(100%, 100%, 100%)" fill-opacity="1"/>
<rect x="-75.6" y="-50.4" width="907.2" height="604.8" fill="rgb(100%, 100%, 100%)" fill-opacity="1"/>
<g clip-path="url(#clip-0)">
<path fill="none" stroke-width="2.036959" stroke-linecap="butt" stroke-linejoin="round" stroke="rgb(92.156863%, 92.156863%, 92.156863%)" stroke-opacity="1" stroke-miterlimit="10" d="M 62.105469 287.578125 L 654.957031 287.578125 "/>
</g>
<g clip-path="url(#clip-1)">
<path fill="none" stroke-width="2.036959" stroke-linecap="butt" stroke-linejoin="round" stroke="rgb(92.156863%, 92.156863%, 92.156863%)" stroke-opacity="1" stroke-miterlimit="10" d="M 62.105469 131.308594 L 654.957031 131.308594 "/>
</g>
<g clip-path="url(#clip-2)">
<path fill="none" stroke-width="2.036959" stroke-linecap="butt" stroke-linejoin="round" stroke="rgb(92.156863%, 92.156863%, 92.156863%)" stroke-opacity="1" stroke-miterlimit="10" d="M 199.894531 442.894531 L 199.894531 10.460938 "/>
</g>
<g clip-path="url(#clip-3)">
<path fill="none" stroke-width="2.036959" stroke-linecap="butt" stroke-linejoin="round" stroke="rgb(92.156863%, 92.156863%, 92.156863%)" stroke-opacity="1" stroke-miterlimit="10" d="M 342.042969 442.894531 L 342.042969 10.460938 "/>
</g>
<g clip-path="url(#clip-4)">
<path fill="none" stroke-width="2.036959" stroke-linecap="butt" stroke-linejoin="round" stroke="rgb(92.156863%, 92.156863%, 92.156863%)" stroke-opacity="1" stroke-miterlimit="10" d="M 484.195312 442.894531 L 484.195312 10.460938 "/>
</g>
<g clip-path="url(#clip-5)">
<path fill="none" stroke-width="2.036959" stroke-linecap="butt" stroke-linejoin="round" stroke="rgb(92.156863%, 92.156863%, 92.156863%)" stroke-opacity="1" stroke-miterlimit="10" d="M 626.34375 442.894531 L 626.34375 10.460938 "/>
</g>
<path fill-rule="nonzero" fill="rgb(43.921569%, 12.156863%, 50.588235%)" fill-opacity="0.901961" stroke-width="1.352899" stroke-linecap="round" stroke-linejoin="round" stroke="rgb(43.921569%, 12.156863%, 50.588235%)" stroke-opacity="0.901961" stroke-miterlimit="10" d="M 248.125 264.019531 C 248.125 268.335938 241.652344 268.335938 241.652344 264.019531 C 241.652344 259.703125 248.125 259.703125 248.125 264.019531 "/>
<path fill-rule="nonzero" fill="rgb(43.921569%, 12.156863%, 50.588235%)" fill-opacity="0.901961" stroke-width="1.352899" stroke-linecap="round" stroke-linejoin="round" stroke="rgb(43.921569%, 12.156863%, 50.588235%)" stroke-opacity="0.901961" stroke-miterlimit="10" d="M 272.59375 201.71875 C 272.59375 206.035156 266.121094 206.035156 266.121094 201.71875 C 266.121094 197.402344 272.59375 197.402344 272.59375 201.71875 "/>
<path fill-rule="nonzero" fill="rgb(43.921569%, 12.156863%, 50.588235%)" fill-opacity="0.901961" stroke-width="1.352899" stroke-linecap="round" stroke-linejoin="round" stroke="rgb(43.921569%, 12.156863%, 50.588235%)" stroke-opacity="0.901961" stroke-miterlimit="10" d="M 292.078125 214.0625 C 292.078125 218.378906 285.605469 218.378906 285.605469 214.0625 C 285.605469 209.746094 292.078125 209.746094 292.078125 214.0625 "/>
<path fill-rule="nonzero" fill="rgb(43.921569%, 12.156863%, 50.588235%)" fill-opacity="0.901961" stroke-width="1.352899" stroke-linecap="round" stroke-linejoin="round" stroke="rgb(43.921569%, 12.156863%, 50.588235%)" stroke-opacity="0.901961" stroke-miterlimit="10" d="M 322.257812 251.136719 C 322.257812 255.453125 315.785156 255.453125 315.785156 251.136719 C 315.785156 246.820312 322.257812 246.820312 322.257812 251.136719 "/>
<path fill-rule="nonzero" fill="rgb(43.921569%, 12.156863%, 50.588235%)" fill-opacity="0.901961" stroke-width="1.352899" stroke-linecap="round" stroke-linejoin="round" stroke="rgb(43.921569%, 12.156863%, 50.588235%)" stroke-opacity="0.901961" stroke-miterlimit="10" d="M 312.625 220.8125 C 312.625 225.128906 306.152344 225.128906 306.152344 220.8125 C 306.152344 216.496094 312.625 216.496094 312.625 220.8125 "/>
<path fill-rule="nonzero" fill="rgb(43.921569%, 12.156863%, 50.588235%)" fill-opacity="0.901961" stroke-width="1.352899" stroke-linecap="round" stroke-linejoin="round" stroke="rgb(43.921569%, 12.156863%, 50.588235%)" stroke-opacity="0.901961" stroke-miterlimit="10" d="M 335.675781 273.242188 C 335.675781 277.558594 329.199219 277.558594 329.199219 273.242188 C 329.199219 268.925781 335.675781 268.925781 335.675781 273.242188 "/>
<path fill-rule="nonzero" fill="rgb(43.921569%, 12.156863%, 50.588235%)" fill-opacity="0.901961" stroke-width="1.352899" stroke-linecap="round" stroke-linejoin="round" stroke="rgb(43.921569%, 12.156863%, 50.588235%)" stroke-opacity="0.901961" stroke-miterlimit="10" d="M 344.003906 234.507812 C 344.003906 238.824219 337.53125 238.824219 337.53125 234.507812 C 337.53125 230.191406 344.003906 230.191406 344.003906 234.507812 "/>
<path fill-rule="nonzero" fill="rgb(43.921569%, 12.156863%, 50.588235%)" fill-opacity="0.901961" stroke-width="1.352899" stroke-linecap="round" stroke-linejoin="round" stroke="rgb(43.921569%, 12.156863%, 50.588235%)" stroke-opacity="0.901961" stroke-miterlimit="10" d="M 363.746094 263.40625 C 363.746094 267.722656 357.269531 267.722656 357.269531 263.40625 C 357.269531 259.089844 363.746094 259.089844 363.746094 263.40625 "/>
<path fill-rule="nonzero" fill="rgb(64.705882%, 19.215686%, 49.411765%)" fill-opacity="0.901961" stroke-width="1.352899" stroke-linecap="round" stroke-linejoin="round" stroke="rgb(64.705882%, 19.215686%, 49.411765%)" stroke-opacity="0.901961" stroke-miterlimit="10" d="M 295.929688 211.707031 C 295.929688 216.023438 289.453125 216.023438 289.453125 211.707031 C 289.453125 207.390625 295.929688 207.390625 295.929688 211.707031 "/>
<path fill-rule="nonzero" fill="rgb(64.705882%, 19.215686%, 49.411765%)" fill-opacity="0.901961" stroke-width="1.352899" stroke-linecap="round" stroke-linejoin="round" stroke="rgb(64.705882%, 19.215686%, 49.411765%)" stroke-opacity="0.901961" stroke-miterlimit="10" d="M 300.816406 239.003906 C 300.816406 243.316406 294.34375 243.316406 294.34375 239.003906 C 294.34375 234.6875 300.816406 234.6875 300.816406 239.003906 "/>
<path fill-rule="nonzero" fill="rgb(64.705882%, 19.215686%, 49.411765%)" fill-opacity="0.901961" stroke-width="1.352899" stroke-linecap="round" stroke-linejoin="round" stroke="rgb(64.705882%, 19.215686%, 49.411765%)" stroke-opacity="0.901961" stroke-miterlimit="10" d="M 315.628906 199.125 C 315.628906 203.441406 309.152344 203.441406 309.152344 199.125 C 309.152344 194.808594 315.628906 194.808594 315.628906 199.125 "/>
<path fill-rule="nonzero" fill="rgb(64.705882%, 19.215686%, 49.411765%)" fill-opacity="0.901961" stroke-width="1.352899" stroke-linecap="round" stroke-linejoin="round" stroke="rgb(64.705882%, 19.215686%, 49.411765%)" stroke-opacity="0.901961" stroke-miterlimit="10" d="M 305.121094 176.371094 C 305.121094 180.6875 298.648438 180.6875 298.648438 176.371094 C 298.648438 172.054688 305.121094 172.054688 305.121094 176.371094 "/>
<path fill-rule="nonzero" fill="rgb(64.705882%, 19.215686%, 49.411765%)" fill-opacity="0.901961" stroke-width="1.352899" stroke-linecap="round" stroke-linejoin="round" stroke="rgb(64.705882%, 19.215686%, 49.411765%)" stroke-opacity="0.901961" stroke-miterlimit="10" d="M 348.097656 222.902344 C 348.097656 227.21875 341.621094 227.21875 341.621094 222.902344 C 341.621094 218.585938 348.097656 218.585938 348.097656 222.902344 "/>
<path fill-rule="nonzero" fill="rgb(64.705882%, 19.215686%, 49.411765%)" fill-opacity="0.901961" stroke-width="1.352899" stroke-linecap="round" stroke-linejoin="round" stroke="rgb(64.705882%, 19.215686%, 49.411765%)" stroke-opacity="0.901961" stroke-miterlimit="10" d="M 326.867188 170.3125 C 326.867188 174.628906 320.394531 174.628906 320.394531 170.3125 C 320.394531 165.996094 326.867188 165.996094 326.867188 170.3125 "/>
<path fill-rule="nonzero" fill="rgb(64.705882%, 19.215686%, 49.411765%)" fill-opacity="0.901961" stroke-width="1.352899" stroke-linecap="round" stroke-linejoin="round" stroke="rgb(64.705882%, 19.215686%, 49.411765%)" stroke-opacity="0.901961" stroke-miterlimit="10" d="M 352.007812 209.28125 C 352.007812 213.597656 345.535156 213.597656 345.535156 209.28125 C 345.535156 204.964844 352.007812 204.964844 352.007812 209.28125 "/>
<path fill-rule="nonzero" fill="rgb(64.705882%, 19.215686%, 49.411765%)" fill-opacity="0.901961" stroke-width="1.352899" stroke-linecap="round" stroke-linejoin="round" stroke="rgb(64.705882%, 19.215686%, 49.411765%)" stroke-opacity="0.901961" stroke-miterlimit="10" d="M 375.621094 229.734375 C 375.621094 234.050781 369.148438 234.050781 369.148438 229.734375 C 369.148438 225.417969 375.621094 225.417969 375.621094 229.734375 "/>
<path fill-rule="nonzero" fill="rgb(99.607843%, 71.764706%, 49.411765%)" fill-opacity="0.901961" stroke-width="1.352899" stroke-linecap="round" stroke-linejoin="round" stroke="rgb(99.607843%, 71.764706%, 49.411765%)" stroke-opacity="0.901961" stroke-miterlimit="10" d="M 368.625 47.714844 C 368.625 52.027344 362.148438 52.027344 362.148438 47.714844 C 362.148438 43.398438 368.625 43.398438 368.625 47.714844 "/>
<path fill-rule="nonzero" fill="rgb(99.607843%, 71.764706%, 49.411765%)" fill-opacity="0.901961" stroke-width="1.352899" stroke-linecap="round" stroke-linejoin="round" stroke="rgb(99.607843%, 71.764706%, 49.411765%)" stroke-opacity="0.901961" stroke-miterlimit="10" d="M 410.046875 59.414062 C 410.046875 63.730469 403.574219 63.730469 403.574219 59.414062 C 403.574219 55.097656 410.046875 55.097656 410.046875 59.414062 "/>
<path fill-rule="nonzero" fill="rgb(99.607843%, 71.764706%, 49.411765%)" fill-opacity="0.901961" stroke-width="1.352899" stroke-linecap="round" stroke-linejoin="round" stroke="rgb(99.607843%, 71.764706%, 49.411765%)" stroke-opacity="0.901961" stroke-miterlimit="10" d="M 411.894531 30.117188 C 411.894531 34.433594 405.417969 34.433594 405.417969 30.117188 C 405.417969 25.800781 411.894531 25.800781 411.894531 30.117188 "/>
<path fill-rule="nonzero" fill="rgb(99.607843%, 71.764706%, 49.411765%)" fill-opacity="0.901961" stroke-width="1.352899" stroke-linecap="round" stroke-linejoin="round" stroke="rgb(99.607843%, 71.764706%, 49.411765%)" stroke-opacity="0.901961" stroke-miterlimit="10" d="M 406.378906 40.984375 C 406.378906 45.300781 399.90625 45.300781 399.90625 40.984375 C 399.90625 36.667969 406.378906 36.667969 406.378906 40.984375 "/>
<path fill-rule="nonzero" fill="rgb(99.607843%, 71.764706%, 49.411765%)" fill-opacity="0.901961" stroke-width="1.352899" stroke-linecap="round" stroke-linejoin="round" stroke="rgb(99.607843%, 71.764706%, 49.411765%)" stroke-opacity="0.901961" stroke-miterlimit="10" d="M 523.648438 78.621094 C 523.648438 82.9375 517.171875 82.9375 517.171875 78.621094 C 517.171875 74.304688 523.648438 74.304688 523.648438 78.621094 "/>
<path fill-rule="nonzero" fill="rgb(99.607843%, 71.764706%, 49.411765%)" fill-opacity="0.901961" stroke-width="1.352899" stroke-linecap="round" stroke-linejoin="round" stroke="rgb(99.607843%, 71.764706%, 49.411765%)" stroke-opacity="0.901961" stroke-miterlimit="10" d="M 534.960938 112.101562 C 534.960938 116.417969 528.484375 116.417969 528.484375 112.101562 C 528.484375 107.785156 534.960938 107.785156 534.960938 112.101562 "/>
<path fill-rule="nonzero" fill="rgb(99.607843%, 71.764706%, 49.411765%)" fill-opacity="0.901961" stroke-width="1.352899" stroke-linecap="round" stroke-linejoin="round" stroke="rgb(99.607843%, 71.764706%, 49.411765%)" stroke-opacity="0.901961" stroke-miterlimit="10" d="M 540.515625 71.847656 C 540.515625 76.164062 534.042969 76.164062 534.042969 71.847656 C 534.042969 67.53125 540.515625 67.53125 540.515625 71.847656 "/>
<path fill-rule="nonzero" fill="rgb(99.607843%, 71.764706%, 49.411765%)" fill-opacity="0.901961" stroke-width="1.352899" stroke-linecap="round" stroke-linejoin="round" stroke="rgb(99.607843%, 71.764706%, 49.411765%)" stroke-opacity="0.901961" stroke-miterlimit="10" d="M 573.71875 46.246094 C 573.71875 50.5625 567.242188 50.5625 567.242188 46.246094 C 567.242188 41.929688 573.71875 41.929688 573.71875 46.246094 "/>
<path fill-rule="nonzero" fill="rgb(23.137255%, 5.882353%, 43.921569%)" fill-opacity="0.901961" stroke-width="1.352899" stroke-linecap="round" stroke-linejoin="round" stroke="rgb(23.137255%, 5.882353%, 43.921569%)" stroke-opacity="0.901961" stroke-miterlimit="10" d="M 140.445312 348.015625 C 140.445312 352.332031 133.972656 352.332031 133.972656 348.015625 C 133.972656 343.699219 140.445312 343.699219 140.445312 348.015625 "/>
<path fill-rule="nonzero" fill="rgb(23.137255%, 5.882353%, 43.921569%)" fill-opacity="0.901961" stroke-width="1.352899" stroke-linecap="round" stroke-linejoin="round" stroke="rgb(23.137255%, 5.882353%, 43.921569%)" stroke-opacity="0.901961" stroke-miterlimit="10" d="M 151.351562 381.386719 C 151.351562 385.703125 144.875 385.703125 144.875 381.386719 C 144.875 377.070312 151.351562 377.070312 151.351562 381.386719 "/>
<path fill-rule="nonzero" fill="rgb(23.137255%, 5.882353%, 43.921569%)" fill-opacity="0.901961" stroke-width="1.352899" stroke-linecap="round" stroke-linejoin="round" stroke="rgb(23.137255%, 5.882353%, 43.921569%)" stroke-opacity="0.901961" stroke-miterlimit="10" d="M 143.460938 354.34375 C 143.460938 358.660156 136.984375 358.660156 136.984375 354.34375 C 136.984375 350.027344 143.460938 350.027344 143.460938 354.34375 "/>
<path fill-rule="nonzero" fill="rgb(23.137255%, 5.882353%, 43.921569%)" fill-opacity="0.901961" stroke-width="1.352899" stroke-linecap="round" stroke-linejoin="round" stroke="rgb(23.137255%, 5.882353%, 43.921569%)" stroke-opacity="0.901961" stroke-miterlimit="10" d="M 170.339844 387.597656 C 170.339844 391.914062 163.863281 391.914062 163.863281 387.597656 C 163.863281 383.28125 170.339844 383.28125 170.339844 387.597656 "/>
<path fill-rule="nonzero" fill="rgb(23.137255%, 5.882353%, 43.921569%)" fill-opacity="0.901961" stroke-width="1.352899" stroke-linecap="round" stroke-linejoin="round" stroke="rgb(23.137255%, 5.882353%, 43.921569%)" stroke-opacity="0.901961" stroke-miterlimit="10" d="M 185.796875 381.941406 C 185.796875 386.257812 179.320312 386.257812 179.320312 381.941406 C 179.320312 377.625 185.796875 377.625 185.796875 381.941406 "/>
<path fill-rule="nonzero" fill="rgb(23.137255%, 5.882353%, 43.921569%)" fill-opacity="0.901961" stroke-width="1.352899" stroke-linecap="round" stroke-linejoin="round" stroke="rgb(23.137255%, 5.882353%, 43.921569%)" stroke-opacity="0.901961" stroke-miterlimit="10" d="M 213.25 423.238281 C 213.25 427.554688 206.773438 427.554688 206.773438 423.238281 C 206.773438 418.921875 213.25 418.921875 213.25 423.238281 "/>
<path fill-rule="nonzero" fill="rgb(23.137255%, 5.882353%, 43.921569%)" fill-opacity="0.901961" stroke-width="1.352899" stroke-linecap="round" stroke-linejoin="round" stroke="rgb(23.137255%, 5.882353%, 43.921569%)" stroke-opacity="0.901961" stroke-miterlimit="10" d="M 214.136719 355.484375 C 214.136719 359.800781 207.660156 359.800781 207.660156 355.484375 C 207.660156 351.167969 214.136719 351.167969 214.136719 355.484375 "/>
<path fill-rule="nonzero" fill="rgb(23.137255%, 5.882353%, 43.921569%)" fill-opacity="0.901961" stroke-width="1.352899" stroke-linecap="round" stroke-linejoin="round" stroke="rgb(23.137255%, 5.882353%, 43.921569%)" stroke-opacity="0.901961" stroke-miterlimit="10" d="M 239.027344 375.148438 C 239.027344 379.464844 232.554688 379.464844 232.554688 375.148438 C 232.554688 370.832031 239.027344 370.832031 239.027344 375.148438 "/>
<path fill-rule="nonzero" fill="rgb(85.490196%, 27.45098%, 41.960784%)" fill-opacity="0.901961" stroke-width="1.352899" stroke-linecap="round" stroke-linejoin="round" stroke="rgb(85.490196%, 27.45098%, 41.960784%)" stroke-opacity="0.901961" stroke-miterlimit="10" d="M 322.851562 188.074219 C 322.851562 192.390625 316.375 192.390625 316.375 188.074219 C 316.375 183.757812 322.851562 183.757812 322.851562 188.074219 "/>
<path fill-rule="nonzero" fill="rgb(85.490196%, 27.45098%, 41.960784%)" fill-opacity="0.901961" stroke-width="1.352899" stroke-linecap="round" stroke-linejoin="round" stroke="rgb(85.490196%, 27.45098%, 41.960784%)" stroke-opacity="0.901961" stroke-miterlimit="10" d="M 330.363281 156.140625 C 330.363281 160.457031 323.886719 160.457031 323.886719 156.140625 C 323.886719 151.824219 330.363281 151.824219 330.363281 156.140625 "/>
<path fill-rule="nonzero" fill="rgb(85.490196%, 27.45098%, 41.960784%)" fill-opacity="0.901961" stroke-width="1.352899" stroke-linecap="round" stroke-linejoin="round" stroke="rgb(85.490196%, 27.45098%, 41.960784%)" stroke-opacity="0.901961" stroke-miterlimit="10" d="M 347.351562 183.097656 C 347.351562 187.414062 340.878906 187.414062 340.878906 183.097656 C 340.878906 178.78125 347.351562 178.78125 347.351562 183.097656 "/>
<path fill-rule="nonzero" fill="rgb(85.490196%, 27.45098%, 41.960784%)" fill-opacity="0.901961" stroke-width="1.352899" stroke-linecap="round" stroke-linejoin="round" stroke="rgb(85.490196%, 27.45098%, 41.960784%)" stroke-opacity="0.901961" stroke-miterlimit="10" d="M 366.511719 130.617188 C 366.511719 134.933594 360.039062 134.933594 360.039062 130.617188 C 360.039062 126.300781 366.511719 126.300781 366.511719 130.617188 "/>
<path fill-rule="nonzero" fill="rgb(85.490196%, 27.45098%, 41.960784%)" fill-opacity="0.901961" stroke-width="1.352899" stroke-linecap="round" stroke-linejoin="round" stroke="rgb(85.490196%, 27.45098%, 41.960784%)" stroke-opacity="0.901961" stroke-miterlimit="10" d="M 441.910156 196.890625 C 441.910156 201.207031 435.4375 201.207031 435.4375 196.890625 C 435.4375 192.574219 441.910156 192.574219 441.910156 196.890625 "/>
<path fill-rule="nonzero" fill="rgb(85.490196%, 27.45098%, 41.960784%)" fill-opacity="0.901961" stroke-width="1.352899" stroke-linecap="round" stroke-linejoin="round" stroke="rgb(85.490196%, 27.45098%, 41.960784%)" stroke-opacity="0.901961" stroke-miterlimit="10" d="M 477.609375 190.109375 C 477.609375 194.425781 471.136719 194.425781 471.136719 190.109375 C 471.136719 185.792969 477.609375 185.792969 477.609375 190.109375 "/>
<path fill-rule="nonzero" fill="rgb(85.490196%, 27.45098%, 41.960784%)" fill-opacity="0.901961" stroke-width="1.352899" stroke-linecap="round" stroke-linejoin="round" stroke="rgb(85.490196%, 27.45098%, 41.960784%)" stroke-opacity="0.901961" stroke-miterlimit="10" d="M 471.273438 168.777344 C 471.273438 173.09375 464.800781 173.09375 464.800781 168.777344 C 464.800781 164.460938 471.273438 164.460938 471.273438 168.777344 "/>
<path fill-rule="nonzero" fill="rgb(85.490196%, 27.45098%, 41.960784%)" fill-opacity="0.901961" stroke-width="1.352899" stroke-linecap="round" stroke-linejoin="round" stroke="rgb(85.490196%, 27.45098%, 41.960784%)" stroke-opacity="0.901961" stroke-miterlimit="10" d="M 493.371094 173.871094 C 493.371094 178.1875 486.898438 178.1875 486.898438 173.871094 C 486.898438 169.558594 493.371094 169.558594 493.371094 173.871094 "/>
<path fill-rule="nonzero" fill="rgb(97.647059%, 47.45098%, 36.470588%)" fill-opacity="0.901961" stroke-width="1.352899" stroke-linecap="round" stroke-linejoin="round" stroke="rgb(97.647059%, 47.45098%, 36.470588%)" stroke-opacity="0.901961" stroke-miterlimit="10" d="M 370.855469 118.824219 C 370.855469 123.140625 364.378906 123.140625 364.378906 118.824219 C 364.378906 114.507812 370.855469 114.507812 370.855469 118.824219 "/>
<path fill-rule="nonzero" fill="rgb(97.647059%, 47.45098%, 36.470588%)" fill-opacity="0.901961" stroke-width="1.352899" stroke-linecap="round" stroke-linejoin="round" stroke="rgb(97.647059%, 47.45098%, 36.470588%)" stroke-opacity="0.901961" stroke-miterlimit="10" d="M 409.476562 153.402344 C 409.476562 157.71875 403.003906 157.71875 403.003906 153.402344 C 403.003906 149.085938 409.476562 149.085938 409.476562 153.402344 "/>
<path fill-rule="nonzero" fill="rgb(97.647059%, 47.45098%, 36.470588%)" fill-opacity="0.901961" stroke-width="1.352899" stroke-linecap="round" stroke-linejoin="round" stroke="rgb(97.647059%, 47.45098%, 36.470588%)" stroke-opacity="0.901961" stroke-miterlimit="10" d="M 367.21875 94.800781 C 367.21875 99.117188 360.746094 99.117188 360.746094 94.800781 C 360.746094 90.484375 367.21875 90.484375 367.21875 94.800781 "/>
<path fill-rule="nonzero" fill="rgb(97.647059%, 47.45098%, 36.470588%)" fill-opacity="0.901961" stroke-width="1.352899" stroke-linecap="round" stroke-linejoin="round" stroke="rgb(97.647059%, 47.45098%, 36.470588%)" stroke-opacity="0.901961" stroke-miterlimit="10" d="M 420.6875 138.410156 C 420.6875 142.726562 414.214844 142.726562 414.214844 138.410156 C 414.214844 134.09375 420.6875 134.09375 420.6875 138.410156 "/>
<path fill-rule="nonzero" fill="rgb(97.647059%, 47.45098%, 36.470588%)" fill-opacity="0.901961" stroke-width="1.352899" stroke-linecap="round" stroke-linejoin="round" stroke="rgb(97.647059%, 47.45098%, 36.470588%)" stroke-opacity="0.901961" stroke-miterlimit="10" d="M 485.234375 115.640625 C 485.234375 119.957031 478.761719 119.957031 478.761719 115.640625 C 478.761719 111.324219 485.234375 111.324219 485.234375 115.640625 "/>
<path fill-rule="nonzero" fill="rgb(97.647059%, 47.45098%, 36.470588%)" fill-opacity="0.901961" stroke-width="1.352899" stroke-linecap="round" stroke-linejoin="round" stroke="rgb(97.647059%, 47.45098%, 36.470588%)" stroke-opacity="0.901961" stroke-miterlimit="10" d="M 499.042969 139.058594 C 499.042969 143.375 492.570312 143.375 492.570312 139.058594 C 492.570312 134.742188 499.042969 134.742188 499.042969 139.058594 "/>
<path fill-rule="nonzero" fill="rgb(97.647059%, 47.45098%, 36.470588%)" fill-opacity="0.901961" stroke-width="1.352899" stroke-linecap="round" stroke-linejoin="round" stroke="rgb(97.647059%, 47.45098%, 36.470588%)" stroke-opacity="0.901961" stroke-miterlimit="10" d="M 525.605469 117.976562 C 525.605469 122.292969 519.128906 122.292969 519.128906 117.976562 C 519.128906 113.660156 525.605469 113.660156 525.605469 117.976562 "/>
<path fill-rule="nonzero" fill="rgb(97.647059%, 47.45098%, 36.470588%)" fill-opacity="0.901961" stroke-width="1.352899" stroke-linecap="round" stroke-linejoin="round" stroke="rgb(97.647059%, 47.45098%, 36.470588%)" stroke-opacity="0.901961" stroke-miterlimit="10" d="M 527.230469 137.164062 C 527.230469 141.480469 520.753906 141.480469 520.753906 137.164062 C 520.753906 132.847656 527.230469 132.847656 527.230469 137.164062 "/>
<path fill="none" stroke-width="1.920561" stroke-linecap="butt" stroke-linejoin="round" stroke="rgb(23.137255%, 5.882353%, 43.921569%)" stroke-opacity="1" stroke-miterlimit="10" d="M 137.210938 365.023438 L 138.457031 365.347656 L 139.707031 365.671875 L 140.953125 365.996094 L 142.203125 366.320312 L 143.449219 366.644531 L 144.695312 366.972656 L 145.945312 367.296875 L 147.191406 367.621094 L 148.441406 367.945312 L 149.6875 368.269531 L 150.9375 368.59375 L 152.183594 368.917969 L 153.433594 369.242188 L 154.679688 369.570312 L 155.929688 369.894531 L 158.421875 370.542969 L 159.671875 370.867188 L 160.917969 371.191406 L 162.167969 371.515625 L 163.414062 371.839844 L 164.664062 372.167969 L 165.910156 372.492188 L 167.160156 372.816406 L 169.652344 373.464844 L 170.902344 373.789062 L 172.148438 374.113281 L 173.398438 374.4375 L 174.644531 374.765625 L 175.894531 375.089844 L 177.140625 375.414062 L 178.390625 375.738281 L 179.636719 376.0625 L 180.886719 376.386719 L 183.378906 377.035156 L 184.628906 377.363281 L 185.875 377.6875 L 187.125 378.011719 L 188.371094 378.335938 L 189.621094 378.660156 L 190.867188 378.984375 L 192.117188 379.308594 L 193.363281 379.632812 L 194.609375 379.960938 L 195.859375 380.285156 L 197.105469 380.609375 L 198.355469 380.933594 L 199.601562 381.257812 L 200.851562 381.582031 L 202.097656 381.90625 L 203.347656 382.230469 L 204.59375 382.558594 L 205.84375 382.882812 L 208.335938 383.53125 L 209.585938 383.855469 L 210.832031 384.179688 L 212.082031 384.503906 L 213.328125 384.828125 L 214.578125 385.15625 L 215.824219 385.480469 L 217.074219 385.804688 L 219.566406 386.453125 L 220.816406 386.777344 L 222.0625 387.101562 L 223.3125 387.425781 L 224.558594 387.753906 L 225.808594 388.078125 L 227.054688 388.402344 L 228.304688 388.726562 L 229.550781 389.050781 L 230.800781 389.375 L 233.292969 390.023438 L 234.542969 390.351562 L 235.789062 390.675781 "/>
<path fill="none" stroke-width="1.920561" stroke-linecap="butt" stroke-linejoin="round" stroke="rgb(43.921569%, 12.156863%, 50.588235%)" stroke-opacity="1" stroke-miterlimit="10" d="M 244.890625 225.652344 L 246.351562 225.992188 L 249.28125 226.671875 L 250.742188 227.011719 L 253.671875 227.691406 L 255.132812 228.03125 L 256.597656 228.375 L 258.0625 228.714844 L 259.523438 229.054688 L 262.453125 229.734375 L 263.914062 230.074219 L 265.378906 230.414062 L 266.84375 230.757812 L 268.304688 231.097656 L 271.234375 231.777344 L 272.695312 232.117188 L 275.625 232.796875 L 277.085938 233.136719 L 278.550781 233.480469 L 280.015625 233.820312 L 281.476562 234.160156 L 284.40625 234.839844 L 285.867188 235.179688 L 287.332031 235.519531 L 288.796875 235.863281 L 290.257812 236.203125 L 293.1875 236.882812 L 294.648438 237.222656 L 297.578125 237.902344 L 299.039062 238.242188 L 300.503906 238.585938 L 301.96875 238.925781 L 303.429688 239.265625 L 306.359375 239.945312 L 307.820312 240.285156 L 309.285156 240.625 L 310.75 240.96875 L 312.210938 241.308594 L 315.140625 241.988281 L 316.601562 242.328125 L 319.53125 243.007812 L 320.992188 243.347656 L 322.457031 243.691406 L 323.921875 244.03125 L 325.382812 244.371094 L 328.3125 245.050781 L 329.773438 245.390625 L 331.238281 245.730469 L 332.703125 246.074219 L 334.164062 246.414062 L 337.09375 247.09375 L 338.554688 247.433594 L 341.484375 248.113281 L 342.945312 248.453125 L 344.410156 248.796875 L 345.875 249.136719 L 347.335938 249.476562 L 350.265625 250.15625 L 351.726562 250.496094 L 353.191406 250.835938 L 354.652344 251.175781 L 356.117188 251.519531 L 357.582031 251.859375 L 359.042969 252.199219 L 360.507812 252.539062 "/>
<path fill="none" stroke-width="1.920561" stroke-linecap="butt" stroke-linejoin="round" stroke="rgb(64.705882%, 19.215686%, 49.411765%)" stroke-opacity="1" stroke-miterlimit="10" d="M 292.691406 200.21875 L 293.699219 200.445312 L 294.710938 200.671875 L 296.726562 201.125 L 297.734375 201.347656 L 298.746094 201.574219 L 301.769531 202.253906 L 302.78125 202.480469 L 305.804688 203.160156 L 306.816406 203.386719 L 309.839844 204.066406 L 310.851562 204.292969 L 313.875 204.972656 L 314.886719 205.199219 L 315.894531 205.421875 L 317.910156 205.875 L 318.921875 206.101562 L 322.953125 207.007812 L 323.964844 207.234375 L 326.988281 207.914062 L 328 208.140625 L 331.023438 208.820312 L 332.035156 209.046875 L 333.042969 209.273438 L 334.050781 209.496094 L 335.058594 209.722656 L 336.070312 209.949219 L 339.09375 210.628906 L 340.105469 210.855469 L 343.128906 211.535156 L 344.140625 211.761719 L 347.164062 212.441406 L 348.175781 212.667969 L 351.199219 213.347656 L 352.207031 213.570312 L 353.21875 213.796875 L 356.242188 214.476562 L 357.253906 214.703125 L 360.277344 215.382812 L 361.289062 215.609375 L 364.3125 216.289062 L 365.324219 216.515625 L 368.347656 217.195312 L 369.359375 217.421875 L 370.367188 217.644531 L 372.382812 218.097656 "/>
<path fill="none" stroke-width="1.920561" stroke-linecap="butt" stroke-linejoin="round" stroke="rgb(85.490196%, 27.45098%, 41.960784%)" stroke-opacity="1" stroke-miterlimit="10" d="M 319.613281 166.507812 L 321.773438 166.6875 L 323.929688 166.867188 L 326.089844 167.046875 L 328.246094 167.222656 L 332.566406 167.582031 L 334.722656 167.761719 L 336.882812 167.941406 L 339.039062 168.121094 L 341.199219 168.300781 L 343.355469 168.480469 L 347.675781 168.839844 L 349.832031 169.015625 L 351.992188 169.195312 L 354.148438 169.375 L 356.308594 169.554688 L 358.464844 169.734375 L 362.785156 170.09375 L 364.941406 170.273438 L 367.101562 170.453125 L 369.257812 170.632812 L 371.417969 170.808594 L 373.574219 170.988281 L 377.894531 171.347656 L 380.050781 171.527344 L 382.210938 171.707031 L 384.367188 171.886719 L 386.527344 172.066406 L 388.683594 172.246094 L 390.84375 172.425781 L 393.003906 172.601562 L 395.160156 172.78125 L 397.320312 172.960938 L 399.476562 173.140625 L 401.636719 173.320312 L 403.792969 173.5 L 408.113281 173.859375 L 410.269531 174.039062 L 412.429688 174.21875 L 414.585938 174.394531 L 416.746094 174.574219 L 418.902344 174.753906 L 423.222656 175.113281 L 425.378906 175.292969 L 427.539062 175.472656 L 429.695312 175.652344 L 431.855469 175.832031 L 434.011719 176.011719 L 436.171875 176.1875 L 438.332031 176.367188 L 440.488281 176.546875 L 442.648438 176.726562 L 444.804688 176.90625 L 446.964844 177.085938 L 449.121094 177.265625 L 453.441406 177.625 L 455.597656 177.800781 L 457.757812 177.980469 L 459.914062 178.160156 L 462.074219 178.339844 L 464.230469 178.519531 L 468.550781 178.878906 L 470.707031 179.058594 L 472.867188 179.238281 L 475.023438 179.417969 L 477.183594 179.59375 L 479.34375 179.773438 L 481.5 179.953125 L 483.660156 180.132812 L 485.816406 180.3125 L 487.976562 180.492188 L 490.132812 180.671875 "/>
<path fill="none" stroke-width="1.920561" stroke-linecap="butt" stroke-linejoin="round" stroke="rgb(97.647059%, 47.45098%, 36.470588%)" stroke-opacity="1" stroke-miterlimit="10" d="M 363.980469 120.96875 L 368.035156 121.257812 L 370.058594 121.402344 L 372.085938 121.546875 L 374.109375 121.691406 L 376.136719 121.835938 L 378.160156 121.980469 L 380.1875 122.125 L 382.210938 122.265625 L 384.238281 122.410156 L 386.261719 122.554688 L 388.289062 122.699219 L 390.3125 122.84375 L 392.339844 122.988281 L 394.363281 123.132812 L 396.390625 123.277344 L 398.414062 123.421875 L 400.441406 123.566406 L 402.464844 123.710938 L 404.492188 123.851562 L 406.515625 123.996094 L 408.542969 124.140625 L 410.566406 124.285156 L 412.59375 124.429688 L 414.617188 124.574219 L 416.644531 124.71875 L 418.667969 124.863281 L 420.695312 125.007812 L 422.71875 125.152344 L 424.746094 125.296875 L 426.769531 125.4375 L 428.796875 125.582031 L 430.820312 125.726562 L 434.875 126.015625 L 436.898438 126.160156 L 438.925781 126.304688 L 440.949219 126.449219 L 442.976562 126.59375 L 445 126.738281 L 447.027344 126.882812 L 449.050781 127.027344 L 451.078125 127.167969 L 453.101562 127.3125 L 455.128906 127.457031 L 457.152344 127.601562 L 459.179688 127.746094 L 461.203125 127.890625 L 463.230469 128.035156 L 465.253906 128.179688 L 467.28125 128.324219 L 469.304688 128.46875 L 471.332031 128.613281 L 473.355469 128.753906 L 475.382812 128.898438 L 477.40625 129.042969 L 479.433594 129.1875 L 481.457031 129.332031 L 483.484375 129.476562 L 485.507812 129.621094 L 487.535156 129.765625 L 489.558594 129.910156 L 491.585938 130.054688 L 493.609375 130.199219 L 495.636719 130.34375 L 497.660156 130.484375 L 501.714844 130.773438 L 503.738281 130.917969 L 505.765625 131.0625 L 507.789062 131.207031 L 509.816406 131.351562 L 511.839844 131.496094 L 513.867188 131.640625 L 515.890625 131.785156 L 517.917969 131.929688 L 519.941406 132.070312 L 521.96875 132.214844 L 523.992188 132.359375 "/>
<path fill="none" stroke-width="1.920561" stroke-linecap="butt" stroke-linejoin="round" stroke="rgb(99.607843%, 71.764706%, 49.411765%)" stroke-opacity="1" stroke-miterlimit="10" d="M 365.386719 42.25 L 367.980469 42.71875 L 373.175781 43.664062 L 375.769531 44.132812 L 380.964844 45.078125 L 383.558594 45.546875 L 386.15625 46.019531 L 388.75 46.492188 L 391.347656 46.960938 L 393.945312 47.433594 L 396.539062 47.90625 L 399.136719 48.378906 L 401.730469 48.847656 L 406.925781 49.792969 L 409.519531 50.261719 L 412.117188 50.734375 L 414.710938 51.207031 L 417.308594 51.675781 L 419.90625 52.148438 L 422.5 52.621094 L 425.097656 53.09375 L 427.691406 53.5625 L 432.886719 54.507812 L 435.480469 54.976562 L 440.675781 55.921875 L 443.269531 56.390625 L 445.867188 56.863281 L 448.460938 57.335938 L 451.058594 57.808594 L 453.65625 58.277344 L 456.25 58.75 L 458.847656 59.222656 L 461.441406 59.691406 L 466.636719 60.636719 L 469.230469 61.105469 L 471.828125 61.578125 L 474.421875 62.050781 L 477.019531 62.519531 L 479.617188 62.992188 L 482.210938 63.464844 L 484.808594 63.9375 L 487.402344 64.40625 L 492.597656 65.351562 L 495.191406 65.820312 L 500.386719 66.765625 L 502.980469 67.234375 L 505.578125 67.707031 L 508.171875 68.179688 L 510.769531 68.652344 L 513.367188 69.121094 L 515.960938 69.59375 L 518.558594 70.066406 L 521.152344 70.535156 L 526.347656 71.480469 L 528.941406 71.949219 L 531.539062 72.421875 L 534.132812 72.894531 L 536.730469 73.367188 L 539.328125 73.835938 L 541.921875 74.308594 L 544.519531 74.78125 L 547.113281 75.25 L 552.308594 76.195312 L 554.902344 76.664062 L 560.097656 77.609375 L 562.691406 78.078125 L 565.289062 78.550781 L 567.882812 79.023438 L 570.480469 79.496094 "/>
<path fill="none" stroke-width="2.987539" stroke-linecap="butt" stroke-linejoin="round" stroke="rgb(20%, 20%, 20%)" stroke-opacity="1" stroke-miterlimit="10" d="M 89.054688 377.410156 L 95.875 373.023438 L 102.699219 368.632812 L 109.519531 364.246094 L 116.34375 359.855469 L 123.164062 355.464844 L 129.988281 351.078125 L 136.808594 346.6875 L 143.632812 342.296875 L 150.453125 337.910156 L 157.277344 333.519531 L 164.097656 329.128906 L 170.921875 324.742188 L 177.742188 320.351562 L 184.5625 315.964844 L 191.386719 311.574219 L 198.207031 307.183594 L 205.03125 302.796875 L 211.851562 298.40625 L 218.675781 294.015625 L 225.496094 289.628906 L 232.320312 285.238281 L 239.140625 280.847656 L 245.964844 276.460938 L 252.785156 272.070312 L 259.609375 267.683594 L 266.429688 263.292969 L 273.253906 258.902344 L 280.074219 254.515625 L 286.898438 250.125 L 293.71875 245.734375 L 300.542969 241.347656 L 307.363281 236.957031 L 314.1875 232.566406 L 321.007812 228.179688 L 327.832031 223.789062 L 334.652344 219.402344 L 341.476562 215.011719 L 348.296875 210.621094 L 355.121094 206.234375 L 361.941406 201.84375 L 368.765625 197.453125 L 375.585938 193.066406 L 382.410156 188.675781 L 389.230469 184.285156 L 396.050781 179.898438 L 402.875 175.507812 L 409.695312 171.121094 L 416.519531 166.730469 L 423.339844 162.339844 L 430.164062 157.953125 L 436.984375 153.5625 L 443.808594 149.171875 L 450.628906 144.785156 L 457.453125 140.394531 L 464.273438 136.003906 L 471.097656 131.617188 L 477.917969 127.226562 L 484.742188 122.839844 L 491.5625 118.449219 L 498.386719 114.058594 L 505.207031 109.671875 L 512.03125 105.28125 L 518.851562 100.890625 L 525.675781 96.503906 L 532.496094 92.113281 L 539.320312 87.722656 L 546.140625 83.335938 L 552.964844 78.945312 L 559.785156 74.554688 L 566.609375 70.167969 L 573.429688 65.777344 L 580.253906 61.390625 L 587.074219 57 L 593.898438 52.609375 L 600.71875 48.222656 L 607.542969 43.832031 L 614.363281 39.441406 L 621.183594 35.054688 L 628.007812 30.664062 "/>
<g fill="rgb(30.196078%, 30.196078%, 30.196078%)" fill-opacity="1">
<use xlink:href="#glyph-0-1" x="35.691406" y="293.286133"/>
<use xlink:href="#glyph-0-2" x="43.691406" y="293.286133"/>
</g>
<g fill="rgb(30.196078%, 30.196078%, 30.196078%)" fill-opacity="1">
<use xlink:href="#glyph-0-3" x="35.691406" y="137.016602"/>
<use xlink:href="#glyph-0-2" x="43.691406" y="137.016602"/>
</g>
<g fill="rgb(30.196078%, 30.196078%, 30.196078%)" fill-opacity="1">
<use xlink:href="#glyph-0-4" x="195.894531" y="464.016602"/>
</g>
<g fill="rgb(30.196078%, 30.196078%, 30.196078%)" fill-opacity="1">
<use xlink:href="#glyph-0-5" x="338.042969" y="464.016602"/>
</g>
<g fill="rgb(30.196078%, 30.196078%, 30.196078%)" fill-opacity="1">
<use xlink:href="#glyph-0-6" x="476.195312" y="464.016602"/>
<use xlink:href="#glyph-0-2" x="483.195312" y="464.016602"/>
</g>
<g fill="rgb(30.196078%, 30.196078%, 30.196078%)" fill-opacity="1">
<use xlink:href="#glyph-0-6" x="619.34375" y="464.016602"/>
<use xlink:href="#glyph-0-7" x="626.34375" y="464.016602"/>
</g>
<g fill="rgb(0%, 0%, 0%)" fill-opacity="1">
<use xlink:href="#glyph-1-1" x="270.03125" y="488.173828"/>
<use xlink:href="#glyph-1-2" x="280.03125" y="488.173828"/>
<use xlink:href="#glyph-1-3" x="287.03125" y="488.173828"/>
<use xlink:href="#glyph-1-2" x="297.03125" y="488.173828"/>
<use xlink:href="#glyph-1-4" x="304.03125" y="488.173828"/>
<use xlink:href="#glyph-1-5" x="314.03125" y="488.173828"/>
<use xlink:href="#glyph-1-6" x="319.03125" y="488.173828"/>
<use xlink:href="#glyph-1-7" x="335.03125" y="488.173828"/>
<use xlink:href="#glyph-1-8" x="340.03125" y="488.173828"/>
<use xlink:href="#glyph-1-7" x="351.03125" y="488.173828"/>
<use xlink:href="#glyph-1-6" x="356.03125" y="488.173828"/>
<use xlink:href="#glyph-1-9" x="372.03125" y="488.173828"/>
<use xlink:href="#glyph-1-6" x="383.03125" y="488.173828"/>
<use xlink:href="#glyph-1-5" x="399.03125" y="488.173828"/>
<use xlink:href="#glyph-1-10" x="404.03125" y="488.173828"/>
<use xlink:href="#glyph-1-3" x="417.03125" y="488.173828"/>
<use xlink:href="#glyph-1-11" x="427.03125" y="488.173828"/>
<use xlink:href="#glyph-1-4" x="437.03125" y="488.173828"/>
</g>
<g fill="rgb(0%, 0%, 0%)" fill-opacity="1">
<use xlink:href="#glyph-2-1" x="25.095703" y="321.675781"/>
<use xlink:href="#glyph-2-2" x="25.095703" y="312.675781"/>
<use xlink:href="#glyph-2-2" x="25.095703" y="302.675781"/>
<use xlink:href="#glyph-2-3" x="25.095703" y="292.675781"/>
<use xlink:href="#glyph-2-4" x="25.095703" y="281.675781"/>
<use xlink:href="#glyph-2-2" x="25.095703" y="276.675781"/>
<use xlink:href="#glyph-2-5" x="25.095703" y="266.675781"/>
<use xlink:href="#glyph-2-6" x="25.095703" y="250.675781"/>
<use xlink:href="#glyph-2-7" x="25.095703" y="239.675781"/>
<use xlink:href="#glyph-2-8" x="25.095703" y="234.675781"/>
<use xlink:href="#glyph-2-9" x="25.095703" y="223.675781"/>
<use xlink:href="#glyph-2-5" x="25.095703" y="214.675781"/>
<use xlink:href="#glyph-2-2" x="25.095703" y="198.675781"/>
<use xlink:href="#glyph-2-3" x="25.095703" y="188.675781"/>
<use xlink:href="#glyph-2-10" x="25.095703" y="177.675781"/>
<use xlink:href="#glyph-2-4" x="25.095703" y="170.675781"/>
<use xlink:href="#glyph-2-11" x="25.095703" y="165.675781"/>
<use xlink:href="#glyph-2-12" x="25.095703" y="158.675781"/>
<use xlink:href="#glyph-2-10" x="25.095703" y="148.675781"/>
<use xlink:href="#glyph-2-2" x="25.095703" y="141.675781"/>
</g>
<path fill-rule="nonzero" fill="rgb(23.137255%, 5.882353%, 43.921569%)" fill-opacity="0.901961" stroke-width="1.352899" stroke-linecap="round" stroke-linejoin="round" stroke="rgb(23.137255%, 5.882353%, 43.921569%)" stroke-opacity="0.901961" stroke-miterlimit="10" d="M 698.214844 183.476562 C 698.214844 187.792969 691.742188 187.792969 691.742188 183.476562 C 691.742188 179.160156 698.214844 179.160156 698.214844 183.476562 "/>
<path fill="none" stroke-width="1.920561" stroke-linecap="butt" stroke-linejoin="round" stroke="rgb(23.137255%, 5.882353%, 43.921569%)" stroke-opacity="1" stroke-miterlimit="10" d="M 688.066406 183.476562 L 701.890625 183.476562 "/>
<path fill-rule="nonzero" fill="rgb(43.921569%, 12.156863%, 50.588235%)" fill-opacity="0.901961" stroke-width="1.352899" stroke-linecap="round" stroke-linejoin="round" stroke="rgb(43.921569%, 12.156863%, 50.588235%)" stroke-opacity="0.901961" stroke-miterlimit="10" d="M 698.214844 200.757812 C 698.214844 205.074219 691.742188 205.074219 691.742188 200.757812 C 691.742188 196.441406 698.214844 196.441406 698.214844 200.757812 "/>
<path fill="none" stroke-width="1.920561" stroke-linecap="butt" stroke-linejoin="round" stroke="rgb(43.921569%, 12.156863%, 50.588235%)" stroke-opacity="1" stroke-miterlimit="10" d="M 688.066406 200.757812 L 701.890625 200.757812 "/>
<path fill-rule="nonzero" fill="rgb(64.705882%, 19.215686%, 49.411765%)" fill-opacity="0.901961" stroke-width="1.352899" stroke-linecap="round" stroke-linejoin="round" stroke="rgb(64.705882%, 19.215686%, 49.411765%)" stroke-opacity="0.901961" stroke-miterlimit="10" d="M 698.214844 218.039062 C 698.214844 222.355469 691.742188 222.355469 691.742188 218.039062 C 691.742188 213.722656 698.214844 213.722656 698.214844 218.039062 "/>
<path fill="none" stroke-width="1.920561" stroke-linecap="butt" stroke-linejoin="round" stroke="rgb(64.705882%, 19.215686%, 49.411765%)" stroke-opacity="1" stroke-miterlimit="10" d="M 688.066406 218.039062 L 701.890625 218.039062 "/>
<path fill-rule="nonzero" fill="rgb(85.490196%, 27.45098%, 41.960784%)" fill-opacity="0.901961" stroke-width="1.352899" stroke-linecap="round" stroke-linejoin="round" stroke="rgb(85.490196%, 27.45098%, 41.960784%)" stroke-opacity="0.901961" stroke-miterlimit="10" d="M 698.214844 235.316406 C 698.214844 239.632812 691.742188 239.632812 691.742188 235.316406 C 691.742188 231 698.214844 231 698.214844 235.316406 "/>
<path fill="none" stroke-width="1.920561" stroke-linecap="butt" stroke-linejoin="round" stroke="rgb(85.490196%, 27.45098%, 41.960784%)" stroke-opacity="1" stroke-miterlimit="10" d="M 688.066406 235.316406 L 701.890625 235.316406 "/>
<path fill-rule="nonzero" fill="rgb(97.647059%, 47.45098%, 36.470588%)" fill-opacity="0.901961" stroke-width="1.352899" stroke-linecap="round" stroke-linejoin="round" stroke="rgb(97.647059%, 47.45098%, 36.470588%)" stroke-opacity="0.901961" stroke-miterlimit="10" d="M 698.214844 252.597656 C 698.214844 256.914062 691.742188 256.914062 691.742188 252.597656 C 691.742188 248.28125 698.214844 248.28125 698.214844 252.597656 "/>
<path fill="none" stroke-width="1.920561" stroke-linecap="butt" stroke-linejoin="round" stroke="rgb(97.647059%, 47.45098%, 36.470588%)" stroke-opacity="1" stroke-miterlimit="10" d="M 688.066406 252.597656 L 701.890625 252.597656 "/>
<path fill-rule="nonzero" fill="rgb(99.607843%, 71.764706%, 49.411765%)" fill-opacity="0.901961" stroke-width="1.352899" stroke-linecap="round" stroke-linejoin="round" stroke="rgb(99.607843%, 71.764706%, 49.411765%)" stroke-opacity="0.901961" stroke-miterlimit="10" d="M 698.214844 269.878906 C 698.214844 274.195312 691.742188 274.195312 691.742188 269.878906 C 691.742188 265.5625 698.214844 265.5625 698.214844 269.878906 "/>
<path fill="none" stroke-width="1.920561" stroke-linecap="butt" stroke-linejoin="round" stroke="rgb(99.607843%, 71.764706%, 49.411765%)" stroke-opacity="1" stroke-miterlimit="10" d="M 688.066406 269.878906 L 701.890625 269.878906 "/>
<g fill="rgb(0%, 0%, 0%)" fill-opacity="1">
<use xlink:href="#glyph-0-8" x="714.078125" y="189.18457"/>
<use xlink:href="#glyph-0-9" x="724.078125" y="189.18457"/>
</g>
<g fill="rgb(0%, 0%, 0%)" fill-opacity="1">
<use xlink:href="#glyph-0-10" x="714.078125" y="206.46582"/>
<use xlink:href="#glyph-0-11" x="718.078125" y="206.46582"/>
</g>
<g fill="rgb(0%, 0%, 0%)" fill-opacity="1">
<use xlink:href="#glyph-0-10" x="714.078125" y="223.74707"/>
<use xlink:href="#glyph-0-12" x="718.078125" y="223.74707"/>
</g>
<g fill="rgb(0%, 0%, 0%)" fill-opacity="1">
<use xlink:href="#glyph-0-13" x="714.078125" y="241.024414"/>
<use xlink:href="#glyph-0-14" x="725.078125" y="241.024414"/>
</g>
<g fill="rgb(0%, 0%, 0%)" fill-opacity="1">
<use xlink:href="#glyph-0-15" x="714.078125" y="258.305664"/>
<use xlink:href="#glyph-0-16" x="722.078125" y="258.305664"/>
</g>
<g fill="rgb(0%, 0%, 0%)" fill-opacity="1">
<use xlink:href="#glyph-0-17" x="714.078125" y="275.586914"/>
<use xlink:href="#glyph-0-15" x="723.078125" y="275.586914"/>
</g>
</svg>
