<?xml version="1.0" encoding="UTF-8"?>
<svg xmlns="http://www.w3.org/2000/svg" xmlns:xlink="http://www.w3.org/1999/xlink" width="864" height="504" viewBox="0 0 864 504">
<defs>
<g>
<g id="glyph-0-0">
<path d="M 8.6875 -16.796875 L 8.6875 5.59375 L 1.96875 5.59375 L 1.96875 -16.796875 Z M 7.828125 -15.96875 L 2.84375 -15.96875 L 2.84375 4.765625 L 7.828125 4.765625 Z M 5.1875 -7.21875 C 5.820312 -7.21875 6.273438 -7.046875 6.546875 -6.703125 C 6.816406 -6.359375 6.953125 -5.914062 6.953125 -5.375 C 6.953125 -4.8125 6.832031 -4.375 6.59375 -4.0625 C 6.351562 -3.75 5.96875 -3.554688 5.4375 -3.484375 L 5.4375 -2.765625 C 5.4375 -2.648438 5.394531 -2.554688 5.3125 -2.484375 C 5.238281 -2.421875 5.148438 -2.390625 5.046875 -2.390625 C 4.929688 -2.390625 4.832031 -2.421875 4.75 -2.484375 C 4.675781 -2.554688 4.640625 -2.648438 4.640625 -2.765625 L 4.640625 -4.109375 C 5.203125 -4.140625 5.582031 -4.242188 5.78125 -4.421875 C 5.988281 -4.597656 6.09375 -4.90625 6.09375 -5.34375 C 6.09375 -5.695312 6.023438 -5.96875 5.890625 -6.15625 C 5.753906 -6.351562 5.5 -6.453125 5.125 -6.453125 C 4.8125 -6.453125 4.53125 -6.390625 4.28125 -6.265625 C 4.195312 -6.234375 4.128906 -6.21875 4.078125 -6.21875 C 3.960938 -6.21875 3.867188 -6.253906 3.796875 -6.328125 C 3.734375 -6.398438 3.703125 -6.488281 3.703125 -6.59375 C 3.703125 -6.789062 3.859375 -6.941406 4.171875 -7.046875 C 4.484375 -7.160156 4.820312 -7.21875 5.1875 -7.21875 Z M 5.046875 -1.921875 C 5.203125 -1.921875 5.332031 -1.863281 5.4375 -1.75 C 5.539062 -1.644531 5.59375 -1.515625 5.59375 -1.359375 C 5.59375 -1.191406 5.539062 -1.050781 5.4375 -0.9375 C 5.332031 -0.820312 5.203125 -0.765625 5.046875 -0.765625 C 4.878906 -0.765625 4.742188 -0.820312 4.640625 -0.9375 C 4.535156 -1.050781 4.484375 -1.191406 4.484375 -1.359375 C 4.484375 -1.515625 4.535156 -1.644531 4.640625 -1.75 C 4.742188 -1.863281 4.878906 -1.921875 5.046875 -1.921875 Z M 5.046875 -1.921875 "/>
</g>
<g id="glyph-0-1">
<path d="M 7.328125 -3.796875 L 7.328125 -2.640625 L 6.109375 -2.640625 L 6.109375 0 L 4.734375 0 L 4.734375 -2.640625 L 0.546875 -2.640625 L 0.546875 -3.6875 L 3.40625 -10.890625 L 4.625 -10.4375 L 2.015625 -3.796875 L 4.75 -3.796875 L 4.890625 -6.703125 L 6.109375 -6.703125 L 6.109375 -3.796875 Z M 7.328125 -3.796875 "/>
</g>
<g id="glyph-0-2">
<path d="M 4.171875 -10.875 C 5.253906 -10.875 6.070312 -10.410156 6.625 -9.484375 C 7.175781 -8.554688 7.453125 -7.175781 7.453125 -5.34375 C 7.453125 -3.488281 7.175781 -2.097656 6.625 -1.171875 C 6.070312 -0.253906 5.253906 0.203125 4.171875 0.203125 C 3.085938 0.203125 2.265625 -0.257812 1.703125 -1.1875 C 1.148438 -2.113281 0.875 -3.5 0.875 -5.34375 C 0.875 -9.03125 1.972656 -10.875 4.171875 -10.875 Z M 4.171875 -9.765625 C 3.554688 -9.765625 3.101562 -9.425781 2.8125 -8.75 C 2.519531 -8.070312 2.375 -6.9375 2.375 -5.34375 C 2.375 -3.738281 2.519531 -2.597656 2.8125 -1.921875 C 3.101562 -1.253906 3.554688 -0.921875 4.171875 -0.921875 C 4.785156 -0.921875 5.238281 -1.253906 5.53125 -1.921875 C 5.820312 -2.597656 5.96875 -3.738281 5.96875 -5.34375 C 5.96875 -6.945312 5.820312 -8.082031 5.53125 -8.75 C 5.25 -9.425781 4.796875 -9.765625 4.171875 -9.765625 Z M 4.171875 -9.765625 "/>
</g>
<g id="glyph-0-3">
<path d="M 6.140625 -9.578125 L 2.40625 -9.578125 L 2.40625 -6.390625 C 2.90625 -6.679688 3.425781 -6.828125 3.96875 -6.828125 C 4.789062 -6.828125 5.453125 -6.53125 5.953125 -5.9375 C 6.453125 -5.34375 6.703125 -4.515625 6.703125 -3.453125 C 6.703125 -2.742188 6.5625 -2.109375 6.28125 -1.546875 C 6 -0.992188 5.597656 -0.5625 5.078125 -0.25 C 4.566406 0.0507812 3.972656 0.203125 3.296875 0.203125 C 2.691406 0.203125 2.15625 0.0859375 1.6875 -0.140625 C 1.21875 -0.378906 0.78125 -0.726562 0.375 -1.1875 L 1.21875 -1.953125 C 1.53125 -1.617188 1.84375 -1.367188 2.15625 -1.203125 C 2.476562 -1.035156 2.847656 -0.953125 3.265625 -0.953125 C 3.878906 -0.953125 4.359375 -1.164062 4.703125 -1.59375 C 5.046875 -2.03125 5.21875 -2.65625 5.21875 -3.46875 C 5.21875 -5 4.640625 -5.765625 3.484375 -5.765625 C 3.234375 -5.765625 3 -5.726562 2.78125 -5.65625 C 2.570312 -5.582031 2.332031 -5.472656 2.0625 -5.328125 L 1.03125 -5.328125 L 1.03125 -10.703125 L 6.34375 -10.703125 Z M 6.140625 -9.578125 "/>
</g>
<g id="glyph-0-4">
<path d="M 4.671875 -7.046875 C 5.160156 -7.046875 5.601562 -6.914062 6 -6.65625 C 6.40625 -6.394531 6.722656 -6.007812 6.953125 -5.5 C 7.191406 -4.988281 7.3125 -4.363281 7.3125 -3.625 C 7.3125 -2.84375 7.179688 -2.160156 6.921875 -1.578125 C 6.660156 -0.992188 6.296875 -0.550781 5.828125 -0.25 C 5.359375 0.0507812 4.816406 0.203125 4.203125 0.203125 C 3.066406 0.203125 2.226562 -0.242188 1.6875 -1.140625 C 1.144531 -2.046875 0.875 -3.300781 0.875 -4.90625 C 0.875 -6.132812 1.023438 -7.195312 1.328125 -8.09375 C 1.640625 -8.988281 2.078125 -9.675781 2.640625 -10.15625 C 3.210938 -10.632812 3.882812 -10.875 4.65625 -10.875 C 5.40625 -10.875 6.066406 -10.65625 6.640625 -10.21875 L 6.078125 -9.3125 C 5.628906 -9.613281 5.164062 -9.765625 4.6875 -9.765625 C 3.988281 -9.765625 3.4375 -9.398438 3.03125 -8.671875 C 2.625 -7.941406 2.394531 -6.9375 2.34375 -5.65625 C 2.945312 -6.582031 3.722656 -7.046875 4.671875 -7.046875 Z M 4.1875 -0.90625 C 4.75 -0.90625 5.171875 -1.132812 5.453125 -1.59375 C 5.734375 -2.0625 5.875 -2.726562 5.875 -3.59375 C 5.875 -4.414062 5.738281 -5.015625 5.46875 -5.390625 C 5.195312 -5.765625 4.828125 -5.953125 4.359375 -5.953125 C 3.960938 -5.953125 3.585938 -5.816406 3.234375 -5.546875 C 2.890625 -5.285156 2.59375 -4.921875 2.34375 -4.453125 C 2.363281 -3.222656 2.519531 -2.320312 2.8125 -1.75 C 3.101562 -1.1875 3.5625 -0.90625 4.1875 -0.90625 Z M 4.1875 -0.90625 "/>
</g>
<g id="glyph-0-5">
<path d="M 6.0625 -10.703125 L 6.0625 -9.640625 L 2.40625 0.15625 L 1.109375 -0.25 L 4.625 -9.546875 L 0.34375 -9.546875 L 0.34375 -10.703125 Z M 6.0625 -10.703125 "/>
</g>
<g id="glyph-0-6">
<path d="M 5.25 -5.71875 C 5.988281 -5.382812 6.523438 -4.988281 6.859375 -4.53125 C 7.203125 -4.070312 7.375 -3.503906 7.375 -2.828125 C 7.375 -2.234375 7.234375 -1.707031 6.953125 -1.25 C 6.679688 -0.789062 6.285156 -0.429688 5.765625 -0.171875 C 5.242188 0.078125 4.644531 0.203125 3.96875 0.203125 C 3.289062 0.203125 2.695312 0.078125 2.1875 -0.171875 C 1.6875 -0.421875 1.300781 -0.773438 1.03125 -1.234375 C 0.757812 -1.691406 0.625 -2.210938 0.625 -2.796875 C 0.625 -4.117188 1.300781 -5.066406 2.65625 -5.640625 C 2.082031 -5.953125 1.664062 -6.304688 1.40625 -6.703125 C 1.15625 -7.097656 1.03125 -7.570312 1.03125 -8.125 C 1.03125 -8.695312 1.160156 -9.191406 1.421875 -9.609375 C 1.691406 -10.023438 2.050781 -10.335938 2.5 -10.546875 C 2.957031 -10.765625 3.457031 -10.875 4 -10.875 C 4.851562 -10.875 5.5625 -10.640625 6.125 -10.171875 C 6.695312 -9.703125 6.984375 -9.039062 6.984375 -8.1875 C 6.984375 -7.644531 6.84375 -7.175781 6.5625 -6.78125 C 6.289062 -6.382812 5.851562 -6.03125 5.25 -5.71875 Z M 4.015625 -9.828125 C 3.523438 -9.828125 3.132812 -9.679688 2.84375 -9.390625 C 2.5625 -9.109375 2.421875 -8.679688 2.421875 -8.109375 C 2.421875 -7.628906 2.539062 -7.253906 2.78125 -6.984375 C 3.019531 -6.710938 3.425781 -6.457031 4 -6.21875 L 4.375 -6.0625 C 4.820312 -6.363281 5.132812 -6.671875 5.3125 -6.984375 C 5.5 -7.296875 5.59375 -7.675781 5.59375 -8.125 C 5.59375 -8.6875 5.453125 -9.109375 5.171875 -9.390625 C 4.898438 -9.679688 4.515625 -9.828125 4.015625 -9.828125 Z M 4 -0.90625 C 4.601562 -0.90625 5.078125 -1.066406 5.421875 -1.390625 C 5.765625 -1.722656 5.9375 -2.203125 5.9375 -2.828125 C 5.9375 -3.398438 5.796875 -3.84375 5.515625 -4.15625 C 5.234375 -4.46875 4.726562 -4.773438 4 -5.078125 L 3.546875 -5.25 C 3.035156 -4.976562 2.660156 -4.648438 2.421875 -4.265625 C 2.179688 -3.890625 2.0625 -3.410156 2.0625 -2.828125 C 2.0625 -2.191406 2.234375 -1.710938 2.578125 -1.390625 C 2.921875 -1.066406 3.394531 -0.90625 4 -0.90625 Z M 4 -0.90625 "/>
</g>
<g id="glyph-0-7">
<path d="M 3.8125 -10.875 C 4.875 -10.875 5.675781 -10.503906 6.21875 -9.765625 C 6.757812 -9.035156 7.03125 -8 7.03125 -6.65625 C 7.03125 -5.238281 6.835938 -4.078125 6.453125 -3.171875 C 6.066406 -2.273438 5.488281 -1.554688 4.71875 -1.015625 C 3.957031 -0.472656 2.953125 -0.015625 1.703125 0.359375 L 1.375 -0.703125 C 2.675781 -1.109375 3.664062 -1.648438 4.34375 -2.328125 C 5.019531 -3.003906 5.410156 -3.941406 5.515625 -5.140625 C 5.253906 -4.753906 4.9375 -4.453125 4.5625 -4.234375 C 4.195312 -4.015625 3.785156 -3.90625 3.328125 -3.90625 C 2.835938 -3.90625 2.382812 -4.039062 1.96875 -4.3125 C 1.550781 -4.59375 1.222656 -4.988281 0.984375 -5.5 C 0.742188 -6.019531 0.625 -6.628906 0.625 -7.328125 C 0.625 -8.078125 0.757812 -8.71875 1.03125 -9.25 C 1.3125 -9.78125 1.691406 -10.179688 2.171875 -10.453125 C 2.648438 -10.734375 3.195312 -10.875 3.8125 -10.875 Z M 3.6875 -4.984375 C 4.40625 -4.984375 5.023438 -5.441406 5.546875 -6.359375 C 5.554688 -7.578125 5.425781 -8.453125 5.15625 -8.984375 C 4.882812 -9.515625 4.441406 -9.78125 3.828125 -9.78125 C 3.265625 -9.78125 2.828125 -9.570312 2.515625 -9.15625 C 2.210938 -8.75 2.0625 -8.132812 2.0625 -7.3125 C 2.0625 -6.550781 2.203125 -5.972656 2.484375 -5.578125 C 2.773438 -5.179688 3.175781 -4.984375 3.6875 -4.984375 Z M 3.6875 -4.984375 "/>
</g>
<g id="glyph-0-8">
<path d="M 3.25 -10.875 C 3.851562 -10.875 4.375 -10.75 4.8125 -10.5 C 5.257812 -10.25 5.597656 -9.90625 5.828125 -9.46875 C 6.066406 -9.039062 6.1875 -8.554688 6.1875 -8.015625 C 6.1875 -7.367188 6.0625 -6.753906 5.8125 -6.171875 C 5.5625 -5.585938 5.160156 -4.9375 4.609375 -4.21875 C 4.054688 -3.507812 3.203125 -2.5 2.046875 -1.1875 L 6.4375 -1.1875 L 6.25 0 L 0.46875 0 L 0.46875 -1.125 C 1.695312 -2.550781 2.597656 -3.628906 3.171875 -4.359375 C 3.742188 -5.097656 4.140625 -5.734375 4.359375 -6.265625 C 4.585938 -6.796875 4.703125 -7.351562 4.703125 -7.9375 C 4.703125 -8.5 4.5625 -8.9375 4.28125 -9.25 C 4 -9.5625 3.617188 -9.71875 3.140625 -9.71875 C 2.734375 -9.71875 2.378906 -9.625 2.078125 -9.4375 C 1.773438 -9.257812 1.46875 -8.972656 1.15625 -8.578125 L 0.25 -9.265625 C 1.03125 -10.335938 2.03125 -10.875 3.25 -10.875 Z M 3.25 -10.875 "/>
</g>
<g id="glyph-0-9">
<path d="M 4.703125 -10.703125 L 4.703125 0 L 3.28125 0 L 3.28125 -9.203125 L 1.0625 -7.703125 L 0.40625 -8.65625 L 3.4375 -10.703125 Z M 4.703125 -10.703125 "/>
</g>
<g id="glyph-0-10">
<path d="M 3.28125 -10.875 C 3.863281 -10.875 4.375 -10.753906 4.8125 -10.515625 C 5.25 -10.273438 5.582031 -9.945312 5.8125 -9.53125 C 6.050781 -9.125 6.171875 -8.675781 6.171875 -8.1875 C 6.171875 -7.507812 5.992188 -6.957031 5.640625 -6.53125 C 5.296875 -6.113281 4.796875 -5.832031 4.140625 -5.6875 C 4.847656 -5.613281 5.414062 -5.351562 5.84375 -4.90625 C 6.269531 -4.457031 6.484375 -3.835938 6.484375 -3.046875 C 6.484375 -2.429688 6.34375 -1.878906 6.0625 -1.390625 C 5.789062 -0.898438 5.398438 -0.507812 4.890625 -0.21875 C 4.390625 0.0625 3.804688 0.203125 3.140625 0.203125 C 2.515625 0.203125 1.957031 0.0820312 1.46875 -0.15625 C 0.988281 -0.394531 0.546875 -0.757812 0.140625 -1.25 L 1.015625 -1.984375 C 1.335938 -1.617188 1.660156 -1.351562 1.984375 -1.1875 C 2.316406 -1.019531 2.6875 -0.9375 3.09375 -0.9375 C 3.675781 -0.9375 4.140625 -1.125 4.484375 -1.5 C 4.835938 -1.882812 5.015625 -2.410156 5.015625 -3.078125 C 5.015625 -3.773438 4.835938 -4.28125 4.484375 -4.59375 C 4.140625 -4.914062 3.640625 -5.078125 2.984375 -5.078125 L 2.3125 -5.078125 L 2.5 -6.140625 L 2.9375 -6.140625 C 3.476562 -6.140625 3.921875 -6.304688 4.265625 -6.640625 C 4.609375 -6.972656 4.78125 -7.445312 4.78125 -8.0625 C 4.78125 -8.59375 4.632812 -9.007812 4.34375 -9.3125 C 4.050781 -9.613281 3.648438 -9.765625 3.140625 -9.765625 C 2.765625 -9.765625 2.414062 -9.6875 2.09375 -9.53125 C 1.78125 -9.382812 1.46875 -9.148438 1.15625 -8.828125 L 0.40625 -9.59375 C 1.226562 -10.445312 2.1875 -10.875 3.28125 -10.875 Z M 3.28125 -10.875 "/>
</g>
<g id="glyph-1-0">
<path d="M 10.859375 -21 L 10.859375 7 L 2.453125 7 L 2.453125 -21 Z M 9.78125 -19.953125 L 3.5625 -19.953125 L 3.5625 5.953125 L 9.78125 5.953125 Z M 6.484375 -9.015625 C 7.285156 -9.015625 7.851562 -8.800781 8.1875 -8.375 C 8.53125 -7.945312 8.703125 -7.394531 8.703125 -6.71875 C 8.703125 -6.007812 8.550781 -5.460938 8.25 -5.078125 C 7.945312 -4.691406 7.460938 -4.453125 6.796875 -4.359375 L 6.796875 -3.453125 C 6.796875 -3.304688 6.742188 -3.191406 6.640625 -3.109375 C 6.546875 -3.023438 6.429688 -2.984375 6.296875 -2.984375 C 6.160156 -2.984375 6.039062 -3.023438 5.9375 -3.109375 C 5.84375 -3.191406 5.796875 -3.304688 5.796875 -3.453125 L 5.796875 -5.140625 C 6.503906 -5.179688 6.984375 -5.3125 7.234375 -5.53125 C 7.492188 -5.75 7.625 -6.132812 7.625 -6.6875 C 7.625 -7.125 7.535156 -7.460938 7.359375 -7.703125 C 7.179688 -7.941406 6.863281 -8.0625 6.40625 -8.0625 C 6.007812 -8.0625 5.660156 -7.988281 5.359375 -7.84375 C 5.253906 -7.800781 5.164062 -7.78125 5.09375 -7.78125 C 4.945312 -7.78125 4.832031 -7.820312 4.75 -7.90625 C 4.664062 -8 4.625 -8.109375 4.625 -8.234375 C 4.625 -8.492188 4.816406 -8.6875 5.203125 -8.8125 C 5.597656 -8.945312 6.023438 -9.015625 6.484375 -9.015625 Z M 6.296875 -2.40625 C 6.492188 -2.40625 6.660156 -2.335938 6.796875 -2.203125 C 6.929688 -2.066406 7 -1.898438 7 -1.703125 C 7 -1.484375 6.929688 -1.300781 6.796875 -1.15625 C 6.660156 -1.019531 6.492188 -0.953125 6.296875 -0.953125 C 6.097656 -0.953125 5.929688 -1.019531 5.796875 -1.15625 C 5.660156 -1.300781 5.59375 -1.484375 5.59375 -1.703125 C 5.59375 -1.898438 5.660156 -2.066406 5.796875 -2.203125 C 5.929688 -2.335938 6.097656 -2.40625 6.296875 -2.40625 Z M 6.296875 -2.40625 "/>
</g>
<g id="glyph-1-1">
<path d="M 4.546875 -13.765625 C 5.722656 -13.765625 6.75 -13.582031 7.625 -13.21875 C 8.507812 -12.863281 9.226562 -12.1875 9.78125 -11.1875 C 10.34375 -10.1875 10.625 -8.773438 10.625 -6.953125 C 10.625 -4.367188 10.070312 -2.5625 8.96875 -1.53125 C 7.863281 -0.507812 6.472656 0 4.796875 0 L 1.703125 0 L 1.703125 -13.765625 Z M 3.5625 -12.296875 L 3.5625 -1.4375 L 4.921875 -1.4375 C 6.066406 -1.4375 6.976562 -1.832031 7.65625 -2.625 C 8.34375 -3.414062 8.6875 -4.859375 8.6875 -6.953125 C 8.6875 -8.421875 8.507812 -9.546875 8.15625 -10.328125 C 7.800781 -11.117188 7.34375 -11.644531 6.78125 -11.90625 C 6.226562 -12.164062 5.570312 -12.296875 4.8125 -12.296875 Z M 3.5625 -12.296875 "/>
</g>
<g id="glyph-1-2">
<path d="M 8.1875 -2.40625 C 8.1875 -1.976562 8.242188 -1.660156 8.359375 -1.453125 C 8.484375 -1.242188 8.671875 -1.085938 8.921875 -0.984375 L 8.546875 0.234375 C 8.023438 0.160156 7.613281 0.00390625 7.3125 -0.234375 C 7.019531 -0.472656 6.816406 -0.84375 6.703125 -1.34375 C 6.023438 -0.269531 5.070312 0.265625 3.84375 0.265625 C 2.90625 0.265625 2.160156 -0.0234375 1.609375 -0.609375 C 1.066406 -1.191406 0.796875 -1.96875 0.796875 -2.9375 C 0.796875 -4.0625 1.160156 -4.914062 1.890625 -5.5 C 2.628906 -6.082031 3.679688 -6.375 5.046875 -6.375 L 6.40625 -6.375 L 6.40625 -7.28125 C 6.40625 -8.007812 6.253906 -8.535156 5.953125 -8.859375 C 5.648438 -9.191406 5.160156 -9.359375 4.484375 -9.359375 C 3.742188 -9.359375 2.890625 -9.171875 1.921875 -8.796875 L 1.484375 -10.0625 C 2.648438 -10.539062 3.742188 -10.78125 4.765625 -10.78125 C 7.046875 -10.78125 8.1875 -9.640625 8.1875 -7.359375 Z M 4.265625 -1.09375 C 5.191406 -1.09375 5.90625 -1.640625 6.40625 -2.734375 L 6.40625 -5.21875 L 5.234375 -5.21875 C 3.503906 -5.21875 2.640625 -4.492188 2.640625 -3.046875 C 2.640625 -2.410156 2.78125 -1.925781 3.0625 -1.59375 C 3.34375 -1.257812 3.742188 -1.09375 4.265625 -1.09375 Z M 4.265625 -1.09375 "/>
</g>
<g id="glyph-1-3">
<path d="M 6.59375 -0.453125 C 5.925781 0.0234375 5.1875 0.265625 4.375 0.265625 C 3.519531 0.265625 2.863281 0.0195312 2.40625 -0.46875 C 1.945312 -0.96875 1.71875 -1.664062 1.71875 -2.5625 L 1.71875 -9.15625 L 0.21875 -9.15625 L 0.21875 -10.515625 L 1.71875 -10.515625 L 1.71875 -12.9375 L 3.515625 -13.15625 L 3.515625 -10.515625 L 5.84375 -10.515625 L 5.640625 -9.15625 L 3.515625 -9.15625 L 3.515625 -2.578125 C 3.515625 -1.671875 3.894531 -1.21875 4.65625 -1.21875 C 4.882812 -1.21875 5.09375 -1.25 5.28125 -1.3125 C 5.476562 -1.382812 5.695312 -1.488281 5.9375 -1.625 Z M 6.59375 -0.453125 "/>
</g>
<g id="glyph-1-4">
<path d="M 9 -5.578125 C 9 -5.296875 8.984375 -4.984375 8.953125 -4.640625 L 2.84375 -4.640625 C 2.894531 -3.410156 3.140625 -2.523438 3.578125 -1.984375 C 4.015625 -1.453125 4.613281 -1.1875 5.375 -1.1875 C 5.851562 -1.1875 6.28125 -1.257812 6.65625 -1.40625 C 7.039062 -1.550781 7.441406 -1.789062 7.859375 -2.125 L 8.65625 -1.0625 C 7.675781 -0.175781 6.554688 0.265625 5.296875 0.265625 C 3.921875 0.265625 2.859375 -0.207031 2.109375 -1.15625 C 1.359375 -2.113281 0.984375 -3.457031 0.984375 -5.1875 C 0.984375 -6.90625 1.34375 -8.265625 2.0625 -9.265625 C 2.78125 -10.273438 3.78125 -10.78125 5.0625 -10.78125 C 6.320312 -10.78125 7.289062 -10.328125 7.96875 -9.421875 C 8.65625 -8.523438 9 -7.242188 9 -5.578125 Z M 7.265625 -6.125 C 7.265625 -8.320312 6.535156 -9.421875 5.078125 -9.421875 C 4.410156 -9.421875 3.882812 -9.144531 3.5 -8.59375 C 3.113281 -8.039062 2.894531 -7.144531 2.84375 -5.90625 L 7.265625 -5.90625 Z M 7.265625 -6.125 "/>
</g>
<g id="glyph-2-0">
<path d="M -21 -10.859375 L 7 -10.859375 L 7 -2.453125 L -21 -2.453125 Z M -19.953125 -9.78125 L -19.953125 -3.5625 L 5.953125 -3.5625 L 5.953125 -9.78125 Z M -9.015625 -6.484375 C -9.015625 -7.285156 -8.800781 -7.851562 -8.375 -8.1875 C -7.945312 -8.53125 -7.394531 -8.703125 -6.71875 -8.703125 C -6.007812 -8.703125 -5.460938 -8.550781 -5.078125 -8.25 C -4.691406 -7.945312 -4.453125 -7.460938 -4.359375 -6.796875 L -3.453125 -6.796875 C -3.304688 -6.796875 -3.191406 -6.742188 -3.109375 -6.640625 C -3.023438 -6.546875 -2.984375 -6.429688 -2.984375 -6.296875 C -2.984375 -6.160156 -3.023438 -6.039062 -3.109375 -5.9375 C -3.191406 -5.84375 -3.304688 -5.796875 -3.453125 -5.796875 L -5.140625 -5.796875 C -5.179688 -6.503906 -5.3125 -6.984375 -5.53125 -7.234375 C -5.75 -7.492188 -6.132812 -7.625 -6.6875 -7.625 C -7.125 -7.625 -7.460938 -7.535156 -7.703125 -7.359375 C -7.941406 -7.179688 -8.0625 -6.863281 -8.0625 -6.40625 C -8.0625 -6.007812 -7.988281 -5.660156 -7.84375 -5.359375 C -7.800781 -5.253906 -7.78125 -5.164062 -7.78125 -5.09375 C -7.78125 -4.945312 -7.820312 -4.832031 -7.90625 -4.75 C -8 -4.664062 -8.109375 -4.625 -8.234375 -4.625 C -8.492188 -4.625 -8.6875 -4.816406 -8.8125 -5.203125 C -8.945312 -5.597656 -9.015625 -6.023438 -9.015625 -6.484375 Z M -2.40625 -6.296875 C -2.40625 -6.492188 -2.335938 -6.660156 -2.203125 -6.796875 C -2.066406 -6.929688 -1.898438 -7 -1.703125 -7 C -1.484375 -7 -1.300781 -6.929688 -1.15625 -6.796875 C -1.019531 -6.660156 -0.953125 -6.492188 -0.953125 -6.296875 C -0.953125 -6.097656 -1.019531 -5.929688 -1.15625 -5.796875 C -1.300781 -5.660156 -1.484375 -5.59375 -1.703125 -5.59375 C -1.898438 -5.59375 -2.066406 -5.660156 -2.203125 -5.796875 C -2.335938 -5.929688 -2.40625 -6.097656 -2.40625 -6.296875 Z M -2.40625 -6.296875 "/>
</g>
<g id="glyph-2-1">
<path d="M 0 -8.453125 L -5.859375 -5.5 L -5.859375 -3.5625 L 0 -3.5625 L 0 -1.703125 L -13.765625 -1.703125 L -13.765625 -4.921875 C -13.765625 -8.203125 -12.46875 -9.84375 -9.875 -9.84375 C -8.96875 -9.84375 -8.203125 -9.617188 -7.578125 -9.171875 C -6.953125 -8.734375 -6.492188 -8.085938 -6.203125 -7.234375 L 0 -10.515625 Z M -7.28125 -5.0625 C -7.28125 -6.019531 -7.488281 -6.734375 -7.90625 -7.203125 C -8.332031 -7.671875 -8.988281 -7.90625 -9.875 -7.90625 C -10.71875 -7.90625 -11.335938 -7.664062 -11.734375 -7.1875 C -12.140625 -6.71875 -12.34375 -5.945312 -12.34375 -4.875 L -12.34375 -3.5625 L -7.28125 -3.5625 Z M -7.28125 -5.0625 "/>
</g>
<g id="glyph-2-2">
<path d="M -2.40625 -8.1875 C -1.976562 -8.1875 -1.660156 -8.242188 -1.453125 -8.359375 C -1.242188 -8.484375 -1.085938 -8.671875 -0.984375 -8.921875 L 0.234375 -8.546875 C 0.160156 -8.023438 0.00390625 -7.613281 -0.234375 -7.3125 C -0.472656 -7.019531 -0.84375 -6.816406 -1.34375 -6.703125 C -0.269531 -6.023438 0.265625 -5.070312 0.265625 -3.84375 C 0.265625 -2.90625 -0.0234375 -2.160156 -0.609375 -1.609375 C -1.191406 -1.066406 -1.96875 -0.796875 -2.9375 -0.796875 C -4.0625 -0.796875 -4.914062 -1.160156 -5.5 -1.890625 C -6.082031 -2.628906 -6.375 -3.679688 -6.375 -5.046875 L -6.375 -6.40625 L -7.28125 -6.40625 C -8.007812 -6.40625 -8.535156 -6.253906 -8.859375 -5.953125 C -9.191406 -5.648438 -9.359375 -5.160156 -9.359375 -4.484375 C -9.359375 -3.742188 -9.171875 -2.890625 -8.796875 -1.921875 L -10.0625 -1.484375 C -10.539062 -2.648438 -10.78125 -3.742188 -10.78125 -4.765625 C -10.78125 -7.046875 -9.640625 -8.1875 -7.359375 -8.1875 Z M -1.09375 -4.265625 C -1.09375 -5.191406 -1.640625 -5.90625 -2.734375 -6.40625 L -5.21875 -6.40625 L -5.21875 -5.234375 C -5.21875 -3.503906 -4.492188 -2.640625 -3.046875 -2.640625 C -2.410156 -2.640625 -1.925781 -2.78125 -1.59375 -3.0625 C -1.257812 -3.34375 -1.09375 -3.742188 -1.09375 -4.265625 Z M -1.09375 -4.265625 "/>
</g>
<g id="glyph-2-3">
<path d="M -0.453125 -6.59375 C 0.0234375 -5.925781 0.265625 -5.1875 0.265625 -4.375 C 0.265625 -3.519531 0.0195312 -2.863281 -0.46875 -2.40625 C -0.96875 -1.945312 -1.664062 -1.71875 -2.5625 -1.71875 L -9.15625 -1.71875 L -9.15625 -0.21875 L -10.515625 -0.21875 L -10.515625 -1.71875 L -12.9375 -1.71875 L -13.15625 -3.515625 L -10.515625 -3.515625 L -10.515625 -5.84375 L -9.15625 -5.640625 L -9.15625 -3.515625 L -2.578125 -3.515625 C -1.671875 -3.515625 -1.21875 -3.894531 -1.21875 -4.65625 C -1.21875 -4.882812 -1.25 -5.09375 -1.3125 -5.28125 C -1.382812 -5.476562 -1.488281 -5.695312 -1.625 -5.9375 Z M -0.453125 -6.59375 "/>
</g>
<g id="glyph-2-4">
<path d="M -10.515625 -3.421875 L 0 -3.421875 L 0 -1.625 L -10.515625 -1.625 Z M -15.484375 -2.515625 C -15.484375 -2.859375 -15.367188 -3.140625 -15.140625 -3.359375 C -14.910156 -3.585938 -14.628906 -3.703125 -14.296875 -3.703125 C -13.960938 -3.703125 -13.6875 -3.59375 -13.46875 -3.375 C -13.25 -3.164062 -13.140625 -2.878906 -13.140625 -2.515625 C -13.140625 -2.171875 -13.25 -1.890625 -13.46875 -1.671875 C -13.6875 -1.453125 -13.960938 -1.34375 -14.296875 -1.34375 C -14.628906 -1.34375 -14.910156 -1.453125 -15.140625 -1.671875 C -15.367188 -1.890625 -15.484375 -2.171875 -15.484375 -2.515625 Z M -15.484375 -2.515625 "/>
</g>
<g id="glyph-2-5">
<path d="M -10.78125 -6.3125 C -10.78125 -7.15625 -10.503906 -7.8125 -9.953125 -8.28125 C -9.398438 -8.757812 -8.632812 -9 -7.65625 -9 L 0 -9 L 0 -7.203125 L -7.4375 -7.203125 C -8.113281 -7.203125 -8.601562 -7.085938 -8.90625 -6.859375 C -9.207031 -6.628906 -9.359375 -6.28125 -9.359375 -5.8125 C -9.359375 -4.9375 -8.734375 -4.140625 -7.484375 -3.421875 L 0 -3.421875 L 0 -1.625 L -10.515625 -1.625 L -10.515625 -3.1875 L -8.953125 -3.3125 C -10.171875 -4.132812 -10.78125 -5.132812 -10.78125 -6.3125 Z M -10.78125 -6.3125 "/>
</g>
<g id="glyph-2-6">
<path d="M -10.140625 -9.34375 C -9.910156 -8.769531 -9.796875 -7.882812 -9.796875 -6.6875 C -9.234375 -7.800781 -8.316406 -8.359375 -7.046875 -8.359375 C -5.984375 -8.359375 -5.128906 -8.023438 -4.484375 -7.359375 C -3.835938 -6.703125 -3.515625 -5.8125 -3.515625 -4.6875 C -3.515625 -4.257812 -3.582031 -3.867188 -3.71875 -3.515625 C -3.445312 -3.140625 -3.109375 -2.953125 -2.703125 -2.953125 C -2.078125 -2.953125 -1.765625 -3.394531 -1.765625 -4.28125 L -1.765625 -5.65625 C -1.765625 -6.695312 -1.5 -7.523438 -0.96875 -8.140625 C -0.445312 -8.753906 0.222656 -9.0625 1.046875 -9.0625 C 2.023438 -9.0625 2.796875 -8.679688 3.359375 -7.921875 C 3.929688 -7.160156 4.21875 -6.046875 4.21875 -4.578125 C 4.21875 -3.054688 3.957031 -1.976562 3.4375 -1.34375 C 2.914062 -0.71875 2.125 -0.40625 1.0625 -0.40625 L 1.0625 -2.015625 C 1.5 -2.015625 1.847656 -2.09375 2.109375 -2.25 C 2.367188 -2.40625 2.5625 -2.664062 2.6875 -3.03125 C 2.8125 -3.394531 2.875 -3.914062 2.875 -4.59375 C 2.875 -5.539062 2.726562 -6.222656 2.4375 -6.640625 C 2.144531 -7.054688 1.726562 -7.265625 1.1875 -7.265625 C 0.675781 -7.265625 0.285156 -7.09375 0.015625 -6.75 C -0.242188 -6.40625 -0.375 -5.921875 -0.375 -5.296875 L -0.375 -4.125 C -0.375 -3.195312 -0.550781 -2.503906 -0.90625 -2.046875 C -1.257812 -1.597656 -1.726562 -1.375 -2.3125 -1.375 C -3 -1.375 -3.609375 -1.742188 -4.140625 -2.484375 C -4.460938 -1.921875 -4.863281 -1.5 -5.34375 -1.21875 C -5.832031 -0.945312 -6.425781 -0.8125 -7.125 -0.8125 C -8.21875 -0.8125 -9.097656 -1.160156 -9.765625 -1.859375 C -10.429688 -2.554688 -10.765625 -3.46875 -10.765625 -4.59375 C -10.765625 -5.65625 -10.835938 -6.472656 -10.984375 -7.046875 C -11.128906 -7.628906 -11.351562 -8.226562 -11.65625 -8.84375 Z M -9.5 -4.625 C -9.5 -3.96875 -9.296875 -3.46875 -8.890625 -3.125 C -8.484375 -2.789062 -7.894531 -2.625 -7.125 -2.625 C -6.375 -2.625 -5.785156 -2.800781 -5.359375 -3.15625 C -4.941406 -3.507812 -4.734375 -4 -4.734375 -4.625 C -4.734375 -5.9375 -5.535156 -6.59375 -7.140625 -6.59375 C -7.910156 -6.59375 -8.492188 -6.425781 -8.890625 -6.09375 C -9.296875 -5.757812 -9.5 -5.269531 -9.5 -4.625 Z M -9.5 -4.625 "/>
</g>
</g>
<clipPath id="clip-0">
<path clip-rule="nonzero" d="M 58.910156 429 L 854.039062 429 L 854.039062 431 L 58.910156 431 Z M 58.910156 429 "/>
</clipPath>
<clipPath id="clip-1">
<path clip-rule="nonzero" d="M 58.910156 354 L 854.039062 354 L 854.039062 356 L 58.910156 356 Z M 58.910156 354 "/>
</clipPath>
<clipPath id="clip-2">
<path clip-rule="nonzero" d="M 58.910156 278 L 854.039062 278 L 854.039062 280 L 58.910156 280 Z M 58.910156 278 "/>
</clipPath>
<clipPath id="clip-3">
<path clip-rule="nonzero" d="M 58.910156 203 L 854.039062 203 L 854.039062 205 L 58.910156 205 Z M 58.910156 203 "/>
</clipPath>
<clipPath id="clip-4">
<path clip-rule="nonzero" d="M 58.910156 127 L 854.039062 127 L 854.039062 129 L 58.910156 129 Z M 58.910156 127 "/>
</clipPath>
<clipPath id="clip-5">
<path clip-rule="nonzero" d="M 58.910156 51 L 854.039062 51 L 854.039062 53 L 58.910156 53 Z M 58.910156 51 "/>
</clipPath>
<clipPath id="clip-6">
<path clip-rule="nonzero" d="M 151 9.960938 L 153 9.960938 L 153 445.089844 L 151 445.089844 Z M 151 9.960938 "/>
</clipPath>
<clipPath id="clip-7">
<path clip-rule="nonzero" d="M 286 9.960938 L 288 9.960938 L 288 445.089844 L 286 445.089844 Z M 286 9.960938 "/>
</clipPath>
<clipPath id="clip-8">
<path clip-rule="nonzero" d="M 422 9.960938 L 424 9.960938 L 424 445.089844 L 422 445.089844 Z M 422 9.960938 "/>
</clipPath>
<clipPath id="clip-9">
<path clip-rule="nonzero" d="M 557 9.960938 L 559 9.960938 L 559 445.089844 L 557 445.089844 Z M 557 9.960938 "/>
</clipPath>
<clipPath id="clip-10">
<path clip-rule="nonzero" d="M 693 9.960938 L 695 9.960938 L 695 445.089844 L 693 445.089844 Z M 693 9.960938 "/>
</clipPath>
<clipPath id="clip-11">
<path clip-rule="nonzero" d="M 828 9.960938 L 830 9.960938 L 830 445.089844 L 828 445.089844 Z M 828 9.960938 "/>
</clipPath>
<clipPath id="clip-12">
<path clip-rule="nonzero" d="M 58.910156 391 L 854.039062 391 L 854.039062 394 L 58.910156 394 Z M 58.910156 391 "/>
</clipPath>
<clipPath id="clip-13">
<path clip-rule="nonzero" d="M 58.910156 316 L 854.039062 316 L 854.039062 318 L 58.910156 318 Z M 58.910156 316 "/>
</clipPath>
<clipPath id="clip-14">
<path clip-rule="nonzero" d="M 58.910156 240 L 854.039062 240 L 854.039062 243 L 58.910156 243 Z M 58.910156 240 "/>
</clipPath>
<clipPath id="clip-15">
<path clip-rule="nonzero" d="M 58.910156 164 L 854.039062 164 L 854.039062 167 L 58.910156 167 Z M 58.910156 164 "/>
</clipPath>
<clipPath id="clip-16">
<path clip-rule="nonzero" d="M 58.910156 89 L 854.039062 89 L 854.039062 92 L 58.910156 92 Z M 58.910156 89 "/>
</clipPath>
<clipPath id="clip-17">
<path clip-rule="nonzero" d="M 58.910156 13 L 854.039062 13 L 854.039062 16 L 58.910156 16 Z M 58.910156 13 "/>
</clipPath>
<clipPath id="clip-18">
<path clip-rule="nonzero" d="M 82 9.960938 L 85 9.960938 L 85 445.089844 L 82 445.089844 Z M 82 9.960938 "/>
</clipPath>
<clipPath id="clip-19">
<path clip-rule="nonzero" d="M 218 9.960938 L 221 9.960938 L 221 445.089844 L 218 445.089844 Z M 218 9.960938 "/>
</clipPath>
<clipPath id="clip-20">
<path clip-rule="nonzero" d="M 353 9.960938 L 356 9.960938 L 356 445.089844 L 353 445.089844 Z M 353 9.960938 "/>
</clipPath>
<clipPath id="clip-21">
<path clip-rule="nonzero" d="M 489 9.960938 L 492 9.960938 L 492 445.089844 L 489 445.089844 Z M 489 9.960938 "/>
</clipPath>
<clipPath id="clip-22">
<path clip-rule="nonzero" d="M 624 9.960938 L 627 9.960938 L 627 445.089844 L 624 445.089844 Z M 624 9.960938 "/>
</clipPath>
<clipPath id="clip-23">
<path clip-rule="nonzero" d="M 760 9.960938 L 763 9.960938 L 763 445.089844 L 760 445.089844 Z M 760 9.960938 "/>
</clipPath>
</defs>
<rect x="-86.4" y="-50.4" width="1036.8" height="604.8" fill="rgb(100%, 100%, 100%)" fill-opacity="1"/>
<rect x="-86.4" y="-50.4" width="1036.8" height="604.8" fill="rgb(100%, 100%, 100%)" fill-opacity="1"/>
<g clip-path="url(#clip-0)">
<path fill="none" stroke-width="0.96998" stroke-linecap="butt" stroke-linejoin="round" stroke="rgb(92.156863%, 92.156863%, 92.156863%)" stroke-opacity="1" stroke-miterlimit="10" d="M 58.910156 430.375 L 854.039062 430.375 "/>
</g>
<g clip-path="url(#clip-1)">
<path fill="none" stroke-width="0.96998" stroke-linecap="butt" stroke-linejoin="round" stroke="rgb(92.156863%, 92.156863%, 92.156863%)" stroke-opacity="1" stroke-miterlimit="10" d="M 58.910156 354.785156 L 854.039062 354.785156 "/>
</g>
<g clip-path="url(#clip-2)">
<path fill="none" stroke-width="0.96998" stroke-linecap="butt" stroke-linejoin="round" stroke="rgb(92.156863%, 92.156863%, 92.156863%)" stroke-opacity="1" stroke-miterlimit="10" d="M 58.910156 279.191406 L 854.039062 279.191406 "/>
</g>
<g clip-path="url(#clip-3)">
<path fill="none" stroke-width="0.96998" stroke-linecap="butt" stroke-linejoin="round" stroke="rgb(92.156863%, 92.156863%, 92.156863%)" stroke-opacity="1" stroke-miterlimit="10" d="M 58.910156 203.601562 L 854.039062 203.601562 "/>
</g>
<g clip-path="url(#clip-4)">
<path fill="none" stroke-width="0.96998" stroke-linecap="butt" stroke-linejoin="round" stroke="rgb(92.156863%, 92.156863%, 92.156863%)" stroke-opacity="1" stroke-miterlimit="10" d="M 58.910156 128.011719 L 854.039062 128.011719 "/>
</g>
<g clip-path="url(#clip-5)">
<path fill="none" stroke-width="0.96998" stroke-linecap="butt" stroke-linejoin="round" stroke="rgb(92.156863%, 92.156863%, 92.156863%)" stroke-opacity="1" stroke-miterlimit="10" d="M 58.910156 52.417969 L 854.039062 52.417969 "/>
</g>
<g clip-path="url(#clip-6)">
<path fill="none" stroke-width="0.96998" stroke-linecap="butt" stroke-linejoin="round" stroke="rgb(92.156863%, 92.156863%, 92.156863%)" stroke-opacity="1" stroke-miterlimit="10" d="M 151.523438 445.089844 L 151.523438 9.960938 "/>
</g>
<g clip-path="url(#clip-7)">
<path fill="none" stroke-width="0.96998" stroke-linecap="butt" stroke-linejoin="round" stroke="rgb(92.156863%, 92.156863%, 92.156863%)" stroke-opacity="1" stroke-miterlimit="10" d="M 287.058594 445.089844 L 287.058594 9.960938 "/>
</g>
<g clip-path="url(#clip-8)">
<path fill="none" stroke-width="0.96998" stroke-linecap="butt" stroke-linejoin="round" stroke="rgb(92.156863%, 92.156863%, 92.156863%)" stroke-opacity="1" stroke-miterlimit="10" d="M 422.589844 445.089844 L 422.589844 9.960938 "/>
</g>
<g clip-path="url(#clip-9)">
<path fill="none" stroke-width="0.96998" stroke-linecap="butt" stroke-linejoin="round" stroke="rgb(92.156863%, 92.156863%, 92.156863%)" stroke-opacity="1" stroke-miterlimit="10" d="M 558.125 445.089844 L 558.125 9.960938 "/>
</g>
<g clip-path="url(#clip-10)">
<path fill="none" stroke-width="0.96998" stroke-linecap="butt" stroke-linejoin="round" stroke="rgb(92.156863%, 92.156863%, 92.156863%)" stroke-opacity="1" stroke-miterlimit="10" d="M 693.65625 445.089844 L 693.65625 9.960938 "/>
</g>
<g clip-path="url(#clip-11)">
<path fill="none" stroke-width="0.96998" stroke-linecap="butt" stroke-linejoin="round" stroke="rgb(92.156863%, 92.156863%, 92.156863%)" stroke-opacity="1" stroke-miterlimit="10" d="M 829.191406 445.089844 L 829.191406 9.960938 "/>
</g>
<g clip-path="url(#clip-12)">
<path fill="none" stroke-width="1.939961" stroke-linecap="butt" stroke-linejoin="round" stroke="rgb(92.156863%, 92.156863%, 92.156863%)" stroke-opacity="1" stroke-miterlimit="10" d="M 58.910156 392.578125 L 854.039062 392.578125 "/>
</g>
<g clip-path="url(#clip-13)">
<path fill="none" stroke-width="1.939961" stroke-linecap="butt" stroke-linejoin="round" stroke="rgb(92.156863%, 92.156863%, 92.156863%)" stroke-opacity="1" stroke-miterlimit="10" d="M 58.910156 316.988281 L 854.039062 316.988281 "/>
</g>
<g clip-path="url(#clip-14)">
<path fill="none" stroke-width="1.939961" stroke-linecap="butt" stroke-linejoin="round" stroke="rgb(92.156863%, 92.156863%, 92.156863%)" stroke-opacity="1" stroke-miterlimit="10" d="M 58.910156 241.398438 L 854.039062 241.398438 "/>
</g>
<g clip-path="url(#clip-15)">
<path fill="none" stroke-width="1.939961" stroke-linecap="butt" stroke-linejoin="round" stroke="rgb(92.156863%, 92.156863%, 92.156863%)" stroke-opacity="1" stroke-miterlimit="10" d="M 58.910156 165.804688 L 854.039062 165.804688 "/>
</g>
<g clip-path="url(#clip-16)">
<path fill="none" stroke-width="1.939961" stroke-linecap="butt" stroke-linejoin="round" stroke="rgb(92.156863%, 92.156863%, 92.156863%)" stroke-opacity="1" stroke-miterlimit="10" d="M 58.910156 90.214844 L 854.039062 90.214844 "/>
</g>
<g clip-path="url(#clip-17)">
<path fill="none" stroke-width="1.939961" stroke-linecap="butt" stroke-linejoin="round" stroke="rgb(92.156863%, 92.156863%, 92.156863%)" stroke-opacity="1" stroke-miterlimit="10" d="M 58.910156 14.621094 L 854.039062 14.621094 "/>
</g>
<g clip-path="url(#clip-18)">
<path fill="none" stroke-width="1.939961" stroke-linecap="butt" stroke-linejoin="round" stroke="rgb(92.156863%, 92.156863%, 92.156863%)" stroke-opacity="1" stroke-miterlimit="10" d="M 83.757812 445.089844 L 83.757812 9.960938 "/>
</g>
<g clip-path="url(#clip-19)">
<path fill="none" stroke-width="1.939961" stroke-linecap="butt" stroke-linejoin="round" stroke="rgb(92.156863%, 92.156863%, 92.156863%)" stroke-opacity="1" stroke-miterlimit="10" d="M 219.292969 445.089844 L 219.292969 9.960938 "/>
</g>
<g clip-path="url(#clip-20)">
<path fill="none" stroke-width="1.939961" stroke-linecap="butt" stroke-linejoin="round" stroke="rgb(92.156863%, 92.156863%, 92.156863%)" stroke-opacity="1" stroke-miterlimit="10" d="M 354.824219 445.089844 L 354.824219 9.960938 "/>
</g>
<g clip-path="url(#clip-21)">
<path fill="none" stroke-width="1.939961" stroke-linecap="butt" stroke-linejoin="round" stroke="rgb(92.156863%, 92.156863%, 92.156863%)" stroke-opacity="1" stroke-miterlimit="10" d="M 490.355469 445.089844 L 490.355469 9.960938 "/>
</g>
<g clip-path="url(#clip-22)">
<path fill="none" stroke-width="1.939961" stroke-linecap="butt" stroke-linejoin="round" stroke="rgb(92.156863%, 92.156863%, 92.156863%)" stroke-opacity="1" stroke-miterlimit="10" d="M 625.890625 445.089844 L 625.890625 9.960938 "/>
</g>
<g clip-path="url(#clip-23)">
<path fill="none" stroke-width="1.939961" stroke-linecap="butt" stroke-linejoin="round" stroke="rgb(92.156863%, 92.156863%, 92.156863%)" stroke-opacity="1" stroke-miterlimit="10" d="M 761.421875 445.089844 L 761.421875 9.960938 "/>
</g>
<path fill="none" stroke-width="1.066978" stroke-linecap="butt" stroke-linejoin="round" stroke="rgb(0%, 0%, 0%)" stroke-opacity="0.298039" stroke-miterlimit="10" d="M 95.050781 251.449219 L 106.347656 256.515625 L 117.640625 237.617188 L 128.9375 279.191406 L 140.230469 286.753906 L 151.523438 267.855469 L 162.820312 271.632812 L 174.113281 122.945312 L 185.40625 29.742188 L 196.703125 37.300781 L 207.996094 44.859375 L 219.292969 62.472656 L 230.585938 75.097656 L 241.878906 95.882812 L 253.175781 118.5625 L 264.46875 117.957031 L 275.761719 140.105469 L 287.058594 162.027344 L 298.351562 192.261719 L 309.644531 186.972656 L 320.941406 205.492188 L 332.234375 193.546875 L 343.53125 220.609375 L 354.824219 240.113281 L 366.117188 250.847656 L 377.414062 202.089844 L 388.707031 165.804688 L 400 193.546875 L 411.296875 226.277344 L 422.589844 243.890625 L 433.886719 245.175781 L 445.179688 309.429688 L 456.472656 281.6875 L 467.769531 304.363281 L 479.0625 252.734375 L 490.355469 277.304688 L 501.652344 306.933594 L 512.945312 311.925781 L 524.242188 301.871094 L 535.535156 337.171875 L 546.828125 328.328125 L 558.125 333.996094 L 569.417969 316.988281 L 580.710938 296.804688 L 592.007812 323.261719 L 603.300781 286.753906 L 614.59375 309.429688 L 625.890625 304.363281 L 637.183594 299.980469 L 648.480469 319.484375 L 659.773438 328.328125 L 671.066406 332.105469 L 682.363281 345.335938 L 693.65625 337.171875 L 704.949219 364.234375 L 716.246094 362.34375 L 727.539062 386.910156 L 738.835938 405.203125 L 750.128906 375.570312 L 761.421875 369.902344 L 772.71875 395.074219 L 784.011719 419.035156 L 795.304688 425.3125 L 806.601562 415.257812 L 817.894531 392.578125 "/>
<path fill-rule="nonzero" fill="rgb(90.196078%, 25.490196%, 45.098039%)" fill-opacity="1" stroke-width="1.288475" stroke-linecap="round" stroke-linejoin="round" stroke="rgb(90.196078%, 25.490196%, 45.098039%)" stroke-opacity="1" stroke-miterlimit="10" d="M 98.363281 251.449219 C 98.363281 255.867188 91.742188 255.867188 91.742188 251.449219 C 91.742188 247.035156 98.363281 247.035156 98.363281 251.449219 "/>
<path fill-rule="nonzero" fill="rgb(90.196078%, 25.490196%, 45.098039%)" fill-opacity="1" stroke-width="1.288475" stroke-linecap="round" stroke-linejoin="round" stroke="rgb(90.196078%, 25.490196%, 45.098039%)" stroke-opacity="1" stroke-miterlimit="10" d="M 109.660156 256.515625 C 109.660156 260.929688 103.035156 260.929688 103.035156 256.515625 C 103.035156 252.101562 109.660156 252.101562 109.660156 256.515625 "/>
<path fill-rule="nonzero" fill="rgb(90.196078%, 25.490196%, 45.098039%)" fill-opacity="1" stroke-width="1.288475" stroke-linecap="round" stroke-linejoin="round" stroke="rgb(90.196078%, 25.490196%, 45.098039%)" stroke-opacity="1" stroke-miterlimit="10" d="M 120.953125 237.617188 C 120.953125 242.03125 114.328125 242.03125 114.328125 237.617188 C 114.328125 233.203125 120.953125 233.203125 120.953125 237.617188 "/>
<path fill-rule="nonzero" fill="rgb(90.196078%, 25.490196%, 45.098039%)" fill-opacity="1" stroke-width="1.288475" stroke-linecap="round" stroke-linejoin="round" stroke="rgb(90.196078%, 25.490196%, 45.098039%)" stroke-opacity="1" stroke-miterlimit="10" d="M 132.246094 279.191406 C 132.246094 283.609375 125.625 283.609375 125.625 279.191406 C 125.625 274.777344 132.246094 274.777344 132.246094 279.191406 "/>
<path fill-rule="nonzero" fill="rgb(90.196078%, 25.490196%, 45.098039%)" fill-opacity="1" stroke-width="1.288475" stroke-linecap="round" stroke-linejoin="round" stroke="rgb(90.196078%, 25.490196%, 45.098039%)" stroke-opacity="1" stroke-miterlimit="10" d="M 143.542969 286.753906 C 143.542969 291.167969 136.917969 291.167969 136.917969 286.753906 C 136.917969 282.335938 143.542969 282.335938 143.542969 286.753906 "/>
<path fill-rule="nonzero" fill="rgb(90.196078%, 25.490196%, 45.098039%)" fill-opacity="1" stroke-width="1.288475" stroke-linecap="round" stroke-linejoin="round" stroke="rgb(90.196078%, 25.490196%, 45.098039%)" stroke-opacity="1" stroke-miterlimit="10" d="M 154.835938 267.855469 C 154.835938 272.269531 148.210938 272.269531 148.210938 267.855469 C 148.210938 263.4375 154.835938 263.4375 154.835938 267.855469 "/>
<path fill-rule="nonzero" fill="rgb(90.196078%, 25.490196%, 45.098039%)" fill-opacity="1" stroke-width="1.288475" stroke-linecap="round" stroke-linejoin="round" stroke="rgb(90.196078%, 25.490196%, 45.098039%)" stroke-opacity="1" stroke-miterlimit="10" d="M 166.128906 271.632812 C 166.128906 276.050781 159.507812 276.050781 159.507812 271.632812 C 159.507812 267.21875 166.128906 267.21875 166.128906 271.632812 "/>
<path fill-rule="nonzero" fill="rgb(90.196078%, 25.490196%, 45.098039%)" fill-opacity="1" stroke-width="1.288475" stroke-linecap="round" stroke-linejoin="round" stroke="rgb(90.196078%, 25.490196%, 45.098039%)" stroke-opacity="1" stroke-miterlimit="10" d="M 177.425781 122.945312 C 177.425781 127.359375 170.800781 127.359375 170.800781 122.945312 C 170.800781 118.53125 177.425781 118.53125 177.425781 122.945312 "/>
<path fill-rule="nonzero" fill="rgb(90.196078%, 25.490196%, 45.098039%)" fill-opacity="1" stroke-width="1.288475" stroke-linecap="round" stroke-linejoin="round" stroke="rgb(90.196078%, 25.490196%, 45.098039%)" stroke-opacity="1" stroke-miterlimit="10" d="M 188.71875 29.742188 C 188.71875 34.15625 182.097656 34.15625 182.097656 29.742188 C 182.097656 25.324219 188.71875 25.324219 188.71875 29.742188 "/>
<path fill-rule="nonzero" fill="rgb(90.196078%, 25.490196%, 45.098039%)" fill-opacity="1" stroke-width="1.288475" stroke-linecap="round" stroke-linejoin="round" stroke="rgb(90.196078%, 25.490196%, 45.098039%)" stroke-opacity="1" stroke-miterlimit="10" d="M 200.015625 37.300781 C 200.015625 41.714844 193.390625 41.714844 193.390625 37.300781 C 193.390625 32.882812 200.015625 32.882812 200.015625 37.300781 "/>
<path fill-rule="nonzero" fill="rgb(90.196078%, 25.490196%, 45.098039%)" fill-opacity="1" stroke-width="1.288475" stroke-linecap="round" stroke-linejoin="round" stroke="rgb(90.196078%, 25.490196%, 45.098039%)" stroke-opacity="1" stroke-miterlimit="10" d="M 211.308594 44.859375 C 211.308594 49.273438 204.683594 49.273438 204.683594 44.859375 C 204.683594 40.445312 211.308594 40.445312 211.308594 44.859375 "/>
<path fill-rule="nonzero" fill="rgb(90.196078%, 25.490196%, 45.098039%)" fill-opacity="1" stroke-width="1.288475" stroke-linecap="round" stroke-linejoin="round" stroke="rgb(90.196078%, 25.490196%, 45.098039%)" stroke-opacity="1" stroke-miterlimit="10" d="M 222.601562 62.472656 C 222.601562 66.886719 215.980469 66.886719 215.980469 62.472656 C 215.980469 58.058594 222.601562 58.058594 222.601562 62.472656 "/>
<path fill-rule="nonzero" fill="rgb(90.196078%, 25.490196%, 45.098039%)" fill-opacity="1" stroke-width="1.288475" stroke-linecap="round" stroke-linejoin="round" stroke="rgb(90.196078%, 25.490196%, 45.098039%)" stroke-opacity="1" stroke-miterlimit="10" d="M 233.898438 75.097656 C 233.898438 79.511719 227.273438 79.511719 227.273438 75.097656 C 227.273438 70.679688 233.898438 70.679688 233.898438 75.097656 "/>
<path fill-rule="nonzero" fill="rgb(90.196078%, 25.490196%, 45.098039%)" fill-opacity="1" stroke-width="1.288475" stroke-linecap="round" stroke-linejoin="round" stroke="rgb(90.196078%, 25.490196%, 45.098039%)" stroke-opacity="1" stroke-miterlimit="10" d="M 245.191406 95.882812 C 245.191406 100.300781 238.566406 100.300781 238.566406 95.882812 C 238.566406 91.46875 245.191406 91.46875 245.191406 95.882812 "/>
<path fill-rule="nonzero" fill="rgb(90.196078%, 25.490196%, 45.098039%)" fill-opacity="1" stroke-width="1.288475" stroke-linecap="round" stroke-linejoin="round" stroke="rgb(90.196078%, 25.490196%, 45.098039%)" stroke-opacity="1" stroke-miterlimit="10" d="M 256.484375 118.5625 C 256.484375 122.976562 249.863281 122.976562 249.863281 118.5625 C 249.863281 114.144531 256.484375 114.144531 256.484375 118.5625 "/>
<path fill-rule="nonzero" fill="rgb(90.196078%, 25.490196%, 45.098039%)" fill-opacity="1" stroke-width="1.288475" stroke-linecap="round" stroke-linejoin="round" stroke="rgb(90.196078%, 25.490196%, 45.098039%)" stroke-opacity="1" stroke-miterlimit="10" d="M 267.78125 117.957031 C 267.78125 122.371094 261.15625 122.371094 261.15625 117.957031 C 261.15625 113.539062 267.78125 113.539062 267.78125 117.957031 "/>
<path fill-rule="nonzero" fill="rgb(90.196078%, 25.490196%, 45.098039%)" fill-opacity="1" stroke-width="1.288475" stroke-linecap="round" stroke-linejoin="round" stroke="rgb(90.196078%, 25.490196%, 45.098039%)" stroke-opacity="1" stroke-miterlimit="10" d="M 279.074219 140.105469 C 279.074219 144.519531 272.453125 144.519531 272.453125 140.105469 C 272.453125 135.6875 279.074219 135.6875 279.074219 140.105469 "/>
<path fill-rule="nonzero" fill="rgb(90.196078%, 25.490196%, 45.098039%)" fill-opacity="1" stroke-width="1.288475" stroke-linecap="round" stroke-linejoin="round" stroke="rgb(90.196078%, 25.490196%, 45.098039%)" stroke-opacity="1" stroke-miterlimit="10" d="M 290.371094 162.027344 C 290.371094 166.441406 283.746094 166.441406 283.746094 162.027344 C 283.746094 157.609375 290.371094 157.609375 290.371094 162.027344 "/>
<path fill-rule="nonzero" fill="rgb(90.196078%, 25.490196%, 45.098039%)" fill-opacity="1" stroke-width="1.288475" stroke-linecap="round" stroke-linejoin="round" stroke="rgb(90.196078%, 25.490196%, 45.098039%)" stroke-opacity="1" stroke-miterlimit="10" d="M 301.664062 192.261719 C 301.664062 196.679688 295.039062 196.679688 295.039062 192.261719 C 295.039062 187.847656 301.664062 187.847656 301.664062 192.261719 "/>
<path fill-rule="nonzero" fill="rgb(90.196078%, 25.490196%, 45.098039%)" fill-opacity="1" stroke-width="1.288475" stroke-linecap="round" stroke-linejoin="round" stroke="rgb(90.196078%, 25.490196%, 45.098039%)" stroke-opacity="1" stroke-miterlimit="10" d="M 312.957031 186.972656 C 312.957031 191.386719 306.335938 191.386719 306.335938 186.972656 C 306.335938 182.554688 312.957031 182.554688 312.957031 186.972656 "/>
<path fill-rule="nonzero" fill="rgb(90.196078%, 25.490196%, 45.098039%)" fill-opacity="1" stroke-width="1.288475" stroke-linecap="round" stroke-linejoin="round" stroke="rgb(90.196078%, 25.490196%, 45.098039%)" stroke-opacity="1" stroke-miterlimit="10" d="M 324.253906 205.492188 C 324.253906 209.90625 317.628906 209.90625 317.628906 205.492188 C 317.628906 201.074219 324.253906 201.074219 324.253906 205.492188 "/>
<path fill-rule="nonzero" fill="rgb(90.196078%, 25.490196%, 45.098039%)" fill-opacity="1" stroke-width="1.288475" stroke-linecap="round" stroke-linejoin="round" stroke="rgb(90.196078%, 25.490196%, 45.098039%)" stroke-opacity="1" stroke-miterlimit="10" d="M 335.546875 193.546875 C 335.546875 197.964844 328.921875 197.964844 328.921875 193.546875 C 328.921875 189.132812 335.546875 189.132812 335.546875 193.546875 "/>
<path fill-rule="nonzero" fill="rgb(90.196078%, 25.490196%, 45.098039%)" fill-opacity="1" stroke-width="1.288475" stroke-linecap="round" stroke-linejoin="round" stroke="rgb(90.196078%, 25.490196%, 45.098039%)" stroke-opacity="1" stroke-miterlimit="10" d="M 346.839844 220.609375 C 346.839844 225.023438 340.21875 225.023438 340.21875 220.609375 C 340.21875 216.195312 346.839844 216.195312 346.839844 220.609375 "/>
<path fill-rule="nonzero" fill="rgb(90.196078%, 25.490196%, 45.098039%)" fill-opacity="1" stroke-width="1.288475" stroke-linecap="round" stroke-linejoin="round" stroke="rgb(90.196078%, 25.490196%, 45.098039%)" stroke-opacity="1" stroke-miterlimit="10" d="M 358.136719 240.113281 C 358.136719 244.527344 351.511719 244.527344 351.511719 240.113281 C 351.511719 235.695312 358.136719 235.695312 358.136719 240.113281 "/>
<path fill-rule="nonzero" fill="rgb(90.196078%, 25.490196%, 45.098039%)" fill-opacity="1" stroke-width="1.288475" stroke-linecap="round" stroke-linejoin="round" stroke="rgb(90.196078%, 25.490196%, 45.098039%)" stroke-opacity="1" stroke-miterlimit="10" d="M 369.429688 250.847656 C 369.429688 255.261719 362.808594 255.261719 362.808594 250.847656 C 362.808594 246.429688 369.429688 246.429688 369.429688 250.847656 "/>
<path fill-rule="nonzero" fill="rgb(90.196078%, 25.490196%, 45.098039%)" fill-opacity="1" stroke-width="1.288475" stroke-linecap="round" stroke-linejoin="round" stroke="rgb(90.196078%, 25.490196%, 45.098039%)" stroke-opacity="1" stroke-miterlimit="10" d="M 380.722656 202.089844 C 380.722656 206.503906 374.101562 206.503906 374.101562 202.089844 C 374.101562 197.675781 380.722656 197.675781 380.722656 202.089844 "/>
<path fill-rule="nonzero" fill="rgb(90.196078%, 25.490196%, 45.098039%)" fill-opacity="1" stroke-width="1.288475" stroke-linecap="round" stroke-linejoin="round" stroke="rgb(90.196078%, 25.490196%, 45.098039%)" stroke-opacity="1" stroke-miterlimit="10" d="M 392.019531 165.804688 C 392.019531 170.222656 385.394531 170.222656 385.394531 165.804688 C 385.394531 161.390625 392.019531 161.390625 392.019531 165.804688 "/>
<path fill-rule="nonzero" fill="rgb(90.196078%, 25.490196%, 45.098039%)" fill-opacity="1" stroke-width="1.288475" stroke-linecap="round" stroke-linejoin="round" stroke="rgb(90.196078%, 25.490196%, 45.098039%)" stroke-opacity="1" stroke-miterlimit="10" d="M 403.3125 193.546875 C 403.3125 197.964844 396.691406 197.964844 396.691406 193.546875 C 396.691406 189.132812 403.3125 189.132812 403.3125 193.546875 "/>
<path fill-rule="nonzero" fill="rgb(90.196078%, 25.490196%, 45.098039%)" fill-opacity="1" stroke-width="1.288475" stroke-linecap="round" stroke-linejoin="round" stroke="rgb(90.196078%, 25.490196%, 45.098039%)" stroke-opacity="1" stroke-miterlimit="10" d="M 414.609375 226.277344 C 414.609375 230.695312 407.984375 230.695312 407.984375 226.277344 C 407.984375 221.863281 414.609375 221.863281 414.609375 226.277344 "/>
<path fill-rule="nonzero" fill="rgb(90.196078%, 25.490196%, 45.098039%)" fill-opacity="1" stroke-width="1.288475" stroke-linecap="round" stroke-linejoin="round" stroke="rgb(90.196078%, 25.490196%, 45.098039%)" stroke-opacity="1" stroke-miterlimit="10" d="M 425.902344 243.890625 C 425.902344 248.308594 419.277344 248.308594 419.277344 243.890625 C 419.277344 239.476562 425.902344 239.476562 425.902344 243.890625 "/>
<path fill-rule="nonzero" fill="rgb(90.196078%, 25.490196%, 45.098039%)" fill-opacity="1" stroke-width="1.288475" stroke-linecap="round" stroke-linejoin="round" stroke="rgb(90.196078%, 25.490196%, 45.098039%)" stroke-opacity="1" stroke-miterlimit="10" d="M 437.195312 245.175781 C 437.195312 249.59375 430.574219 249.59375 430.574219 245.175781 C 430.574219 240.761719 437.195312 240.761719 437.195312 245.175781 "/>
<path fill-rule="nonzero" fill="rgb(90.196078%, 25.490196%, 45.098039%)" fill-opacity="1" stroke-width="1.288475" stroke-linecap="round" stroke-linejoin="round" stroke="rgb(90.196078%, 25.490196%, 45.098039%)" stroke-opacity="1" stroke-miterlimit="10" d="M 448.492188 309.429688 C 448.492188 313.84375 441.867188 313.84375 441.867188 309.429688 C 441.867188 305.015625 448.492188 305.015625 448.492188 309.429688 "/>
<path fill-rule="nonzero" fill="rgb(90.196078%, 25.490196%, 45.098039%)" fill-opacity="1" stroke-width="1.288475" stroke-linecap="round" stroke-linejoin="round" stroke="rgb(90.196078%, 25.490196%, 45.098039%)" stroke-opacity="1" stroke-miterlimit="10" d="M 459.785156 281.6875 C 459.785156 286.101562 453.164062 286.101562 453.164062 281.6875 C 453.164062 277.273438 459.785156 277.273438 459.785156 281.6875 "/>
<path fill-rule="nonzero" fill="rgb(90.196078%, 25.490196%, 45.098039%)" fill-opacity="1" stroke-width="1.288475" stroke-linecap="round" stroke-linejoin="round" stroke="rgb(90.196078%, 25.490196%, 45.098039%)" stroke-opacity="1" stroke-miterlimit="10" d="M 471.078125 304.363281 C 471.078125 308.78125 464.457031 308.78125 464.457031 304.363281 C 464.457031 299.949219 471.078125 299.949219 471.078125 304.363281 "/>
<path fill-rule="nonzero" fill="rgb(90.196078%, 25.490196%, 45.098039%)" fill-opacity="1" stroke-width="1.288475" stroke-linecap="round" stroke-linejoin="round" stroke="rgb(90.196078%, 25.490196%, 45.098039%)" stroke-opacity="1" stroke-miterlimit="10" d="M 482.375 252.734375 C 482.375 257.152344 475.75 257.152344 475.75 252.734375 C 475.75 248.320312 482.375 248.320312 482.375 252.734375 "/>
<path fill-rule="nonzero" fill="rgb(90.196078%, 25.490196%, 45.098039%)" fill-opacity="1" stroke-width="1.288475" stroke-linecap="round" stroke-linejoin="round" stroke="rgb(90.196078%, 25.490196%, 45.098039%)" stroke-opacity="1" stroke-miterlimit="10" d="M 493.667969 277.304688 C 493.667969 281.71875 487.046875 281.71875 487.046875 277.304688 C 487.046875 272.886719 493.667969 272.886719 493.667969 277.304688 "/>
<path fill-rule="nonzero" fill="rgb(90.196078%, 25.490196%, 45.098039%)" fill-opacity="1" stroke-width="1.288475" stroke-linecap="round" stroke-linejoin="round" stroke="rgb(90.196078%, 25.490196%, 45.098039%)" stroke-opacity="1" stroke-miterlimit="10" d="M 504.964844 306.933594 C 504.964844 311.351562 498.339844 311.351562 498.339844 306.933594 C 498.339844 302.519531 504.964844 302.519531 504.964844 306.933594 "/>
<path fill-rule="nonzero" fill="rgb(90.196078%, 25.490196%, 45.098039%)" fill-opacity="1" stroke-width="1.288475" stroke-linecap="round" stroke-linejoin="round" stroke="rgb(90.196078%, 25.490196%, 45.098039%)" stroke-opacity="1" stroke-miterlimit="10" d="M 516.257812 311.925781 C 516.257812 316.339844 509.632812 316.339844 509.632812 311.925781 C 509.632812 307.507812 516.257812 307.507812 516.257812 311.925781 "/>
<path fill-rule="nonzero" fill="rgb(90.196078%, 25.490196%, 45.098039%)" fill-opacity="1" stroke-width="1.288475" stroke-linecap="round" stroke-linejoin="round" stroke="rgb(90.196078%, 25.490196%, 45.098039%)" stroke-opacity="1" stroke-miterlimit="10" d="M 527.550781 301.871094 C 527.550781 306.285156 520.929688 306.285156 520.929688 301.871094 C 520.929688 297.453125 527.550781 297.453125 527.550781 301.871094 "/>
<path fill-rule="nonzero" fill="rgb(90.196078%, 25.490196%, 45.098039%)" fill-opacity="1" stroke-width="1.288475" stroke-linecap="round" stroke-linejoin="round" stroke="rgb(90.196078%, 25.490196%, 45.098039%)" stroke-opacity="1" stroke-miterlimit="10" d="M 538.847656 337.171875 C 538.847656 341.585938 532.222656 341.585938 532.222656 337.171875 C 532.222656 332.757812 538.847656 332.757812 538.847656 337.171875 "/>
<path fill-rule="nonzero" fill="rgb(90.196078%, 25.490196%, 45.098039%)" fill-opacity="1" stroke-width="1.288475" stroke-linecap="round" stroke-linejoin="round" stroke="rgb(90.196078%, 25.490196%, 45.098039%)" stroke-opacity="1" stroke-miterlimit="10" d="M 550.140625 328.328125 C 550.140625 332.742188 543.515625 332.742188 543.515625 328.328125 C 543.515625 323.910156 550.140625 323.910156 550.140625 328.328125 "/>
<path fill-rule="nonzero" fill="rgb(90.196078%, 25.490196%, 45.098039%)" fill-opacity="1" stroke-width="1.288475" stroke-linecap="round" stroke-linejoin="round" stroke="rgb(90.196078%, 25.490196%, 45.098039%)" stroke-opacity="1" stroke-miterlimit="10" d="M 561.433594 333.996094 C 561.433594 338.414062 554.8125 338.414062 554.8125 333.996094 C 554.8125 329.582031 561.433594 329.582031 561.433594 333.996094 "/>
<path fill-rule="nonzero" fill="rgb(90.196078%, 25.490196%, 45.098039%)" fill-opacity="1" stroke-width="1.288475" stroke-linecap="round" stroke-linejoin="round" stroke="rgb(90.196078%, 25.490196%, 45.098039%)" stroke-opacity="1" stroke-miterlimit="10" d="M 572.730469 316.988281 C 572.730469 321.402344 566.105469 321.402344 566.105469 316.988281 C 566.105469 312.574219 572.730469 312.574219 572.730469 316.988281 "/>
<path fill-rule="nonzero" fill="rgb(90.196078%, 25.490196%, 45.098039%)" fill-opacity="1" stroke-width="1.288475" stroke-linecap="round" stroke-linejoin="round" stroke="rgb(90.196078%, 25.490196%, 45.098039%)" stroke-opacity="1" stroke-miterlimit="10" d="M 584.023438 296.804688 C 584.023438 301.222656 577.402344 301.222656 577.402344 296.804688 C 577.402344 292.390625 584.023438 292.390625 584.023438 296.804688 "/>
<path fill-rule="nonzero" fill="rgb(90.196078%, 25.490196%, 45.098039%)" fill-opacity="1" stroke-width="1.288475" stroke-linecap="round" stroke-linejoin="round" stroke="rgb(90.196078%, 25.490196%, 45.098039%)" stroke-opacity="1" stroke-miterlimit="10" d="M 595.320312 323.261719 C 595.320312 327.679688 588.695312 327.679688 588.695312 323.261719 C 588.695312 318.847656 595.320312 318.847656 595.320312 323.261719 "/>
<path fill-rule="nonzero" fill="rgb(90.196078%, 25.490196%, 45.098039%)" fill-opacity="1" stroke-width="1.288475" stroke-linecap="round" stroke-linejoin="round" stroke="rgb(90.196078%, 25.490196%, 45.098039%)" stroke-opacity="1" stroke-miterlimit="10" d="M 606.613281 286.753906 C 606.613281 291.167969 599.988281 291.167969 599.988281 286.753906 C 599.988281 282.335938 606.613281 282.335938 606.613281 286.753906 "/>
<path fill-rule="nonzero" fill="rgb(90.196078%, 25.490196%, 45.098039%)" fill-opacity="1" stroke-width="1.288475" stroke-linecap="round" stroke-linejoin="round" stroke="rgb(90.196078%, 25.490196%, 45.098039%)" stroke-opacity="1" stroke-miterlimit="10" d="M 617.90625 309.429688 C 617.90625 313.84375 611.285156 313.84375 611.285156 309.429688 C 611.285156 305.015625 617.90625 305.015625 617.90625 309.429688 "/>
<path fill-rule="nonzero" fill="rgb(90.196078%, 25.490196%, 45.098039%)" fill-opacity="1" stroke-width="1.288475" stroke-linecap="round" stroke-linejoin="round" stroke="rgb(90.196078%, 25.490196%, 45.098039%)" stroke-opacity="1" stroke-miterlimit="10" d="M 629.203125 304.363281 C 629.203125 308.78125 622.578125 308.78125 622.578125 304.363281 C 622.578125 299.949219 629.203125 299.949219 629.203125 304.363281 "/>
<path fill-rule="nonzero" fill="rgb(90.196078%, 25.490196%, 45.098039%)" fill-opacity="1" stroke-width="1.288475" stroke-linecap="round" stroke-linejoin="round" stroke="rgb(90.196078%, 25.490196%, 45.098039%)" stroke-opacity="1" stroke-miterlimit="10" d="M 640.496094 299.980469 C 640.496094 304.394531 633.871094 304.394531 633.871094 299.980469 C 633.871094 295.566406 640.496094 295.566406 640.496094 299.980469 "/>
<path fill-rule="nonzero" fill="rgb(90.196078%, 25.490196%, 45.098039%)" fill-opacity="1" stroke-width="1.288475" stroke-linecap="round" stroke-linejoin="round" stroke="rgb(90.196078%, 25.490196%, 45.098039%)" stroke-opacity="1" stroke-miterlimit="10" d="M 651.789062 319.484375 C 651.789062 323.898438 645.167969 323.898438 645.167969 319.484375 C 645.167969 315.066406 651.789062 315.066406 651.789062 319.484375 "/>
<path fill-rule="nonzero" fill="rgb(90.196078%, 25.490196%, 45.098039%)" fill-opacity="1" stroke-width="1.288475" stroke-linecap="round" stroke-linejoin="round" stroke="rgb(90.196078%, 25.490196%, 45.098039%)" stroke-opacity="1" stroke-miterlimit="10" d="M 663.085938 328.328125 C 663.085938 332.742188 656.460938 332.742188 656.460938 328.328125 C 656.460938 323.910156 663.085938 323.910156 663.085938 328.328125 "/>
<path fill-rule="nonzero" fill="rgb(90.196078%, 25.490196%, 45.098039%)" fill-opacity="1" stroke-width="1.288475" stroke-linecap="round" stroke-linejoin="round" stroke="rgb(90.196078%, 25.490196%, 45.098039%)" stroke-opacity="1" stroke-miterlimit="10" d="M 674.378906 332.105469 C 674.378906 336.523438 667.757812 336.523438 667.757812 332.105469 C 667.757812 327.691406 674.378906 327.691406 674.378906 332.105469 "/>
<path fill-rule="nonzero" fill="rgb(90.196078%, 25.490196%, 45.098039%)" fill-opacity="1" stroke-width="1.288475" stroke-linecap="round" stroke-linejoin="round" stroke="rgb(90.196078%, 25.490196%, 45.098039%)" stroke-opacity="1" stroke-miterlimit="10" d="M 685.675781 345.335938 C 685.675781 349.75 679.050781 349.75 679.050781 345.335938 C 679.050781 340.917969 685.675781 340.917969 685.675781 345.335938 "/>
<path fill-rule="nonzero" fill="rgb(90.196078%, 25.490196%, 45.098039%)" fill-opacity="1" stroke-width="1.288475" stroke-linecap="round" stroke-linejoin="round" stroke="rgb(90.196078%, 25.490196%, 45.098039%)" stroke-opacity="1" stroke-miterlimit="10" d="M 696.96875 337.171875 C 696.96875 341.585938 690.34375 341.585938 690.34375 337.171875 C 690.34375 332.757812 696.96875 332.757812 696.96875 337.171875 "/>
<path fill-rule="nonzero" fill="rgb(90.196078%, 25.490196%, 45.098039%)" fill-opacity="1" stroke-width="1.288475" stroke-linecap="round" stroke-linejoin="round" stroke="rgb(90.196078%, 25.490196%, 45.098039%)" stroke-opacity="1" stroke-miterlimit="10" d="M 708.261719 364.234375 C 708.261719 368.648438 701.640625 368.648438 701.640625 364.234375 C 701.640625 359.816406 708.261719 359.816406 708.261719 364.234375 "/>
<path fill-rule="nonzero" fill="rgb(90.196078%, 25.490196%, 45.098039%)" fill-opacity="1" stroke-width="1.288475" stroke-linecap="round" stroke-linejoin="round" stroke="rgb(90.196078%, 25.490196%, 45.098039%)" stroke-opacity="1" stroke-miterlimit="10" d="M 719.558594 362.34375 C 719.558594 366.757812 712.933594 366.757812 712.933594 362.34375 C 712.933594 357.929688 719.558594 357.929688 719.558594 362.34375 "/>
<path fill-rule="nonzero" fill="rgb(90.196078%, 25.490196%, 45.098039%)" fill-opacity="1" stroke-width="1.288475" stroke-linecap="round" stroke-linejoin="round" stroke="rgb(90.196078%, 25.490196%, 45.098039%)" stroke-opacity="1" stroke-miterlimit="10" d="M 730.851562 386.910156 C 730.851562 391.328125 724.226562 391.328125 724.226562 386.910156 C 724.226562 382.496094 730.851562 382.496094 730.851562 386.910156 "/>
<path fill-rule="nonzero" fill="rgb(90.196078%, 25.490196%, 45.098039%)" fill-opacity="1" stroke-width="1.288475" stroke-linecap="round" stroke-linejoin="round" stroke="rgb(90.196078%, 25.490196%, 45.098039%)" stroke-opacity="1" stroke-miterlimit="10" d="M 742.144531 405.203125 C 742.144531 409.621094 735.523438 409.621094 735.523438 405.203125 C 735.523438 400.789062 742.144531 400.789062 742.144531 405.203125 "/>
<path fill-rule="nonzero" fill="rgb(90.196078%, 25.490196%, 45.098039%)" fill-opacity="1" stroke-width="1.288475" stroke-linecap="round" stroke-linejoin="round" stroke="rgb(90.196078%, 25.490196%, 45.098039%)" stroke-opacity="1" stroke-miterlimit="10" d="M 753.441406 375.570312 C 753.441406 379.988281 746.816406 379.988281 746.816406 375.570312 C 746.816406 371.15625 753.441406 371.15625 753.441406 375.570312 "/>
<path fill-rule="nonzero" fill="rgb(90.196078%, 25.490196%, 45.098039%)" fill-opacity="1" stroke-width="1.288475" stroke-linecap="round" stroke-linejoin="round" stroke="rgb(90.196078%, 25.490196%, 45.098039%)" stroke-opacity="1" stroke-miterlimit="10" d="M 764.734375 369.902344 C 764.734375 374.316406 758.113281 374.316406 758.113281 369.902344 C 758.113281 365.488281 764.734375 365.488281 764.734375 369.902344 "/>
<path fill-rule="nonzero" fill="rgb(90.196078%, 25.490196%, 45.098039%)" fill-opacity="1" stroke-width="1.288475" stroke-linecap="round" stroke-linejoin="round" stroke="rgb(90.196078%, 25.490196%, 45.098039%)" stroke-opacity="1" stroke-miterlimit="10" d="M 776.027344 395.074219 C 776.027344 399.488281 769.40625 399.488281 769.40625 395.074219 C 769.40625 390.660156 776.027344 390.660156 776.027344 395.074219 "/>
<path fill-rule="nonzero" fill="rgb(90.196078%, 25.490196%, 45.098039%)" fill-opacity="1" stroke-width="1.288475" stroke-linecap="round" stroke-linejoin="round" stroke="rgb(90.196078%, 25.490196%, 45.098039%)" stroke-opacity="1" stroke-miterlimit="10" d="M 787.324219 419.035156 C 787.324219 423.453125 780.699219 423.453125 780.699219 419.035156 C 780.699219 414.621094 787.324219 414.621094 787.324219 419.035156 "/>
<path fill-rule="nonzero" fill="rgb(90.196078%, 25.490196%, 45.098039%)" fill-opacity="1" stroke-width="1.288475" stroke-linecap="round" stroke-linejoin="round" stroke="rgb(90.196078%, 25.490196%, 45.098039%)" stroke-opacity="1" stroke-miterlimit="10" d="M 798.617188 425.3125 C 798.617188 429.726562 791.996094 429.726562 791.996094 425.3125 C 791.996094 420.894531 798.617188 420.894531 798.617188 425.3125 "/>
<path fill-rule="nonzero" fill="rgb(90.196078%, 25.490196%, 45.098039%)" fill-opacity="1" stroke-width="1.288475" stroke-linecap="round" stroke-linejoin="round" stroke="rgb(90.196078%, 25.490196%, 45.098039%)" stroke-opacity="1" stroke-miterlimit="10" d="M 809.914062 415.257812 C 809.914062 419.671875 803.289062 419.671875 803.289062 415.257812 C 803.289062 410.84375 809.914062 410.84375 809.914062 415.257812 "/>
<path fill-rule="nonzero" fill="rgb(90.196078%, 25.490196%, 45.098039%)" fill-opacity="1" stroke-width="1.288475" stroke-linecap="round" stroke-linejoin="round" stroke="rgb(90.196078%, 25.490196%, 45.098039%)" stroke-opacity="1" stroke-miterlimit="10" d="M 821.207031 392.578125 C 821.207031 396.996094 814.582031 396.996094 814.582031 392.578125 C 814.582031 388.164062 821.207031 388.164062 821.207031 392.578125 "/>
<g fill="rgb(30.196078%, 30.196078%, 30.196078%)" fill-opacity="1">
<use xlink:href="#glyph-0-1" x="33.945312" y="398.538086"/>
<use xlink:href="#glyph-0-2" x="41.945312" y="398.538086"/>
</g>
<g fill="rgb(30.196078%, 30.196078%, 30.196078%)" fill-opacity="1">
<use xlink:href="#glyph-0-3" x="34.945312" y="322.948242"/>
<use xlink:href="#glyph-0-2" x="41.945312" y="322.948242"/>
</g>
<g fill="rgb(30.196078%, 30.196078%, 30.196078%)" fill-opacity="1">
<use xlink:href="#glyph-0-4" x="33.945312" y="247.358398"/>
<use xlink:href="#glyph-0-2" x="41.945312" y="247.358398"/>
</g>
<g fill="rgb(30.196078%, 30.196078%, 30.196078%)" fill-opacity="1">
<use xlink:href="#glyph-0-5" x="35.945312" y="171.764648"/>
<use xlink:href="#glyph-0-2" x="41.945312" y="171.764648"/>
</g>
<g fill="rgb(30.196078%, 30.196078%, 30.196078%)" fill-opacity="1">
<use xlink:href="#glyph-0-6" x="33.945312" y="96.174805"/>
<use xlink:href="#glyph-0-2" x="41.945312" y="96.174805"/>
</g>
<g fill="rgb(30.196078%, 30.196078%, 30.196078%)" fill-opacity="1">
<use xlink:href="#glyph-0-7" x="33.945312" y="20.581055"/>
<use xlink:href="#glyph-0-2" x="41.945312" y="20.581055"/>
</g>
<g fill="rgb(30.196078%, 30.196078%, 30.196078%)" fill-opacity="1">
<use xlink:href="#glyph-0-8" x="69.257812" y="466.014648"/>
<use xlink:href="#glyph-0-2" x="76.257812" y="466.014648"/>
<use xlink:href="#glyph-0-2" x="84.257812" y="466.014648"/>
<use xlink:href="#glyph-0-9" x="92.257812" y="466.014648"/>
</g>
<g fill="rgb(30.196078%, 30.196078%, 30.196078%)" fill-opacity="1">
<use xlink:href="#glyph-0-8" x="204.292969" y="466.014648"/>
<use xlink:href="#glyph-0-2" x="211.292969" y="466.014648"/>
<use xlink:href="#glyph-0-2" x="219.292969" y="466.014648"/>
<use xlink:href="#glyph-0-8" x="227.292969" y="466.014648"/>
</g>
<g fill="rgb(30.196078%, 30.196078%, 30.196078%)" fill-opacity="1">
<use xlink:href="#glyph-0-8" x="339.824219" y="466.014648"/>
<use xlink:href="#glyph-0-2" x="346.824219" y="466.014648"/>
<use xlink:href="#glyph-0-2" x="354.824219" y="466.014648"/>
<use xlink:href="#glyph-0-10" x="362.824219" y="466.014648"/>
</g>
<g fill="rgb(30.196078%, 30.196078%, 30.196078%)" fill-opacity="1">
<use xlink:href="#glyph-0-8" x="474.855469" y="466.014648"/>
<use xlink:href="#glyph-0-2" x="481.855469" y="466.014648"/>
<use xlink:href="#glyph-0-2" x="489.855469" y="466.014648"/>
<use xlink:href="#glyph-0-1" x="497.855469" y="466.014648"/>
</g>
<g fill="rgb(30.196078%, 30.196078%, 30.196078%)" fill-opacity="1">
<use xlink:href="#glyph-0-8" x="610.890625" y="466.014648"/>
<use xlink:href="#glyph-0-2" x="617.890625" y="466.014648"/>
<use xlink:href="#glyph-0-2" x="625.890625" y="466.014648"/>
<use xlink:href="#glyph-0-3" x="633.890625" y="466.014648"/>
</g>
<g fill="rgb(30.196078%, 30.196078%, 30.196078%)" fill-opacity="1">
<use xlink:href="#glyph-0-8" x="745.921875" y="466.014648"/>
<use xlink:href="#glyph-0-2" x="752.921875" y="466.014648"/>
<use xlink:href="#glyph-0-2" x="760.921875" y="466.014648"/>
<use xlink:href="#glyph-0-4" x="768.921875" y="466.014648"/>
</g>
<g fill="rgb(0%, 0%, 0%)" fill-opacity="1">
<use xlink:href="#glyph-1-1" x="437.972656" y="488.739258"/>
<use xlink:href="#glyph-1-2" x="448.972656" y="488.739258"/>
<use xlink:href="#glyph-1-3" x="458.972656" y="488.739258"/>
<use xlink:href="#glyph-1-4" x="464.972656" y="488.739258"/>
</g>
<g fill="rgb(0%, 0%, 0%)" fill-opacity="1">
<use xlink:href="#glyph-2-1" x="23.661133" y="254.027344"/>
<use xlink:href="#glyph-2-2" x="23.661133" y="243.027344"/>
<use xlink:href="#glyph-2-3" x="23.661133" y="233.027344"/>
<use xlink:href="#glyph-2-4" x="23.661133" y="226.027344"/>
<use xlink:href="#glyph-2-5" x="23.661133" y="221.027344"/>
<use xlink:href="#glyph-2-6" x="23.661133" y="210.027344"/>
</g>
</svg>
