<?xml version="1.0" encoding="UTF-8"?>
<svg xmlns="http://www.w3.org/2000/svg" xmlns:xlink="http://www.w3.org/1999/xlink" width="756" height="486" viewBox="0 0 756 486">
<defs>
<g>
<g id="glyph-0-0">
<path d="M 8.6875 -16.796875 L 8.6875 5.59375 L 1.96875 5.59375 L 1.96875 -16.796875 Z M 7.828125 -15.96875 L 2.84375 -15.96875 L 2.84375 4.765625 L 7.828125 4.765625 Z M 5.1875 -7.21875 C 5.820312 -7.21875 6.273438 -7.046875 6.546875 -6.703125 C 6.816406 -6.359375 6.953125 -5.914062 6.953125 -5.375 C 6.953125 -4.8125 6.832031 -4.375 6.59375 -4.0625 C 6.351562 -3.75 5.96875 -3.554688 5.4375 -3.484375 L 5.4375 -2.765625 C 5.4375 -2.648438 5.394531 -2.554688 5.3125 -2.484375 C 5.238281 -2.421875 5.148438 -2.390625 5.046875 -2.390625 C 4.929688 -2.390625 4.832031 -2.421875 4.75 -2.484375 C 4.675781 -2.554688 4.640625 -2.648438 4.640625 -2.765625 L 4.640625 -4.109375 C 5.203125 -4.140625 5.582031 -4.242188 5.78125 -4.421875 C 5.988281 -4.597656 6.09375 -4.90625 6.09375 -5.34375 C 6.09375 -5.695312 6.023438 -5.96875 5.890625 -6.15625 C 5.753906 -6.351562 5.5 -6.453125 5.125 -6.453125 C 4.8125 -6.453125 4.53125 -6.390625 4.28125 -6.265625 C 4.195312 -6.234375 4.128906 -6.21875 4.078125 -6.21875 C 3.960938 -6.21875 3.867188 -6.253906 3.796875 -6.328125 C 3.734375 -6.398438 3.703125 -6.488281 3.703125 -6.59375 C 3.703125 -6.789062 3.859375 -6.941406 4.171875 -7.046875 C 4.484375 -7.160156 4.820312 -7.21875 5.1875 -7.21875 Z M 5.046875 -1.921875 C 5.203125 -1.921875 5.332031 -1.863281 5.4375 -1.75 C 5.539062 -1.644531 5.59375 -1.515625 5.59375 -1.359375 C 5.59375 -1.191406 5.539062 -1.050781 5.4375 -0.9375 C 5.332031 -0.820312 5.203125 -0.765625 5.046875 -0.765625 C 4.878906 -0.765625 4.742188 -0.820312 4.640625 -0.9375 C 4.535156 -1.050781 4.484375 -1.191406 4.484375 -1.359375 C 4.484375 -1.515625 4.535156 -1.644531 4.640625 -1.75 C 4.742188 -1.863281 4.878906 -1.921875 5.046875 -1.921875 Z M 5.046875 -1.921875 "/>
</g>
<g id="glyph-0-1">
<path d="M 4.171875 -10.875 C 5.253906 -10.875 6.070312 -10.410156 6.625 -9.484375 C 7.175781 -8.554688 7.453125 -7.175781 7.453125 -5.34375 C 7.453125 -3.488281 7.175781 -2.097656 6.625 -1.171875 C 6.070312 -0.253906 5.253906 0.203125 4.171875 0.203125 C 3.085938 0.203125 2.265625 -0.257812 1.703125 -1.1875 C 1.148438 -2.113281 0.875 -3.5 0.875 -5.34375 C 0.875 -9.03125 1.972656 -10.875 4.171875 -10.875 Z M 4.171875 -9.765625 C 3.554688 -9.765625 3.101562 -9.425781 2.8125 -8.75 C 2.519531 -8.070312 2.375 -6.9375 2.375 -5.34375 C 2.375 -3.738281 2.519531 -2.597656 2.8125 -1.921875 C 3.101562 -1.253906 3.554688 -0.921875 4.171875 -0.921875 C 4.785156 -0.921875 5.238281 -1.253906 5.53125 -1.921875 C 5.820312 -2.597656 5.96875 -3.738281 5.96875 -5.34375 C 5.96875 -6.945312 5.820312 -8.082031 5.53125 -8.75 C 5.25 -9.425781 4.796875 -9.765625 4.171875 -9.765625 Z M 4.171875 -9.765625 "/>
</g>
<g id="glyph-0-2">
<path d="M 3.25 -10.875 C 3.851562 -10.875 4.375 -10.75 4.8125 -10.5 C 5.257812 -10.25 5.597656 -9.90625 5.828125 -9.46875 C 6.066406 -9.039062 6.1875 -8.554688 6.1875 -8.015625 C 6.1875 -7.367188 6.0625 -6.753906 5.8125 -6.171875 C 5.5625 -5.585938 5.160156 -4.9375 4.609375 -4.21875 C 4.054688 -3.507812 3.203125 -2.5 2.046875 -1.1875 L 6.4375 -1.1875 L 6.25 0 L 0.46875 0 L 0.46875 -1.125 C 1.695312 -2.550781 2.597656 -3.628906 3.171875 -4.359375 C 3.742188 -5.097656 4.140625 -5.734375 4.359375 -6.265625 C 4.585938 -6.796875 4.703125 -7.351562 4.703125 -7.9375 C 4.703125 -8.5 4.5625 -8.9375 4.28125 -9.25 C 4 -9.5625 3.617188 -9.71875 3.140625 -9.71875 C 2.734375 -9.71875 2.378906 -9.625 2.078125 -9.4375 C 1.773438 -9.257812 1.46875 -8.972656 1.15625 -8.578125 L 0.25 -9.265625 C 1.03125 -10.335938 2.03125 -10.875 3.25 -10.875 Z M 3.25 -10.875 "/>
</g>
<g id="glyph-0-3">
<path d="M 7.328125 -3.796875 L 7.328125 -2.640625 L 6.109375 -2.640625 L 6.109375 0 L 4.734375 0 L 4.734375 -2.640625 L 0.546875 -2.640625 L 0.546875 -3.6875 L 3.40625 -10.890625 L 4.625 -10.4375 L 2.015625 -3.796875 L 4.75 -3.796875 L 4.890625 -6.703125 L 6.109375 -6.703125 L 6.109375 -3.796875 Z M 7.328125 -3.796875 "/>
</g>
<g id="glyph-0-4">
<path d="M 4.671875 -7.046875 C 5.160156 -7.046875 5.601562 -6.914062 6 -6.65625 C 6.40625 -6.394531 6.722656 -6.007812 6.953125 -5.5 C 7.191406 -4.988281 7.3125 -4.363281 7.3125 -3.625 C 7.3125 -2.84375 7.179688 -2.160156 6.921875 -1.578125 C 6.660156 -0.992188 6.296875 -0.550781 5.828125 -0.25 C 5.359375 0.0507812 4.816406 0.203125 4.203125 0.203125 C 3.066406 0.203125 2.226562 -0.242188 1.6875 -1.140625 C 1.144531 -2.046875 0.875 -3.300781 0.875 -4.90625 C 0.875 -6.132812 1.023438 -7.195312 1.328125 -8.09375 C 1.640625 -8.988281 2.078125 -9.675781 2.640625 -10.15625 C 3.210938 -10.632812 3.882812 -10.875 4.65625 -10.875 C 5.40625 -10.875 6.066406 -10.65625 6.640625 -10.21875 L 6.078125 -9.3125 C 5.628906 -9.613281 5.164062 -9.765625 4.6875 -9.765625 C 3.988281 -9.765625 3.4375 -9.398438 3.03125 -8.671875 C 2.625 -7.941406 2.394531 -6.9375 2.34375 -5.65625 C 2.945312 -6.582031 3.722656 -7.046875 4.671875 -7.046875 Z M 4.1875 -0.90625 C 4.75 -0.90625 5.171875 -1.132812 5.453125 -1.59375 C 5.734375 -2.0625 5.875 -2.726562 5.875 -3.59375 C 5.875 -4.414062 5.738281 -5.015625 5.46875 -5.390625 C 5.195312 -5.765625 4.828125 -5.953125 4.359375 -5.953125 C 3.960938 -5.953125 3.585938 -5.816406 3.234375 -5.546875 C 2.890625 -5.285156 2.59375 -4.921875 2.34375 -4.453125 C 2.363281 -3.222656 2.519531 -2.320312 2.8125 -1.75 C 3.101562 -1.1875 3.5625 -0.90625 4.1875 -0.90625 Z M 4.1875 -0.90625 "/>
</g>
<g id="glyph-0-5">
<path d="M 1.6875 -1.828125 C 1.976562 -1.828125 2.21875 -1.726562 2.40625 -1.53125 C 2.59375 -1.332031 2.6875 -1.09375 2.6875 -0.8125 C 2.6875 -0.539062 2.59375 -0.300781 2.40625 -0.09375 C 2.21875 0.101562 1.976562 0.203125 1.6875 0.203125 C 1.394531 0.203125 1.15625 0.101562 0.96875 -0.09375 C 0.78125 -0.300781 0.6875 -0.539062 0.6875 -0.8125 C 0.6875 -1.09375 0.78125 -1.332031 0.96875 -1.53125 C 1.15625 -1.726562 1.394531 -1.828125 1.6875 -1.828125 Z M 1.6875 -1.828125 "/>
</g>
<g id="glyph-0-6">
<path d="M 6.140625 -9.578125 L 2.40625 -9.578125 L 2.40625 -6.390625 C 2.90625 -6.679688 3.425781 -6.828125 3.96875 -6.828125 C 4.789062 -6.828125 5.453125 -6.53125 5.953125 -5.9375 C 6.453125 -5.34375 6.703125 -4.515625 6.703125 -3.453125 C 6.703125 -2.742188 6.5625 -2.109375 6.28125 -1.546875 C 6 -0.992188 5.597656 -0.5625 5.078125 -0.25 C 4.566406 0.0507812 3.972656 0.203125 3.296875 0.203125 C 2.691406 0.203125 2.15625 0.0859375 1.6875 -0.140625 C 1.21875 -0.378906 0.78125 -0.726562 0.375 -1.1875 L 1.21875 -1.953125 C 1.53125 -1.617188 1.84375 -1.367188 2.15625 -1.203125 C 2.476562 -1.035156 2.847656 -0.953125 3.265625 -0.953125 C 3.878906 -0.953125 4.359375 -1.164062 4.703125 -1.59375 C 5.046875 -2.03125 5.21875 -2.65625 5.21875 -3.46875 C 5.21875 -5 4.640625 -5.765625 3.484375 -5.765625 C 3.234375 -5.765625 3 -5.726562 2.78125 -5.65625 C 2.570312 -5.582031 2.332031 -5.472656 2.0625 -5.328125 L 1.03125 -5.328125 L 1.03125 -10.703125 L 6.34375 -10.703125 Z M 6.140625 -9.578125 "/>
</g>
<g id="glyph-0-7">
<path d="M 6.0625 -10.703125 L 6.0625 -9.640625 L 2.40625 0.15625 L 1.109375 -0.25 L 4.625 -9.546875 L 0.34375 -9.546875 L 0.34375 -10.703125 Z M 6.0625 -10.703125 "/>
</g>
<g id="glyph-0-8">
<path d="M 5.25 -5.71875 C 5.988281 -5.382812 6.523438 -4.988281 6.859375 -4.53125 C 7.203125 -4.070312 7.375 -3.503906 7.375 -2.828125 C 7.375 -2.234375 7.234375 -1.707031 6.953125 -1.25 C 6.679688 -0.789062 6.285156 -0.429688 5.765625 -0.171875 C 5.242188 0.078125 4.644531 0.203125 3.96875 0.203125 C 3.289062 0.203125 2.695312 0.078125 2.1875 -0.171875 C 1.6875 -0.421875 1.300781 -0.773438 1.03125 -1.234375 C 0.757812 -1.691406 0.625 -2.210938 0.625 -2.796875 C 0.625 -4.117188 1.300781 -5.066406 2.65625 -5.640625 C 2.082031 -5.953125 1.664062 -6.304688 1.40625 -6.703125 C 1.15625 -7.097656 1.03125 -7.570312 1.03125 -8.125 C 1.03125 -8.695312 1.160156 -9.191406 1.421875 -9.609375 C 1.691406 -10.023438 2.050781 -10.335938 2.5 -10.546875 C 2.957031 -10.765625 3.457031 -10.875 4 -10.875 C 4.851562 -10.875 5.5625 -10.640625 6.125 -10.171875 C 6.695312 -9.703125 6.984375 -9.039062 6.984375 -8.1875 C 6.984375 -7.644531 6.84375 -7.175781 6.5625 -6.78125 C 6.289062 -6.382812 5.851562 -6.03125 5.25 -5.71875 Z M 4.015625 -9.828125 C 3.523438 -9.828125 3.132812 -9.679688 2.84375 -9.390625 C 2.5625 -9.109375 2.421875 -8.679688 2.421875 -8.109375 C 2.421875 -7.628906 2.539062 -7.253906 2.78125 -6.984375 C 3.019531 -6.710938 3.425781 -6.457031 4 -6.21875 L 4.375 -6.0625 C 4.820312 -6.363281 5.132812 -6.671875 5.3125 -6.984375 C 5.5 -7.296875 5.59375 -7.675781 5.59375 -8.125 C 5.59375 -8.6875 5.453125 -9.109375 5.171875 -9.390625 C 4.898438 -9.679688 4.515625 -9.828125 4.015625 -9.828125 Z M 4 -0.90625 C 4.601562 -0.90625 5.078125 -1.066406 5.421875 -1.390625 C 5.765625 -1.722656 5.9375 -2.203125 5.9375 -2.828125 C 5.9375 -3.398438 5.796875 -3.84375 5.515625 -4.15625 C 5.234375 -4.46875 4.726562 -4.773438 4 -5.078125 L 3.546875 -5.25 C 3.035156 -4.976562 2.660156 -4.648438 2.421875 -4.265625 C 2.179688 -3.890625 2.0625 -3.410156 2.0625 -2.828125 C 2.0625 -2.191406 2.234375 -1.710938 2.578125 -1.390625 C 2.921875 -1.066406 3.394531 -0.90625 4 -0.90625 Z M 4 -0.90625 "/>
</g>
<g id="glyph-0-9">
<path d="M 3.8125 -10.875 C 4.875 -10.875 5.675781 -10.503906 6.21875 -9.765625 C 6.757812 -9.035156 7.03125 -8 7.03125 -6.65625 C 7.03125 -5.238281 6.835938 -4.078125 6.453125 -3.171875 C 6.066406 -2.273438 5.488281 -1.554688 4.71875 -1.015625 C 3.957031 -0.472656 2.953125 -0.015625 1.703125 0.359375 L 1.375 -0.703125 C 2.675781 -1.109375 3.664062 -1.648438 4.34375 -2.328125 C 5.019531 -3.003906 5.410156 -3.941406 5.515625 -5.140625 C 5.253906 -4.753906 4.9375 -4.453125 4.5625 -4.234375 C 4.195312 -4.015625 3.785156 -3.90625 3.328125 -3.90625 C 2.835938 -3.90625 2.382812 -4.039062 1.96875 -4.3125 C 1.550781 -4.59375 1.222656 -4.988281 0.984375 -5.5 C 0.742188 -6.019531 0.625 -6.628906 0.625 -7.328125 C 0.625 -8.078125 0.757812 -8.71875 1.03125 -9.25 C 1.3125 -9.78125 1.691406 -10.179688 2.171875 -10.453125 C 2.648438 -10.734375 3.195312 -10.875 3.8125 -10.875 Z M 3.6875 -4.984375 C 4.40625 -4.984375 5.023438 -5.441406 5.546875 -6.359375 C 5.554688 -7.578125 5.425781 -8.453125 5.15625 -8.984375 C 4.882812 -9.515625 4.441406 -9.78125 3.828125 -9.78125 C 3.265625 -9.78125 2.828125 -9.570312 2.515625 -9.15625 C 2.210938 -8.75 2.0625 -8.132812 2.0625 -7.3125 C 2.0625 -6.550781 2.203125 -5.972656 2.484375 -5.578125 C 2.773438 -5.179688 3.175781 -4.984375 3.6875 -4.984375 Z M 3.6875 -4.984375 "/>
</g>
<g id="glyph-0-10">
<path d="M 4.703125 -10.703125 L 4.703125 0 L 3.28125 0 L 3.28125 -9.203125 L 1.0625 -7.703125 L 0.40625 -8.65625 L 3.4375 -10.703125 Z M 4.703125 -10.703125 "/>
</g>
<g id="glyph-1-0">
<path d="M 10.859375 -21 L 10.859375 7 L 2.453125 7 L 2.453125 -21 Z M 9.78125 -19.953125 L 3.5625 -19.953125 L 3.5625 5.953125 L 9.78125 5.953125 Z M 6.484375 -9.015625 C 7.285156 -9.015625 7.851562 -8.800781 8.1875 -8.375 C 8.53125 -7.945312 8.703125 -7.394531 8.703125 -6.71875 C 8.703125 -6.007812 8.550781 -5.460938 8.25 -5.078125 C 7.945312 -4.691406 7.460938 -4.453125 6.796875 -4.359375 L 6.796875 -3.453125 C 6.796875 -3.304688 6.742188 -3.191406 6.640625 -3.109375 C 6.546875 -3.023438 6.429688 -2.984375 6.296875 -2.984375 C 6.160156 -2.984375 6.039062 -3.023438 5.9375 -3.109375 C 5.84375 -3.191406 5.796875 -3.304688 5.796875 -3.453125 L 5.796875 -5.140625 C 6.503906 -5.179688 6.984375 -5.3125 7.234375 -5.53125 C 7.492188 -5.75 7.625 -6.132812 7.625 -6.6875 C 7.625 -7.125 7.535156 -7.460938 7.359375 -7.703125 C 7.179688 -7.941406 6.863281 -8.0625 6.40625 -8.0625 C 6.007812 -8.0625 5.660156 -7.988281 5.359375 -7.84375 C 5.253906 -7.800781 5.164062 -7.78125 5.09375 -7.78125 C 4.945312 -7.78125 4.832031 -7.820312 4.75 -7.90625 C 4.664062 -8 4.625 -8.109375 4.625 -8.234375 C 4.625 -8.492188 4.816406 -8.6875 5.203125 -8.8125 C 5.597656 -8.945312 6.023438 -9.015625 6.484375 -9.015625 Z M 6.296875 -2.40625 C 6.492188 -2.40625 6.660156 -2.335938 6.796875 -2.203125 C 6.929688 -2.066406 7 -1.898438 7 -1.703125 C 7 -1.484375 6.929688 -1.300781 6.796875 -1.15625 C 6.660156 -1.019531 6.492188 -0.953125 6.296875 -0.953125 C 6.097656 -0.953125 5.929688 -1.019531 5.796875 -1.15625 C 5.660156 -1.300781 5.59375 -1.484375 5.59375 -1.703125 C 5.59375 -1.898438 5.660156 -2.066406 5.796875 -2.203125 C 5.929688 -2.335938 6.097656 -2.40625 6.296875 -2.40625 Z M 6.296875 -2.40625 "/>
</g>
<g id="glyph-1-1">
<path d="M 8.546875 -13.765625 L 8.3125 -12.3125 L 3.5625 -12.3125 L 3.5625 -7.78125 L 7.703125 -7.78125 L 7.703125 -6.34375 L 3.5625 -6.34375 L 3.5625 -1.453125 L 8.59375 -1.453125 L 8.59375 0 L 1.703125 0 L 1.703125 -13.765625 Z M 8.546875 -13.765625 "/>
</g>
<g id="glyph-1-2">
<path d="M 4.34375 -10.78125 C 5.550781 -10.78125 6.628906 -10.378906 7.578125 -9.578125 L 6.8125 -8.515625 C 6.394531 -8.804688 6 -9.023438 5.625 -9.171875 C 5.25 -9.328125 4.851562 -9.40625 4.4375 -9.40625 C 3.894531 -9.40625 3.46875 -9.273438 3.15625 -9.015625 C 2.84375 -8.753906 2.6875 -8.394531 2.6875 -7.9375 C 2.6875 -7.5 2.832031 -7.148438 3.125 -6.890625 C 3.425781 -6.640625 4 -6.382812 4.84375 -6.125 C 5.894531 -5.789062 6.660156 -5.382812 7.140625 -4.90625 C 7.617188 -4.425781 7.859375 -3.765625 7.859375 -2.921875 C 7.859375 -1.929688 7.5 -1.148438 6.78125 -0.578125 C 6.0625 -0.015625 5.160156 0.265625 4.078125 0.265625 C 2.648438 0.265625 1.441406 -0.207031 0.453125 -1.15625 L 1.375 -2.15625 C 2.21875 -1.476562 3.109375 -1.140625 4.046875 -1.140625 C 4.628906 -1.140625 5.097656 -1.285156 5.453125 -1.578125 C 5.816406 -1.867188 6 -2.273438 6 -2.796875 C 6 -3.171875 5.9375 -3.472656 5.8125 -3.703125 C 5.6875 -3.929688 5.457031 -4.132812 5.125 -4.3125 C 4.800781 -4.488281 4.328125 -4.675781 3.703125 -4.875 C 2.703125 -5.207031 1.976562 -5.609375 1.53125 -6.078125 C 1.09375 -6.546875 0.875 -7.140625 0.875 -7.859375 C 0.875 -8.421875 1.019531 -8.921875 1.3125 -9.359375 C 1.613281 -9.796875 2.019531 -10.140625 2.53125 -10.390625 C 3.050781 -10.648438 3.65625 -10.78125 4.34375 -10.78125 Z M 4.34375 -10.78125 "/>
</g>
<g id="glyph-1-3">
<path d="M 6.59375 -0.453125 C 5.925781 0.0234375 5.1875 0.265625 4.375 0.265625 C 3.519531 0.265625 2.863281 0.0195312 2.40625 -0.46875 C 1.945312 -0.96875 1.71875 -1.664062 1.71875 -2.5625 L 1.71875 -9.15625 L 0.21875 -9.15625 L 0.21875 -10.515625 L 1.71875 -10.515625 L 1.71875 -12.9375 L 3.515625 -13.15625 L 3.515625 -10.515625 L 5.84375 -10.515625 L 5.640625 -9.15625 L 3.515625 -9.15625 L 3.515625 -2.578125 C 3.515625 -1.671875 3.894531 -1.21875 4.65625 -1.21875 C 4.882812 -1.21875 5.09375 -1.25 5.28125 -1.3125 C 5.476562 -1.382812 5.695312 -1.488281 5.9375 -1.625 Z M 6.59375 -0.453125 "/>
</g>
<g id="glyph-1-4">
<path d="M 3.421875 -10.515625 L 3.421875 0 L 1.625 0 L 1.625 -10.515625 Z M 2.515625 -15.484375 C 2.859375 -15.484375 3.140625 -15.367188 3.359375 -15.140625 C 3.585938 -14.910156 3.703125 -14.628906 3.703125 -14.296875 C 3.703125 -13.960938 3.59375 -13.6875 3.375 -13.46875 C 3.164062 -13.25 2.878906 -13.140625 2.515625 -13.140625 C 2.171875 -13.140625 1.890625 -13.25 1.671875 -13.46875 C 1.453125 -13.6875 1.34375 -13.960938 1.34375 -14.296875 C 1.34375 -14.628906 1.453125 -14.910156 1.671875 -15.140625 C 1.890625 -15.367188 2.171875 -15.484375 2.515625 -15.484375 Z M 2.515625 -15.484375 "/>
</g>
<g id="glyph-1-5">
<path d="M 11.34375 -10.78125 C 12.101562 -10.78125 12.707031 -10.492188 13.15625 -9.921875 C 13.613281 -9.359375 13.84375 -8.601562 13.84375 -7.65625 L 13.84375 0 L 12.0625 0 L 12.0625 -7.453125 C 12.0625 -8.734375 11.644531 -9.375 10.8125 -9.375 C 10.019531 -9.375 9.289062 -8.765625 8.625 -7.546875 L 8.625 0 L 6.84375 0 L 6.84375 -7.453125 C 6.84375 -8.734375 6.425781 -9.375 5.59375 -9.375 C 4.78125 -9.375 4.050781 -8.765625 3.40625 -7.546875 L 3.40625 0 L 1.625 0 L 1.625 -10.515625 L 3.1875 -10.515625 L 3.3125 -8.984375 C 4.09375 -10.179688 5.03125 -10.78125 6.125 -10.78125 C 6.695312 -10.78125 7.179688 -10.613281 7.578125 -10.28125 C 7.984375 -9.945312 8.269531 -9.472656 8.4375 -8.859375 C 9.25 -10.140625 10.21875 -10.78125 11.34375 -10.78125 Z M 11.34375 -10.78125 "/>
</g>
<g id="glyph-1-6">
<path d="M 8.1875 -2.40625 C 8.1875 -1.976562 8.242188 -1.660156 8.359375 -1.453125 C 8.484375 -1.242188 8.671875 -1.085938 8.921875 -0.984375 L 8.546875 0.234375 C 8.023438 0.160156 7.613281 0.00390625 7.3125 -0.234375 C 7.019531 -0.472656 6.816406 -0.84375 6.703125 -1.34375 C 6.023438 -0.269531 5.070312 0.265625 3.84375 0.265625 C 2.90625 0.265625 2.160156 -0.0234375 1.609375 -0.609375 C 1.066406 -1.191406 0.796875 -1.96875 0.796875 -2.9375 C 0.796875 -4.0625 1.160156 -4.914062 1.890625 -5.5 C 2.628906 -6.082031 3.679688 -6.375 5.046875 -6.375 L 6.40625 -6.375 L 6.40625 -7.28125 C 6.40625 -8.007812 6.253906 -8.535156 5.953125 -8.859375 C 5.648438 -9.191406 5.160156 -9.359375 4.484375 -9.359375 C 3.742188 -9.359375 2.890625 -9.171875 1.921875 -8.796875 L 1.484375 -10.0625 C 2.648438 -10.539062 3.742188 -10.78125 4.765625 -10.78125 C 7.046875 -10.78125 8.1875 -9.640625 8.1875 -7.359375 Z M 4.265625 -1.09375 C 5.191406 -1.09375 5.90625 -1.640625 6.40625 -2.734375 L 6.40625 -5.21875 L 5.234375 -5.21875 C 3.503906 -5.21875 2.640625 -4.492188 2.640625 -3.046875 C 2.640625 -2.410156 2.78125 -1.925781 3.0625 -1.59375 C 3.34375 -1.257812 3.742188 -1.09375 4.265625 -1.09375 Z M 4.265625 -1.09375 "/>
</g>
<g id="glyph-1-7">
<path d="M 9 -5.578125 C 9 -5.296875 8.984375 -4.984375 8.953125 -4.640625 L 2.84375 -4.640625 C 2.894531 -3.410156 3.140625 -2.523438 3.578125 -1.984375 C 4.015625 -1.453125 4.613281 -1.1875 5.375 -1.1875 C 5.851562 -1.1875 6.28125 -1.257812 6.65625 -1.40625 C 7.039062 -1.550781 7.441406 -1.789062 7.859375 -2.125 L 8.65625 -1.0625 C 7.675781 -0.175781 6.554688 0.265625 5.296875 0.265625 C 3.921875 0.265625 2.859375 -0.207031 2.109375 -1.15625 C 1.359375 -2.113281 0.984375 -3.457031 0.984375 -5.1875 C 0.984375 -6.90625 1.34375 -8.265625 2.0625 -9.265625 C 2.78125 -10.273438 3.78125 -10.78125 5.0625 -10.78125 C 6.320312 -10.78125 7.289062 -10.328125 7.96875 -9.421875 C 8.65625 -8.523438 9 -7.242188 9 -5.578125 Z M 7.265625 -6.125 C 7.265625 -8.320312 6.535156 -9.421875 5.078125 -9.421875 C 4.410156 -9.421875 3.882812 -9.144531 3.5 -8.59375 C 3.113281 -8.039062 2.894531 -7.144531 2.84375 -5.90625 L 7.265625 -5.90625 Z M 7.265625 -6.125 "/>
</g>
<g id="glyph-2-0">
<path d="M -21 -10.859375 L 7 -10.859375 L 7 -2.453125 L -21 -2.453125 Z M -19.953125 -9.78125 L -19.953125 -3.5625 L 5.953125 -3.5625 L 5.953125 -9.78125 Z M -9.015625 -6.484375 C -9.015625 -7.285156 -8.800781 -7.851562 -8.375 -8.1875 C -7.945312 -8.53125 -7.394531 -8.703125 -6.71875 -8.703125 C -6.007812 -8.703125 -5.460938 -8.550781 -5.078125 -8.25 C -4.691406 -7.945312 -4.453125 -7.460938 -4.359375 -6.796875 L -3.453125 -6.796875 C -3.304688 -6.796875 -3.191406 -6.742188 -3.109375 -6.640625 C -3.023438 -6.546875 -2.984375 -6.429688 -2.984375 -6.296875 C -2.984375 -6.160156 -3.023438 -6.039062 -3.109375 -5.9375 C -3.191406 -5.84375 -3.304688 -5.796875 -3.453125 -5.796875 L -5.140625 -5.796875 C -5.179688 -6.503906 -5.3125 -6.984375 -5.53125 -7.234375 C -5.75 -7.492188 -6.132812 -7.625 -6.6875 -7.625 C -7.125 -7.625 -7.460938 -7.535156 -7.703125 -7.359375 C -7.941406 -7.179688 -8.0625 -6.863281 -8.0625 -6.40625 C -8.0625 -6.007812 -7.988281 -5.660156 -7.84375 -5.359375 C -7.800781 -5.253906 -7.78125 -5.164062 -7.78125 -5.09375 C -7.78125 -4.945312 -7.820312 -4.832031 -7.90625 -4.75 C -8 -4.664062 -8.109375 -4.625 -8.234375 -4.625 C -8.492188 -4.625 -8.6875 -4.816406 -8.8125 -5.203125 C -8.945312 -5.597656 -9.015625 -6.023438 -9.015625 -6.484375 Z M -2.40625 -6.296875 C -2.40625 -6.492188 -2.335938 -6.660156 -2.203125 -6.796875 C -2.066406 -6.929688 -1.898438 -7 -1.703125 -7 C -1.484375 -7 -1.300781 -6.929688 -1.15625 -6.796875 C -1.019531 -6.660156 -0.953125 -6.492188 -0.953125 -6.296875 C -0.953125 -6.097656 -1.019531 -5.929688 -1.15625 -5.796875 C -1.300781 -5.660156 -1.484375 -5.59375 -1.703125 -5.59375 C -1.898438 -5.59375 -2.066406 -5.660156 -2.203125 -5.796875 C -2.335938 -5.929688 -2.40625 -6.097656 -2.40625 -6.296875 Z M -2.40625 -6.296875 "/>
</g>
<g id="glyph-2-1">
<path d="M -13.765625 -4.546875 C -13.765625 -5.722656 -13.582031 -6.75 -13.21875 -7.625 C -12.863281 -8.507812 -12.1875 -9.226562 -11.1875 -9.78125 C -10.1875 -10.34375 -8.773438 -10.625 -6.953125 -10.625 C -4.367188 -10.625 -2.5625 -10.070312 -1.53125 -8.96875 C -0.507812 -7.863281 0 -6.472656 0 -4.796875 L 0 -1.703125 L -13.765625 -1.703125 Z M -12.296875 -3.5625 L -1.4375 -3.5625 L -1.4375 -4.921875 C -1.4375 -6.066406 -1.832031 -6.976562 -2.625 -7.65625 C -3.414062 -8.34375 -4.859375 -8.6875 -6.953125 -8.6875 C -8.421875 -8.6875 -9.546875 -8.507812 -10.328125 -8.15625 C -11.117188 -7.800781 -11.644531 -7.34375 -11.90625 -6.78125 C -12.164062 -6.226562 -12.296875 -5.570312 -12.296875 -4.8125 Z M -12.296875 -3.5625 "/>
</g>
<g id="glyph-2-2">
<path d="M -5.578125 -9 C -5.296875 -9 -4.984375 -8.984375 -4.640625 -8.953125 L -4.640625 -2.84375 C -3.410156 -2.894531 -2.523438 -3.140625 -1.984375 -3.578125 C -1.453125 -4.015625 -1.1875 -4.613281 -1.1875 -5.375 C -1.1875 -5.851562 -1.257812 -6.28125 -1.40625 -6.65625 C -1.550781 -7.039062 -1.789062 -7.441406 -2.125 -7.859375 L -1.0625 -8.65625 C -0.175781 -7.675781 0.265625 -6.554688 0.265625 -5.296875 C 0.265625 -3.921875 -0.207031 -2.859375 -1.15625 -2.109375 C -2.113281 -1.359375 -3.457031 -0.984375 -5.1875 -0.984375 C -6.90625 -0.984375 -8.265625 -1.34375 -9.265625 -2.0625 C -10.273438 -2.78125 -10.78125 -3.78125 -10.78125 -5.0625 C -10.78125 -6.320312 -10.328125 -7.289062 -9.421875 -7.96875 C -8.523438 -8.65625 -7.242188 -9 -5.578125 -9 Z M -6.125 -7.265625 C -8.320312 -7.265625 -9.421875 -6.535156 -9.421875 -5.078125 C -9.421875 -4.410156 -9.144531 -3.882812 -8.59375 -3.5 C -8.039062 -3.113281 -7.144531 -2.894531 -5.90625 -2.84375 L -5.90625 -7.265625 Z M -6.125 -7.265625 "/>
</g>
<g id="glyph-2-3">
<path d="M -10.78125 -6.3125 C -10.78125 -7.15625 -10.503906 -7.8125 -9.953125 -8.28125 C -9.398438 -8.757812 -8.632812 -9 -7.65625 -9 L 0 -9 L 0 -7.203125 L -7.4375 -7.203125 C -8.113281 -7.203125 -8.601562 -7.085938 -8.90625 -6.859375 C -9.207031 -6.628906 -9.359375 -6.28125 -9.359375 -5.8125 C -9.359375 -4.9375 -8.734375 -4.140625 -7.484375 -3.421875 L 0 -3.421875 L 0 -1.625 L -10.515625 -1.625 L -10.515625 -3.1875 L -8.953125 -3.3125 C -10.171875 -4.132812 -10.78125 -5.132812 -10.78125 -6.3125 Z M -10.78125 -6.3125 "/>
</g>
<g id="glyph-2-4">
<path d="M -10.78125 -4.34375 C -10.78125 -5.550781 -10.378906 -6.628906 -9.578125 -7.578125 L -8.515625 -6.8125 C -8.804688 -6.394531 -9.023438 -6 -9.171875 -5.625 C -9.328125 -5.25 -9.40625 -4.851562 -9.40625 -4.4375 C -9.40625 -3.894531 -9.273438 -3.46875 -9.015625 -3.15625 C -8.753906 -2.84375 -8.394531 -2.6875 -7.9375 -2.6875 C -7.5 -2.6875 -7.148438 -2.832031 -6.890625 -3.125 C -6.640625 -3.425781 -6.382812 -4 -6.125 -4.84375 C -5.789062 -5.894531 -5.382812 -6.660156 -4.90625 -7.140625 C -4.425781 -7.617188 -3.765625 -7.859375 -2.921875 -7.859375 C -1.929688 -7.859375 -1.148438 -7.5 -0.578125 -6.78125 C -0.015625 -6.0625 0.265625 -5.160156 0.265625 -4.078125 C 0.265625 -2.648438 -0.207031 -1.441406 -1.15625 -0.453125 L -2.15625 -1.375 C -1.476562 -2.21875 -1.140625 -3.109375 -1.140625 -4.046875 C -1.140625 -4.628906 -1.285156 -5.097656 -1.578125 -5.453125 C -1.867188 -5.816406 -2.273438 -6 -2.796875 -6 C -3.171875 -6 -3.472656 -5.9375 -3.703125 -5.8125 C -3.929688 -5.6875 -4.132812 -5.457031 -4.3125 -5.125 C -4.488281 -4.800781 -4.675781 -4.328125 -4.875 -3.703125 C -5.207031 -2.703125 -5.609375 -1.976562 -6.078125 -1.53125 C -6.546875 -1.09375 -7.140625 -0.875 -7.859375 -0.875 C -8.421875 -0.875 -8.921875 -1.019531 -9.359375 -1.3125 C -9.796875 -1.613281 -10.140625 -2.019531 -10.390625 -2.53125 C -10.648438 -3.050781 -10.78125 -3.65625 -10.78125 -4.34375 Z M -10.78125 -4.34375 "/>
</g>
<g id="glyph-2-5">
<path d="M -10.515625 -3.421875 L 0 -3.421875 L 0 -1.625 L -10.515625 -1.625 Z M -15.484375 -2.515625 C -15.484375 -2.859375 -15.367188 -3.140625 -15.140625 -3.359375 C -14.910156 -3.585938 -14.628906 -3.703125 -14.296875 -3.703125 C -13.960938 -3.703125 -13.6875 -3.59375 -13.46875 -3.375 C -13.25 -3.164062 -13.140625 -2.878906 -13.140625 -2.515625 C -13.140625 -2.171875 -13.25 -1.890625 -13.46875 -1.671875 C -13.6875 -1.453125 -13.960938 -1.34375 -14.296875 -1.34375 C -14.628906 -1.34375 -14.910156 -1.453125 -15.140625 -1.671875 C -15.367188 -1.890625 -15.484375 -2.171875 -15.484375 -2.515625 Z M -15.484375 -2.515625 "/>
</g>
<g id="glyph-2-6">
<path d="M -0.453125 -6.59375 C 0.0234375 -5.925781 0.265625 -5.1875 0.265625 -4.375 C 0.265625 -3.519531 0.0195312 -2.863281 -0.46875 -2.40625 C -0.96875 -1.945312 -1.664062 -1.71875 -2.5625 -1.71875 L -9.15625 -1.71875 L -9.15625 -0.21875 L -10.515625 -0.21875 L -10.515625 -1.71875 L -12.9375 -1.71875 L -13.15625 -3.515625 L -10.515625 -3.515625 L -10.515625 -5.84375 L -9.15625 -5.640625 L -9.15625 -3.515625 L -2.578125 -3.515625 C -1.671875 -3.515625 -1.21875 -3.894531 -1.21875 -4.65625 C -1.21875 -4.882812 -1.25 -5.09375 -1.3125 -5.28125 C -1.382812 -5.476562 -1.488281 -5.695312 -1.625 -5.9375 Z M -0.453125 -6.59375 "/>
</g>
<g id="glyph-2-7">
<path d="M 0.046875 -5.578125 C 1.285156 -5.203125 2.242188 -4.675781 2.921875 -4 C 3.597656 -3.320312 4.03125 -2.351562 4.21875 -1.09375 L 2.875 -0.90625 C 2.75 -1.53125 2.570312 -2.023438 2.34375 -2.390625 C 2.113281 -2.765625 1.816406 -3.066406 1.453125 -3.296875 C 1.097656 -3.523438 0.613281 -3.742188 0 -3.953125 L 0 -3.296875 L -10.515625 -0.1875 L -10.515625 -2.046875 L -1.265625 -4.484375 L -10.515625 -6.921875 L -10.515625 -8.765625 Z M 0.046875 -5.578125 "/>
</g>
</g>
<clipPath id="clip-0">
<path clip-rule="nonzero" d="M 34.671875 1.441406 L 754.5625 1.441406 L 754.5625 441.890625 L 34.671875 441.890625 Z M 34.671875 1.441406 "/>
</clipPath>
<clipPath id="clip-1">
<path clip-rule="nonzero" d="M 34.671875 358 L 754.5625 358 L 754.5625 359 L 34.671875 359 Z M 34.671875 358 "/>
</clipPath>
<clipPath id="clip-2">
<path clip-rule="nonzero" d="M 34.671875 231 L 754.5625 231 L 754.5625 233 L 34.671875 233 Z M 34.671875 231 "/>
</clipPath>
<clipPath id="clip-3">
<path clip-rule="nonzero" d="M 34.671875 105 L 754.5625 105 L 754.5625 106 L 34.671875 106 Z M 34.671875 105 "/>
</clipPath>
<clipPath id="clip-4">
<path clip-rule="nonzero" d="M 132 1.441406 L 133 1.441406 L 133 441.890625 L 132 441.890625 Z M 132 1.441406 "/>
</clipPath>
<clipPath id="clip-5">
<path clip-rule="nonzero" d="M 261 1.441406 L 262 1.441406 L 262 441.890625 L 261 441.890625 Z M 261 1.441406 "/>
</clipPath>
<clipPath id="clip-6">
<path clip-rule="nonzero" d="M 391 1.441406 L 392 1.441406 L 392 441.890625 L 391 441.890625 Z M 391 1.441406 "/>
</clipPath>
<clipPath id="clip-7">
<path clip-rule="nonzero" d="M 521 1.441406 L 522 1.441406 L 522 441.890625 L 521 441.890625 Z M 521 1.441406 "/>
</clipPath>
<clipPath id="clip-8">
<path clip-rule="nonzero" d="M 650 1.441406 L 651 1.441406 L 651 441.890625 L 650 441.890625 Z M 650 1.441406 "/>
</clipPath>
<clipPath id="clip-9">
<path clip-rule="nonzero" d="M 34.671875 421 L 754.5625 421 L 754.5625 423 L 34.671875 423 Z M 34.671875 421 "/>
</clipPath>
<clipPath id="clip-10">
<path clip-rule="nonzero" d="M 34.671875 295 L 754.5625 295 L 754.5625 296 L 34.671875 296 Z M 34.671875 295 "/>
</clipPath>
<clipPath id="clip-11">
<path clip-rule="nonzero" d="M 34.671875 168 L 754.5625 168 L 754.5625 169 L 34.671875 169 Z M 34.671875 168 "/>
</clipPath>
<clipPath id="clip-12">
<path clip-rule="nonzero" d="M 34.671875 41 L 754.5625 41 L 754.5625 43 L 34.671875 43 Z M 34.671875 41 "/>
</clipPath>
<clipPath id="clip-13">
<path clip-rule="nonzero" d="M 67 1.441406 L 68 1.441406 L 68 441.890625 L 67 441.890625 Z M 67 1.441406 "/>
</clipPath>
<clipPath id="clip-14">
<path clip-rule="nonzero" d="M 196 1.441406 L 198 1.441406 L 198 441.890625 L 196 441.890625 Z M 196 1.441406 "/>
</clipPath>
<clipPath id="clip-15">
<path clip-rule="nonzero" d="M 326 1.441406 L 327 1.441406 L 327 441.890625 L 326 441.890625 Z M 326 1.441406 "/>
</clipPath>
<clipPath id="clip-16">
<path clip-rule="nonzero" d="M 456 1.441406 L 457 1.441406 L 457 441.890625 L 456 441.890625 Z M 456 1.441406 "/>
</clipPath>
<clipPath id="clip-17">
<path clip-rule="nonzero" d="M 585 1.441406 L 587 1.441406 L 587 441.890625 L 585 441.890625 Z M 585 1.441406 "/>
</clipPath>
<clipPath id="clip-18">
<path clip-rule="nonzero" d="M 715 1.441406 L 716 1.441406 L 716 441.890625 L 715 441.890625 Z M 715 1.441406 "/>
</clipPath>
<clipPath id="clip-19">
<path clip-rule="nonzero" d="M 66 1.441406 L 68 1.441406 L 68 441.890625 L 66 441.890625 Z M 66 1.441406 "/>
</clipPath>
<clipPath id="clip-20">
<path clip-rule="nonzero" d="M 488 1.441406 L 490 1.441406 L 490 441.890625 L 488 441.890625 Z M 488 1.441406 "/>
</clipPath>
<clipPath id="clip-21">
<path clip-rule="nonzero" d="M 34.671875 421 L 754.5625 421 L 754.5625 423 L 34.671875 423 Z M 34.671875 421 "/>
</clipPath>
<clipPath id="clip-22">
<path clip-rule="nonzero" d="M 34.671875 1.441406 L 754.5625 1.441406 L 754.5625 441.890625 L 34.671875 441.890625 Z M 34.671875 1.441406 "/>
</clipPath>
</defs>
<rect x="-75.6" y="-48.6" width="907.2" height="583.2" fill="rgb(100%, 100%, 100%)" fill-opacity="1"/>
<rect x="-75.6" y="-48.6" width="907.2" height="583.2" fill="rgb(100%, 100%, 100%)" fill-opacity="1"/>
<g clip-path="url(#clip-0)">
<path fill="none" stroke-width="1.066978" stroke-linecap="round" stroke-linejoin="round" stroke="rgb(100%, 100%, 100%)" stroke-opacity="1" stroke-miterlimit="10" d="M 34.671875 441.890625 L 754.5625 441.890625 L 754.5625 1.441406 L 34.671875 1.441406 Z M 34.671875 441.890625 "/>
</g>
<g clip-path="url(#clip-1)">
<path fill="none" stroke-width="0.213396" stroke-linecap="butt" stroke-linejoin="round" stroke="rgb(74.509804%, 74.509804%, 74.509804%)" stroke-opacity="1" stroke-dasharray="3 3" stroke-miterlimit="10" d="M 34.671875 358.582031 L 754.558594 358.582031 "/>
</g>
<g clip-path="url(#clip-2)">
<path fill="none" stroke-width="0.213396" stroke-linecap="butt" stroke-linejoin="round" stroke="rgb(74.509804%, 74.509804%, 74.509804%)" stroke-opacity="1" stroke-dasharray="3 3" stroke-miterlimit="10" d="M 34.671875 232.003906 L 754.558594 232.003906 "/>
</g>
<g clip-path="url(#clip-3)">
<path fill="none" stroke-width="0.213396" stroke-linecap="butt" stroke-linejoin="round" stroke="rgb(74.509804%, 74.509804%, 74.509804%)" stroke-opacity="1" stroke-dasharray="3 3" stroke-miterlimit="10" d="M 34.671875 105.429688 L 754.558594 105.429688 "/>
</g>
<g clip-path="url(#clip-4)">
<path fill="none" stroke-width="0.213396" stroke-linecap="butt" stroke-linejoin="round" stroke="rgb(74.509804%, 74.509804%, 74.509804%)" stroke-opacity="1" stroke-dasharray="3 3" stroke-miterlimit="10" d="M 132.226562 441.890625 L 132.226562 1.441406 "/>
</g>
<g clip-path="url(#clip-5)">
<path fill="none" stroke-width="0.213396" stroke-linecap="butt" stroke-linejoin="round" stroke="rgb(74.509804%, 74.509804%, 74.509804%)" stroke-opacity="1" stroke-dasharray="3 3" stroke-miterlimit="10" d="M 261.890625 441.890625 L 261.890625 1.441406 "/>
</g>
<g clip-path="url(#clip-6)">
<path fill="none" stroke-width="0.213396" stroke-linecap="butt" stroke-linejoin="round" stroke="rgb(74.509804%, 74.509804%, 74.509804%)" stroke-opacity="1" stroke-dasharray="3 3" stroke-miterlimit="10" d="M 391.554688 441.890625 L 391.554688 1.441406 "/>
</g>
<g clip-path="url(#clip-7)">
<path fill="none" stroke-width="0.213396" stroke-linecap="butt" stroke-linejoin="round" stroke="rgb(74.509804%, 74.509804%, 74.509804%)" stroke-opacity="1" stroke-dasharray="3 3" stroke-miterlimit="10" d="M 521.222656 441.890625 L 521.222656 1.441406 "/>
</g>
<g clip-path="url(#clip-8)">
<path fill="none" stroke-width="0.213396" stroke-linecap="butt" stroke-linejoin="round" stroke="rgb(74.509804%, 74.509804%, 74.509804%)" stroke-opacity="1" stroke-dasharray="3 3" stroke-miterlimit="10" d="M 650.886719 441.890625 L 650.886719 1.441406 "/>
</g>
<g clip-path="url(#clip-9)">
<path fill="none" stroke-width="0.426791" stroke-linecap="butt" stroke-linejoin="round" stroke="rgb(74.509804%, 74.509804%, 74.509804%)" stroke-opacity="1" stroke-dasharray="3 3" stroke-miterlimit="10" d="M 34.671875 421.867188 L 754.558594 421.867188 "/>
</g>
<g clip-path="url(#clip-10)">
<path fill="none" stroke-width="0.426791" stroke-linecap="butt" stroke-linejoin="round" stroke="rgb(74.509804%, 74.509804%, 74.509804%)" stroke-opacity="1" stroke-dasharray="3 3" stroke-miterlimit="10" d="M 34.671875 295.292969 L 754.558594 295.292969 "/>
</g>
<g clip-path="url(#clip-11)">
<path fill="none" stroke-width="0.426791" stroke-linecap="butt" stroke-linejoin="round" stroke="rgb(74.509804%, 74.509804%, 74.509804%)" stroke-opacity="1" stroke-dasharray="3 3" stroke-miterlimit="10" d="M 34.671875 168.71875 L 754.558594 168.71875 "/>
</g>
<g clip-path="url(#clip-12)">
<path fill="none" stroke-width="0.426791" stroke-linecap="butt" stroke-linejoin="round" stroke="rgb(74.509804%, 74.509804%, 74.509804%)" stroke-opacity="1" stroke-dasharray="3 3" stroke-miterlimit="10" d="M 34.671875 42.140625 L 754.558594 42.140625 "/>
</g>
<g clip-path="url(#clip-13)">
<path fill="none" stroke-width="0.426791" stroke-linecap="butt" stroke-linejoin="round" stroke="rgb(74.509804%, 74.509804%, 74.509804%)" stroke-opacity="1" stroke-dasharray="3 3" stroke-miterlimit="10" d="M 67.394531 441.890625 L 67.394531 1.441406 "/>
</g>
<g clip-path="url(#clip-14)">
<path fill="none" stroke-width="0.426791" stroke-linecap="butt" stroke-linejoin="round" stroke="rgb(74.509804%, 74.509804%, 74.509804%)" stroke-opacity="1" stroke-dasharray="3 3" stroke-miterlimit="10" d="M 197.058594 441.890625 L 197.058594 1.441406 "/>
</g>
<g clip-path="url(#clip-15)">
<path fill="none" stroke-width="0.426791" stroke-linecap="butt" stroke-linejoin="round" stroke="rgb(74.509804%, 74.509804%, 74.509804%)" stroke-opacity="1" stroke-dasharray="3 3" stroke-miterlimit="10" d="M 326.722656 441.890625 L 326.722656 1.441406 "/>
</g>
<g clip-path="url(#clip-16)">
<path fill="none" stroke-width="0.426791" stroke-linecap="butt" stroke-linejoin="round" stroke="rgb(74.509804%, 74.509804%, 74.509804%)" stroke-opacity="1" stroke-dasharray="3 3" stroke-miterlimit="10" d="M 456.390625 441.890625 L 456.390625 1.441406 "/>
</g>
<g clip-path="url(#clip-17)">
<path fill="none" stroke-width="0.426791" stroke-linecap="butt" stroke-linejoin="round" stroke="rgb(74.509804%, 74.509804%, 74.509804%)" stroke-opacity="1" stroke-dasharray="3 3" stroke-miterlimit="10" d="M 586.054688 441.890625 L 586.054688 1.441406 "/>
</g>
<g clip-path="url(#clip-18)">
<path fill="none" stroke-width="0.426791" stroke-linecap="butt" stroke-linejoin="round" stroke="rgb(74.509804%, 74.509804%, 74.509804%)" stroke-opacity="1" stroke-dasharray="3 3" stroke-miterlimit="10" d="M 715.71875 441.890625 L 715.71875 1.441406 "/>
</g>
<path fill-rule="nonzero" fill="rgb(90.196078%, 25.490196%, 45.098039%)" fill-opacity="0.94902" d="M 67.394531 421.4375 L 68.675781 421.417969 L 69.953125 421.398438 L 72.515625 421.375 L 73.796875 421.371094 L 75.078125 421.371094 L 76.359375 421.375 L 77.640625 421.386719 L 78.917969 421.398438 L 80.199219 421.414062 L 81.480469 421.4375 L 82.761719 421.457031 L 87.886719 421.566406 L 89.164062 421.597656 L 90.445312 421.625 L 94.289062 421.695312 L 95.570312 421.714844 L 96.851562 421.726562 L 98.128906 421.742188 L 99.410156 421.75 L 100.691406 421.753906 L 101.972656 421.753906 L 103.253906 421.75 L 104.535156 421.742188 L 105.816406 421.730469 L 107.09375 421.714844 L 108.375 421.695312 L 110.9375 421.640625 L 112.21875 421.609375 L 113.5 421.574219 L 114.78125 421.535156 L 116.058594 421.492188 L 117.339844 421.449219 L 119.902344 421.355469 L 125.027344 421.152344 L 126.304688 421.105469 L 127.585938 421.054688 L 130.148438 420.960938 L 131.429688 420.917969 L 133.992188 420.839844 L 135.269531 420.804688 L 136.550781 420.773438 L 137.832031 420.746094 L 140.394531 420.699219 L 141.675781 420.679688 L 142.957031 420.664062 L 144.234375 420.652344 L 145.515625 420.640625 L 148.078125 420.625 L 149.359375 420.621094 L 150.640625 420.613281 L 151.921875 420.609375 L 153.203125 420.601562 L 154.480469 420.589844 L 155.761719 420.578125 L 157.042969 420.5625 L 158.324219 420.542969 L 159.605469 420.519531 L 160.886719 420.488281 L 162.167969 420.453125 L 163.445312 420.410156 L 164.726562 420.363281 L 166.007812 420.308594 L 167.289062 420.25 L 169.851562 420.109375 L 171.132812 420.027344 L 172.410156 419.945312 L 173.691406 419.859375 L 178.816406 419.5 L 180.097656 419.417969 L 181.375 419.339844 L 182.65625 419.269531 L 183.9375 419.210938 L 185.21875 419.160156 L 186.5 419.121094 L 187.78125 419.09375 L 189.0625 419.078125 L 190.34375 419.070312 L 191.621094 419.074219 L 192.902344 419.082031 L 194.183594 419.097656 L 196.746094 419.136719 L 198.027344 419.152344 L 199.308594 419.15625 L 200.585938 419.15625 L 201.867188 419.140625 L 203.148438 419.109375 L 204.429688 419.0625 L 205.710938 418.988281 L 206.992188 418.898438 L 208.273438 418.78125 L 209.550781 418.644531 L 210.832031 418.488281 L 212.113281 418.304688 L 213.394531 418.105469 L 214.675781 417.882812 L 215.957031 417.636719 L 217.238281 417.375 L 218.519531 417.09375 L 219.796875 416.800781 L 221.078125 416.492188 L 222.359375 416.167969 L 223.640625 415.835938 L 224.921875 415.488281 L 226.203125 415.128906 L 227.484375 414.757812 L 228.761719 414.378906 L 230.042969 413.988281 L 231.324219 413.589844 L 232.605469 413.1875 L 233.886719 412.773438 L 235.167969 412.355469 L 236.449219 411.933594 L 237.726562 411.507812 L 240.289062 410.648438 L 244.132812 409.347656 L 245.414062 408.90625 L 246.691406 408.460938 L 247.972656 408.011719 L 249.253906 407.550781 L 250.535156 407.074219 L 251.816406 406.585938 L 253.097656 406.074219 L 254.378906 405.542969 L 255.660156 404.976562 L 256.9375 404.378906 L 258.21875 403.746094 L 259.5 403.074219 L 260.78125 402.363281 L 262.0625 401.613281 L 263.34375 400.824219 L 264.625 399.992188 L 265.902344 399.117188 L 267.183594 398.207031 L 268.464844 397.269531 L 269.746094 396.300781 L 271.027344 395.316406 L 272.308594 394.3125 L 273.589844 393.296875 L 274.867188 392.28125 L 276.148438 391.269531 L 277.429688 390.265625 L 278.710938 389.277344 L 279.992188 388.308594 L 281.273438 387.359375 L 282.554688 386.4375 L 283.832031 385.539062 L 285.113281 384.671875 L 286.394531 383.835938 L 287.675781 383.027344 L 288.957031 382.246094 L 290.238281 381.492188 L 291.519531 380.757812 L 292.800781 380.046875 L 294.078125 379.359375 L 295.359375 378.691406 L 296.640625 378.042969 L 297.921875 377.410156 L 299.203125 376.792969 L 300.484375 376.191406 L 301.765625 375.601562 L 303.042969 375.027344 L 304.324219 374.460938 L 305.605469 373.902344 L 308.167969 372.792969 L 309.449219 372.230469 L 310.730469 371.65625 L 312.007812 371.066406 L 313.289062 370.445312 L 314.570312 369.796875 L 315.851562 369.09375 L 317.132812 368.339844 L 318.414062 367.527344 L 319.695312 366.644531 L 320.976562 365.691406 L 322.253906 364.65625 L 323.535156 363.539062 L 324.816406 362.332031 L 326.097656 361.027344 L 327.378906 359.640625 L 328.660156 358.171875 L 329.941406 356.632812 L 331.21875 355.023438 L 332.5 353.351562 L 333.78125 351.632812 L 335.0625 349.871094 L 336.34375 348.074219 L 337.625 346.261719 L 338.90625 344.4375 L 340.183594 342.613281 L 341.464844 340.789062 L 342.746094 338.96875 L 344.027344 337.160156 L 345.308594 335.355469 L 346.589844 333.558594 L 347.871094 331.757812 L 349.148438 329.949219 L 350.429688 328.128906 L 351.710938 326.285156 L 352.992188 324.410156 L 354.273438 322.5 L 355.554688 320.535156 L 356.835938 318.515625 L 358.117188 316.433594 L 359.394531 314.289062 L 360.675781 312.078125 L 361.957031 309.800781 L 363.238281 307.453125 L 364.519531 305.042969 L 365.800781 302.554688 L 367.082031 300.007812 L 368.359375 297.40625 L 369.640625 294.753906 L 370.921875 292.054688 L 372.203125 289.316406 L 373.484375 286.542969 L 374.765625 283.742188 L 376.046875 280.914062 L 377.324219 278.074219 L 379.886719 272.371094 L 381.167969 269.523438 L 382.449219 266.6875 L 383.730469 263.867188 L 385.011719 261.0625 L 386.289062 258.289062 L 387.570312 255.539062 L 388.851562 252.8125 L 390.132812 250.113281 L 391.414062 247.433594 L 392.695312 244.769531 L 393.976562 242.117188 L 395.257812 239.46875 L 396.535156 236.8125 L 397.816406 234.144531 L 399.097656 231.453125 L 400.378906 228.730469 L 401.660156 225.972656 L 402.941406 223.171875 L 404.222656 220.324219 L 405.5 217.421875 L 406.78125 214.46875 L 408.0625 211.46875 L 409.34375 208.421875 L 410.625 205.332031 L 411.90625 202.207031 L 413.1875 199.046875 L 414.464844 195.863281 L 415.746094 192.65625 L 417.027344 189.429688 L 418.308594 186.195312 L 419.589844 182.953125 L 420.871094 179.707031 L 422.152344 176.464844 L 423.433594 173.226562 L 424.710938 169.992188 L 425.992188 166.777344 L 427.273438 163.578125 L 428.554688 160.40625 L 429.835938 157.261719 L 431.117188 154.152344 L 432.398438 151.085938 L 433.675781 148.070312 L 434.957031 145.105469 L 436.238281 142.210938 L 437.519531 139.378906 L 438.800781 136.613281 L 440.082031 133.910156 L 441.363281 131.277344 L 442.640625 128.703125 L 443.921875 126.191406 L 445.203125 123.738281 L 446.484375 121.34375 L 447.765625 118.988281 L 449.046875 116.667969 L 450.328125 114.378906 L 451.605469 112.109375 L 452.886719 109.851562 L 454.167969 107.597656 L 455.449219 105.332031 L 456.730469 103.050781 L 458.011719 100.738281 L 459.292969 98.390625 L 460.574219 96 L 461.851562 93.550781 L 463.132812 91.046875 L 464.414062 88.476562 L 465.695312 85.832031 L 466.976562 83.121094 L 468.257812 80.347656 L 469.539062 77.519531 L 470.816406 74.644531 L 472.097656 71.738281 L 473.378906 68.8125 L 474.660156 65.882812 L 475.941406 62.972656 L 477.222656 60.097656 L 478.503906 57.277344 L 479.78125 54.523438 L 481.0625 51.855469 L 482.34375 49.277344 L 483.625 46.800781 L 484.90625 44.4375 L 486.1875 42.207031 L 487.46875 40.085938 L 488.746094 38.078125 L 490.027344 36.179688 L 491.308594 34.382812 L 492.589844 32.691406 L 493.871094 31.101562 L 495.152344 29.613281 L 496.433594 28.238281 L 497.714844 26.960938 L 498.992188 25.796875 L 500.273438 24.746094 L 501.554688 23.820312 L 502.835938 23.027344 L 504.117188 22.378906 L 505.398438 21.894531 L 506.679688 21.59375 L 507.957031 21.460938 L 509.238281 21.5 L 510.519531 21.710938 L 511.800781 22.09375 L 513.082031 22.632812 L 514.363281 23.328125 L 515.644531 24.179688 L 516.921875 25.15625 L 518.203125 26.238281 L 519.484375 27.40625 L 520.765625 28.652344 L 522.046875 29.960938 L 523.328125 31.316406 L 524.609375 32.714844 L 525.890625 34.152344 L 527.167969 35.621094 L 528.449219 37.128906 L 529.730469 38.675781 L 531.011719 40.269531 L 532.292969 41.914062 L 533.574219 43.621094 L 534.855469 45.398438 L 536.132812 47.269531 L 537.414062 49.230469 L 538.695312 51.28125 L 539.976562 53.433594 L 541.257812 55.683594 L 542.539062 58.039062 L 543.820312 60.492188 L 545.097656 63.050781 L 546.378906 65.726562 L 547.660156 68.503906 L 548.941406 71.386719 L 550.222656 74.375 L 551.503906 77.472656 L 552.785156 80.6875 L 554.0625 84.019531 L 555.34375 87.484375 L 556.625 91.089844 L 557.90625 94.832031 L 559.1875 98.703125 L 560.46875 102.699219 L 561.75 106.820312 L 563.03125 111.054688 L 564.308594 115.390625 L 565.589844 119.820312 L 566.871094 124.320312 L 568.152344 128.867188 L 569.433594 133.4375 L 570.714844 138.019531 L 571.996094 142.59375 L 573.273438 147.148438 L 574.554688 151.667969 L 575.835938 156.136719 L 577.117188 160.550781 L 578.398438 164.914062 L 579.679688 169.21875 L 580.960938 173.476562 L 582.238281 177.683594 L 583.519531 181.851562 L 584.800781 185.980469 L 586.082031 190.074219 L 587.363281 194.152344 L 588.644531 198.210938 L 589.925781 202.261719 L 591.203125 206.308594 L 592.484375 210.355469 L 593.765625 214.410156 L 595.046875 218.472656 L 596.328125 222.546875 L 597.609375 226.636719 L 598.890625 230.742188 L 600.171875 234.859375 L 601.449219 238.992188 L 602.730469 243.144531 L 604.011719 247.304688 L 605.292969 251.476562 L 606.574219 255.65625 L 607.855469 259.839844 L 609.136719 264.019531 L 610.414062 268.191406 L 611.695312 272.351562 L 612.976562 276.488281 L 614.257812 280.601562 L 615.539062 284.675781 L 616.820312 288.703125 L 618.101562 292.6875 L 619.378906 296.613281 L 620.660156 300.480469 L 621.941406 304.28125 L 623.222656 308.019531 L 624.503906 311.683594 L 625.785156 315.265625 L 627.066406 318.765625 L 628.347656 322.195312 L 629.625 325.546875 L 630.90625 328.824219 L 632.1875 332.027344 L 633.46875 335.15625 L 634.75 338.214844 L 636.03125 341.191406 L 637.3125 344.09375 L 638.589844 346.933594 L 639.871094 349.699219 L 641.152344 352.398438 L 642.433594 355.03125 L 643.714844 357.59375 L 644.996094 360.085938 L 646.277344 362.5 L 647.554688 364.84375 L 648.835938 367.121094 L 650.117188 369.328125 L 651.398438 371.472656 L 652.679688 373.550781 L 653.960938 375.5625 L 655.242188 377.515625 L 656.519531 379.398438 L 657.800781 381.230469 L 659.082031 383.007812 L 660.363281 384.734375 L 661.644531 386.414062 L 662.925781 388.050781 L 664.207031 389.644531 L 665.488281 391.199219 L 666.765625 392.710938 L 668.046875 394.1875 L 669.328125 395.628906 L 670.609375 397.039062 L 671.890625 398.414062 L 673.171875 399.753906 L 674.453125 401.058594 L 675.730469 402.320312 L 677.011719 403.539062 L 678.292969 404.714844 L 679.574219 405.847656 L 680.855469 406.929688 L 682.136719 407.964844 L 683.417969 408.945312 L 684.695312 409.875 L 685.976562 410.738281 L 687.257812 411.546875 L 688.539062 412.296875 L 689.820312 412.996094 L 691.101562 413.640625 L 692.382812 414.234375 L 693.660156 414.78125 L 694.941406 415.28125 L 696.222656 415.730469 L 697.503906 416.144531 L 698.785156 416.527344 L 700.066406 416.878906 L 701.347656 417.203125 L 702.628906 417.503906 L 703.90625 417.78125 L 705.1875 418.046875 L 706.46875 418.292969 L 707.75 418.523438 L 709.03125 418.746094 L 710.3125 418.957031 L 711.59375 419.160156 L 712.871094 419.355469 L 714.152344 419.542969 L 715.433594 419.722656 L 716.714844 419.894531 L 717.996094 420.058594 L 719.277344 420.214844 L 720.558594 420.367188 L 721.835938 420.511719 L 721.835938 421.867188 L 67.394531 421.867188 Z M 67.394531 421.4375 "/>
<g clip-path="url(#clip-19)">
<path fill="none" stroke-width="1.066978" stroke-linecap="butt" stroke-linejoin="round" stroke="rgb(0%, 0%, 0%)" stroke-opacity="1" stroke-miterlimit="10" d="M 67.394531 441.890625 L 67.394531 1.441406 "/>
</g>
<g clip-path="url(#clip-20)">
<path fill="none" stroke-width="1.066978" stroke-linecap="butt" stroke-linejoin="round" stroke="rgb(0%, 0%, 0%)" stroke-opacity="1" stroke-dasharray="4.267913 4.267913" stroke-miterlimit="10" d="M 489.171875 441.890625 L 489.171875 1.441406 "/>
</g>
<g clip-path="url(#clip-21)">
<path fill="none" stroke-width="1.066978" stroke-linecap="butt" stroke-linejoin="round" stroke="rgb(0%, 0%, 0%)" stroke-opacity="1" stroke-miterlimit="10" d="M 34.671875 421.867188 L 754.558594 421.867188 "/>
</g>
<g clip-path="url(#clip-22)">
<path fill="none" stroke-width="1.066978" stroke-linecap="round" stroke-linejoin="round" stroke="rgb(100%, 100%, 100%)" stroke-opacity="1" stroke-miterlimit="10" d="M 34.671875 441.890625 L 754.5625 441.890625 L 754.5625 1.441406 L 34.671875 1.441406 Z M 34.671875 441.890625 "/>
</g>
<g fill="rgb(0%, 0%, 0%)" fill-opacity="1">
<use xlink:href="#glyph-0-1" x="21.738281" y="427.827148"/>
</g>
<g fill="rgb(0%, 0%, 0%)" fill-opacity="1">
<use xlink:href="#glyph-0-2" x="22.738281" y="301.25293"/>
</g>
<g fill="rgb(0%, 0%, 0%)" fill-opacity="1">
<use xlink:href="#glyph-0-3" x="21.738281" y="174.678711"/>
</g>
<g fill="rgb(0%, 0%, 0%)" fill-opacity="1">
<use xlink:href="#glyph-0-4" x="21.738281" y="48.100586"/>
</g>
<path fill="none" stroke-width="0.426791" stroke-linecap="butt" stroke-linejoin="round" stroke="rgb(74.509804%, 74.509804%, 74.509804%)" stroke-opacity="1" stroke-miterlimit="10" d="M 31.929688 421.867188 L 34.671875 421.867188 "/>
<path fill="none" stroke-width="0.426791" stroke-linecap="butt" stroke-linejoin="round" stroke="rgb(74.509804%, 74.509804%, 74.509804%)" stroke-opacity="1" stroke-miterlimit="10" d="M 31.929688 295.292969 L 34.671875 295.292969 "/>
<path fill="none" stroke-width="0.426791" stroke-linecap="butt" stroke-linejoin="round" stroke="rgb(74.509804%, 74.509804%, 74.509804%)" stroke-opacity="1" stroke-miterlimit="10" d="M 31.929688 168.71875 L 34.671875 168.71875 "/>
<path fill="none" stroke-width="0.426791" stroke-linecap="butt" stroke-linejoin="round" stroke="rgb(74.509804%, 74.509804%, 74.509804%)" stroke-opacity="1" stroke-miterlimit="10" d="M 31.929688 42.140625 L 34.671875 42.140625 "/>
<path fill="none" stroke-width="0.426791" stroke-linecap="butt" stroke-linejoin="round" stroke="rgb(74.509804%, 74.509804%, 74.509804%)" stroke-opacity="1" stroke-miterlimit="10" d="M 67.394531 444.628906 L 67.394531 441.890625 "/>
<path fill="none" stroke-width="0.426791" stroke-linecap="butt" stroke-linejoin="round" stroke="rgb(74.509804%, 74.509804%, 74.509804%)" stroke-opacity="1" stroke-miterlimit="10" d="M 197.058594 444.628906 L 197.058594 441.890625 "/>
<path fill="none" stroke-width="0.426791" stroke-linecap="butt" stroke-linejoin="round" stroke="rgb(74.509804%, 74.509804%, 74.509804%)" stroke-opacity="1" stroke-miterlimit="10" d="M 326.722656 444.628906 L 326.722656 441.890625 "/>
<path fill="none" stroke-width="0.426791" stroke-linecap="butt" stroke-linejoin="round" stroke="rgb(74.509804%, 74.509804%, 74.509804%)" stroke-opacity="1" stroke-miterlimit="10" d="M 456.390625 444.628906 L 456.390625 441.890625 "/>
<path fill="none" stroke-width="0.426791" stroke-linecap="butt" stroke-linejoin="round" stroke="rgb(74.509804%, 74.509804%, 74.509804%)" stroke-opacity="1" stroke-miterlimit="10" d="M 586.054688 444.628906 L 586.054688 441.890625 "/>
<path fill="none" stroke-width="0.426791" stroke-linecap="butt" stroke-linejoin="round" stroke="rgb(74.509804%, 74.509804%, 74.509804%)" stroke-opacity="1" stroke-miterlimit="10" d="M 715.71875 444.628906 L 715.71875 441.890625 "/>
<g fill="rgb(0%, 0%, 0%)" fill-opacity="1">
<use xlink:href="#glyph-0-1" x="57.894531" y="458.780273"/>
<use xlink:href="#glyph-0-5" x="65.894531" y="458.780273"/>
<use xlink:href="#glyph-0-6" x="69.894531" y="458.780273"/>
</g>
<g fill="rgb(0%, 0%, 0%)" fill-opacity="1">
<use xlink:href="#glyph-0-1" x="187.558594" y="458.780273"/>
<use xlink:href="#glyph-0-5" x="195.558594" y="458.780273"/>
<use xlink:href="#glyph-0-4" x="198.558594" y="458.780273"/>
</g>
<g fill="rgb(0%, 0%, 0%)" fill-opacity="1">
<use xlink:href="#glyph-0-1" x="318.222656" y="458.780273"/>
<use xlink:href="#glyph-0-5" x="326.222656" y="458.780273"/>
<use xlink:href="#glyph-0-7" x="329.222656" y="458.780273"/>
</g>
<g fill="rgb(0%, 0%, 0%)" fill-opacity="1">
<use xlink:href="#glyph-0-1" x="446.890625" y="458.780273"/>
<use xlink:href="#glyph-0-5" x="454.890625" y="458.780273"/>
<use xlink:href="#glyph-0-8" x="457.890625" y="458.780273"/>
</g>
<g fill="rgb(0%, 0%, 0%)" fill-opacity="1">
<use xlink:href="#glyph-0-1" x="576.554688" y="458.780273"/>
<use xlink:href="#glyph-0-5" x="584.554688" y="458.780273"/>
<use xlink:href="#glyph-0-9" x="587.554688" y="458.780273"/>
</g>
<g fill="rgb(0%, 0%, 0%)" fill-opacity="1">
<use xlink:href="#glyph-0-10" x="707.21875" y="458.780273"/>
<use xlink:href="#glyph-0-5" x="713.21875" y="458.780273"/>
<use xlink:href="#glyph-0-1" x="716.21875" y="458.780273"/>
</g>
<g fill="rgb(0%, 0%, 0%)" fill-opacity="1">
<use xlink:href="#glyph-1-1" x="359.117188" y="479.258789"/>
<use xlink:href="#glyph-1-2" x="368.117188" y="479.258789"/>
<use xlink:href="#glyph-1-3" x="377.117188" y="479.258789"/>
<use xlink:href="#glyph-1-4" x="384.117188" y="479.258789"/>
<use xlink:href="#glyph-1-5" x="389.117188" y="479.258789"/>
<use xlink:href="#glyph-1-6" x="404.117188" y="479.258789"/>
<use xlink:href="#glyph-1-3" x="414.117188" y="479.258789"/>
<use xlink:href="#glyph-1-7" x="420.117188" y="479.258789"/>
</g>
<g fill="rgb(0%, 0%, 0%)" fill-opacity="1">
<use xlink:href="#glyph-2-1" x="13.700195" y="252.664062"/>
<use xlink:href="#glyph-2-2" x="13.700195" y="240.664062"/>
<use xlink:href="#glyph-2-3" x="13.700195" y="230.664062"/>
<use xlink:href="#glyph-2-4" x="13.700195" y="219.664062"/>
<use xlink:href="#glyph-2-5" x="13.700195" y="210.664062"/>
<use xlink:href="#glyph-2-6" x="13.700195" y="205.664062"/>
<use xlink:href="#glyph-2-7" x="13.700195" y="199.664062"/>
</g>
</svg>
