<?xml version="1.0" encoding="UTF-8"?>
<svg xmlns="http://www.w3.org/2000/svg" xmlns:xlink="http://www.w3.org/1999/xlink" width="756" height="486" viewBox="0 0 756 486">
<defs>
<g>
<g id="glyph-0-0">
<path d="M 8.6875 -16.796875 L 8.6875 5.59375 L 1.96875 5.59375 L 1.96875 -16.796875 Z M 7.828125 -15.96875 L 2.84375 -15.96875 L 2.84375 4.765625 L 7.828125 4.765625 Z M 5.1875 -7.21875 C 5.820312 -7.21875 6.273438 -7.046875 6.546875 -6.703125 C 6.816406 -6.359375 6.953125 -5.914062 6.953125 -5.375 C 6.953125 -4.8125 6.832031 -4.375 6.59375 -4.0625 C 6.351562 -3.75 5.96875 -3.554688 5.4375 -3.484375 L 5.4375 -2.765625 C 5.4375 -2.648438 5.394531 -2.554688 5.3125 -2.484375 C 5.238281 -2.421875 5.148438 -2.390625 5.046875 -2.390625 C 4.929688 -2.390625 4.832031 -2.421875 4.75 -2.484375 C 4.675781 -2.554688 4.640625 -2.648438 4.640625 -2.765625 L 4.640625 -4.109375 C 5.203125 -4.140625 5.582031 -4.242188 5.78125 -4.421875 C 5.988281 -4.597656 6.09375 -4.90625 6.09375 -5.34375 C 6.09375 -5.695312 6.023438 -5.96875 5.890625 -6.15625 C 5.753906 -6.351562 5.5 -6.453125 5.125 -6.453125 C 4.8125 -6.453125 4.53125 -6.390625 4.28125 -6.265625 C 4.195312 -6.234375 4.128906 -6.21875 4.078125 -6.21875 C 3.960938 -6.21875 3.867188 -6.253906 3.796875 -6.328125 C 3.734375 -6.398438 3.703125 -6.488281 3.703125 -6.59375 C 3.703125 -6.789062 3.859375 -6.941406 4.171875 -7.046875 C 4.484375 -7.160156 4.820312 -7.21875 5.1875 -7.21875 Z M 5.046875 -1.921875 C 5.203125 -1.921875 5.332031 -1.863281 5.4375 -1.75 C 5.539062 -1.644531 5.59375 -1.515625 5.59375 -1.359375 C 5.59375 -1.191406 5.539062 -1.050781 5.4375 -0.9375 C 5.332031 -0.820312 5.203125 -0.765625 5.046875 -0.765625 C 4.878906 -0.765625 4.742188 -0.820312 4.640625 -0.9375 C 4.535156 -1.050781 4.484375 -1.191406 4.484375 -1.359375 C 4.484375 -1.515625 4.535156 -1.644531 4.640625 -1.75 C 4.742188 -1.863281 4.878906 -1.921875 5.046875 -1.921875 Z M 5.046875 -1.921875 "/>
</g>
<g id="glyph-0-1">
<path d="M 4.171875 -10.875 C 5.253906 -10.875 6.070312 -10.410156 6.625 -9.484375 C 7.175781 -8.554688 7.453125 -7.175781 7.453125 -5.34375 C 7.453125 -3.488281 7.175781 -2.097656 6.625 -1.171875 C 6.070312 -0.253906 5.253906 0.203125 4.171875 0.203125 C 3.085938 0.203125 2.265625 -0.257812 1.703125 -1.1875 C 1.148438 -2.113281 0.875 -3.5 0.875 -5.34375 C 0.875 -9.03125 1.972656 -10.875 4.171875 -10.875 Z M 4.171875 -9.765625 C 3.554688 -9.765625 3.101562 -9.425781 2.8125 -8.75 C 2.519531 -8.070312 2.375 -6.9375 2.375 -5.34375 C 2.375 -3.738281 2.519531 -2.597656 2.8125 -1.921875 C 3.101562 -1.253906 3.554688 -0.921875 4.171875 -0.921875 C 4.785156 -0.921875 5.238281 -1.253906 5.53125 -1.921875 C 5.820312 -2.597656 5.96875 -3.738281 5.96875 -5.34375 C 5.96875 -6.945312 5.820312 -8.082031 5.53125 -8.75 C 5.25 -9.425781 4.796875 -9.765625 4.171875 -9.765625 Z M 4.171875 -9.765625 "/>
</g>
<g id="glyph-0-2">
<path d="M 4.703125 -10.703125 L 4.703125 0 L 3.28125 0 L 3.28125 -9.203125 L 1.0625 -7.703125 L 0.40625 -8.65625 L 3.4375 -10.703125 Z M 4.703125 -10.703125 "/>
</g>
<g id="glyph-0-3">
<path d="M 3.25 -10.875 C 3.851562 -10.875 4.375 -10.75 4.8125 -10.5 C 5.257812 -10.25 5.597656 -9.90625 5.828125 -9.46875 C 6.066406 -9.039062 6.1875 -8.554688 6.1875 -8.015625 C 6.1875 -7.367188 6.0625 -6.753906 5.8125 -6.171875 C 5.5625 -5.585938 5.160156 -4.9375 4.609375 -4.21875 C 4.054688 -3.507812 3.203125 -2.5 2.046875 -1.1875 L 6.4375 -1.1875 L 6.25 0 L 0.46875 0 L 0.46875 -1.125 C 1.695312 -2.550781 2.597656 -3.628906 3.171875 -4.359375 C 3.742188 -5.097656 4.140625 -5.734375 4.359375 -6.265625 C 4.585938 -6.796875 4.703125 -7.351562 4.703125 -7.9375 C 4.703125 -8.5 4.5625 -8.9375 4.28125 -9.25 C 4 -9.5625 3.617188 -9.71875 3.140625 -9.71875 C 2.734375 -9.71875 2.378906 -9.625 2.078125 -9.4375 C 1.773438 -9.257812 1.46875 -8.972656 1.15625 -8.578125 L 0.25 -9.265625 C 1.03125 -10.335938 2.03125 -10.875 3.25 -10.875 Z M 3.25 -10.875 "/>
</g>
<g id="glyph-0-4">
<path d="M 1.6875 -1.828125 C 1.976562 -1.828125 2.21875 -1.726562 2.40625 -1.53125 C 2.59375 -1.332031 2.6875 -1.09375 2.6875 -0.8125 C 2.6875 -0.539062 2.59375 -0.300781 2.40625 -0.09375 C 2.21875 0.101562 1.976562 0.203125 1.6875 0.203125 C 1.394531 0.203125 1.15625 0.101562 0.96875 -0.09375 C 0.78125 -0.300781 0.6875 -0.539062 0.6875 -0.8125 C 0.6875 -1.09375 0.78125 -1.332031 0.96875 -1.53125 C 1.15625 -1.726562 1.394531 -1.828125 1.6875 -1.828125 Z M 1.6875 -1.828125 "/>
</g>
<g id="glyph-0-5">
<path d="M 6.140625 -9.578125 L 2.40625 -9.578125 L 2.40625 -6.390625 C 2.90625 -6.679688 3.425781 -6.828125 3.96875 -6.828125 C 4.789062 -6.828125 5.453125 -6.53125 5.953125 -5.9375 C 6.453125 -5.34375 6.703125 -4.515625 6.703125 -3.453125 C 6.703125 -2.742188 6.5625 -2.109375 6.28125 -1.546875 C 6 -0.992188 5.597656 -0.5625 5.078125 -0.25 C 4.566406 0.0507812 3.972656 0.203125 3.296875 0.203125 C 2.691406 0.203125 2.15625 0.0859375 1.6875 -0.140625 C 1.21875 -0.378906 0.78125 -0.726562 0.375 -1.1875 L 1.21875 -1.953125 C 1.53125 -1.617188 1.84375 -1.367188 2.15625 -1.203125 C 2.476562 -1.035156 2.847656 -0.953125 3.265625 -0.953125 C 3.878906 -0.953125 4.359375 -1.164062 4.703125 -1.59375 C 5.046875 -2.03125 5.21875 -2.65625 5.21875 -3.46875 C 5.21875 -5 4.640625 -5.765625 3.484375 -5.765625 C 3.234375 -5.765625 3 -5.726562 2.78125 -5.65625 C 2.570312 -5.582031 2.332031 -5.472656 2.0625 -5.328125 L 1.03125 -5.328125 L 1.03125 -10.703125 L 6.34375 -10.703125 Z M 6.140625 -9.578125 "/>
</g>
<g id="glyph-0-6">
<path d="M 6.0625 -10.703125 L 6.0625 -9.640625 L 2.40625 0.15625 L 1.109375 -0.25 L 4.625 -9.546875 L 0.34375 -9.546875 L 0.34375 -10.703125 Z M 6.0625 -10.703125 "/>
</g>
<g id="glyph-1-0">
<path d="M 10.859375 -21 L 10.859375 7 L 2.453125 7 L 2.453125 -21 Z M 9.78125 -19.953125 L 3.5625 -19.953125 L 3.5625 5.953125 L 9.78125 5.953125 Z M 6.484375 -9.015625 C 7.285156 -9.015625 7.851562 -8.800781 8.1875 -8.375 C 8.53125 -7.945312 8.703125 -7.394531 8.703125 -6.71875 C 8.703125 -6.007812 8.550781 -5.460938 8.25 -5.078125 C 7.945312 -4.691406 7.460938 -4.453125 6.796875 -4.359375 L 6.796875 -3.453125 C 6.796875 -3.304688 6.742188 -3.191406 6.640625 -3.109375 C 6.546875 -3.023438 6.429688 -2.984375 6.296875 -2.984375 C 6.160156 -2.984375 6.039062 -3.023438 5.9375 -3.109375 C 5.84375 -3.191406 5.796875 -3.304688 5.796875 -3.453125 L 5.796875 -5.140625 C 6.503906 -5.179688 6.984375 -5.3125 7.234375 -5.53125 C 7.492188 -5.75 7.625 -6.132812 7.625 -6.6875 C 7.625 -7.125 7.535156 -7.460938 7.359375 -7.703125 C 7.179688 -7.941406 6.863281 -8.0625 6.40625 -8.0625 C 6.007812 -8.0625 5.660156 -7.988281 5.359375 -7.84375 C 5.253906 -7.800781 5.164062 -7.78125 5.09375 -7.78125 C 4.945312 -7.78125 4.832031 -7.820312 4.75 -7.90625 C 4.664062 -8 4.625 -8.109375 4.625 -8.234375 C 4.625 -8.492188 4.816406 -8.6875 5.203125 -8.8125 C 5.597656 -8.945312 6.023438 -9.015625 6.484375 -9.015625 Z M 6.296875 -2.40625 C 6.492188 -2.40625 6.660156 -2.335938 6.796875 -2.203125 C 6.929688 -2.066406 7 -1.898438 7 -1.703125 C 7 -1.484375 6.929688 -1.300781 6.796875 -1.15625 C 6.660156 -1.019531 6.492188 -0.953125 6.296875 -0.953125 C 6.097656 -0.953125 5.929688 -1.019531 5.796875 -1.15625 C 5.660156 -1.300781 5.59375 -1.484375 5.59375 -1.703125 C 5.59375 -1.898438 5.660156 -2.066406 5.796875 -2.203125 C 5.929688 -2.335938 6.097656 -2.40625 6.296875 -2.40625 Z M 6.296875 -2.40625 "/>
</g>
<g id="glyph-1-1">
<path d="M 8.546875 -13.765625 L 8.3125 -12.3125 L 3.5625 -12.3125 L 3.5625 -7.78125 L 7.703125 -7.78125 L 7.703125 -6.34375 L 3.5625 -6.34375 L 3.5625 -1.453125 L 8.59375 -1.453125 L 8.59375 0 L 1.703125 0 L 1.703125 -13.765625 Z M 8.546875 -13.765625 "/>
</g>
<g id="glyph-1-2">
<path d="M 4.34375 -10.78125 C 5.550781 -10.78125 6.628906 -10.378906 7.578125 -9.578125 L 6.8125 -8.515625 C 6.394531 -8.804688 6 -9.023438 5.625 -9.171875 C 5.25 -9.328125 4.851562 -9.40625 4.4375 -9.40625 C 3.894531 -9.40625 3.46875 -9.273438 3.15625 -9.015625 C 2.84375 -8.753906 2.6875 -8.394531 2.6875 -7.9375 C 2.6875 -7.5 2.832031 -7.148438 3.125 -6.890625 C 3.425781 -6.640625 4 -6.382812 4.84375 -6.125 C 5.894531 -5.789062 6.660156 -5.382812 7.140625 -4.90625 C 7.617188 -4.425781 7.859375 -3.765625 7.859375 -2.921875 C 7.859375 -1.929688 7.5 -1.148438 6.78125 -0.578125 C 6.0625 -0.015625 5.160156 0.265625 4.078125 0.265625 C 2.648438 0.265625 1.441406 -0.207031 0.453125 -1.15625 L 1.375 -2.15625 C 2.21875 -1.476562 3.109375 -1.140625 4.046875 -1.140625 C 4.628906 -1.140625 5.097656 -1.285156 5.453125 -1.578125 C 5.816406 -1.867188 6 -2.273438 6 -2.796875 C 6 -3.171875 5.9375 -3.472656 5.8125 -3.703125 C 5.6875 -3.929688 5.457031 -4.132812 5.125 -4.3125 C 4.800781 -4.488281 4.328125 -4.675781 3.703125 -4.875 C 2.703125 -5.207031 1.976562 -5.609375 1.53125 -6.078125 C 1.09375 -6.546875 0.875 -7.140625 0.875 -7.859375 C 0.875 -8.421875 1.019531 -8.921875 1.3125 -9.359375 C 1.613281 -9.796875 2.019531 -10.140625 2.53125 -10.390625 C 3.050781 -10.648438 3.65625 -10.78125 4.34375 -10.78125 Z M 4.34375 -10.78125 "/>
</g>
<g id="glyph-1-3">
<path d="M 6.59375 -0.453125 C 5.925781 0.0234375 5.1875 0.265625 4.375 0.265625 C 3.519531 0.265625 2.863281 0.0195312 2.40625 -0.46875 C 1.945312 -0.96875 1.71875 -1.664062 1.71875 -2.5625 L 1.71875 -9.15625 L 0.21875 -9.15625 L 0.21875 -10.515625 L 1.71875 -10.515625 L 1.71875 -12.9375 L 3.515625 -13.15625 L 3.515625 -10.515625 L 5.84375 -10.515625 L 5.640625 -9.15625 L 3.515625 -9.15625 L 3.515625 -2.578125 C 3.515625 -1.671875 3.894531 -1.21875 4.65625 -1.21875 C 4.882812 -1.21875 5.09375 -1.25 5.28125 -1.3125 C 5.476562 -1.382812 5.695312 -1.488281 5.9375 -1.625 Z M 6.59375 -0.453125 "/>
</g>
<g id="glyph-1-4">
<path d="M 3.421875 -10.515625 L 3.421875 0 L 1.625 0 L 1.625 -10.515625 Z M 2.515625 -15.484375 C 2.859375 -15.484375 3.140625 -15.367188 3.359375 -15.140625 C 3.585938 -14.910156 3.703125 -14.628906 3.703125 -14.296875 C 3.703125 -13.960938 3.59375 -13.6875 3.375 -13.46875 C 3.164062 -13.25 2.878906 -13.140625 2.515625 -13.140625 C 2.171875 -13.140625 1.890625 -13.25 1.671875 -13.46875 C 1.453125 -13.6875 1.34375 -13.960938 1.34375 -14.296875 C 1.34375 -14.628906 1.453125 -14.910156 1.671875 -15.140625 C 1.890625 -15.367188 2.171875 -15.484375 2.515625 -15.484375 Z M 2.515625 -15.484375 "/>
</g>
<g id="glyph-1-5">
<path d="M 11.34375 -10.78125 C 12.101562 -10.78125 12.707031 -10.492188 13.15625 -9.921875 C 13.613281 -9.359375 13.84375 -8.601562 13.84375 -7.65625 L 13.84375 0 L 12.0625 0 L 12.0625 -7.453125 C 12.0625 -8.734375 11.644531 -9.375 10.8125 -9.375 C 10.019531 -9.375 9.289062 -8.765625 8.625 -7.546875 L 8.625 0 L 6.84375 0 L 6.84375 -7.453125 C 6.84375 -8.734375 6.425781 -9.375 5.59375 -9.375 C 4.78125 -9.375 4.050781 -8.765625 3.40625 -7.546875 L 3.40625 0 L 1.625 0 L 1.625 -10.515625 L 3.1875 -10.515625 L 3.3125 -8.984375 C 4.09375 -10.179688 5.03125 -10.78125 6.125 -10.78125 C 6.695312 -10.78125 7.179688 -10.613281 7.578125 -10.28125 C 7.984375 -9.945312 8.269531 -9.472656 8.4375 -8.859375 C 9.25 -10.140625 10.21875 -10.78125 11.34375 -10.78125 Z M 11.34375 -10.78125 "/>
</g>
<g id="glyph-1-6">
<path d="M 8.1875 -2.40625 C 8.1875 -1.976562 8.242188 -1.660156 8.359375 -1.453125 C 8.484375 -1.242188 8.671875 -1.085938 8.921875 -0.984375 L 8.546875 0.234375 C 8.023438 0.160156 7.613281 0.00390625 7.3125 -0.234375 C 7.019531 -0.472656 6.816406 -0.84375 6.703125 -1.34375 C 6.023438 -0.269531 5.070312 0.265625 3.84375 0.265625 C 2.90625 0.265625 2.160156 -0.0234375 1.609375 -0.609375 C 1.066406 -1.191406 0.796875 -1.96875 0.796875 -2.9375 C 0.796875 -4.0625 1.160156 -4.914062 1.890625 -5.5 C 2.628906 -6.082031 3.679688 -6.375 5.046875 -6.375 L 6.40625 -6.375 L 6.40625 -7.28125 C 6.40625 -8.007812 6.253906 -8.535156 5.953125 -8.859375 C 5.648438 -9.191406 5.160156 -9.359375 4.484375 -9.359375 C 3.742188 -9.359375 2.890625 -9.171875 1.921875 -8.796875 L 1.484375 -10.0625 C 2.648438 -10.539062 3.742188 -10.78125 4.765625 -10.78125 C 7.046875 -10.78125 8.1875 -9.640625 8.1875 -7.359375 Z M 4.265625 -1.09375 C 5.191406 -1.09375 5.90625 -1.640625 6.40625 -2.734375 L 6.40625 -5.21875 L 5.234375 -5.21875 C 3.503906 -5.21875 2.640625 -4.492188 2.640625 -3.046875 C 2.640625 -2.410156 2.78125 -1.925781 3.0625 -1.59375 C 3.34375 -1.257812 3.742188 -1.09375 4.265625 -1.09375 Z M 4.265625 -1.09375 "/>
</g>
<g id="glyph-1-7">
<path d="M 9 -5.578125 C 9 -5.296875 8.984375 -4.984375 8.953125 -4.640625 L 2.84375 -4.640625 C 2.894531 -3.410156 3.140625 -2.523438 3.578125 -1.984375 C 4.015625 -1.453125 4.613281 -1.1875 5.375 -1.1875 C 5.851562 -1.1875 6.28125 -1.257812 6.65625 -1.40625 C 7.039062 -1.550781 7.441406 -1.789062 7.859375 -2.125 L 8.65625 -1.0625 C 7.675781 -0.175781 6.554688 0.265625 5.296875 0.265625 C 3.921875 0.265625 2.859375 -0.207031 2.109375 -1.15625 C 1.359375 -2.113281 0.984375 -3.457031 0.984375 -5.1875 C 0.984375 -6.90625 1.34375 -8.265625 2.0625 -9.265625 C 2.78125 -10.273438 3.78125 -10.78125 5.0625 -10.78125 C 6.320312 -10.78125 7.289062 -10.328125 7.96875 -9.421875 C 8.65625 -8.523438 9 -7.242188 9 -5.578125 Z M 7.265625 -6.125 C 7.265625 -8.320312 6.535156 -9.421875 5.078125 -9.421875 C 4.410156 -9.421875 3.882812 -9.144531 3.5 -8.59375 C 3.113281 -8.039062 2.894531 -7.144531 2.84375 -5.90625 L 7.265625 -5.90625 Z M 7.265625 -6.125 "/>
</g>
<g id="glyph-2-0">
<path d="M -21 -10.859375 L 7 -10.859375 L 7 -2.453125 L -21 -2.453125 Z M -19.953125 -9.78125 L -19.953125 -3.5625 L 5.953125 -3.5625 L 5.953125 -9.78125 Z M -9.015625 -6.484375 C -9.015625 -7.285156 -8.800781 -7.851562 -8.375 -8.1875 C -7.945312 -8.53125 -7.394531 -8.703125 -6.71875 -8.703125 C -6.007812 -8.703125 -5.460938 -8.550781 -5.078125 -8.25 C -4.691406 -7.945312 -4.453125 -7.460938 -4.359375 -6.796875 L -3.453125 -6.796875 C -3.304688 -6.796875 -3.191406 -6.742188 -3.109375 -6.640625 C -3.023438 -6.546875 -2.984375 -6.429688 -2.984375 -6.296875 C -2.984375 -6.160156 -3.023438 -6.039062 -3.109375 -5.9375 C -3.191406 -5.84375 -3.304688 -5.796875 -3.453125 -5.796875 L -5.140625 -5.796875 C -5.179688 -6.503906 -5.3125 -6.984375 -5.53125 -7.234375 C -5.75 -7.492188 -6.132812 -7.625 -6.6875 -7.625 C -7.125 -7.625 -7.460938 -7.535156 -7.703125 -7.359375 C -7.941406 -7.179688 -8.0625 -6.863281 -8.0625 -6.40625 C -8.0625 -6.007812 -7.988281 -5.660156 -7.84375 -5.359375 C -7.800781 -5.253906 -7.78125 -5.164062 -7.78125 -5.09375 C -7.78125 -4.945312 -7.820312 -4.832031 -7.90625 -4.75 C -8 -4.664062 -8.109375 -4.625 -8.234375 -4.625 C -8.492188 -4.625 -8.6875 -4.816406 -8.8125 -5.203125 C -8.945312 -5.597656 -9.015625 -6.023438 -9.015625 -6.484375 Z M -2.40625 -6.296875 C -2.40625 -6.492188 -2.335938 -6.660156 -2.203125 -6.796875 C -2.066406 -6.929688 -1.898438 -7 -1.703125 -7 C -1.484375 -7 -1.300781 -6.929688 -1.15625 -6.796875 C -1.019531 -6.660156 -0.953125 -6.492188 -0.953125 -6.296875 C -0.953125 -6.097656 -1.019531 -5.929688 -1.15625 -5.796875 C -1.300781 -5.660156 -1.484375 -5.59375 -1.703125 -5.59375 C -1.898438 -5.59375 -2.066406 -5.660156 -2.203125 -5.796875 C -2.335938 -5.929688 -2.40625 -6.097656 -2.40625 -6.296875 Z M -2.40625 -6.296875 "/>
</g>
<g id="glyph-2-1">
<path d="M -13.765625 -4.546875 C -13.765625 -5.722656 -13.582031 -6.75 -13.21875 -7.625 C -12.863281 -8.507812 -12.1875 -9.226562 -11.1875 -9.78125 C -10.1875 -10.34375 -8.773438 -10.625 -6.953125 -10.625 C -4.367188 -10.625 -2.5625 -10.070312 -1.53125 -8.96875 C -0.507812 -7.863281 0 -6.472656 0 -4.796875 L 0 -1.703125 L -13.765625 -1.703125 Z M -12.296875 -3.5625 L -1.4375 -3.5625 L -1.4375 -4.921875 C -1.4375 -6.066406 -1.832031 -6.976562 -2.625 -7.65625 C -3.414062 -8.34375 -4.859375 -8.6875 -6.953125 -8.6875 C -8.421875 -8.6875 -9.546875 -8.507812 -10.328125 -8.15625 C -11.117188 -7.800781 -11.644531 -7.34375 -11.90625 -6.78125 C -12.164062 -6.226562 -12.296875 -5.570312 -12.296875 -4.8125 Z M -12.296875 -3.5625 "/>
</g>
<g id="glyph-2-2">
<path d="M -5.578125 -9 C -5.296875 -9 -4.984375 -8.984375 -4.640625 -8.953125 L -4.640625 -2.84375 C -3.410156 -2.894531 -2.523438 -3.140625 -1.984375 -3.578125 C -1.453125 -4.015625 -1.1875 -4.613281 -1.1875 -5.375 C -1.1875 -5.851562 -1.257812 -6.28125 -1.40625 -6.65625 C -1.550781 -7.039062 -1.789062 -7.441406 -2.125 -7.859375 L -1.0625 -8.65625 C -0.175781 -7.675781 0.265625 -6.554688 0.265625 -5.296875 C 0.265625 -3.921875 -0.207031 -2.859375 -1.15625 -2.109375 C -2.113281 -1.359375 -3.457031 -0.984375 -5.1875 -0.984375 C -6.90625 -0.984375 -8.265625 -1.34375 -9.265625 -2.0625 C -10.273438 -2.78125 -10.78125 -3.78125 -10.78125 -5.0625 C -10.78125 -6.320312 -10.328125 -7.289062 -9.421875 -7.96875 C -8.523438 -8.65625 -7.242188 -9 -5.578125 -9 Z M -6.125 -7.265625 C -8.320312 -7.265625 -9.421875 -6.535156 -9.421875 -5.078125 C -9.421875 -4.410156 -9.144531 -3.882812 -8.59375 -3.5 C -8.039062 -3.113281 -7.144531 -2.894531 -5.90625 -2.84375 L -5.90625 -7.265625 Z M -6.125 -7.265625 "/>
</g>
<g id="glyph-2-3">
<path d="M -10.78125 -6.3125 C -10.78125 -7.15625 -10.503906 -7.8125 -9.953125 -8.28125 C -9.398438 -8.757812 -8.632812 -9 -7.65625 -9 L 0 -9 L 0 -7.203125 L -7.4375 -7.203125 C -8.113281 -7.203125 -8.601562 -7.085938 -8.90625 -6.859375 C -9.207031 -6.628906 -9.359375 -6.28125 -9.359375 -5.8125 C -9.359375 -4.9375 -8.734375 -4.140625 -7.484375 -3.421875 L 0 -3.421875 L 0 -1.625 L -10.515625 -1.625 L -10.515625 -3.1875 L -8.953125 -3.3125 C -10.171875 -4.132812 -10.78125 -5.132812 -10.78125 -6.3125 Z M -10.78125 -6.3125 "/>
</g>
<g id="glyph-2-4">
<path d="M -10.78125 -4.34375 C -10.78125 -5.550781 -10.378906 -6.628906 -9.578125 -7.578125 L -8.515625 -6.8125 C -8.804688 -6.394531 -9.023438 -6 -9.171875 -5.625 C -9.328125 -5.25 -9.40625 -4.851562 -9.40625 -4.4375 C -9.40625 -3.894531 -9.273438 -3.46875 -9.015625 -3.15625 C -8.753906 -2.84375 -8.394531 -2.6875 -7.9375 -2.6875 C -7.5 -2.6875 -7.148438 -2.832031 -6.890625 -3.125 C -6.640625 -3.425781 -6.382812 -4 -6.125 -4.84375 C -5.789062 -5.894531 -5.382812 -6.660156 -4.90625 -7.140625 C -4.425781 -7.617188 -3.765625 -7.859375 -2.921875 -7.859375 C -1.929688 -7.859375 -1.148438 -7.5 -0.578125 -6.78125 C -0.015625 -6.0625 0.265625 -5.160156 0.265625 -4.078125 C 0.265625 -2.648438 -0.207031 -1.441406 -1.15625 -0.453125 L -2.15625 -1.375 C -1.476562 -2.21875 -1.140625 -3.109375 -1.140625 -4.046875 C -1.140625 -4.628906 -1.285156 -5.097656 -1.578125 -5.453125 C -1.867188 -5.816406 -2.273438 -6 -2.796875 -6 C -3.171875 -6 -3.472656 -5.9375 -3.703125 -5.8125 C -3.929688 -5.6875 -4.132812 -5.457031 -4.3125 -5.125 C -4.488281 -4.800781 -4.675781 -4.328125 -4.875 -3.703125 C -5.207031 -2.703125 -5.609375 -1.976562 -6.078125 -1.53125 C -6.546875 -1.09375 -7.140625 -0.875 -7.859375 -0.875 C -8.421875 -0.875 -8.921875 -1.019531 -9.359375 -1.3125 C -9.796875 -1.613281 -10.140625 -2.019531 -10.390625 -2.53125 C -10.648438 -3.050781 -10.78125 -3.65625 -10.78125 -4.34375 Z M -10.78125 -4.34375 "/>
</g>
<g id="glyph-2-5">
<path d="M -10.515625 -3.421875 L 0 -3.421875 L 0 -1.625 L -10.515625 -1.625 Z M -15.484375 -2.515625 C -15.484375 -2.859375 -15.367188 -3.140625 -15.140625 -3.359375 C -14.910156 -3.585938 -14.628906 -3.703125 -14.296875 -3.703125 C -13.960938 -3.703125 -13.6875 -3.59375 -13.46875 -3.375 C -13.25 -3.164062 -13.140625 -2.878906 -13.140625 -2.515625 C -13.140625 -2.171875 -13.25 -1.890625 -13.46875 -1.671875 C -13.6875 -1.453125 -13.960938 -1.34375 -14.296875 -1.34375 C -14.628906 -1.34375 -14.910156 -1.453125 -15.140625 -1.671875 C -15.367188 -1.890625 -15.484375 -2.171875 -15.484375 -2.515625 Z M -15.484375 -2.515625 "/>
</g>
<g id="glyph-2-6">
<path d="M -0.453125 -6.59375 C 0.0234375 -5.925781 0.265625 -5.1875 0.265625 -4.375 C 0.265625 -3.519531 0.0195312 -2.863281 -0.46875 -2.40625 C -0.96875 -1.945312 -1.664062 -1.71875 -2.5625 -1.71875 L -9.15625 -1.71875 L -9.15625 -0.21875 L -10.515625 -0.21875 L -10.515625 -1.71875 L -12.9375 -1.71875 L -13.15625 -3.515625 L -10.515625 -3.515625 L -10.515625 -5.84375 L -9.15625 -5.640625 L -9.15625 -3.515625 L -2.578125 -3.515625 C -1.671875 -3.515625 -1.21875 -3.894531 -1.21875 -4.65625 C -1.21875 -4.882812 -1.25 -5.09375 -1.3125 -5.28125 C -1.382812 -5.476562 -1.488281 -5.695312 -1.625 -5.9375 Z M -0.453125 -6.59375 "/>
</g>
<g id="glyph-2-7">
<path d="M 0.046875 -5.578125 C 1.285156 -5.203125 2.242188 -4.675781 2.921875 -4 C 3.597656 -3.320312 4.03125 -2.351562 4.21875 -1.09375 L 2.875 -0.90625 C 2.75 -1.53125 2.570312 -2.023438 2.34375 -2.390625 C 2.113281 -2.765625 1.816406 -3.066406 1.453125 -3.296875 C 1.097656 -3.523438 0.613281 -3.742188 0 -3.953125 L 0 -3.296875 L -10.515625 -0.1875 L -10.515625 -2.046875 L -1.265625 -4.484375 L -10.515625 -6.921875 L -10.515625 -8.765625 Z M 0.046875 -5.578125 "/>
</g>
</g>
<clipPath id="clip-0">
<path clip-rule="nonzero" d="M 34.671875 1.441406 L 754.5625 1.441406 L 754.5625 441.890625 L 34.671875 441.890625 Z M 34.671875 1.441406 "/>
</clipPath>
<clipPath id="clip-1">
<path clip-rule="nonzero" d="M 34.671875 349 L 754.5625 349 L 754.5625 350 L 34.671875 350 Z M 34.671875 349 "/>
</clipPath>
<clipPath id="clip-2">
<path clip-rule="nonzero" d="M 34.671875 203 L 754.5625 203 L 754.5625 204 L 34.671875 204 Z M 34.671875 203 "/>
</clipPath>
<clipPath id="clip-3">
<path clip-rule="nonzero" d="M 34.671875 58 L 754.5625 58 L 754.5625 59 L 34.671875 59 Z M 34.671875 58 "/>
</clipPath>
<clipPath id="clip-4">
<path clip-rule="nonzero" d="M 76 1.441406 L 77 1.441406 L 77 441.890625 L 76 441.890625 Z M 76 1.441406 "/>
</clipPath>
<clipPath id="clip-5">
<path clip-rule="nonzero" d="M 215 1.441406 L 216 1.441406 L 216 441.890625 L 215 441.890625 Z M 215 1.441406 "/>
</clipPath>
<clipPath id="clip-6">
<path clip-rule="nonzero" d="M 354 1.441406 L 355 1.441406 L 355 441.890625 L 354 441.890625 Z M 354 1.441406 "/>
</clipPath>
<clipPath id="clip-7">
<path clip-rule="nonzero" d="M 493 1.441406 L 494 1.441406 L 494 441.890625 L 493 441.890625 Z M 493 1.441406 "/>
</clipPath>
<clipPath id="clip-8">
<path clip-rule="nonzero" d="M 632 1.441406 L 633 1.441406 L 633 441.890625 L 632 441.890625 Z M 632 1.441406 "/>
</clipPath>
<clipPath id="clip-9">
<path clip-rule="nonzero" d="M 34.671875 421 L 754.5625 421 L 754.5625 423 L 34.671875 423 Z M 34.671875 421 "/>
</clipPath>
<clipPath id="clip-10">
<path clip-rule="nonzero" d="M 34.671875 276 L 754.5625 276 L 754.5625 277 L 34.671875 277 Z M 34.671875 276 "/>
</clipPath>
<clipPath id="clip-11">
<path clip-rule="nonzero" d="M 34.671875 130 L 754.5625 130 L 754.5625 132 L 34.671875 132 Z M 34.671875 130 "/>
</clipPath>
<clipPath id="clip-12">
<path clip-rule="nonzero" d="M 145 1.441406 L 147 1.441406 L 147 441.890625 L 145 441.890625 Z M 145 1.441406 "/>
</clipPath>
<clipPath id="clip-13">
<path clip-rule="nonzero" d="M 284 1.441406 L 286 1.441406 L 286 441.890625 L 284 441.890625 Z M 284 1.441406 "/>
</clipPath>
<clipPath id="clip-14">
<path clip-rule="nonzero" d="M 423 1.441406 L 425 1.441406 L 425 441.890625 L 423 441.890625 Z M 423 1.441406 "/>
</clipPath>
<clipPath id="clip-15">
<path clip-rule="nonzero" d="M 562 1.441406 L 563 1.441406 L 563 441.890625 L 562 441.890625 Z M 562 1.441406 "/>
</clipPath>
<clipPath id="clip-16">
<path clip-rule="nonzero" d="M 701 1.441406 L 702 1.441406 L 702 441.890625 L 701 441.890625 Z M 701 1.441406 "/>
</clipPath>
<clipPath id="clip-17">
<path clip-rule="nonzero" d="M 434 1.441406 L 436 1.441406 L 436 441.890625 L 434 441.890625 Z M 434 1.441406 "/>
</clipPath>
<clipPath id="clip-18">
<path clip-rule="nonzero" d="M 423 1.441406 L 425 1.441406 L 425 441.890625 L 423 441.890625 Z M 423 1.441406 "/>
</clipPath>
<clipPath id="clip-19">
<path clip-rule="nonzero" d="M 34.671875 421 L 754.5625 421 L 754.5625 423 L 34.671875 423 Z M 34.671875 421 "/>
</clipPath>
<clipPath id="clip-20">
<path clip-rule="nonzero" d="M 34.671875 1.441406 L 754.5625 1.441406 L 754.5625 441.890625 L 34.671875 441.890625 Z M 34.671875 1.441406 "/>
</clipPath>
</defs>
<rect x="-75.6" y="-48.6" width="907.2" height="583.2" fill="rgb(100%, 100%, 100%)" fill-opacity="1"/>
<rect x="-75.6" y="-48.6" width="907.2" height="583.2" fill="rgb(100%, 100%, 100%)" fill-opacity="1"/>
<g clip-path="url(#clip-0)">
<path fill="none" stroke-width="1.066978" stroke-linecap="round" stroke-linejoin="round" stroke="rgb(100%, 100%, 100%)" stroke-opacity="1" stroke-miterlimit="10" d="M 34.671875 441.890625 L 754.5625 441.890625 L 754.5625 1.441406 L 34.671875 1.441406 Z M 34.671875 441.890625 "/>
</g>
<g clip-path="url(#clip-1)">
<path fill="none" stroke-width="0.213396" stroke-linecap="butt" stroke-linejoin="round" stroke="rgb(74.509804%, 74.509804%, 74.509804%)" stroke-opacity="1" stroke-dasharray="3 3" stroke-miterlimit="10" d="M 34.671875 349.175781 L 754.558594 349.175781 "/>
</g>
<g clip-path="url(#clip-2)">
<path fill="none" stroke-width="0.213396" stroke-linecap="butt" stroke-linejoin="round" stroke="rgb(74.509804%, 74.509804%, 74.509804%)" stroke-opacity="1" stroke-dasharray="3 3" stroke-miterlimit="10" d="M 34.671875 203.792969 L 754.558594 203.792969 "/>
</g>
<g clip-path="url(#clip-3)">
<path fill="none" stroke-width="0.213396" stroke-linecap="butt" stroke-linejoin="round" stroke="rgb(74.509804%, 74.509804%, 74.509804%)" stroke-opacity="1" stroke-dasharray="3 3" stroke-miterlimit="10" d="M 34.671875 58.410156 L 754.558594 58.410156 "/>
</g>
<g clip-path="url(#clip-4)">
<path fill="none" stroke-width="0.213396" stroke-linecap="butt" stroke-linejoin="round" stroke="rgb(74.509804%, 74.509804%, 74.509804%)" stroke-opacity="1" stroke-dasharray="3 3" stroke-miterlimit="10" d="M 76.6875 441.890625 L 76.6875 1.441406 "/>
</g>
<g clip-path="url(#clip-5)">
<path fill="none" stroke-width="0.213396" stroke-linecap="butt" stroke-linejoin="round" stroke="rgb(74.509804%, 74.509804%, 74.509804%)" stroke-opacity="1" stroke-dasharray="3 3" stroke-miterlimit="10" d="M 215.542969 441.890625 L 215.542969 1.441406 "/>
</g>
<g clip-path="url(#clip-6)">
<path fill="none" stroke-width="0.213396" stroke-linecap="butt" stroke-linejoin="round" stroke="rgb(74.509804%, 74.509804%, 74.509804%)" stroke-opacity="1" stroke-dasharray="3 3" stroke-miterlimit="10" d="M 354.398438 441.890625 L 354.398438 1.441406 "/>
</g>
<g clip-path="url(#clip-7)">
<path fill="none" stroke-width="0.213396" stroke-linecap="butt" stroke-linejoin="round" stroke="rgb(74.509804%, 74.509804%, 74.509804%)" stroke-opacity="1" stroke-dasharray="3 3" stroke-miterlimit="10" d="M 493.25 441.890625 L 493.25 1.441406 "/>
</g>
<g clip-path="url(#clip-8)">
<path fill="none" stroke-width="0.213396" stroke-linecap="butt" stroke-linejoin="round" stroke="rgb(74.509804%, 74.509804%, 74.509804%)" stroke-opacity="1" stroke-dasharray="3 3" stroke-miterlimit="10" d="M 632.105469 441.890625 L 632.105469 1.441406 "/>
</g>
<g clip-path="url(#clip-9)">
<path fill="none" stroke-width="0.426791" stroke-linecap="butt" stroke-linejoin="round" stroke="rgb(74.509804%, 74.509804%, 74.509804%)" stroke-opacity="1" stroke-dasharray="3 3" stroke-miterlimit="10" d="M 34.671875 421.867188 L 754.558594 421.867188 "/>
</g>
<g clip-path="url(#clip-10)">
<path fill="none" stroke-width="0.426791" stroke-linecap="butt" stroke-linejoin="round" stroke="rgb(74.509804%, 74.509804%, 74.509804%)" stroke-opacity="1" stroke-dasharray="3 3" stroke-miterlimit="10" d="M 34.671875 276.484375 L 754.558594 276.484375 "/>
</g>
<g clip-path="url(#clip-11)">
<path fill="none" stroke-width="0.426791" stroke-linecap="butt" stroke-linejoin="round" stroke="rgb(74.509804%, 74.509804%, 74.509804%)" stroke-opacity="1" stroke-dasharray="3 3" stroke-miterlimit="10" d="M 34.671875 131.101562 L 754.558594 131.101562 "/>
</g>
<g clip-path="url(#clip-12)">
<path fill="none" stroke-width="0.426791" stroke-linecap="butt" stroke-linejoin="round" stroke="rgb(74.509804%, 74.509804%, 74.509804%)" stroke-opacity="1" stroke-dasharray="3 3" stroke-miterlimit="10" d="M 146.113281 441.890625 L 146.113281 1.441406 "/>
</g>
<g clip-path="url(#clip-13)">
<path fill="none" stroke-width="0.426791" stroke-linecap="butt" stroke-linejoin="round" stroke="rgb(74.509804%, 74.509804%, 74.509804%)" stroke-opacity="1" stroke-dasharray="3 3" stroke-miterlimit="10" d="M 284.96875 441.890625 L 284.96875 1.441406 "/>
</g>
<g clip-path="url(#clip-14)">
<path fill="none" stroke-width="0.426791" stroke-linecap="butt" stroke-linejoin="round" stroke="rgb(74.509804%, 74.509804%, 74.509804%)" stroke-opacity="1" stroke-dasharray="3 3" stroke-miterlimit="10" d="M 423.824219 441.890625 L 423.824219 1.441406 "/>
</g>
<g clip-path="url(#clip-15)">
<path fill="none" stroke-width="0.426791" stroke-linecap="butt" stroke-linejoin="round" stroke="rgb(74.509804%, 74.509804%, 74.509804%)" stroke-opacity="1" stroke-dasharray="3 3" stroke-miterlimit="10" d="M 562.679688 441.890625 L 562.679688 1.441406 "/>
</g>
<g clip-path="url(#clip-16)">
<path fill="none" stroke-width="0.426791" stroke-linecap="butt" stroke-linejoin="round" stroke="rgb(74.509804%, 74.509804%, 74.509804%)" stroke-opacity="1" stroke-dasharray="3 3" stroke-miterlimit="10" d="M 701.53125 441.890625 L 701.53125 1.441406 "/>
</g>
<path fill-rule="nonzero" fill="rgb(100%, 64.705882%, 0%)" fill-opacity="0.94902" d="M 67.394531 421.269531 L 68.675781 421.261719 L 69.953125 421.257812 L 71.234375 421.257812 L 73.796875 421.273438 L 77.640625 421.320312 L 78.917969 421.335938 L 81.480469 421.375 L 84.042969 421.40625 L 85.324219 421.425781 L 86.605469 421.4375 L 87.886719 421.453125 L 89.164062 421.46875 L 94.289062 421.515625 L 95.570312 421.523438 L 96.851562 421.535156 L 98.128906 421.539062 L 99.410156 421.546875 L 100.691406 421.550781 L 103.253906 421.550781 L 105.816406 421.542969 L 107.09375 421.539062 L 109.65625 421.523438 L 110.9375 421.511719 L 114.78125 421.464844 L 116.058594 421.441406 L 117.339844 421.414062 L 118.621094 421.378906 L 119.902344 421.339844 L 121.183594 421.289062 L 122.464844 421.230469 L 123.746094 421.164062 L 125.027344 421.085938 L 126.304688 420.992188 L 127.585938 420.890625 L 128.867188 420.773438 L 130.148438 420.648438 L 131.429688 420.511719 L 132.710938 420.367188 L 133.992188 420.214844 L 135.269531 420.0625 L 136.550781 419.90625 L 139.113281 419.601562 L 140.394531 419.457031 L 141.675781 419.324219 L 142.957031 419.195312 L 144.234375 419.082031 L 145.515625 418.980469 L 146.796875 418.890625 L 148.078125 418.8125 L 149.359375 418.75 L 150.640625 418.695312 L 151.921875 418.648438 L 153.203125 418.609375 L 154.480469 418.578125 L 155.761719 418.546875 L 157.042969 418.523438 L 160.886719 418.441406 L 162.167969 418.410156 L 163.445312 418.375 L 164.726562 418.332031 L 166.007812 418.285156 L 167.289062 418.230469 L 168.570312 418.167969 L 169.851562 418.09375 L 171.132812 418.007812 L 172.410156 417.914062 L 173.691406 417.808594 L 174.972656 417.6875 L 176.253906 417.554688 L 177.535156 417.40625 L 178.816406 417.242188 L 180.097656 417.058594 L 181.375 416.863281 L 182.65625 416.648438 L 183.9375 416.414062 L 185.21875 416.167969 L 186.5 415.90625 L 187.78125 415.628906 L 189.0625 415.335938 L 190.34375 415.027344 L 191.621094 414.714844 L 192.902344 414.386719 L 194.183594 414.054688 L 195.464844 413.71875 L 196.746094 413.378906 L 199.308594 412.691406 L 200.585938 412.351562 L 201.867188 412.007812 L 203.148438 411.667969 L 204.429688 411.332031 L 206.992188 410.652344 L 208.273438 410.308594 L 209.550781 409.960938 L 210.832031 409.597656 L 212.113281 409.226562 L 213.394531 408.832031 L 214.675781 408.417969 L 215.957031 407.976562 L 217.238281 407.5 L 218.519531 406.992188 L 219.796875 406.4375 L 221.078125 405.835938 L 222.359375 405.183594 L 223.640625 404.484375 L 224.921875 403.734375 L 226.203125 402.9375 L 227.484375 402.097656 L 228.761719 401.207031 L 230.042969 400.28125 L 231.324219 399.3125 L 232.605469 398.320312 L 233.886719 397.300781 L 235.167969 396.269531 L 236.449219 395.222656 L 237.726562 394.175781 L 239.007812 393.128906 L 240.289062 392.085938 L 241.570312 391.054688 L 242.851562 390.039062 L 244.132812 389.039062 L 245.414062 388.058594 L 246.691406 387.097656 L 247.972656 386.152344 L 249.253906 385.226562 L 250.535156 384.3125 L 251.816406 383.414062 L 254.378906 381.632812 L 255.660156 380.734375 L 256.9375 379.824219 L 258.21875 378.894531 L 259.5 377.9375 L 260.78125 376.945312 L 262.0625 375.898438 L 263.34375 374.800781 L 264.625 373.640625 L 265.902344 372.421875 L 267.183594 371.128906 L 268.464844 369.773438 L 269.746094 368.347656 L 271.027344 366.855469 L 272.308594 365.292969 L 273.589844 363.679688 L 274.867188 362.023438 L 276.148438 360.328125 L 277.429688 358.605469 L 278.710938 356.863281 L 279.992188 355.109375 L 281.273438 353.351562 L 282.554688 351.601562 L 283.832031 349.855469 L 285.113281 348.121094 L 286.394531 346.398438 L 287.675781 344.6875 L 288.957031 342.980469 L 292.800781 337.882812 L 294.078125 336.171875 L 295.359375 334.453125 L 296.640625 332.71875 L 297.921875 330.96875 L 299.203125 329.195312 L 300.484375 327.398438 L 301.765625 325.574219 L 303.042969 323.71875 L 304.324219 321.828125 L 305.605469 319.898438 L 306.886719 317.933594 L 308.167969 315.921875 L 309.449219 313.859375 L 310.730469 311.746094 L 312.007812 309.570312 L 313.289062 307.320312 L 314.570312 304.996094 L 315.851562 302.585938 L 317.132812 300.089844 L 318.414062 297.5 L 319.695312 294.804688 L 320.976562 291.996094 L 322.253906 289.070312 L 323.535156 286 L 324.816406 282.789062 L 326.097656 279.433594 L 327.378906 275.929688 L 328.660156 272.273438 L 329.941406 268.460938 L 331.21875 264.492188 L 332.5 260.371094 L 333.78125 256.082031 L 335.0625 251.648438 L 336.34375 247.089844 L 337.625 242.417969 L 338.90625 237.660156 L 340.183594 232.828125 L 341.464844 227.949219 L 342.746094 223.050781 L 344.027344 218.160156 L 345.308594 213.3125 L 346.589844 208.527344 L 347.871094 203.828125 L 349.148438 199.230469 L 350.429688 194.757812 L 351.710938 190.417969 L 352.992188 186.214844 L 354.273438 182.171875 L 355.554688 178.28125 L 356.835938 174.523438 L 358.117188 170.894531 L 359.394531 167.378906 L 360.675781 163.960938 L 361.957031 160.632812 L 363.238281 157.375 L 364.519531 154.179688 L 365.800781 151.019531 L 367.082031 147.878906 L 368.359375 144.746094 L 369.640625 141.613281 L 370.921875 138.460938 L 372.203125 135.285156 L 373.484375 132.078125 L 374.765625 128.832031 L 376.046875 125.535156 L 377.324219 122.199219 L 378.605469 118.8125 L 379.886719 115.382812 L 381.167969 111.914062 L 382.449219 108.40625 L 383.730469 104.871094 L 385.011719 101.316406 L 386.289062 97.753906 L 387.570312 94.207031 L 388.851562 90.691406 L 390.132812 87.230469 L 391.414062 83.839844 L 392.695312 80.542969 L 393.976562 77.371094 L 395.257812 74.355469 L 396.535156 71.527344 L 397.816406 68.898438 L 399.097656 66.476562 L 400.378906 64.273438 L 401.660156 62.300781 L 402.941406 60.550781 L 404.222656 59.023438 L 405.5 57.714844 L 406.78125 56.605469 L 408.0625 55.640625 L 409.34375 54.789062 L 410.625 54.015625 L 411.90625 53.28125 L 413.1875 52.550781 L 414.464844 51.78125 L 415.746094 50.929688 L 417.027344 49.957031 L 418.308594 48.847656 L 419.589844 47.585938 L 420.871094 46.167969 L 422.152344 44.589844 L 423.433594 42.867188 L 424.710938 41.011719 L 425.992188 39.042969 L 427.273438 37.007812 L 428.554688 34.945312 L 429.835938 32.90625 L 431.117188 30.925781 L 432.398438 29.046875 L 433.675781 27.308594 L 434.957031 25.746094 L 436.238281 24.398438 L 437.519531 23.3125 L 438.800781 22.472656 L 440.082031 21.882812 L 441.363281 21.550781 L 442.640625 21.460938 L 443.921875 21.609375 L 445.203125 21.980469 L 446.484375 22.566406 L 447.765625 23.367188 L 449.046875 24.339844 L 450.328125 25.46875 L 451.605469 26.753906 L 452.886719 28.179688 L 454.167969 29.742188 L 455.449219 31.445312 L 456.730469 33.285156 L 458.011719 35.28125 L 459.292969 37.40625 L 460.574219 39.664062 L 461.851562 42.042969 L 463.132812 44.542969 L 464.414062 47.148438 L 465.695312 49.855469 L 466.976562 52.644531 L 468.257812 55.507812 L 469.539062 58.425781 L 470.816406 61.378906 L 472.097656 64.355469 L 473.378906 67.347656 L 478.503906 79.363281 L 479.78125 82.371094 L 481.0625 85.378906 L 482.34375 88.398438 L 483.625 91.425781 L 484.90625 94.460938 L 486.1875 97.511719 L 487.46875 100.574219 L 488.746094 103.648438 L 490.027344 106.734375 L 491.308594 109.824219 L 492.589844 112.921875 L 493.871094 116.023438 L 495.152344 119.121094 L 497.714844 125.324219 L 498.992188 128.421875 L 501.554688 134.632812 L 502.835938 137.746094 L 504.117188 140.871094 L 505.398438 144.011719 L 506.679688 147.160156 L 507.957031 150.328125 L 509.238281 153.515625 L 510.519531 156.71875 L 511.800781 159.929688 L 513.082031 163.148438 L 514.363281 166.375 L 515.644531 169.59375 L 516.921875 172.804688 L 518.203125 176.003906 L 519.484375 179.179688 L 520.765625 182.328125 L 522.046875 185.449219 L 523.328125 188.542969 L 524.609375 191.613281 L 525.890625 194.660156 L 527.167969 197.699219 L 528.449219 200.734375 L 529.730469 203.78125 L 531.011719 206.855469 L 532.292969 209.972656 L 533.574219 213.148438 L 534.855469 216.390625 L 536.132812 219.71875 L 537.414062 223.136719 L 538.695312 226.65625 L 539.976562 230.292969 L 541.257812 234.035156 L 542.539062 237.878906 L 543.820312 241.808594 L 545.097656 245.820312 L 546.378906 249.894531 L 547.660156 254.015625 L 548.941406 258.167969 L 550.222656 262.328125 L 551.503906 266.46875 L 552.785156 270.574219 L 554.0625 274.628906 L 555.34375 278.613281 L 556.625 282.519531 L 557.90625 286.339844 L 559.1875 290.058594 L 560.46875 293.664062 L 561.75 297.164062 L 563.03125 300.5625 L 564.308594 303.863281 L 565.589844 307.070312 L 566.871094 310.183594 L 568.152344 313.21875 L 569.433594 316.171875 L 570.714844 319.042969 L 571.996094 321.839844 L 573.273438 324.574219 L 574.554688 327.246094 L 575.835938 329.855469 L 577.117188 332.410156 L 578.398438 334.914062 L 579.679688 337.359375 L 580.960938 339.75 L 582.238281 342.097656 L 583.519531 344.398438 L 584.800781 346.660156 L 586.082031 348.890625 L 587.363281 351.089844 L 588.644531 353.257812 L 589.925781 355.40625 L 591.203125 357.535156 L 592.484375 359.644531 L 593.765625 361.742188 L 595.046875 363.824219 L 596.328125 365.898438 L 597.609375 367.957031 L 598.890625 370.003906 L 600.171875 372.035156 L 601.449219 374.042969 L 602.730469 376.035156 L 604.011719 377.996094 L 605.292969 379.933594 L 606.574219 381.832031 L 607.855469 383.699219 L 609.136719 385.519531 L 610.414062 387.296875 L 611.695312 389.019531 L 612.976562 390.679688 L 614.257812 392.28125 L 615.539062 393.816406 L 616.820312 395.285156 L 618.101562 396.6875 L 619.378906 398.019531 L 620.660156 399.277344 L 621.941406 400.453125 L 623.222656 401.554688 L 624.503906 402.585938 L 625.785156 403.550781 L 627.066406 404.445312 L 628.347656 405.277344 L 629.625 406.050781 L 630.90625 406.769531 L 632.1875 407.425781 L 633.46875 408.035156 L 634.75 408.59375 L 636.03125 409.113281 L 637.3125 409.597656 L 638.589844 410.046875 L 639.871094 410.464844 L 641.152344 410.851562 L 642.433594 411.21875 L 643.714844 411.558594 L 644.996094 411.882812 L 646.277344 412.195312 L 647.554688 412.496094 L 648.835938 412.792969 L 650.117188 413.082031 L 653.960938 413.9375 L 655.242188 414.226562 L 656.519531 414.515625 L 660.363281 415.394531 L 662.925781 415.972656 L 664.207031 416.253906 L 665.488281 416.523438 L 666.765625 416.789062 L 668.046875 417.039062 L 669.328125 417.28125 L 670.609375 417.507812 L 671.890625 417.71875 L 673.171875 417.917969 L 674.453125 418.105469 L 675.730469 418.28125 L 677.011719 418.445312 L 678.292969 418.601562 L 679.574219 418.753906 L 680.855469 418.902344 L 683.417969 419.191406 L 684.695312 419.335938 L 685.976562 419.480469 L 691.101562 420.074219 L 692.382812 420.21875 L 693.660156 420.363281 L 694.941406 420.503906 L 696.222656 420.640625 L 697.503906 420.769531 L 698.785156 420.886719 L 700.066406 421 L 701.347656 421.097656 L 702.628906 421.1875 L 703.90625 421.269531 L 705.1875 421.335938 L 706.46875 421.390625 L 707.75 421.4375 L 709.03125 421.472656 L 710.3125 421.5 L 711.59375 421.523438 L 712.871094 421.539062 L 715.433594 421.554688 L 720.558594 421.570312 L 721.835938 421.574219 L 721.835938 421.867188 L 67.394531 421.867188 Z M 67.394531 421.269531 "/>
<g clip-path="url(#clip-17)">
<path fill="none" stroke-width="1.066978" stroke-linecap="butt" stroke-linejoin="round" stroke="rgb(0%, 0%, 0%)" stroke-opacity="1" stroke-dasharray="4.267913 4.267913" stroke-miterlimit="10" d="M 434.964844 441.890625 L 434.964844 1.441406 "/>
</g>
<g clip-path="url(#clip-18)">
<path fill="none" stroke-width="1.066978" stroke-linecap="butt" stroke-linejoin="round" stroke="rgb(0%, 0%, 0%)" stroke-opacity="1" stroke-miterlimit="10" d="M 423.824219 441.890625 L 423.824219 1.441406 "/>
</g>
<g clip-path="url(#clip-19)">
<path fill="none" stroke-width="1.066978" stroke-linecap="butt" stroke-linejoin="round" stroke="rgb(0%, 0%, 0%)" stroke-opacity="1" stroke-miterlimit="10" d="M 34.671875 421.867188 L 754.558594 421.867188 "/>
</g>
<g clip-path="url(#clip-20)">
<path fill="none" stroke-width="1.066978" stroke-linecap="round" stroke-linejoin="round" stroke="rgb(100%, 100%, 100%)" stroke-opacity="1" stroke-miterlimit="10" d="M 34.671875 441.890625 L 754.5625 441.890625 L 754.5625 1.441406 L 34.671875 1.441406 Z M 34.671875 441.890625 "/>
</g>
<g fill="rgb(0%, 0%, 0%)" fill-opacity="1">
<use xlink:href="#glyph-0-1" x="21.738281" y="427.827148"/>
</g>
<g fill="rgb(0%, 0%, 0%)" fill-opacity="1">
<use xlink:href="#glyph-0-2" x="23.738281" y="282.444336"/>
</g>
<g fill="rgb(0%, 0%, 0%)" fill-opacity="1">
<use xlink:href="#glyph-0-3" x="22.738281" y="137.061523"/>
</g>
<path fill="none" stroke-width="0.426791" stroke-linecap="butt" stroke-linejoin="round" stroke="rgb(74.509804%, 74.509804%, 74.509804%)" stroke-opacity="1" stroke-miterlimit="10" d="M 31.929688 421.867188 L 34.671875 421.867188 "/>
<path fill="none" stroke-width="0.426791" stroke-linecap="butt" stroke-linejoin="round" stroke="rgb(74.509804%, 74.509804%, 74.509804%)" stroke-opacity="1" stroke-miterlimit="10" d="M 31.929688 276.484375 L 34.671875 276.484375 "/>
<path fill="none" stroke-width="0.426791" stroke-linecap="butt" stroke-linejoin="round" stroke="rgb(74.509804%, 74.509804%, 74.509804%)" stroke-opacity="1" stroke-miterlimit="10" d="M 31.929688 131.101562 L 34.671875 131.101562 "/>
<path fill="none" stroke-width="0.426791" stroke-linecap="butt" stroke-linejoin="round" stroke="rgb(74.509804%, 74.509804%, 74.509804%)" stroke-opacity="1" stroke-miterlimit="10" d="M 146.113281 444.628906 L 146.113281 441.890625 "/>
<path fill="none" stroke-width="0.426791" stroke-linecap="butt" stroke-linejoin="round" stroke="rgb(74.509804%, 74.509804%, 74.509804%)" stroke-opacity="1" stroke-miterlimit="10" d="M 284.96875 444.628906 L 284.96875 441.890625 "/>
<path fill="none" stroke-width="0.426791" stroke-linecap="butt" stroke-linejoin="round" stroke="rgb(74.509804%, 74.509804%, 74.509804%)" stroke-opacity="1" stroke-miterlimit="10" d="M 423.824219 444.628906 L 423.824219 441.890625 "/>
<path fill="none" stroke-width="0.426791" stroke-linecap="butt" stroke-linejoin="round" stroke="rgb(74.509804%, 74.509804%, 74.509804%)" stroke-opacity="1" stroke-miterlimit="10" d="M 562.679688 444.628906 L 562.679688 441.890625 "/>
<path fill="none" stroke-width="0.426791" stroke-linecap="butt" stroke-linejoin="round" stroke="rgb(74.509804%, 74.509804%, 74.509804%)" stroke-opacity="1" stroke-miterlimit="10" d="M 701.53125 444.628906 L 701.53125 441.890625 "/>
<g fill="rgb(0%, 0%, 0%)" fill-opacity="1">
<use xlink:href="#glyph-0-2" x="133.613281" y="458.780273"/>
<use xlink:href="#glyph-0-4" x="139.613281" y="458.780273"/>
<use xlink:href="#glyph-0-5" x="143.613281" y="458.780273"/>
<use xlink:href="#glyph-0-1" x="150.613281" y="458.780273"/>
</g>
<g fill="rgb(0%, 0%, 0%)" fill-opacity="1">
<use xlink:href="#glyph-0-2" x="273.96875" y="458.780273"/>
<use xlink:href="#glyph-0-4" x="279.96875" y="458.780273"/>
<use xlink:href="#glyph-0-6" x="282.96875" y="458.780273"/>
<use xlink:href="#glyph-0-5" x="288.96875" y="458.780273"/>
</g>
<g fill="rgb(0%, 0%, 0%)" fill-opacity="1">
<use xlink:href="#glyph-0-3" x="410.824219" y="458.780273"/>
<use xlink:href="#glyph-0-4" x="417.824219" y="458.780273"/>
<use xlink:href="#glyph-0-1" x="420.824219" y="458.780273"/>
<use xlink:href="#glyph-0-1" x="428.824219" y="458.780273"/>
</g>
<g fill="rgb(0%, 0%, 0%)" fill-opacity="1">
<use xlink:href="#glyph-0-3" x="550.679688" y="458.780273"/>
<use xlink:href="#glyph-0-4" x="557.679688" y="458.780273"/>
<use xlink:href="#glyph-0-3" x="560.679688" y="458.780273"/>
<use xlink:href="#glyph-0-5" x="567.679688" y="458.780273"/>
</g>
<g fill="rgb(0%, 0%, 0%)" fill-opacity="1">
<use xlink:href="#glyph-0-3" x="688.53125" y="458.780273"/>
<use xlink:href="#glyph-0-4" x="695.53125" y="458.780273"/>
<use xlink:href="#glyph-0-5" x="699.53125" y="458.780273"/>
<use xlink:href="#glyph-0-1" x="706.53125" y="458.780273"/>
</g>
<g fill="rgb(0%, 0%, 0%)" fill-opacity="1">
<use xlink:href="#glyph-1-1" x="359.117188" y="479.258789"/>
<use xlink:href="#glyph-1-2" x="368.117188" y="479.258789"/>
<use xlink:href="#glyph-1-3" x="377.117188" y="479.258789"/>
<use xlink:href="#glyph-1-4" x="384.117188" y="479.258789"/>
<use xlink:href="#glyph-1-5" x="389.117188" y="479.258789"/>
<use xlink:href="#glyph-1-6" x="404.117188" y="479.258789"/>
<use xlink:href="#glyph-1-3" x="414.117188" y="479.258789"/>
<use xlink:href="#glyph-1-7" x="420.117188" y="479.258789"/>
</g>
<g fill="rgb(0%, 0%, 0%)" fill-opacity="1">
<use xlink:href="#glyph-2-1" x="13.700195" y="252.664062"/>
<use xlink:href="#glyph-2-2" x="13.700195" y="240.664062"/>
<use xlink:href="#glyph-2-3" x="13.700195" y="230.664062"/>
<use xlink:href="#glyph-2-4" x="13.700195" y="219.664062"/>
<use xlink:href="#glyph-2-5" x="13.700195" y="210.664062"/>
<use xlink:href="#glyph-2-6" x="13.700195" y="205.664062"/>
<use xlink:href="#glyph-2-7" x="13.700195" y="199.664062"/>
</g>
</svg>
