<?xml version="1.0" encoding="UTF-8"?>
<svg xmlns="http://www.w3.org/2000/svg" xmlns:xlink="http://www.w3.org/1999/xlink" width="792" height="504" viewBox="0 0 792 504">
<defs>
<g>
<g id="glyph-0-0">
<path d="M 9.546875 -18.46875 L 2.15625 -18.46875 L 2.15625 6.15625 L 9.546875 6.15625 Z M 8.609375 -17.5625 L 8.609375 5.25 L 3.125 5.25 L 3.125 -17.5625 Z M 5.703125 -7.9375 C 5.015625 -7.9375 4.0625 -7.71875 4.0625 -7.25 C 4.0625 -7.015625 4.21875 -6.84375 4.484375 -6.84375 C 4.5625 -6.84375 4.625 -6.859375 4.71875 -6.890625 C 5.015625 -7.03125 5.265625 -7.09375 5.625 -7.09375 C 6.515625 -7.09375 6.703125 -6.5625 6.703125 -5.875 C 6.703125 -4.9375 6.375 -4.59375 5.109375 -4.515625 L 5.109375 -3.046875 C 5.109375 -2.78125 5.3125 -2.625 5.546875 -2.625 C 5.75 -2.625 5.984375 -2.78125 5.984375 -3.046875 L 5.984375 -3.828125 C 7.15625 -4.015625 7.65625 -4.6875 7.65625 -5.90625 C 7.65625 -6.96875 7.21875 -7.9375 5.703125 -7.9375 Z M 5.546875 -2.109375 C 5.1875 -2.109375 4.921875 -1.84375 4.921875 -1.5 C 4.921875 -1.125 5.1875 -0.84375 5.546875 -0.84375 C 5.890625 -0.84375 6.15625 -1.125 6.15625 -1.5 C 6.15625 -1.84375 5.890625 -2.109375 5.546875 -2.109375 Z M 5.546875 -2.109375 "/>
</g>
<g id="glyph-0-1">
<path d="M 4.4375 -11.953125 C 2.125 -11.953125 0.953125 -10 0.953125 -5.875 C 0.953125 -1.765625 2.125 0.21875 4.4375 0.21875 C 6.71875 0.21875 7.875 -1.765625 7.875 -5.875 C 7.875 -9.96875 6.71875 -11.953125 4.4375 -11.953125 Z M 4.4375 -10.71875 C 5.640625 -10.71875 6.28125 -9.546875 6.28125 -5.875 C 6.28125 -2.234375 5.640625 -1.015625 4.4375 -1.015625 C 3.1875 -1.015625 2.5625 -2.234375 2.5625 -5.875 C 2.5625 -9.5 3.1875 -10.71875 4.4375 -10.71875 Z M 4.4375 -10.71875 "/>
</g>
<g id="glyph-0-2">
<path d="M 3.4375 -11.953125 C 2.28125 -11.953125 1.34375 -11.484375 0.4375 -10.5625 L 1.265625 -9.734375 C 1.90625 -10.390625 2.53125 -10.71875 3.296875 -10.71875 C 4.34375 -10.71875 5.015625 -10.078125 5.015625 -8.890625 C 5.015625 -7.421875 4.171875 -6.71875 3.046875 -6.71875 L 2.59375 -6.71875 L 2.40625 -5.578125 L 3.109375 -5.578125 C 4.453125 -5.578125 5.265625 -5.046875 5.265625 -3.390625 C 5.265625 -1.875 4.453125 -1.03125 3.265625 -1.03125 C 2.40625 -1.03125 1.828125 -1.390625 1.125 -2.140625 L 0.171875 -1.375 C 1.015625 -0.296875 2 0.21875 3.296875 0.21875 C 5.46875 0.21875 6.8125 -1.40625 6.8125 -3.375 C 6.8125 -5.15625 5.78125 -6.0625 4.3125 -6.25 C 5.6875 -6.578125 6.515625 -7.484375 6.515625 -8.984375 C 6.515625 -10.578125 5.34375 -11.953125 3.4375 -11.953125 Z M 3.4375 -11.953125 "/>
</g>
<g id="glyph-0-3">
<path d="M 1.859375 -2.109375 C 1.21875 -2.109375 0.75 -1.625 0.75 -0.96875 C 0.75 -0.5625 0.953125 -0.21875 1.265625 0.015625 L 0.640625 2.890625 L 1.65625 2.890625 L 2.65625 0.25 C 2.84375 -0.28125 2.96875 -0.609375 2.96875 -0.96875 C 2.96875 -1.625 2.515625 -2.109375 1.859375 -2.109375 Z M 1.859375 -2.109375 "/>
</g>
<g id="glyph-0-4">
<path d="M 4.921875 -7.71875 C 3.953125 -7.71875 3.125 -7.25 2.5 -6.234375 C 2.59375 -9.09375 3.484375 -10.71875 4.90625 -10.71875 C 5.453125 -10.71875 5.953125 -10.53125 6.421875 -10.21875 L 7.015625 -11.21875 C 6.421875 -11.6875 5.75 -11.953125 4.890625 -11.953125 C 2.453125 -11.953125 0.953125 -9.515625 0.953125 -5.484375 C 0.953125 -2 1.9375 0.21875 4.453125 0.21875 C 6.3125 0.21875 7.71875 -1.28125 7.71875 -4 C 7.71875 -6.515625 6.40625 -7.71875 4.921875 -7.71875 Z M 4.453125 -1.015625 C 3.125 -1.015625 2.5625 -2.140625 2.515625 -4.84375 C 3.015625 -5.84375 3.765625 -6.53125 4.59375 -6.53125 C 5.546875 -6.53125 6.1875 -5.859375 6.1875 -3.9375 C 6.1875 -2.0625 5.59375 -1.015625 4.453125 -1.015625 Z M 4.453125 -1.015625 "/>
</g>
<g id="glyph-0-5">
<path d="M 3.953125 -11.953125 C 2.125 -11.953125 0.640625 -10.625 0.640625 -8.0625 C 0.640625 -5.71875 1.984375 -4.296875 3.515625 -4.296875 C 4.5 -4.296875 5.265625 -4.84375 5.734375 -5.578125 C 5.546875 -2.890625 3.96875 -1.625 1.421875 -0.78125 L 1.765625 0.390625 C 5.59375 -0.859375 7.34375 -2.5 7.34375 -7.359375 C 7.34375 -10.234375 6.203125 -11.953125 3.953125 -11.953125 Z M 3.828125 -5.5 C 2.84375 -5.5 2.1875 -6.3125 2.1875 -8.015625 C 2.1875 -9.875 2.84375 -10.734375 4 -10.734375 C 5.21875 -10.734375 5.78125 -9.78125 5.78125 -6.984375 C 5.296875 -6.046875 4.65625 -5.5 3.828125 -5.5 Z M 3.828125 -5.5 "/>
</g>
<g id="glyph-0-6">
<path d="M 4.15625 -12.3125 C 2.140625 -12.3125 0.734375 -10.9375 0.734375 -9.1875 C 0.734375 -7.453125 1.71875 -6.453125 3.828125 -5.703125 C 5.578125 -5.078125 6.03125 -4.46875 6.03125 -3.328125 C 6.03125 -1.9375 5.15625 -1.109375 3.890625 -1.109375 C 2.765625 -1.109375 1.953125 -1.578125 1.171875 -2.28125 L 0.3125 -1.359375 C 1.21875 -0.390625 2.359375 0.21875 3.90625 0.21875 C 6.265625 0.21875 7.703125 -1.40625 7.703125 -3.359375 C 7.703125 -5.53125 6.40625 -6.390625 4.625 -7.015625 C 2.796875 -7.671875 2.375 -8.25 2.375 -9.25 C 2.375 -10.328125 3.109375 -11.015625 4.171875 -11.015625 C 5.046875 -11.015625 5.765625 -10.703125 6.53125 -10 L 7.390625 -10.921875 C 6.515625 -11.828125 5.546875 -12.3125 4.15625 -12.3125 Z M 4.15625 -12.3125 "/>
</g>
<g id="glyph-0-7">
<path d="M 7.265625 -0.6875 C 8.75 -1.53125 9.734375 -2.9375 9.734375 -6.046875 C 9.734375 -10.296875 7.96875 -12.3125 5.296875 -12.3125 C 2.625 -12.3125 0.828125 -10.234375 0.828125 -6.03125 C 0.828125 -1.828125 2.671875 0.15625 5.21875 0.15625 C 7.125 0.15625 8.0625 0.5625 9.1875 1.796875 L 10.25 0.53125 C 9.46875 -0.15625 8.515625 -0.65625 7.265625 -0.6875 Z M 2.53125 -6.03125 C 2.53125 -9.6875 3.59375 -11.015625 5.296875 -11.015625 C 7.015625 -11.015625 8.046875 -9.6875 8.046875 -6.046875 C 8.046875 -2.375 7 -1.109375 5.296875 -1.109375 C 3.625 -1.109375 2.53125 -2.375 2.53125 -6.03125 Z M 2.53125 -6.03125 "/>
</g>
<g id="glyph-0-8">
<path d="M 3.046875 -12.125 L 1.4375 -12.125 L 1.4375 0 L 7.109375 0 L 7.28125 -1.40625 L 3.046875 -1.40625 Z M 3.046875 -12.125 "/>
</g>
<g id="glyph-0-9">
<path d="M 3.953125 -12.125 L 1.4375 -12.125 L 1.4375 0 L 3.046875 0 L 3.046875 -4.484375 L 4 -4.484375 C 6.65625 -4.484375 8.375 -5.640625 8.375 -8.375 C 8.375 -10.859375 6.828125 -12.125 3.953125 -12.125 Z M 3.96875 -5.75 L 3.046875 -5.75 L 3.046875 -10.859375 L 4 -10.859375 C 5.765625 -10.859375 6.703125 -10.15625 6.703125 -8.359375 C 6.703125 -6.3125 5.734375 -5.75 3.96875 -5.75 Z M 3.96875 -5.75 "/>
</g>
<g id="glyph-0-10">
<path d="M 7.453125 -9.265625 L 5.875 -9.265625 L 3.828125 -1.125 L 1.78125 -9.265625 L 0.171875 -9.265625 L 2.8125 0 L 3.375 0 C 2.921875 1.5 2.40625 2.21875 0.8125 2.546875 L 0.984375 3.734375 C 3.203125 3.4375 4.21875 2.015625 4.796875 0.046875 Z M 7.453125 -9.265625 "/>
</g>
<g id="glyph-0-11">
<path d="M 5 -1.390625 C 4.609375 -1.171875 4.34375 -1.078125 4 -1.078125 C 3.3125 -1.078125 3.0625 -1.453125 3.0625 -2.140625 L 3.0625 -8.0625 L 4.78125 -8.0625 L 4.9375 -9.265625 L 3.0625 -9.265625 L 3.0625 -11.5625 L 1.515625 -11.359375 L 1.515625 -9.265625 L 0.171875 -9.265625 L 0.171875 -8.0625 L 1.515625 -8.0625 L 1.515625 -2.125 C 1.515625 -0.6875 2.3125 0.21875 3.75 0.21875 C 4.4375 0.21875 5.046875 0 5.59375 -0.421875 Z M 5 -1.390625 "/>
</g>
<g id="glyph-0-12">
<path d="M 5.28125 -9.46875 C 4.203125 -9.46875 3.5 -8.890625 2.921875 -7.96875 L 2.921875 -13.140625 L 1.375 -12.984375 L 1.375 0 L 2.921875 0 L 2.921875 -6.546875 C 3.46875 -7.578125 4.109375 -8.25 4.90625 -8.25 C 5.609375 -8.25 6.03125 -7.828125 6.03125 -6.421875 L 6.03125 0 L 7.578125 0 L 7.578125 -6.640625 C 7.578125 -8.40625 6.703125 -9.46875 5.28125 -9.46875 Z M 5.28125 -9.46875 "/>
</g>
<g id="glyph-0-13">
<path d="M 4.46875 -9.46875 C 2.1875 -9.46875 0.84375 -7.703125 0.84375 -4.625 C 0.84375 -1.625 2.15625 0.21875 4.453125 0.21875 C 6.71875 0.21875 8.078125 -1.6875 8.078125 -4.640625 C 8.078125 -7.796875 6.734375 -9.46875 4.46875 -9.46875 Z M 4.46875 -8.21875 C 5.734375 -8.21875 6.421875 -7.21875 6.421875 -4.640625 C 6.421875 -2.0625 5.734375 -1.03125 4.453125 -1.03125 C 3.1875 -1.03125 2.484375 -2.0625 2.484375 -4.625 C 2.484375 -7.21875 3.1875 -8.21875 4.46875 -8.21875 Z M 4.46875 -8.21875 "/>
</g>
<g id="glyph-0-14">
<path d="M 5.28125 -9.46875 C 4.15625 -9.46875 3.40625 -8.828125 2.828125 -7.875 L 2.703125 -9.265625 L 1.375 -9.265625 L 1.375 0 L 2.921875 0 L 2.921875 -6.546875 C 3.46875 -7.578125 4.109375 -8.25 4.90625 -8.25 C 5.625 -8.25 6.03125 -7.828125 6.03125 -6.421875 L 6.03125 0 L 7.578125 0 L 7.578125 -6.640625 C 7.578125 -8.40625 6.703125 -9.46875 5.28125 -9.46875 Z M 5.28125 -9.46875 "/>
</g>
<g id="glyph-0-15">
<path d="M 7.09375 0 L 8.890625 0 L 6.0625 -5.5 C 7.578125 -6.03125 8.296875 -7.0625 8.296875 -8.703125 C 8.296875 -10.875 6.953125 -12.125 4.03125 -12.125 L 1.4375 -12.125 L 1.4375 0 L 3.046875 0 L 3.046875 -5.171875 L 4.609375 -5.171875 Z M 3.046875 -6.40625 L 3.046875 -10.859375 L 4.015625 -10.859375 C 5.90625 -10.859375 6.609375 -10.171875 6.609375 -8.703125 C 6.609375 -7.109375 5.828125 -6.40625 4.15625 -6.40625 Z M 3.046875 -6.40625 "/>
</g>
<g id="glyph-0-16">
<path d="M 7.109375 0 L 8.765625 0 L 5.453125 -12.125 L 3.453125 -12.125 L 0.140625 0 L 1.71875 0 L 2.5 -3.078125 L 6.34375 -3.078125 Z M 2.8125 -4.359375 L 4.421875 -10.78125 L 6.03125 -4.359375 Z M 2.8125 -4.359375 "/>
</g>
<g id="glyph-0-17">
<path d="M 10.203125 -12.125 L 8.078125 -12.125 L 6.0625 -3.234375 L 3.953125 -12.125 L 1.859375 -12.125 L 1 0 L 2.515625 0 L 2.828125 -5.40625 C 2.9375 -7.171875 3.015625 -9.09375 2.984375 -10.5 L 5.296875 -1.375 L 6.796875 -1.375 L 8.984375 -10.484375 C 8.96875 -9.46875 9.078125 -7.40625 9.203125 -5.5 L 9.546875 0 L 11.0625 0 Z M 10.203125 -12.125 "/>
</g>
<g id="glyph-0-18">
<path d="M 6.921875 -2 L 6.921875 -6.515625 C 6.921875 -8.34375 6.015625 -9.46875 4.015625 -9.46875 C 3.125 -9.46875 2.21875 -9.25 1.234375 -8.84375 L 1.59375 -7.734375 C 2.421875 -8.0625 3.09375 -8.234375 3.78125 -8.234375 C 4.859375 -8.234375 5.359375 -7.71875 5.359375 -6.4375 L 5.359375 -5.625 L 4.34375 -5.625 C 1.953125 -5.625 0.65625 -4.5625 0.65625 -2.59375 C 0.65625 -0.921875 1.640625 0.21875 3.25 0.21875 C 4.203125 0.21875 5.03125 -0.1875 5.59375 -1.140625 C 5.828125 -0.265625 6.34375 0.078125 7.21875 0.21875 L 7.546875 -0.859375 C 7.140625 -1.03125 6.921875 -1.28125 6.921875 -2 Z M 3.578125 -0.953125 C 2.75 -0.953125 2.265625 -1.515625 2.265625 -2.65625 C 2.265625 -3.953125 2.984375 -4.59375 4.515625 -4.59375 L 5.359375 -4.59375 L 5.359375 -2.421875 C 4.96875 -1.4375 4.375 -0.953125 3.578125 -0.953125 Z M 3.578125 -0.953125 "/>
</g>
<g id="glyph-0-19">
<path d="M 3.046875 0.21875 C 3.484375 0.21875 3.890625 0.078125 4.1875 -0.109375 L 3.828125 -1.15625 C 3.71875 -1.125 3.53125 -1.078125 3.34375 -1.078125 C 2.96875 -1.078125 2.828125 -1.3125 2.828125 -1.6875 L 2.828125 -13.171875 L 1.28125 -13 L 1.28125 -1.65625 C 1.28125 -0.5 1.984375 0.21875 3.046875 0.21875 Z M 3.046875 0.21875 "/>
</g>
<g id="glyph-0-20">
<path d="M 5.171875 -9.46875 C 4.203125 -9.46875 3.46875 -8.953125 2.921875 -8.125 L 2.921875 -13.15625 L 1.375 -12.984375 L 1.375 0 L 2.75 0 L 2.875 -0.984375 C 3.390625 -0.25 4.140625 0.21875 5 0.21875 C 6.890625 0.21875 8.125 -1.625 8.125 -4.640625 C 8.125 -7.875 6.984375 -9.46875 5.171875 -9.46875 Z M 4.65625 -1.015625 C 3.9375 -1.015625 3.328125 -1.546875 2.921875 -2.234375 L 2.921875 -6.796875 C 3.34375 -7.546875 3.9375 -8.234375 4.78125 -8.234375 C 5.78125 -8.234375 6.484375 -7.4375 6.484375 -4.640625 C 6.484375 -1.96875 5.734375 -1.015625 4.65625 -1.015625 Z M 4.65625 -1.015625 "/>
</g>
<g id="glyph-0-21">
<path d="M 7.734375 -12.125 L 0.21875 -12.125 L 0.21875 -10.78125 L 3.125 -10.78125 L 3.125 0 L 4.734375 0 L 4.734375 -10.78125 L 7.5625 -10.78125 Z M 7.734375 -12.125 "/>
</g>
<g id="glyph-0-22">
<path d="M 5.015625 -9.46875 C 4.03125 -9.46875 3.296875 -8.828125 2.84375 -7.515625 L 2.703125 -9.265625 L 1.375 -9.265625 L 1.375 0 L 2.921875 0 L 2.921875 -5.4375 C 3.25 -7.125 3.859375 -7.953125 4.84375 -7.953125 C 5.109375 -7.953125 5.28125 -7.921875 5.5 -7.859375 L 5.765625 -9.359375 C 5.546875 -9.4375 5.296875 -9.46875 5.015625 -9.46875 Z M 5.015625 -9.46875 "/>
</g>
<g id="glyph-0-23">
<path d="M 7.453125 -9.265625 L 5.90625 -9.265625 L 5.90625 -2.59375 C 5.4375 -1.6875 4.828125 -1 3.953125 -1 C 3.203125 -1 2.84375 -1.5 2.84375 -2.515625 L 2.84375 -9.265625 L 1.296875 -9.265625 L 1.296875 -2.359375 C 1.296875 -0.8125 2.1875 0.21875 3.59375 0.21875 C 4.6875 0.21875 5.421875 -0.328125 6.015625 -1.34375 L 6.125 0 L 7.453125 0 Z M 7.453125 -9.265625 "/>
</g>
<g id="glyph-0-24">
<path d="M 7.578125 -4.90625 C 7.578125 -7.875 6.40625 -9.46875 4.28125 -9.46875 C 2.109375 -9.46875 0.84375 -7.5625 0.84375 -4.546875 C 0.84375 -1.453125 2.203125 0.21875 4.453125 0.21875 C 5.59375 0.21875 6.515625 -0.234375 7.28125 -0.953125 L 6.609375 -1.84375 C 5.921875 -1.296875 5.34375 -1.0625 4.515625 -1.0625 C 3.359375 -1.0625 2.546875 -1.796875 2.453125 -4.09375 L 7.546875 -4.09375 C 7.5625 -4.3125 7.578125 -4.59375 7.578125 -4.90625 Z M 6.09375 -5.25 L 2.453125 -5.25 C 2.546875 -7.453125 3.234375 -8.25 4.296875 -8.25 C 5.484375 -8.25 6.09375 -7.359375 6.09375 -5.359375 Z M 6.09375 -5.25 "/>
</g>
<g id="glyph-0-25">
<path d="M 1.4375 0 L 3.046875 0 L 3.046875 -5.359375 L 6.390625 -5.359375 L 6.390625 -6.640625 L 3.046875 -6.640625 L 3.046875 -10.84375 L 6.921875 -10.84375 L 7.09375 -12.125 L 1.4375 -12.125 Z M 1.4375 0 "/>
</g>
<g id="glyph-0-26">
<path d="M 3.671875 -9.46875 C 1.9375 -9.46875 0.71875 -8.375 0.71875 -6.9375 C 0.71875 -5.703125 1.390625 -4.890625 3.125 -4.296875 C 4.640625 -3.78125 5.046875 -3.40625 5.046875 -2.484375 C 5.046875 -1.546875 4.40625 -1 3.390625 -1 C 2.546875 -1 1.8125 -1.359375 1.203125 -1.875 L 0.375 -1 C 1.09375 -0.296875 2.09375 0.21875 3.4375 0.21875 C 5.140625 0.21875 6.65625 -0.703125 6.65625 -2.5625 C 6.65625 -4.109375 5.734375 -4.84375 4.046875 -5.40625 C 2.703125 -5.859375 2.28125 -6.203125 2.28125 -6.984375 C 2.28125 -7.78125 2.828125 -8.265625 3.71875 -8.265625 C 4.453125 -8.265625 5.0625 -8 5.75 -7.515625 L 6.40625 -8.421875 C 5.671875 -9.09375 4.796875 -9.46875 3.671875 -9.46875 Z M 3.671875 -9.46875 "/>
</g>
<g id="glyph-1-0">
<path d="M 11.953125 -23.09375 L 2.703125 -23.09375 L 2.703125 7.703125 L 11.953125 7.703125 Z M 10.765625 -21.953125 L 10.765625 6.5625 L 3.921875 6.5625 L 3.921875 -21.953125 Z M 7.125 -9.921875 C 6.265625 -9.921875 5.078125 -9.65625 5.078125 -9.0625 C 5.078125 -8.78125 5.28125 -8.5625 5.609375 -8.5625 C 5.703125 -8.5625 5.78125 -8.578125 5.890625 -8.625 C 6.265625 -8.796875 6.578125 -8.859375 7.046875 -8.859375 C 8.140625 -8.859375 8.375 -8.203125 8.375 -7.34375 C 8.375 -6.1875 7.96875 -5.734375 6.375 -5.65625 L 6.375 -3.8125 C 6.375 -3.46875 6.640625 -3.28125 6.9375 -3.28125 C 7.1875 -3.28125 7.484375 -3.46875 7.484375 -3.8125 L 7.484375 -4.796875 C 8.953125 -5.015625 9.5625 -5.859375 9.5625 -7.390625 C 9.5625 -8.71875 9.015625 -9.921875 7.125 -9.921875 Z M 6.9375 -2.640625 C 6.484375 -2.640625 6.15625 -2.3125 6.15625 -1.875 C 6.15625 -1.40625 6.484375 -1.0625 6.9375 -1.0625 C 7.375 -1.0625 7.703125 -1.40625 7.703125 -1.875 C 7.703125 -2.3125 7.375 -2.640625 6.9375 -2.640625 Z M 6.9375 -2.640625 "/>
</g>
<g id="glyph-1-1">
<path d="M 5.1875 -15.40625 C 2.6875 -15.40625 0.921875 -13.6875 0.921875 -11.484375 C 0.921875 -9.328125 2.15625 -8.078125 4.796875 -7.125 C 6.96875 -6.359375 7.546875 -5.59375 7.546875 -4.15625 C 7.546875 -2.421875 6.453125 -1.390625 4.859375 -1.390625 C 3.453125 -1.390625 2.4375 -1.984375 1.46875 -2.859375 L 0.390625 -1.6875 C 1.515625 -0.484375 2.953125 0.265625 4.890625 0.265625 C 7.828125 0.265625 9.640625 -1.765625 9.640625 -4.203125 C 9.640625 -6.90625 8.015625 -7.984375 5.78125 -8.78125 C 3.5 -9.59375 2.96875 -10.3125 2.96875 -11.578125 C 2.96875 -12.90625 3.890625 -13.765625 5.21875 -13.765625 C 6.3125 -13.765625 7.21875 -13.375 8.15625 -12.5 L 9.234375 -13.65625 C 8.140625 -14.78125 6.9375 -15.40625 5.1875 -15.40625 Z M 5.1875 -15.40625 "/>
</g>
<g id="glyph-1-2">
<path d="M 6.25 -1.734375 C 5.765625 -1.46875 5.4375 -1.34375 5 -1.34375 C 4.140625 -1.34375 3.828125 -1.828125 3.828125 -2.6875 L 3.828125 -10.078125 L 5.984375 -10.078125 L 6.1875 -11.59375 L 3.828125 -11.59375 L 3.828125 -14.453125 L 1.890625 -14.21875 L 1.890625 -11.59375 L 0.21875 -11.59375 L 0.21875 -10.078125 L 1.890625 -10.078125 L 1.890625 -2.65625 C 1.890625 -0.859375 2.875 0.265625 4.6875 0.265625 C 5.546875 0.265625 6.3125 0 7 -0.53125 Z M 6.25 -1.734375 "/>
</g>
<g id="glyph-1-3">
<path d="M 8.640625 -2.515625 L 8.640625 -8.140625 C 8.640625 -10.421875 7.53125 -11.84375 5.015625 -11.84375 C 3.921875 -11.84375 2.765625 -11.578125 1.546875 -11.0625 L 2 -9.6875 C 3.03125 -10.078125 3.875 -10.296875 4.734375 -10.296875 C 6.078125 -10.296875 6.703125 -9.65625 6.703125 -8.046875 L 6.703125 -7.046875 L 5.4375 -7.046875 C 2.4375 -7.046875 0.8125 -5.703125 0.8125 -3.234375 C 0.8125 -1.140625 2.046875 0.265625 4.0625 0.265625 C 5.265625 0.265625 6.296875 -0.234375 7 -1.4375 C 7.28125 -0.328125 7.9375 0.09375 9.015625 0.265625 L 9.4375 -1.078125 C 8.9375 -1.296875 8.640625 -1.609375 8.640625 -2.515625 Z M 4.46875 -1.1875 C 3.4375 -1.1875 2.84375 -1.890625 2.84375 -3.328125 C 2.84375 -4.953125 3.734375 -5.734375 5.65625 -5.734375 L 6.703125 -5.734375 L 6.703125 -3.03125 C 6.203125 -1.796875 5.484375 -1.1875 4.46875 -1.1875 Z M 4.46875 -1.1875 "/>
</g>
<g id="glyph-1-4">
<path d="M 2.6875 -17.09375 C 1.890625 -17.09375 1.359375 -16.515625 1.359375 -15.75 C 1.359375 -15.03125 1.890625 -14.453125 2.6875 -14.453125 C 3.46875 -14.453125 3.984375 -15.03125 3.984375 -15.75 C 3.984375 -16.515625 3.46875 -17.09375 2.6875 -17.09375 Z M 3.65625 -11.59375 L 1.71875 -11.59375 L 1.71875 0 L 3.65625 0 Z M 3.65625 -11.59375 "/>
</g>
<g id="glyph-1-5">
<path d="M 4.59375 -11.84375 C 2.421875 -11.84375 0.90625 -10.46875 0.90625 -8.671875 C 0.90625 -7.125 1.734375 -6.109375 3.921875 -5.375 C 5.8125 -4.734375 6.3125 -4.265625 6.3125 -3.109375 C 6.3125 -1.9375 5.5 -1.25 4.25 -1.25 C 3.1875 -1.25 2.265625 -1.6875 1.5 -2.359375 L 0.46875 -1.25 C 1.359375 -0.375 2.625 0.265625 4.296875 0.265625 C 6.421875 0.265625 8.3125 -0.875 8.3125 -3.21875 C 8.3125 -5.140625 7.171875 -6.046875 5.0625 -6.75 C 3.390625 -7.328125 2.859375 -7.765625 2.859375 -8.734375 C 2.859375 -9.71875 3.546875 -10.34375 4.640625 -10.34375 C 5.5625 -10.34375 6.34375 -10.015625 7.1875 -9.390625 L 8.015625 -10.53125 C 7.078125 -11.375 6 -11.84375 4.59375 -11.84375 Z M 4.59375 -11.84375 "/>
</g>
<g id="glyph-1-6">
<path d="M 5.546875 -11.84375 C 2.796875 -11.84375 1.0625 -9.5625 1.0625 -5.703125 C 1.0625 -1.828125 2.765625 0.265625 5.5625 0.265625 C 6.734375 0.265625 7.75 -0.21875 8.625 -1.015625 L 7.71875 -2.203125 C 7.015625 -1.671875 6.421875 -1.359375 5.59375 -1.359375 C 4.09375 -1.359375 3.125 -2.515625 3.125 -5.734375 C 3.125 -8.953125 4.0625 -10.28125 5.609375 -10.28125 C 6.421875 -10.28125 7.046875 -9.96875 7.71875 -9.4375 L 8.625 -10.609375 C 7.671875 -11.484375 6.734375 -11.84375 5.546875 -11.84375 Z M 5.546875 -11.84375 "/>
</g>
<g id="glyph-1-7">
<path d="M 3.8125 0.265625 C 4.359375 0.265625 4.859375 0.09375 5.234375 -0.125 L 4.796875 -1.453125 C 4.640625 -1.40625 4.421875 -1.34375 4.1875 -1.34375 C 3.71875 -1.34375 3.546875 -1.65625 3.546875 -2.109375 L 3.546875 -16.484375 L 1.609375 -16.265625 L 1.609375 -2.0625 C 1.609375 -0.609375 2.484375 0.265625 3.8125 0.265625 Z M 3.8125 0.265625 "/>
</g>
<g id="glyph-1-8">
</g>
<g id="glyph-1-9">
<path d="M 6.59375 -11.84375 C 5.1875 -11.84375 4.265625 -11.046875 3.546875 -9.859375 L 3.390625 -11.59375 L 1.71875 -11.59375 L 1.71875 0 L 3.65625 0 L 3.65625 -8.1875 C 4.328125 -9.484375 5.140625 -10.3125 6.140625 -10.3125 C 7.046875 -10.3125 7.546875 -9.796875 7.546875 -8.03125 L 7.546875 0 L 9.484375 0 L 9.484375 -8.296875 C 9.484375 -10.515625 8.375 -11.84375 6.59375 -11.84375 Z M 6.59375 -11.84375 "/>
</g>
<g id="glyph-1-10">
<path d="M 9.34375 -12.828125 C 8.25 -12.25 7.28125 -11.8125 4.890625 -11.84375 C 2.546875 -11.84375 0.90625 -10.234375 0.90625 -7.8125 C 0.90625 -6.3125 1.453125 -5.265625 2.640625 -4.546875 C 1.9375 -4.03125 1.46875 -3.328125 1.46875 -2.578125 C 1.46875 -1.359375 2.28125 -0.421875 4.484375 -0.421875 L 5.546875 -0.421875 C 6.90625 -0.421875 7.640625 0.15625 7.640625 1.296875 C 7.640625 2.4375 6.90625 3.140625 4.8125 3.140625 C 2.65625 3.140625 2.15625 2.53125 2.15625 1.171875 L 0.4375 1.171875 C 0.4375 3.34375 1.46875 4.65625 4.796875 4.65625 C 7.96875 4.65625 9.546875 3.25 9.546875 1.171875 C 9.546875 -0.546875 8.1875 -1.984375 5.921875 -1.984375 L 4.515625 -1.984375 C 3.5 -1.984375 3.234375 -2.390625 3.234375 -2.984375 C 3.234375 -3.4375 3.40625 -3.84375 3.71875 -4.09375 C 4.109375 -3.9375 4.515625 -3.875 4.953125 -3.875 C 7.375 -3.875 8.828125 -5.453125 8.828125 -7.78125 C 8.828125 -9.15625 8.234375 -10.125 7.046875 -10.734375 C 8.203125 -10.734375 9.15625 -10.78125 9.921875 -11.09375 Z M 4.859375 -10.453125 C 6.25 -10.453125 6.890625 -9.546875 6.890625 -7.828125 C 6.890625 -5.921875 6.1875 -5.171875 4.859375 -5.171875 C 3.546875 -5.171875 2.8125 -6.25 2.8125 -7.8125 C 2.8125 -9.5625 3.515625 -10.453125 4.859375 -10.453125 Z M 4.859375 -10.453125 "/>
</g>
<g id="glyph-1-11">
<path d="M 9.328125 -11.59375 L 7.390625 -11.59375 L 7.390625 -3.234375 C 6.796875 -2.109375 6.03125 -1.25 4.953125 -1.25 C 4 -1.25 3.5625 -1.875 3.5625 -3.140625 L 3.5625 -11.59375 L 1.625 -11.59375 L 1.625 -2.953125 C 1.625 -1.015625 2.734375 0.265625 4.484375 0.265625 C 5.859375 0.265625 6.78125 -0.421875 7.53125 -1.671875 L 7.65625 0 L 9.328125 0 Z M 9.328125 -11.59375 "/>
</g>
<g id="glyph-1-12">
<path d="M 9.484375 -6.140625 C 9.484375 -9.859375 8.015625 -11.84375 5.34375 -11.84375 C 2.640625 -11.84375 1.0625 -9.453125 1.0625 -5.671875 C 1.0625 -1.828125 2.75 0.265625 5.5625 0.265625 C 7 0.265625 8.140625 -0.28125 9.109375 -1.1875 L 8.265625 -2.3125 C 7.40625 -1.625 6.6875 -1.3125 5.65625 -1.3125 C 4.203125 -1.3125 3.1875 -2.25 3.0625 -5.125 L 9.4375 -5.125 C 9.453125 -5.390625 9.484375 -5.734375 9.484375 -6.140625 Z M 7.609375 -6.5625 L 3.0625 -6.5625 C 3.1875 -9.328125 4.046875 -10.3125 5.375 -10.3125 C 6.859375 -10.3125 7.609375 -9.203125 7.609375 -6.703125 Z M 7.609375 -6.5625 "/>
</g>
<g id="glyph-2-0">
<path d="M -23.09375 -11.953125 L -23.09375 -2.703125 L 7.703125 -2.703125 L 7.703125 -11.953125 Z M -21.953125 -10.765625 L 6.5625 -10.765625 L 6.5625 -3.921875 L -21.953125 -3.921875 Z M -9.921875 -7.125 C -9.921875 -6.265625 -9.65625 -5.078125 -9.0625 -5.078125 C -8.78125 -5.078125 -8.5625 -5.28125 -8.5625 -5.609375 C -8.5625 -5.703125 -8.578125 -5.78125 -8.625 -5.890625 C -8.796875 -6.265625 -8.859375 -6.578125 -8.859375 -7.046875 C -8.859375 -8.140625 -8.203125 -8.375 -7.34375 -8.375 C -6.1875 -8.375 -5.734375 -7.96875 -5.65625 -6.375 L -3.8125 -6.375 C -3.46875 -6.375 -3.28125 -6.640625 -3.28125 -6.9375 C -3.28125 -7.1875 -3.46875 -7.484375 -3.8125 -7.484375 L -4.796875 -7.484375 C -5.015625 -8.953125 -5.859375 -9.5625 -7.390625 -9.5625 C -8.71875 -9.5625 -9.921875 -9.015625 -9.921875 -7.125 Z M -2.640625 -6.9375 C -2.640625 -6.484375 -2.3125 -6.15625 -1.875 -6.15625 C -1.40625 -6.15625 -1.0625 -6.484375 -1.0625 -6.9375 C -1.0625 -7.375 -1.40625 -7.703125 -1.875 -7.703125 C -2.3125 -7.703125 -2.640625 -7.375 -2.640625 -6.9375 Z M -2.640625 -6.9375 "/>
</g>
<g id="glyph-2-1">
<path d="M -15.15625 -11.0625 L -15.15625 -9.203125 L -6.78125 -9.203125 C -4.90625 -9.203125 -2.59375 -9.390625 -2.203125 -9.484375 L -15.15625 -4.4375 L -15.15625 -1.796875 L 0 -1.796875 L 0 -3.671875 L -7.125 -3.671875 C -9.921875 -3.671875 -11.6875 -3.5 -12.90625 -3.390625 L 0 -8.40625 L 0 -11.0625 Z M -15.15625 -11.0625 "/>
</g>
<g id="glyph-2-2">
<path d="M -11.59375 -9.328125 L -11.59375 -7.390625 L -3.234375 -7.390625 C -2.109375 -6.796875 -1.25 -6.03125 -1.25 -4.953125 C -1.25 -4 -1.875 -3.5625 -3.140625 -3.5625 L -11.59375 -3.5625 L -11.59375 -1.625 L -2.953125 -1.625 C -1.015625 -1.625 0.265625 -2.734375 0.265625 -4.484375 C 0.265625 -5.859375 -0.421875 -6.78125 -1.671875 -7.53125 L 0 -7.65625 L 0 -9.328125 Z M -11.59375 -9.328125 "/>
</g>
<g id="glyph-2-3">
<path d="M -11.84375 -11.90625 C -11.84375 -10.53125 -10.953125 -9.609375 -9.765625 -8.890625 C -11.0625 -8.515625 -11.84375 -7.640625 -11.84375 -6.421875 C -11.84375 -5.125 -11.015625 -4.203125 -9.90625 -3.515625 L -11.59375 -3.390625 L -11.59375 -1.71875 L 0 -1.71875 L 0 -3.625 L -8.265625 -3.625 C -9.5 -4.25 -10.34375 -5 -10.34375 -5.9375 C -10.34375 -6.671875 -9.8125 -7.21875 -8.046875 -7.21875 L 0 -7.21875 L 0 -9.109375 L -8.265625 -9.109375 C -9.5 -9.75 -10.34375 -10.46875 -10.34375 -11.421875 C -10.34375 -12.171875 -9.8125 -12.6875 -8.046875 -12.6875 L 0 -12.6875 L 0 -14.59375 L -8.296875 -14.59375 C -10.5 -14.59375 -11.84375 -13.53125 -11.84375 -11.90625 Z M -11.84375 -11.90625 "/>
</g>
<g id="glyph-2-4">
<path d="M -11.84375 -6.46875 C -11.84375 -5.265625 -11.203125 -4.328125 -10.15625 -3.65625 L -16.453125 -3.65625 L -16.234375 -1.71875 L 0 -1.71875 L 0 -3.4375 L -1.234375 -3.59375 C -0.3125 -4.25 0.265625 -5.171875 0.265625 -6.25 C 0.265625 -8.625 -2.03125 -10.15625 -5.8125 -10.15625 C -9.859375 -10.15625 -11.84375 -8.734375 -11.84375 -6.46875 Z M -1.28125 -5.828125 C -1.28125 -4.921875 -1.9375 -4.15625 -2.796875 -3.65625 L -8.484375 -3.65625 C -9.4375 -4.1875 -10.296875 -4.921875 -10.296875 -5.984375 C -10.296875 -7.234375 -9.3125 -8.125 -5.8125 -8.125 C -2.46875 -8.125 -1.28125 -7.171875 -1.28125 -5.828125 Z M -1.28125 -5.828125 "/>
</g>
<g id="glyph-2-5">
<path d="M -6.140625 -9.484375 C -9.859375 -9.484375 -11.84375 -8.015625 -11.84375 -5.34375 C -11.84375 -2.640625 -9.453125 -1.0625 -5.671875 -1.0625 C -1.828125 -1.0625 0.265625 -2.75 0.265625 -5.5625 C 0.265625 -7 -0.28125 -8.140625 -1.1875 -9.109375 L -2.3125 -8.265625 C -1.625 -7.40625 -1.3125 -6.6875 -1.3125 -5.65625 C -1.3125 -4.203125 -2.25 -3.1875 -5.125 -3.0625 L -5.125 -9.4375 C -5.390625 -9.453125 -5.734375 -9.484375 -6.140625 -9.484375 Z M -6.5625 -7.609375 L -6.5625 -3.0625 C -9.328125 -3.1875 -10.3125 -4.046875 -10.3125 -5.375 C -10.3125 -6.859375 -9.203125 -7.609375 -6.703125 -7.609375 Z M -6.5625 -7.609375 "/>
</g>
<g id="glyph-2-6">
<path d="M -11.84375 -6.265625 C -11.84375 -5.03125 -11.046875 -4.109375 -9.390625 -3.5625 L -11.59375 -3.390625 L -11.59375 -1.71875 L 0 -1.71875 L 0 -3.65625 L -6.796875 -3.65625 C -8.90625 -4.0625 -9.9375 -4.8125 -9.9375 -6.046875 C -9.9375 -6.375 -9.90625 -6.59375 -9.828125 -6.890625 L -11.703125 -7.21875 C -11.796875 -6.9375 -11.84375 -6.625 -11.84375 -6.265625 Z M -11.84375 -6.265625 "/>
</g>
<g id="glyph-2-7">
</g>
<g id="glyph-2-8">
<path d="M -11.84375 -5.59375 C -11.84375 -2.734375 -9.640625 -1.0625 -5.78125 -1.0625 C -2.03125 -1.0625 0.265625 -2.703125 0.265625 -5.5625 C 0.265625 -8.40625 -2.109375 -10.09375 -5.8125 -10.09375 C -9.75 -10.09375 -11.84375 -8.421875 -11.84375 -5.59375 Z M -10.28125 -5.59375 C -10.28125 -7.171875 -9.015625 -8.03125 -5.8125 -8.03125 C -2.578125 -8.03125 -1.296875 -7.171875 -1.296875 -5.5625 C -1.296875 -3.984375 -2.578125 -3.109375 -5.78125 -3.109375 C -9.015625 -3.109375 -10.28125 -3.984375 -10.28125 -5.59375 Z M -10.28125 -5.59375 "/>
</g>
<g id="glyph-2-9">
<path d="M -14.921875 -5.328125 C -14.921875 -5.828125 -14.8125 -6.40625 -14.515625 -7.046875 L -15.890625 -7.609375 C -16.265625 -6.84375 -16.484375 -6.109375 -16.484375 -5.171875 C -16.484375 -3.078125 -15.15625 -1.9375 -13.375 -1.9375 L -11.59375 -1.9375 L -11.59375 -0.21875 L -10.078125 -0.21875 L -10.078125 -1.9375 L 0 -1.9375 L 0 -3.875 L -10.078125 -3.875 L -10.078125 -6.09375 L -11.59375 -6.3125 L -11.59375 -3.875 L -13.390625 -3.875 C -14.4375 -3.875 -14.921875 -4.296875 -14.921875 -5.328125 Z M -14.921875 -5.328125 "/>
</g>
<g id="glyph-2-10">
<path d="M -17.09375 -2.65625 C -17.09375 -1.875 -16.515625 -1.34375 -15.75 -1.34375 C -15.03125 -1.34375 -14.453125 -1.875 -14.453125 -2.65625 C -14.453125 -3.453125 -15.03125 -3.953125 -15.75 -3.953125 C -16.515625 -3.953125 -17.09375 -3.453125 -17.09375 -2.65625 Z M -11.59375 -3.65625 L -11.59375 -1.71875 L -0.546875 -1.71875 C 1.9375 -1.71875 2.53125 -1.0625 3.234375 0.234375 L 4.640625 -0.359375 C 3.5625 -2.484375 2.578125 -3.65625 -0.65625 -3.65625 Z M -11.59375 -3.65625 "/>
</g>
<g id="glyph-2-11">
<path d="M -11.84375 -4.59375 C -11.84375 -2.421875 -10.46875 -0.90625 -8.671875 -0.90625 C -7.125 -0.90625 -6.109375 -1.734375 -5.375 -3.921875 C -4.734375 -5.8125 -4.265625 -6.3125 -3.109375 -6.3125 C -1.9375 -6.3125 -1.25 -5.5 -1.25 -4.25 C -1.25 -3.1875 -1.6875 -2.265625 -2.359375 -1.5 L -1.25 -0.46875 C -0.375 -1.359375 0.265625 -2.625 0.265625 -4.296875 C 0.265625 -6.421875 -0.875 -8.3125 -3.21875 -8.3125 C -5.140625 -8.3125 -6.046875 -7.171875 -6.75 -5.0625 C -7.328125 -3.390625 -7.765625 -2.859375 -8.734375 -2.859375 C -9.71875 -2.859375 -10.34375 -3.546875 -10.34375 -4.640625 C -10.34375 -5.5625 -10.015625 -6.34375 -9.390625 -7.1875 L -10.53125 -8.015625 C -11.375 -7.078125 -11.84375 -6 -11.84375 -4.59375 Z M -11.84375 -4.59375 "/>
</g>
<g id="glyph-3-0">
<path d="M 14.28125 -23.09375 L 5.125 -23.09375 L 0.765625 7.703125 L 9.921875 7.703125 Z M 12.90625 -21.953125 L 8.890625 6.5625 L 2.140625 6.5625 L 6.15625 -21.953125 Z M 7.546875 -9.921875 C 6.734375 -9.921875 5.59375 -9.71875 5.515625 -9.171875 C 5.453125 -8.84375 5.671875 -8.5625 6.046875 -8.5625 C 6.09375 -8.5625 6.1875 -8.5625 6.3125 -8.578125 C 6.671875 -8.78125 7 -8.859375 7.5 -8.859375 C 8.5625 -8.859375 8.671875 -8.265625 8.5625 -7.453125 C 8.375 -6.25 7.859375 -5.734375 6.25 -5.65625 L 6.046875 -3.875 C 6 -3.546875 6.265625 -3.28125 6.59375 -3.28125 C 6.8125 -3.28125 7.078125 -3.40625 7.125 -3.734375 L 7.328125 -4.796875 C 8.796875 -5.015625 9.484375 -5.78125 9.6875 -7.28125 C 9.875 -8.640625 9.453125 -9.921875 7.546875 -9.921875 Z M 6.34375 -2.640625 C 5.9375 -2.640625 5.625 -2.375 5.59375 -1.984375 C 5.5 -1.46875 5.8125 -1.0625 6.296875 -1.0625 C 6.6875 -1.0625 7.015625 -1.34375 7.0625 -1.765625 C 7.125 -2.25 6.8125 -2.640625 6.34375 -2.640625 Z M 6.34375 -2.640625 "/>
</g>
<g id="glyph-3-1">
<path d="M 10.09375 -15.15625 L 3.109375 -15.15625 L 0.96875 0 L 2.953125 0 L 3.890625 -6.703125 L 8.046875 -6.703125 L 8.265625 -8.296875 L 4.109375 -8.296875 L 4.859375 -13.546875 L 9.640625 -13.546875 Z M 10.09375 -15.15625 "/>
</g>
<g id="glyph-3-2">
<path d="M 6.96875 -11.84375 C 5.65625 -11.84375 4.78125 -10.984375 4 -9.421875 L 4.15625 -11.59375 L 2.515625 -11.59375 L 0.875 0 L 2.796875 0 L 3.65625 -6.203125 C 4.359375 -8.5625 5.265625 -9.9375 6.5625 -9.9375 C 6.859375 -9.9375 7.078125 -9.90625 7.34375 -9.828125 L 7.96875 -11.6875 C 7.65625 -11.765625 7.328125 -11.84375 6.96875 -11.84375 Z M 6.96875 -11.84375 "/>
</g>
<g id="glyph-3-3">
<path d="M 9.640625 -8.953125 C 9.640625 -10.5 8.5625 -11.84375 6.421875 -11.84375 C 2.46875 -11.84375 0.90625 -7.5 0.90625 -4.09375 C 0.90625 -1.390625 2.25 0.265625 4.640625 0.265625 C 6 0.265625 7.1875 -0.234375 8.3125 -1.125 L 7.5 -2.390625 C 6.59375 -1.71875 5.78125 -1.359375 4.84375 -1.359375 C 3.703125 -1.359375 2.90625 -2.046875 2.90625 -4.109375 L 2.90625 -4.328125 C 6.484375 -4.78125 9.640625 -5.71875 9.640625 -8.953125 Z M 6.3125 -10.296875 C 7.28125 -10.296875 7.671875 -9.703125 7.671875 -8.90625 C 7.671875 -6.890625 6.046875 -6.1875 3.015625 -5.8125 C 3.328125 -8.015625 4.265625 -10.296875 6.3125 -10.296875 Z M 6.3125 -10.296875 "/>
</g>
<g id="glyph-3-4">
<path d="M 5.765625 -15.40625 C 4.296875 -15.40625 2.921875 -14.765625 1.671875 -13.28125 L 2.796875 -12.25 C 3.765625 -13.265625 4.6875 -13.8125 5.609375 -13.8125 C 6.5625 -13.8125 7.15625 -13.375 7.15625 -12.3125 C 7.15625 -9.125 2.640625 -9.65625 2.640625 -5.921875 C 2.640625 -5.546875 2.703125 -5.125 2.8125 -4.8125 L 4.515625 -5.109375 C 4.484375 -5.34375 4.46875 -5.59375 4.46875 -5.734375 C 4.46875 -8.890625 9.125 -8.3125 9.125 -12.34375 C 9.125 -13.984375 8.046875 -15.40625 5.765625 -15.40625 Z M 3.40625 0.265625 C 4.3125 0.265625 4.953125 -0.484375 4.953125 -1.34375 C 4.953125 -2.0625 4.484375 -2.640625 3.65625 -2.640625 C 2.75 -2.640625 2.109375 -1.890625 2.109375 -1.03125 C 2.109375 -0.3125 2.59375 0.265625 3.40625 0.265625 Z M 3.40625 0.265625 "/>
</g>
<g id="glyph-4-0">
<path d="M 5.96875 -11.546875 L 1.359375 -11.546875 L 1.359375 3.84375 L 5.96875 3.84375 Z M 5.375 -10.984375 L 5.375 3.28125 L 1.953125 3.28125 L 1.953125 -10.984375 Z M 3.5625 -4.96875 C 3.140625 -4.96875 2.546875 -4.828125 2.546875 -4.53125 C 2.546875 -4.390625 2.640625 -4.28125 2.8125 -4.28125 C 2.84375 -4.28125 2.890625 -4.296875 2.953125 -4.3125 C 3.140625 -4.40625 3.28125 -4.4375 3.515625 -4.4375 C 4.0625 -4.4375 4.1875 -4.109375 4.1875 -3.671875 C 4.1875 -3.09375 3.984375 -2.875 3.1875 -2.828125 L 3.1875 -1.90625 C 3.1875 -1.734375 3.328125 -1.640625 3.46875 -1.640625 C 3.59375 -1.640625 3.734375 -1.734375 3.734375 -1.90625 L 3.734375 -2.390625 C 4.484375 -2.515625 4.78125 -2.921875 4.78125 -3.703125 C 4.78125 -4.359375 4.515625 -4.96875 3.5625 -4.96875 Z M 3.46875 -1.3125 C 3.25 -1.3125 3.078125 -1.15625 3.078125 -0.9375 C 3.078125 -0.703125 3.25 -0.53125 3.46875 -0.53125 C 3.6875 -0.53125 3.84375 -0.703125 3.84375 -0.9375 C 3.84375 -1.15625 3.6875 -1.3125 3.46875 -1.3125 Z M 3.46875 -1.3125 "/>
</g>
<g id="glyph-4-1">
<path d="M 5.53125 -7.578125 L 4.59375 -7.578125 L 4.59375 -3.390625 C 4.59375 -2.453125 4.703125 -1.296875 4.734375 -1.09375 L 2.21875 -7.578125 L 0.90625 -7.578125 L 0.90625 0 L 1.84375 0 L 1.84375 -3.5625 C 1.84375 -4.96875 1.75 -5.84375 1.6875 -6.453125 L 4.203125 0 L 5.53125 0 Z M 5.53125 -7.578125 "/>
</g>
<g id="glyph-4-2">
<path d="M 4.65625 -5.796875 L 3.703125 -5.796875 L 3.703125 -1.609375 C 3.40625 -1.0625 3.015625 -0.625 2.46875 -0.625 C 2 -0.625 1.78125 -0.9375 1.78125 -1.578125 L 1.78125 -5.796875 L 0.8125 -5.796875 L 0.8125 -1.46875 C 0.8125 -0.5 1.359375 0.125 2.25 0.125 C 2.921875 0.125 3.390625 -0.203125 3.765625 -0.84375 L 3.828125 0 L 4.65625 0 Z M 4.65625 -5.796875 "/>
</g>
<g id="glyph-4-3">
<path d="M 5.953125 -5.921875 C 5.265625 -5.921875 4.8125 -5.484375 4.4375 -4.890625 C 4.25 -5.53125 3.8125 -5.921875 3.21875 -5.921875 C 2.5625 -5.921875 2.09375 -5.515625 1.765625 -4.953125 L 1.6875 -5.796875 L 0.859375 -5.796875 L 0.859375 0 L 1.8125 0 L 1.8125 -4.140625 C 2.125 -4.75 2.5 -5.171875 2.96875 -5.171875 C 3.328125 -5.171875 3.609375 -4.90625 3.609375 -4.03125 L 3.609375 0 L 4.546875 0 L 4.546875 -4.140625 C 4.875 -4.75 5.234375 -5.171875 5.703125 -5.171875 C 6.078125 -5.171875 6.34375 -4.90625 6.34375 -4.03125 L 6.34375 0 L 7.296875 0 L 7.296875 -4.140625 C 7.296875 -5.25 6.765625 -5.921875 5.953125 -5.921875 Z M 5.953125 -5.921875 "/>
</g>
<g id="glyph-4-4">
<path d="M 3.234375 -5.921875 C 2.625 -5.921875 2.171875 -5.59375 1.828125 -5.078125 L 1.828125 -8.234375 L 0.859375 -8.125 L 0.859375 0 L 1.71875 0 L 1.796875 -0.609375 C 2.125 -0.15625 2.578125 0.125 3.125 0.125 C 4.3125 0.125 5.078125 -1.015625 5.078125 -2.90625 C 5.078125 -4.921875 4.359375 -5.921875 3.234375 -5.921875 Z M 2.921875 -0.640625 C 2.46875 -0.640625 2.078125 -0.96875 1.828125 -1.390625 L 1.828125 -4.25 C 2.09375 -4.71875 2.46875 -5.140625 2.984375 -5.140625 C 3.625 -5.140625 4.0625 -4.65625 4.0625 -2.90625 C 4.0625 -1.234375 3.59375 -0.640625 2.921875 -0.640625 Z M 2.921875 -0.640625 "/>
</g>
<g id="glyph-4-5">
<path d="M 4.734375 -3.0625 C 4.734375 -4.921875 4 -5.921875 2.671875 -5.921875 C 1.3125 -5.921875 0.53125 -4.734375 0.53125 -2.84375 C 0.53125 -0.90625 1.375 0.125 2.78125 0.125 C 3.5 0.125 4.0625 -0.140625 4.546875 -0.59375 L 4.140625 -1.15625 C 3.703125 -0.8125 3.34375 -0.65625 2.828125 -0.65625 C 2.09375 -0.65625 1.59375 -1.125 1.53125 -2.5625 L 4.71875 -2.5625 C 4.734375 -2.6875 4.734375 -2.875 4.734375 -3.0625 Z M 3.8125 -3.28125 L 1.53125 -3.28125 C 1.59375 -4.65625 2.03125 -5.15625 2.6875 -5.15625 C 3.4375 -5.15625 3.8125 -4.59375 3.8125 -3.359375 Z M 3.8125 -3.28125 "/>
</g>
<g id="glyph-4-6">
<path d="M 3.140625 -5.921875 C 2.515625 -5.921875 2.0625 -5.515625 1.78125 -4.703125 L 1.6875 -5.796875 L 0.859375 -5.796875 L 0.859375 0 L 1.828125 0 L 1.828125 -3.40625 C 2.03125 -4.453125 2.40625 -4.96875 3.03125 -4.96875 C 3.1875 -4.96875 3.296875 -4.953125 3.4375 -4.921875 L 3.609375 -5.859375 C 3.46875 -5.890625 3.3125 -5.921875 3.140625 -5.921875 Z M 3.140625 -5.921875 "/>
</g>
<g id="glyph-4-7">
</g>
<g id="glyph-4-8">
<path d="M 2.796875 -5.921875 C 1.359375 -5.921875 0.53125 -4.8125 0.53125 -2.890625 C 0.53125 -1.015625 1.359375 0.125 2.78125 0.125 C 4.203125 0.125 5.046875 -1.0625 5.046875 -2.90625 C 5.046875 -4.875 4.21875 -5.921875 2.796875 -5.921875 Z M 2.796875 -5.140625 C 3.59375 -5.140625 4.015625 -4.515625 4.015625 -2.90625 C 4.015625 -1.28125 3.59375 -0.65625 2.78125 -0.65625 C 1.984375 -0.65625 1.546875 -1.28125 1.546875 -2.890625 C 1.546875 -4.515625 1.984375 -5.140625 2.796875 -5.140625 Z M 2.796875 -5.140625 "/>
</g>
<g id="glyph-4-9">
<path d="M 2.65625 -7.453125 C 2.921875 -7.453125 3.203125 -7.40625 3.515625 -7.265625 L 3.8125 -7.9375 C 3.421875 -8.125 3.0625 -8.234375 2.578125 -8.234375 C 1.546875 -8.234375 0.96875 -7.578125 0.96875 -6.6875 L 0.96875 -5.796875 L 0.109375 -5.796875 L 0.109375 -5.03125 L 0.96875 -5.03125 L 0.96875 0 L 1.9375 0 L 1.9375 -5.03125 L 3.046875 -5.03125 L 3.15625 -5.796875 L 1.9375 -5.796875 L 1.9375 -6.703125 C 1.9375 -7.21875 2.140625 -7.453125 2.65625 -7.453125 Z M 2.65625 -7.453125 "/>
</g>
<g id="glyph-4-10">
<path d="M 1.328125 -8.546875 C 0.9375 -8.546875 0.671875 -8.265625 0.671875 -7.875 C 0.671875 -7.515625 0.9375 -7.234375 1.328125 -7.234375 C 1.734375 -7.234375 1.984375 -7.515625 1.984375 -7.875 C 1.984375 -8.265625 1.734375 -8.546875 1.328125 -8.546875 Z M 1.828125 -5.796875 L 0.859375 -5.796875 L 0.859375 -0.28125 C 0.859375 0.96875 0.53125 1.265625 -0.125 1.609375 L 0.171875 2.328125 C 1.25 1.78125 1.828125 1.28125 1.828125 -0.328125 Z M 1.828125 -5.796875 "/>
</g>
<g id="glyph-4-11">
<path d="M 3.265625 -5.921875 C 2.625 -5.921875 2.140625 -5.59375 1.765625 -5.03125 L 1.703125 -5.796875 L 0.859375 -5.796875 L 0.859375 2.328125 L 1.828125 2.21875 L 1.828125 -0.515625 C 2.15625 -0.09375 2.578125 0.125 3.125 0.125 C 4.40625 0.125 5.078125 -1.0625 5.078125 -2.90625 C 5.078125 -4.8125 4.484375 -5.921875 3.265625 -5.921875 Z M 2.921875 -0.65625 C 2.453125 -0.65625 2.09375 -0.921875 1.828125 -1.34375 L 1.828125 -4.28125 C 2.09375 -4.734375 2.484375 -5.140625 3 -5.140625 C 3.703125 -5.140625 4.0625 -4.515625 4.0625 -2.90625 C 4.0625 -1.296875 3.625 -0.65625 2.921875 -0.65625 Z M 2.921875 -0.65625 "/>
</g>
<g id="glyph-4-12">
<path d="M 2.296875 -5.921875 C 1.203125 -5.921875 0.453125 -5.234375 0.453125 -4.328125 C 0.453125 -3.5625 0.875 -3.0625 1.953125 -2.6875 C 2.90625 -2.359375 3.15625 -2.140625 3.15625 -1.546875 C 3.15625 -0.96875 2.75 -0.625 2.125 -0.625 C 1.59375 -0.625 1.140625 -0.84375 0.75 -1.171875 L 0.234375 -0.625 C 0.6875 -0.1875 1.3125 0.125 2.140625 0.125 C 3.21875 0.125 4.15625 -0.4375 4.15625 -1.609375 C 4.15625 -2.578125 3.59375 -3.03125 2.53125 -3.375 C 1.6875 -3.65625 1.4375 -3.890625 1.4375 -4.359375 C 1.4375 -4.859375 1.765625 -5.171875 2.328125 -5.171875 C 2.78125 -5.171875 3.171875 -5 3.59375 -4.703125 L 4 -5.265625 C 3.546875 -5.6875 3 -5.921875 2.296875 -5.921875 Z M 2.296875 -5.921875 "/>
</g>
<g id="glyph-4-13">
<path d="M 3.125 -0.875 C 2.875 -0.734375 2.71875 -0.671875 2.5 -0.671875 C 2.0625 -0.671875 1.90625 -0.90625 1.90625 -1.34375 L 1.90625 -5.03125 L 2.984375 -5.03125 L 3.09375 -5.796875 L 1.90625 -5.796875 L 1.90625 -7.234375 L 0.953125 -7.109375 L 0.953125 -5.796875 L 0.109375 -5.796875 L 0.109375 -5.03125 L 0.953125 -5.03125 L 0.953125 -1.328125 C 0.953125 -0.421875 1.4375 0.125 2.34375 0.125 C 2.765625 0.125 3.15625 0 3.5 -0.265625 Z M 3.125 -0.875 "/>
</g>
<g id="glyph-4-14">
<path d="M 1.34375 -8.546875 C 0.953125 -8.546875 0.6875 -8.265625 0.6875 -7.875 C 0.6875 -7.515625 0.953125 -7.234375 1.34375 -7.234375 C 1.734375 -7.234375 1.984375 -7.515625 1.984375 -7.875 C 1.984375 -8.265625 1.734375 -8.546875 1.34375 -8.546875 Z M 1.828125 -5.796875 L 0.859375 -5.796875 L 0.859375 0 L 1.828125 0 Z M 1.828125 -5.796875 "/>
</g>
<g id="glyph-4-15">
<path d="M 3.296875 -5.921875 C 2.59375 -5.921875 2.140625 -5.515625 1.765625 -4.921875 L 1.6875 -5.796875 L 0.859375 -5.796875 L 0.859375 0 L 1.828125 0 L 1.828125 -4.09375 C 2.171875 -4.734375 2.578125 -5.15625 3.0625 -5.15625 C 3.515625 -5.15625 3.765625 -4.890625 3.765625 -4.015625 L 3.765625 0 L 4.734375 0 L 4.734375 -4.140625 C 4.734375 -5.265625 4.1875 -5.921875 3.296875 -5.921875 Z M 3.296875 -5.921875 "/>
</g>
<g id="glyph-4-16">
<path d="M 4.671875 -6.40625 C 4.125 -6.125 3.640625 -5.90625 2.4375 -5.921875 C 1.28125 -5.921875 0.453125 -5.109375 0.453125 -3.90625 C 0.453125 -3.15625 0.71875 -2.625 1.3125 -2.28125 C 0.96875 -2.015625 0.734375 -1.65625 0.734375 -1.28125 C 0.734375 -0.6875 1.140625 -0.203125 2.25 -0.203125 L 2.765625 -0.203125 C 3.453125 -0.203125 3.8125 0.078125 3.8125 0.65625 C 3.8125 1.21875 3.453125 1.578125 2.40625 1.578125 C 1.328125 1.578125 1.078125 1.265625 1.078125 0.578125 L 0.21875 0.578125 C 0.21875 1.671875 0.734375 2.328125 2.390625 2.328125 C 3.984375 2.328125 4.78125 1.625 4.78125 0.578125 C 4.78125 -0.28125 4.09375 -0.984375 2.953125 -0.984375 L 2.25 -0.984375 C 1.75 -0.984375 1.609375 -1.203125 1.609375 -1.5 C 1.609375 -1.71875 1.703125 -1.921875 1.859375 -2.046875 C 2.0625 -1.96875 2.25 -1.9375 2.46875 -1.9375 C 3.6875 -1.9375 4.40625 -2.734375 4.40625 -3.890625 C 4.40625 -4.578125 4.109375 -5.0625 3.515625 -5.375 C 4.109375 -5.375 4.578125 -5.390625 4.96875 -5.546875 Z M 2.4375 -5.21875 C 3.125 -5.21875 3.4375 -4.78125 3.4375 -3.921875 C 3.4375 -2.953125 3.09375 -2.578125 2.4375 -2.578125 C 1.765625 -2.578125 1.40625 -3.125 1.40625 -3.90625 C 1.40625 -4.78125 1.765625 -5.21875 2.4375 -5.21875 Z M 2.4375 -5.21875 "/>
</g>
<g id="glyph-4-17">
<path d="M 1.90625 -7.578125 L 0.90625 -7.578125 L 0.90625 0 L 1.90625 0 Z M 1.90625 -7.578125 "/>
</g>
<g id="glyph-4-18">
<path d="M 3.828125 -8.234375 L 3.828125 -5.234375 C 3.53125 -5.625 3.109375 -5.921875 2.515625 -5.921875 C 1.328125 -5.921875 0.53125 -4.703125 0.53125 -2.875 C 0.53125 -1.015625 1.21875 0.125 2.46875 0.125 C 3.078125 0.125 3.546875 -0.203125 3.875 -0.765625 L 3.9375 0 L 4.796875 0 L 4.796875 -8.125 Z M 2.65625 -0.640625 C 1.984375 -0.640625 1.5625 -1.3125 1.5625 -2.890625 C 1.5625 -4.484375 2.03125 -5.140625 2.71875 -5.140625 C 3.1875 -5.140625 3.53125 -4.84375 3.828125 -4.390625 L 3.828125 -1.46875 C 3.515625 -0.96875 3.171875 -0.640625 2.65625 -0.640625 Z M 2.65625 -0.640625 "/>
</g>
<g id="glyph-4-19">
<path d="M 1.171875 -1.3125 C 0.75 -1.3125 0.46875 -0.984375 0.46875 -0.59375 C 0.46875 -0.203125 0.75 0.125 1.171875 0.125 C 1.609375 0.125 1.90625 -0.203125 1.90625 -0.59375 C 1.90625 -0.984375 1.609375 -1.3125 1.171875 -1.3125 Z M 1.171875 -1.3125 "/>
</g>
<g id="glyph-4-20">
<path d="M 2.765625 -5.921875 C 1.390625 -5.921875 0.53125 -4.78125 0.53125 -2.84375 C 0.53125 -0.90625 1.390625 0.125 2.78125 0.125 C 3.359375 0.125 3.875 -0.109375 4.3125 -0.5 L 3.859375 -1.09375 C 3.515625 -0.84375 3.21875 -0.6875 2.796875 -0.6875 C 2.046875 -0.6875 1.5625 -1.25 1.5625 -2.875 C 1.5625 -4.484375 2.03125 -5.140625 2.8125 -5.140625 C 3.21875 -5.140625 3.515625 -4.984375 3.859375 -4.71875 L 4.3125 -5.296875 C 3.84375 -5.734375 3.359375 -5.921875 2.765625 -5.921875 Z M 2.765625 -5.921875 "/>
</g>
<g id="glyph-4-21">
<path d="M 1.171875 -1.3125 C 0.765625 -1.3125 0.46875 -1.015625 0.46875 -0.609375 C 0.46875 -0.359375 0.59375 -0.125 0.796875 0.015625 L 0.390625 1.796875 L 1.03125 1.796875 L 1.65625 0.15625 C 1.78125 -0.171875 1.859375 -0.390625 1.859375 -0.609375 C 1.859375 -1.015625 1.578125 -1.3125 1.171875 -1.3125 Z M 1.171875 -1.3125 "/>
</g>
<g id="glyph-4-22">
<path d="M 2.09375 -7.46875 C 1.296875 -7.46875 0.65625 -7.09375 0.140625 -6.359375 L 0.78125 -5.890625 C 1.1875 -6.40625 1.53125 -6.671875 2.046875 -6.671875 C 2.65625 -6.671875 3.0625 -6.265625 3.0625 -5.453125 C 3.0625 -4.234375 2.53125 -3.484375 0.296875 -0.765625 L 0.296875 0 L 4.109375 0 L 4.21875 -0.8125 L 1.34375 -0.8125 C 3.328125 -3.171875 4.0625 -4.125 4.0625 -5.5 C 4.0625 -6.625 3.328125 -7.46875 2.09375 -7.46875 Z M 2.09375 -7.46875 "/>
</g>
<g id="glyph-4-23">
<path d="M 2.765625 -7.46875 C 1.328125 -7.46875 0.59375 -6.25 0.59375 -3.671875 C 0.59375 -1.09375 1.328125 0.125 2.765625 0.125 C 4.203125 0.125 4.921875 -1.09375 4.921875 -3.671875 C 4.921875 -6.234375 4.203125 -7.46875 2.765625 -7.46875 Z M 2.765625 -6.703125 C 3.53125 -6.703125 3.921875 -5.96875 3.921875 -3.671875 C 3.921875 -1.390625 3.53125 -0.640625 2.765625 -0.640625 C 1.984375 -0.640625 1.609375 -1.390625 1.609375 -3.671875 C 1.609375 -5.9375 1.984375 -6.703125 2.765625 -6.703125 Z M 2.765625 -6.703125 "/>
</g>
<g id="glyph-4-24">
<path d="M 3.09375 -7.359375 L 2.234375 -7.359375 L 0.234375 -5.953125 L 0.6875 -5.3125 L 2.140625 -6.34375 L 2.140625 0 L 3.09375 0 Z M 3.09375 -7.359375 "/>
</g>
<g id="glyph-4-25">
<path d="M 2.46875 -7.46875 C 1.328125 -7.46875 0.390625 -6.640625 0.390625 -5.03125 C 0.390625 -3.578125 1.25 -2.6875 2.203125 -2.6875 C 2.8125 -2.6875 3.28125 -3.03125 3.59375 -3.484375 C 3.46875 -1.796875 2.484375 -1.015625 0.890625 -0.484375 L 1.09375 0.234375 C 3.5 -0.53125 4.59375 -1.5625 4.59375 -4.59375 C 4.59375 -6.40625 3.890625 -7.46875 2.46875 -7.46875 Z M 2.390625 -3.4375 C 1.78125 -3.4375 1.359375 -3.953125 1.359375 -5.015625 C 1.359375 -6.171875 1.78125 -6.703125 2.5 -6.703125 C 3.265625 -6.703125 3.625 -6.109375 3.625 -4.359375 C 3.3125 -3.78125 2.921875 -3.4375 2.390625 -3.4375 Z M 2.390625 -3.4375 "/>
</g>
<g id="glyph-4-26">
<path d="M 3.171875 -8.859375 L 0.953125 0.96875 L 1.75 1.140625 L 3.984375 -8.703125 Z M 3.171875 -8.859375 "/>
</g>
<g id="glyph-4-27">
<path d="M 3.078125 -4.828125 C 2.46875 -4.828125 1.953125 -4.53125 1.5625 -3.890625 C 1.609375 -5.6875 2.171875 -6.703125 3.0625 -6.703125 C 3.40625 -6.703125 3.71875 -6.59375 4.015625 -6.390625 L 4.390625 -7.015625 C 4.015625 -7.296875 3.59375 -7.46875 3.0625 -7.46875 C 1.53125 -7.46875 0.59375 -5.953125 0.59375 -3.4375 C 0.59375 -1.25 1.203125 0.125 2.78125 0.125 C 3.953125 0.125 4.828125 -0.796875 4.828125 -2.5 C 4.828125 -4.0625 4 -4.828125 3.078125 -4.828125 Z M 2.78125 -0.640625 C 1.953125 -0.640625 1.609375 -1.34375 1.578125 -3.03125 C 1.875 -3.65625 2.359375 -4.078125 2.875 -4.078125 C 3.46875 -4.078125 3.875 -3.65625 3.875 -2.46875 C 3.875 -1.28125 3.5 -0.640625 2.78125 -0.640625 Z M 2.78125 -0.640625 "/>
</g>
<g id="glyph-5-0">
<path d="M 14.34375 -27.734375 L 3.25 -27.734375 L 3.25 9.25 L 14.34375 9.25 Z M 12.9375 -26.375 L 12.9375 7.890625 L 4.671875 7.890625 L 4.671875 -26.375 Z M 8.5625 -11.90625 C 7.53125 -11.90625 6.09375 -11.59375 6.09375 -10.875 C 6.09375 -10.53125 6.34375 -10.265625 6.734375 -10.265625 C 6.84375 -10.265625 6.9375 -10.296875 7.078125 -10.34375 C 7.53125 -10.5625 7.890625 -10.640625 8.453125 -10.640625 C 9.765625 -10.640625 10.0625 -9.84375 10.0625 -8.8125 C 10.0625 -7.421875 9.5625 -6.890625 7.65625 -6.78125 L 7.65625 -4.5625 C 7.65625 -4.171875 7.96875 -3.9375 8.3125 -3.9375 C 8.640625 -3.9375 8.984375 -4.171875 8.984375 -4.5625 L 8.984375 -5.75 C 10.75 -6.015625 11.484375 -7.03125 11.484375 -8.875 C 11.484375 -10.453125 10.828125 -11.90625 8.5625 -11.90625 Z M 8.3125 -3.171875 C 7.796875 -3.171875 7.390625 -2.765625 7.390625 -2.25 C 7.390625 -1.6875 7.796875 -1.265625 8.3125 -1.265625 C 8.84375 -1.265625 9.25 -1.6875 9.25 -2.25 C 9.25 -2.765625 8.84375 -3.171875 8.3125 -3.171875 Z M 8.3125 -3.171875 "/>
</g>
<g id="glyph-5-1">
<path d="M 8.140625 -18.75 C 3.828125 -18.75 0.796875 -15.546875 0.796875 -9.1875 C 0.796875 -2.6875 3.71875 0.453125 8.15625 0.453125 C 10.34375 0.453125 12.09375 -0.65625 13.203125 -1.875 L 11.359375 -4.140625 C 10.4375 -3.375 9.578125 -2.75 8.390625 -2.75 C 6.359375 -2.75 5.09375 -4.515625 5.09375 -9.1875 C 5.09375 -13.96875 6.359375 -15.65625 8.34375 -15.65625 C 9.40625 -15.65625 10.25 -15.1875 11.09375 -14.4375 L 13.046875 -16.734375 C 11.703125 -18.015625 10.171875 -18.75 8.140625 -18.75 Z M 8.140625 -18.75 "/>
</g>
<g id="glyph-5-2">
<path d="M 6.78125 -14.46875 C 3.03125 -14.46875 0.734375 -11.828125 0.734375 -7.03125 C 0.734375 -2.03125 3.0625 0.453125 6.78125 0.453125 C 10.53125 0.453125 12.828125 -2.25 12.828125 -7 C 12.828125 -12.015625 10.515625 -14.46875 6.78125 -14.46875 Z M 6.78125 -11.515625 C 8.109375 -11.515625 8.734375 -10.375 8.734375 -7 C 8.734375 -3.671875 8.109375 -2.484375 6.78125 -2.484375 C 5.46875 -2.484375 4.859375 -3.625 4.859375 -7.03125 C 4.859375 -10.328125 5.5 -11.515625 6.78125 -11.515625 Z M 6.78125 -11.515625 "/>
</g>
<g id="glyph-5-3">
<path d="M 14.921875 -14.46875 C 13.421875 -14.46875 12.3125 -13.671875 11.359375 -12.21875 C 10.875 -13.65625 9.84375 -14.46875 8.5 -14.46875 C 7.046875 -14.46875 5.96875 -13.703125 5.015625 -12.328125 L 4.78125 -14.015625 L 1.296875 -14.015625 L 1.296875 0 L 5.234375 0 L 5.234375 -9.875 C 5.734375 -10.875 6.234375 -11.453125 6.890625 -11.453125 C 7.421875 -11.453125 7.765625 -11.0625 7.765625 -9.796875 L 7.765625 0 L 11.640625 0 L 11.640625 -9.875 C 12.171875 -10.875 12.671875 -11.453125 13.3125 -11.453125 C 13.859375 -11.453125 14.1875 -11.0625 14.1875 -9.796875 L 14.1875 0 L 18.09375 0 L 18.09375 -10.21875 C 18.09375 -12.90625 16.828125 -14.46875 14.921875 -14.46875 Z M 14.921875 -14.46875 "/>
</g>
<g id="glyph-5-4">
<path d="M 8.53125 -14.46875 C 7.15625 -14.46875 5.96875 -13.890625 5.015625 -12.46875 L 4.828125 -14.015625 L 1.296875 -14.015625 L 1.296875 5.828125 L 5.28125 5.40625 L 5.28125 -1 C 6.046875 -0.046875 7 0.453125 8.1875 0.453125 C 11.109375 0.453125 12.96875 -2.515625 12.96875 -7.046875 C 12.96875 -11.78125 11.515625 -14.46875 8.53125 -14.46875 Z M 7 -2.484375 C 6.3125 -2.484375 5.75 -2.90625 5.28125 -3.640625 L 5.28125 -10.015625 C 5.78125 -10.9375 6.421875 -11.546875 7.1875 -11.546875 C 8.21875 -11.546875 8.875 -10.671875 8.875 -7 C 8.875 -3.59375 8.109375 -2.484375 7 -2.484375 Z M 7 -2.484375 "/>
</g>
<g id="glyph-5-5">
<path d="M 11.21875 -3.796875 L 11.21875 -9.5625 C 11.21875 -12.890625 9.609375 -14.46875 6.171875 -14.46875 C 4.671875 -14.46875 2.90625 -14.09375 1.40625 -13.421875 L 2.265625 -10.90625 C 3.484375 -11.328125 4.515625 -11.59375 5.4375 -11.59375 C 6.84375 -11.59375 7.34375 -11.0625 7.34375 -9.34375 L 7.34375 -8.640625 L 6.3125 -8.640625 C 2.53125 -8.640625 0.53125 -6.96875 0.53125 -3.9375 C 0.53125 -1.296875 2.0625 0.453125 4.484375 0.453125 C 5.890625 0.453125 7.203125 -0.109375 8.15625 -1.5625 C 8.6875 -0.265625 9.6875 0.234375 11.203125 0.375 L 12.015625 -2.25 C 11.4375 -2.484375 11.21875 -2.859375 11.21875 -3.796875 Z M 5.703125 -2.375 C 4.90625 -2.375 4.4375 -3.03125 4.4375 -4.28125 C 4.4375 -5.734375 5.15625 -6.421875 6.6875 -6.421875 L 7.34375 -6.421875 L 7.34375 -3.71875 C 6.96875 -2.875 6.421875 -2.375 5.703125 -2.375 Z M 5.703125 -2.375 "/>
</g>
<g id="glyph-5-6">
<path d="M 8.234375 -14.421875 C 6.734375 -14.421875 5.703125 -13.390625 5.0625 -11.625 L 4.78125 -14.015625 L 1.296875 -14.015625 L 1.296875 0 L 5.28125 0 L 5.28125 -7.390625 C 5.671875 -9.265625 6.234375 -10.53125 7.703125 -10.53125 C 8.109375 -10.53125 8.421875 -10.484375 8.765625 -10.375 L 9.421875 -14.203125 C 9.0625 -14.34375 8.6875 -14.421875 8.234375 -14.421875 Z M 8.234375 -14.421875 "/>
</g>
<g id="glyph-5-7">
<path d="M 3.296875 -21.28125 C 1.921875 -21.28125 1 -20.3125 1 -19.015625 C 1 -17.71875 1.921875 -16.734375 3.296875 -16.734375 C 4.640625 -16.734375 5.578125 -17.71875 5.578125 -19.015625 C 5.578125 -20.3125 4.640625 -21.28125 3.296875 -21.28125 Z M 5.28125 -14.015625 L 1.296875 -14.015625 L 1.296875 0 L 5.28125 0 Z M 5.28125 -14.015625 "/>
</g>
<g id="glyph-5-8">
<path d="M 8.6875 -14.46875 C 7.125 -14.46875 6.015625 -13.734375 5.0625 -12.359375 L 4.78125 -14.015625 L 1.296875 -14.015625 L 1.296875 0 L 5.28125 0 L 5.28125 -9.75 C 5.890625 -10.796875 6.5 -11.4375 7.15625 -11.4375 C 7.734375 -11.4375 8.078125 -11.03125 8.078125 -9.765625 L 8.078125 0 L 12.0625 0 L 12.0625 -10.21875 C 12.0625 -12.90625 10.796875 -14.46875 8.6875 -14.46875 Z M 8.6875 -14.46875 "/>
</g>
<g id="glyph-5-9">
<path d="M 11.703125 -16.109375 C 10.25 -15.234375 8.796875 -14.390625 6.171875 -14.421875 C 2.71875 -14.4375 0.546875 -12.546875 0.546875 -9.34375 C 0.546875 -7.453125 1.234375 -6.265625 2.765625 -5.328125 C 1.90625 -4.734375 1.265625 -3.796875 1.265625 -2.71875 C 1.265625 -1.15625 2.375 0 5.25 0 L 6.578125 0 C 7.84375 0 8.421875 0.53125 8.421875 1.53125 C 8.421875 2.515625 7.875 3.21875 5.96875 3.21875 C 3.984375 3.21875 3.5625 2.609375 3.5625 1.34375 L 0 1.34375 C 0 4.09375 1.1875 5.828125 5.9375 5.828125 C 10.171875 5.828125 12.40625 4.015625 12.40625 1.234375 C 12.40625 -1.078125 10.59375 -2.71875 7.46875 -2.71875 L 5.921875 -2.71875 C 4.75 -2.71875 4.515625 -3.109375 4.515625 -3.640625 C 4.515625 -4.015625 4.671875 -4.359375 4.96875 -4.546875 C 5.359375 -4.4375 5.8125 -4.390625 6.3125 -4.390625 C 9.578125 -4.390625 11.5625 -6.3125 11.5625 -9.0625 C 11.5625 -10.90625 10.78125 -11.984375 9.1875 -12.703125 C 10.75 -12.703125 11.859375 -12.859375 12.65625 -13.25 Z M 6.15625 -11.828125 C 7.203125 -11.828125 7.796875 -11.203125 7.796875 -9.484375 C 7.796875 -7.609375 7.203125 -6.9375 6.125 -6.9375 C 5.09375 -6.9375 4.46875 -7.6875 4.46875 -9.40625 C 4.46875 -11.109375 5.0625 -11.828125 6.15625 -11.828125 Z M 6.15625 -11.828125 "/>
</g>
<g id="glyph-5-10">
</g>
<g id="glyph-5-11">
<path d="M 5.671875 -14.46875 C 2.453125 -14.46875 0.609375 -12.59375 0.609375 -10.140625 C 0.609375 -8.109375 1.640625 -6.890625 4.140625 -5.9375 C 6.203125 -5.171875 6.625 -4.75 6.625 -3.78125 C 6.625 -2.90625 6.015625 -2.375 4.984375 -2.375 C 3.875 -2.375 2.796875 -2.953125 1.875 -3.703125 L 0 -1.609375 C 1.234375 -0.34375 3.0625 0.453125 5.171875 0.453125 C 8.34375 0.453125 10.6875 -1.265625 10.6875 -4.125 C 10.6875 -6.4375 9.40625 -7.578125 7.046875 -8.453125 C 4.96875 -9.265625 4.546875 -9.640625 4.546875 -10.4375 C 4.546875 -11.171875 5.09375 -11.625 6.015625 -11.625 C 6.96875 -11.625 7.875 -11.21875 8.8125 -10.59375 L 10.265625 -12.75 C 9.109375 -13.8125 7.53125 -14.46875 5.671875 -14.46875 Z M 5.671875 -14.46875 "/>
</g>
<g id="glyph-5-12">
<path d="M 7.875 -3.09375 C 7.421875 -2.859375 7.078125 -2.71875 6.65625 -2.71875 C 5.9375 -2.71875 5.578125 -3.140625 5.578125 -4.015625 L 5.578125 -11.25 L 7.921875 -11.25 L 8.34375 -14.015625 L 5.578125 -14.015625 L 5.578125 -17.53125 L 1.578125 -17.078125 L 1.578125 -14.015625 L 0.03125 -14.015625 L 0.03125 -11.25 L 1.578125 -11.25 L 1.578125 -3.96875 C 1.578125 -1.328125 2.90625 0.453125 5.75 0.453125 C 6.859375 0.453125 8.234375 0.109375 9.1875 -0.65625 Z M 7.875 -3.09375 "/>
</g>
<g id="glyph-5-13">
<path d="M 6.890625 -14.46875 C 3.109375 -14.46875 0.734375 -11.5625 0.734375 -6.890625 C 0.734375 -2.296875 3.09375 0.453125 6.9375 0.453125 C 8.640625 0.453125 9.984375 -0.1875 11.09375 -1.1875 L 9.34375 -3.515625 C 8.5625 -2.953125 7.96875 -2.671875 7.203125 -2.671875 C 5.859375 -2.671875 4.90625 -3.53125 4.90625 -6.921875 C 4.90625 -10.40625 5.75 -11.4375 7.203125 -11.4375 C 8 -11.4375 8.65625 -11.109375 9.421875 -10.53125 L 11.0625 -12.75 C 9.921875 -13.890625 8.578125 -14.46875 6.890625 -14.46875 Z M 6.890625 -14.46875 "/>
</g>
<g id="glyph-5-14">
<path d="M 4.75 0.453125 C 5.65625 0.453125 6.5 0.21875 7.03125 -0.046875 L 6.28125 -2.796875 C 6.15625 -2.75 5.96875 -2.71875 5.75 -2.71875 C 5.328125 -2.71875 5.15625 -2.953125 5.15625 -3.4375 L 5.15625 -20.015625 L 1.15625 -19.59375 L 1.15625 -3.25 C 1.15625 -0.984375 2.484375 0.453125 4.75 0.453125 Z M 4.75 0.453125 "/>
</g>
<g id="glyph-5-15">
<path d="M 11.828125 -14.015625 L 7.84375 -14.015625 L 7.84375 -4.015625 C 7.390625 -3.09375 6.84375 -2.515625 6.15625 -2.515625 C 5.515625 -2.515625 5.203125 -2.953125 5.203125 -3.90625 L 5.203125 -14.015625 L 1.21875 -14.015625 L 1.21875 -3.703125 C 1.21875 -1.21875 2.453125 0.453125 4.625 0.453125 C 6.203125 0.453125 7.3125 -0.296875 8.1875 -1.65625 L 8.34375 0 L 11.828125 0 Z M 11.828125 -14.015625 "/>
</g>
<g id="glyph-5-16">
<path d="M 12.3125 -7.28125 C 12.3125 -12.046875 10.0625 -14.46875 6.578125 -14.46875 C 2.75 -14.46875 0.734375 -11.359375 0.734375 -6.921875 C 0.734375 -2.421875 2.828125 0.453125 6.96875 0.453125 C 9.0625 0.453125 10.671875 -0.375 11.828125 -1.484375 L 10.21875 -3.640625 C 9.1875 -2.859375 8.34375 -2.484375 7.265625 -2.484375 C 5.859375 -2.484375 4.9375 -3.171875 4.734375 -5.828125 L 12.21875 -5.828125 C 12.25 -6.234375 12.3125 -6.84375 12.3125 -7.28125 Z M 8.421875 -8.21875 L 4.734375 -8.21875 C 4.859375 -11.03125 5.515625 -11.828125 6.625 -11.828125 C 7.953125 -11.828125 8.390625 -10.671875 8.421875 -8.421875 Z M 8.421875 -8.21875 "/>
</g>
</g>
<clipPath id="clip-0">
<path clip-rule="nonzero" d="M 76.671875 48.398438 L 790.5625 48.398438 L 790.5625 413.96875 L 76.671875 413.96875 Z M 76.671875 48.398438 "/>
</clipPath>
<clipPath id="clip-1">
<path clip-rule="nonzero" d="M 76.671875 350 L 790.5625 350 L 790.5625 351 L 76.671875 351 Z M 76.671875 350 "/>
</clipPath>
<clipPath id="clip-2">
<path clip-rule="nonzero" d="M 76.671875 257 L 790.5625 257 L 790.5625 258 L 76.671875 258 Z M 76.671875 257 "/>
</clipPath>
<clipPath id="clip-3">
<path clip-rule="nonzero" d="M 76.671875 164 L 790.5625 164 L 790.5625 165 L 76.671875 165 Z M 76.671875 164 "/>
</clipPath>
<clipPath id="clip-4">
<path clip-rule="nonzero" d="M 76.671875 71 L 790.5625 71 L 790.5625 72 L 76.671875 72 Z M 76.671875 71 "/>
</clipPath>
<clipPath id="clip-5">
<path clip-rule="nonzero" d="M 76.671875 397 L 790.5625 397 L 790.5625 398 L 76.671875 398 Z M 76.671875 397 "/>
</clipPath>
<clipPath id="clip-6">
<path clip-rule="nonzero" d="M 76.671875 304 L 790.5625 304 L 790.5625 305 L 76.671875 305 Z M 76.671875 304 "/>
</clipPath>
<clipPath id="clip-7">
<path clip-rule="nonzero" d="M 76.671875 211 L 790.5625 211 L 790.5625 212 L 76.671875 212 Z M 76.671875 211 "/>
</clipPath>
<clipPath id="clip-8">
<path clip-rule="nonzero" d="M 76.671875 117 L 790.5625 117 L 790.5625 119 L 76.671875 119 Z M 76.671875 117 "/>
</clipPath>
<clipPath id="clip-9">
<path clip-rule="nonzero" d="M 135 48.398438 L 137 48.398438 L 137 413.96875 L 135 413.96875 Z M 135 48.398438 "/>
</clipPath>
<clipPath id="clip-10">
<path clip-rule="nonzero" d="M 235 48.398438 L 236 48.398438 L 236 413.96875 L 235 413.96875 Z M 235 48.398438 "/>
</clipPath>
<clipPath id="clip-11">
<path clip-rule="nonzero" d="M 334 48.398438 L 335 48.398438 L 335 413.96875 L 334 413.96875 Z M 334 48.398438 "/>
</clipPath>
<clipPath id="clip-12">
<path clip-rule="nonzero" d="M 433 48.398438 L 434 48.398438 L 434 413.96875 L 433 413.96875 Z M 433 48.398438 "/>
</clipPath>
<clipPath id="clip-13">
<path clip-rule="nonzero" d="M 532 48.398438 L 533 48.398438 L 533 413.96875 L 532 413.96875 Z M 532 48.398438 "/>
</clipPath>
<clipPath id="clip-14">
<path clip-rule="nonzero" d="M 631 48.398438 L 633 48.398438 L 633 413.96875 L 631 413.96875 Z M 631 48.398438 "/>
</clipPath>
<clipPath id="clip-15">
<path clip-rule="nonzero" d="M 730 48.398438 L 732 48.398438 L 732 413.96875 L 730 413.96875 Z M 730 48.398438 "/>
</clipPath>
<clipPath id="clip-16">
<path clip-rule="nonzero" d="M 76.671875 396 L 790.5625 396 L 790.5625 398 L 76.671875 398 Z M 76.671875 396 "/>
</clipPath>
<clipPath id="clip-17">
<path clip-rule="nonzero" d="M 76.671875 48.398438 L 790.5625 48.398438 L 790.5625 413.96875 L 76.671875 413.96875 Z M 76.671875 48.398438 "/>
</clipPath>
</defs>
<rect x="-79.2" y="-50.4" width="950.4" height="604.8" fill="rgb(100%, 100%, 100%)" fill-opacity="1"/>
<rect x="-79.2" y="-50.4" width="950.4" height="604.8" fill="rgb(100%, 100%, 100%)" fill-opacity="1"/>
<g clip-path="url(#clip-0)">
<path fill="none" stroke-width="1.066978" stroke-linecap="round" stroke-linejoin="round" stroke="rgb(100%, 100%, 100%)" stroke-opacity="1" stroke-miterlimit="10" d="M 76.671875 413.972656 L 790.5625 413.972656 L 790.5625 48.402344 L 76.671875 48.402344 Z M 76.671875 413.972656 "/>
</g>
<g clip-path="url(#clip-1)">
<path fill="none" stroke-width="0.213396" stroke-linecap="butt" stroke-linejoin="round" stroke="rgb(74.509804%, 74.509804%, 74.509804%)" stroke-opacity="1" stroke-dasharray="3 3" stroke-miterlimit="10" d="M 76.671875 350.820312 L 790.558594 350.820312 "/>
</g>
<g clip-path="url(#clip-2)">
<path fill="none" stroke-width="0.213396" stroke-linecap="butt" stroke-linejoin="round" stroke="rgb(74.509804%, 74.509804%, 74.509804%)" stroke-opacity="1" stroke-dasharray="3 3" stroke-miterlimit="10" d="M 76.671875 257.753906 L 790.558594 257.753906 "/>
</g>
<g clip-path="url(#clip-3)">
<path fill="none" stroke-width="0.213396" stroke-linecap="butt" stroke-linejoin="round" stroke="rgb(74.509804%, 74.509804%, 74.509804%)" stroke-opacity="1" stroke-dasharray="3 3" stroke-miterlimit="10" d="M 76.671875 164.6875 L 790.558594 164.6875 "/>
</g>
<g clip-path="url(#clip-4)">
<path fill="none" stroke-width="0.213396" stroke-linecap="butt" stroke-linejoin="round" stroke="rgb(74.509804%, 74.509804%, 74.509804%)" stroke-opacity="1" stroke-dasharray="3 3" stroke-miterlimit="10" d="M 76.671875 71.625 L 790.558594 71.625 "/>
</g>
<g clip-path="url(#clip-5)">
<path fill="none" stroke-width="0.426791" stroke-linecap="butt" stroke-linejoin="round" stroke="rgb(74.509804%, 74.509804%, 74.509804%)" stroke-opacity="1" stroke-dasharray="3 3" stroke-miterlimit="10" d="M 76.671875 397.355469 L 790.558594 397.355469 "/>
</g>
<g clip-path="url(#clip-6)">
<path fill="none" stroke-width="0.426791" stroke-linecap="butt" stroke-linejoin="round" stroke="rgb(74.509804%, 74.509804%, 74.509804%)" stroke-opacity="1" stroke-dasharray="3 3" stroke-miterlimit="10" d="M 76.671875 304.289062 L 790.558594 304.289062 "/>
</g>
<g clip-path="url(#clip-7)">
<path fill="none" stroke-width="0.426791" stroke-linecap="butt" stroke-linejoin="round" stroke="rgb(74.509804%, 74.509804%, 74.509804%)" stroke-opacity="1" stroke-dasharray="3 3" stroke-miterlimit="10" d="M 76.671875 211.222656 L 790.558594 211.222656 "/>
</g>
<g clip-path="url(#clip-8)">
<path fill="none" stroke-width="0.426791" stroke-linecap="butt" stroke-linejoin="round" stroke="rgb(74.509804%, 74.509804%, 74.509804%)" stroke-opacity="1" stroke-dasharray="3 3" stroke-miterlimit="10" d="M 76.671875 118.15625 L 790.558594 118.15625 "/>
</g>
<g clip-path="url(#clip-9)">
<path fill="none" stroke-width="0.426791" stroke-linecap="butt" stroke-linejoin="round" stroke="rgb(74.509804%, 74.509804%, 74.509804%)" stroke-opacity="1" stroke-dasharray="3 3" stroke-miterlimit="10" d="M 136.160156 413.972656 L 136.160156 48.398438 "/>
</g>
<g clip-path="url(#clip-10)">
<path fill="none" stroke-width="0.426791" stroke-linecap="butt" stroke-linejoin="round" stroke="rgb(74.509804%, 74.509804%, 74.509804%)" stroke-opacity="1" stroke-dasharray="3 3" stroke-miterlimit="10" d="M 235.3125 413.972656 L 235.3125 48.398438 "/>
</g>
<g clip-path="url(#clip-11)">
<path fill="none" stroke-width="0.426791" stroke-linecap="butt" stroke-linejoin="round" stroke="rgb(74.509804%, 74.509804%, 74.509804%)" stroke-opacity="1" stroke-dasharray="3 3" stroke-miterlimit="10" d="M 334.464844 413.972656 L 334.464844 48.398438 "/>
</g>
<g clip-path="url(#clip-12)">
<path fill="none" stroke-width="0.426791" stroke-linecap="butt" stroke-linejoin="round" stroke="rgb(74.509804%, 74.509804%, 74.509804%)" stroke-opacity="1" stroke-dasharray="3 3" stroke-miterlimit="10" d="M 433.617188 413.972656 L 433.617188 48.398438 "/>
</g>
<g clip-path="url(#clip-13)">
<path fill="none" stroke-width="0.426791" stroke-linecap="butt" stroke-linejoin="round" stroke="rgb(74.509804%, 74.509804%, 74.509804%)" stroke-opacity="1" stroke-dasharray="3 3" stroke-miterlimit="10" d="M 532.765625 413.972656 L 532.765625 48.398438 "/>
</g>
<g clip-path="url(#clip-14)">
<path fill="none" stroke-width="0.426791" stroke-linecap="butt" stroke-linejoin="round" stroke="rgb(74.509804%, 74.509804%, 74.509804%)" stroke-opacity="1" stroke-dasharray="3 3" stroke-miterlimit="10" d="M 631.917969 413.972656 L 631.917969 48.398438 "/>
</g>
<g clip-path="url(#clip-15)">
<path fill="none" stroke-width="0.426791" stroke-linecap="butt" stroke-linejoin="round" stroke="rgb(74.509804%, 74.509804%, 74.509804%)" stroke-opacity="1" stroke-dasharray="3 3" stroke-miterlimit="10" d="M 731.070312 413.972656 L 731.070312 48.398438 "/>
</g>
<path fill-rule="nonzero" fill="rgb(90.196078%, 25.490196%, 45.098039%)" fill-opacity="1" d="M 91.542969 397.355469 L 180.777344 397.355469 L 180.777344 65.015625 L 91.542969 65.015625 Z M 91.542969 397.355469 "/>
<path fill-rule="nonzero" fill="rgb(90.196078%, 25.490196%, 45.098039%)" fill-opacity="1" d="M 190.695312 397.355469 L 279.929688 397.355469 L 279.929688 189.582031 L 190.695312 189.582031 Z M 190.695312 397.355469 "/>
<path fill-rule="nonzero" fill="rgb(90.196078%, 25.490196%, 45.098039%)" fill-opacity="1" d="M 289.847656 397.355469 L 379.082031 397.355469 L 379.082031 246.054688 L 289.847656 246.054688 Z M 289.847656 397.355469 "/>
<path fill-rule="nonzero" fill="rgb(18.431373%, 30.980392%, 30.980392%)" fill-opacity="1" d="M 388.996094 397.355469 L 478.230469 397.355469 L 478.230469 317.804688 L 388.996094 317.804688 Z M 388.996094 397.355469 "/>
<path fill-rule="nonzero" fill="rgb(18.431373%, 30.980392%, 30.980392%)" fill-opacity="1" d="M 488.148438 397.355469 L 577.382812 397.355469 L 577.382812 361.792969 L 488.148438 361.792969 Z M 488.148438 397.355469 "/>
<path fill-rule="nonzero" fill="rgb(18.431373%, 30.980392%, 30.980392%)" fill-opacity="1" d="M 587.300781 397.355469 L 676.535156 397.355469 L 676.535156 385.824219 L 587.300781 385.824219 Z M 587.300781 397.355469 "/>
<path fill-rule="nonzero" fill="rgb(18.431373%, 30.980392%, 30.980392%)" fill-opacity="1" d="M 686.453125 397.355469 L 775.6875 397.355469 L 775.6875 392.316406 L 686.453125 392.316406 Z M 686.453125 397.355469 "/>
<g clip-path="url(#clip-16)">
<path fill="none" stroke-width="1.066978" stroke-linecap="butt" stroke-linejoin="round" stroke="rgb(0%, 0%, 0%)" stroke-opacity="1" stroke-miterlimit="10" d="M 76.671875 397.355469 L 790.558594 397.355469 "/>
</g>
<g clip-path="url(#clip-17)">
<path fill="none" stroke-width="1.066978" stroke-linecap="round" stroke-linejoin="round" stroke="rgb(100%, 100%, 100%)" stroke-opacity="1" stroke-miterlimit="10" d="M 76.671875 413.972656 L 790.5625 413.972656 L 790.5625 48.402344 L 76.671875 48.402344 Z M 76.671875 413.972656 "/>
</g>
<g fill="rgb(0%, 0%, 0%)" fill-opacity="1">
<use xlink:href="#glyph-0-1" x="62.738281" y="403.310547"/>
</g>
<g fill="rgb(0%, 0%, 0%)" fill-opacity="1">
<use xlink:href="#glyph-0-2" x="23.738281" y="310.244141"/>
<use xlink:href="#glyph-0-1" x="31.738281" y="310.244141"/>
<use xlink:href="#glyph-0-3" x="40.738281" y="310.244141"/>
<use xlink:href="#glyph-0-1" x="44.738281" y="310.244141"/>
<use xlink:href="#glyph-0-1" x="53.738281" y="310.244141"/>
<use xlink:href="#glyph-0-1" x="62.738281" y="310.244141"/>
</g>
<g fill="rgb(0%, 0%, 0%)" fill-opacity="1">
<use xlink:href="#glyph-0-4" x="23.738281" y="217.177734"/>
<use xlink:href="#glyph-0-1" x="31.738281" y="217.177734"/>
<use xlink:href="#glyph-0-3" x="40.738281" y="217.177734"/>
<use xlink:href="#glyph-0-1" x="44.738281" y="217.177734"/>
<use xlink:href="#glyph-0-1" x="53.738281" y="217.177734"/>
<use xlink:href="#glyph-0-1" x="62.738281" y="217.177734"/>
</g>
<g fill="rgb(0%, 0%, 0%)" fill-opacity="1">
<use xlink:href="#glyph-0-5" x="23.738281" y="124.111328"/>
<use xlink:href="#glyph-0-1" x="31.738281" y="124.111328"/>
<use xlink:href="#glyph-0-3" x="40.738281" y="124.111328"/>
<use xlink:href="#glyph-0-1" x="44.738281" y="124.111328"/>
<use xlink:href="#glyph-0-1" x="53.738281" y="124.111328"/>
<use xlink:href="#glyph-0-1" x="62.738281" y="124.111328"/>
</g>
<path fill="none" stroke-width="0.426791" stroke-linecap="butt" stroke-linejoin="round" stroke="rgb(74.509804%, 74.509804%, 74.509804%)" stroke-opacity="1" stroke-miterlimit="10" d="M 73.929688 397.355469 L 76.671875 397.355469 "/>
<path fill="none" stroke-width="0.426791" stroke-linecap="butt" stroke-linejoin="round" stroke="rgb(74.509804%, 74.509804%, 74.509804%)" stroke-opacity="1" stroke-miterlimit="10" d="M 73.929688 304.289062 L 76.671875 304.289062 "/>
<path fill="none" stroke-width="0.426791" stroke-linecap="butt" stroke-linejoin="round" stroke="rgb(74.509804%, 74.509804%, 74.509804%)" stroke-opacity="1" stroke-miterlimit="10" d="M 73.929688 211.222656 L 76.671875 211.222656 "/>
<path fill="none" stroke-width="0.426791" stroke-linecap="butt" stroke-linejoin="round" stroke="rgb(74.509804%, 74.509804%, 74.509804%)" stroke-opacity="1" stroke-miterlimit="10" d="M 73.929688 118.15625 L 76.671875 118.15625 "/>
<path fill="none" stroke-width="0.426791" stroke-linecap="butt" stroke-linejoin="round" stroke="rgb(74.509804%, 74.509804%, 74.509804%)" stroke-opacity="1" stroke-miterlimit="10" d="M 136.160156 416.710938 L 136.160156 413.972656 "/>
<path fill="none" stroke-width="0.426791" stroke-linecap="butt" stroke-linejoin="round" stroke="rgb(74.509804%, 74.509804%, 74.509804%)" stroke-opacity="1" stroke-miterlimit="10" d="M 235.3125 416.710938 L 235.3125 413.972656 "/>
<path fill="none" stroke-width="0.426791" stroke-linecap="butt" stroke-linejoin="round" stroke="rgb(74.509804%, 74.509804%, 74.509804%)" stroke-opacity="1" stroke-miterlimit="10" d="M 334.464844 416.710938 L 334.464844 413.972656 "/>
<path fill="none" stroke-width="0.426791" stroke-linecap="butt" stroke-linejoin="round" stroke="rgb(74.509804%, 74.509804%, 74.509804%)" stroke-opacity="1" stroke-miterlimit="10" d="M 433.617188 416.710938 L 433.617188 413.972656 "/>
<path fill="none" stroke-width="0.426791" stroke-linecap="butt" stroke-linejoin="round" stroke="rgb(74.509804%, 74.509804%, 74.509804%)" stroke-opacity="1" stroke-miterlimit="10" d="M 532.765625 416.710938 L 532.765625 413.972656 "/>
<path fill="none" stroke-width="0.426791" stroke-linecap="butt" stroke-linejoin="round" stroke="rgb(74.509804%, 74.509804%, 74.509804%)" stroke-opacity="1" stroke-miterlimit="10" d="M 631.917969 416.710938 L 631.917969 413.972656 "/>
<path fill="none" stroke-width="0.426791" stroke-linecap="butt" stroke-linejoin="round" stroke="rgb(74.509804%, 74.509804%, 74.509804%)" stroke-opacity="1" stroke-miterlimit="10" d="M 731.070312 416.710938 L 731.070312 413.972656 "/>
<g fill="rgb(0%, 0%, 0%)" fill-opacity="1">
<use xlink:href="#glyph-0-6" x="123.160156" y="431.357422"/>
<use xlink:href="#glyph-0-7" x="131.160156" y="431.357422"/>
<use xlink:href="#glyph-0-8" x="142.160156" y="431.357422"/>
</g>
<g fill="rgb(0%, 0%, 0%)" fill-opacity="1">
<use xlink:href="#glyph-0-9" x="210.3125" y="431.357422"/>
<use xlink:href="#glyph-0-10" x="219.3125" y="431.357422"/>
<use xlink:href="#glyph-0-11" x="227.3125" y="431.357422"/>
<use xlink:href="#glyph-0-12" x="233.3125" y="431.357422"/>
<use xlink:href="#glyph-0-13" x="242.3125" y="431.357422"/>
<use xlink:href="#glyph-0-14" x="251.3125" y="431.357422"/>
</g>
<g fill="rgb(0%, 0%, 0%)" fill-opacity="1">
<use xlink:href="#glyph-0-15" x="329.964844" y="431.357422"/>
</g>
<g fill="rgb(0%, 0%, 0%)" fill-opacity="1">
<use xlink:href="#glyph-0-6" x="421.117188" y="431.357422"/>
<use xlink:href="#glyph-0-16" x="429.117188" y="431.357422"/>
<use xlink:href="#glyph-0-6" x="438.117188" y="431.357422"/>
</g>
<g fill="rgb(0%, 0%, 0%)" fill-opacity="1">
<use xlink:href="#glyph-0-17" x="509.265625" y="431.357422"/>
<use xlink:href="#glyph-0-18" x="521.265625" y="431.357422"/>
<use xlink:href="#glyph-0-11" x="529.265625" y="431.357422"/>
<use xlink:href="#glyph-0-19" x="535.265625" y="431.357422"/>
<use xlink:href="#glyph-0-18" x="539.265625" y="431.357422"/>
<use xlink:href="#glyph-0-20" x="547.265625" y="431.357422"/>
</g>
<g fill="rgb(0%, 0%, 0%)" fill-opacity="1">
<use xlink:href="#glyph-0-6" x="615.417969" y="431.357422"/>
<use xlink:href="#glyph-0-9" x="623.417969" y="431.357422"/>
<use xlink:href="#glyph-0-6" x="632.417969" y="431.357422"/>
<use xlink:href="#glyph-0-6" x="640.417969" y="431.357422"/>
</g>
<g fill="rgb(0%, 0%, 0%)" fill-opacity="1">
<use xlink:href="#glyph-0-6" x="713.070312" y="431.357422"/>
<use xlink:href="#glyph-0-11" x="721.070312" y="431.357422"/>
<use xlink:href="#glyph-0-18" x="727.070312" y="431.357422"/>
<use xlink:href="#glyph-0-11" x="735.070312" y="431.357422"/>
<use xlink:href="#glyph-0-18" x="741.070312" y="431.357422"/>
</g>
<g fill="rgb(0%, 0%, 0%)" fill-opacity="1">
<use xlink:href="#glyph-1-1" x="349.617188" y="454.210938"/>
<use xlink:href="#glyph-1-2" x="359.617188" y="454.210938"/>
<use xlink:href="#glyph-1-3" x="366.617188" y="454.210938"/>
<use xlink:href="#glyph-1-2" x="376.617188" y="454.210938"/>
<use xlink:href="#glyph-1-4" x="383.617188" y="454.210938"/>
<use xlink:href="#glyph-1-5" x="388.617188" y="454.210938"/>
<use xlink:href="#glyph-1-2" x="397.617188" y="454.210938"/>
<use xlink:href="#glyph-1-4" x="404.617188" y="454.210938"/>
<use xlink:href="#glyph-1-6" x="409.617188" y="454.210938"/>
<use xlink:href="#glyph-1-3" x="418.617188" y="454.210938"/>
<use xlink:href="#glyph-1-7" x="428.617188" y="454.210938"/>
<use xlink:href="#glyph-1-8" x="434.617188" y="454.210938"/>
<use xlink:href="#glyph-1-7" x="439.617188" y="454.210938"/>
<use xlink:href="#glyph-1-3" x="445.617188" y="454.210938"/>
<use xlink:href="#glyph-1-9" x="455.617188" y="454.210938"/>
<use xlink:href="#glyph-1-10" x="466.617188" y="454.210938"/>
<use xlink:href="#glyph-1-11" x="476.617188" y="454.210938"/>
<use xlink:href="#glyph-1-3" x="487.617188" y="454.210938"/>
<use xlink:href="#glyph-1-10" x="497.617188" y="454.210938"/>
<use xlink:href="#glyph-1-12" x="507.617188" y="454.210938"/>
</g>
<g fill="rgb(0%, 0%, 0%)" fill-opacity="1">
<use xlink:href="#glyph-2-1" x="15.570312" y="296.683594"/>
<use xlink:href="#glyph-2-2" x="15.570312" y="283.683594"/>
<use xlink:href="#glyph-2-3" x="15.570313" y="272.683594"/>
<use xlink:href="#glyph-2-4" x="15.570313" y="256.683594"/>
<use xlink:href="#glyph-2-5" x="15.570313" y="245.683594"/>
<use xlink:href="#glyph-2-6" x="15.570313" y="235.683594"/>
<use xlink:href="#glyph-2-7" x="15.570313" y="228.683594"/>
<use xlink:href="#glyph-2-8" x="15.570313" y="223.683594"/>
<use xlink:href="#glyph-2-9" x="15.570313" y="212.683594"/>
<use xlink:href="#glyph-2-7" x="15.570313" y="206.683594"/>
<use xlink:href="#glyph-2-10" x="15.570313" y="201.683594"/>
<use xlink:href="#glyph-2-8" x="15.570313" y="196.683594"/>
<use xlink:href="#glyph-2-4" x="15.570313" y="185.683594"/>
<use xlink:href="#glyph-2-11" x="15.570313" y="174.683594"/>
</g>
<path fill-rule="nonzero" fill="rgb(100%, 100%, 100%)" fill-opacity="1" d="M 345.398438 502.558594 L 521.835938 502.558594 L 521.835938 470.601562 L 345.398438 470.601562 Z M 345.398438 502.558594 "/>
<g fill="rgb(0%, 0%, 0%)" fill-opacity="1">
<use xlink:href="#glyph-3-1" x="350.875" y="494.152344"/>
<use xlink:href="#glyph-3-2" x="359.875" y="494.152344"/>
<use xlink:href="#glyph-3-3" x="366.875" y="494.152344"/>
<use xlink:href="#glyph-3-3" x="376.875" y="494.152344"/>
<use xlink:href="#glyph-3-4" x="386.875" y="494.152344"/>
</g>
<path fill-rule="nonzero" fill="rgb(90.196078%, 25.490196%, 45.098039%)" fill-opacity="1" d="M 402.066406 494.511719 L 417.929688 494.511719 L 417.929688 478.648438 L 402.066406 478.648438 Z M 402.066406 494.511719 "/>
<path fill-rule="nonzero" fill="rgb(18.431373%, 30.980392%, 30.980392%)" fill-opacity="1" d="M 460.304688 494.511719 L 476.167969 494.511719 L 476.167969 478.648438 L 460.304688 478.648438 Z M 460.304688 494.511719 "/>
<g fill="rgb(0%, 0%, 0%)" fill-opacity="1">
<use xlink:href="#glyph-0-21" x="424.117188" y="492.537109"/>
<use xlink:href="#glyph-0-22" x="431.117188" y="492.537109"/>
<use xlink:href="#glyph-0-23" x="437.117188" y="492.537109"/>
<use xlink:href="#glyph-0-24" x="446.117188" y="492.537109"/>
</g>
<g fill="rgb(0%, 0%, 0%)" fill-opacity="1">
<use xlink:href="#glyph-0-25" x="482.355469" y="492.537109"/>
<use xlink:href="#glyph-0-18" x="489.355469" y="492.537109"/>
<use xlink:href="#glyph-0-19" x="497.355469" y="492.537109"/>
<use xlink:href="#glyph-0-26" x="501.355469" y="492.537109"/>
<use xlink:href="#glyph-0-24" x="508.355469" y="492.537109"/>
</g>
<g fill="rgb(0%, 0%, 0%)" fill-opacity="1">
<use xlink:href="#glyph-4-1" x="76.671875" y="39.203125"/>
<use xlink:href="#glyph-4-2" x="82.671875" y="39.203125"/>
<use xlink:href="#glyph-4-3" x="88.671875" y="39.203125"/>
<use xlink:href="#glyph-4-4" x="96.671875" y="39.203125"/>
<use xlink:href="#glyph-4-5" x="102.671875" y="39.203125"/>
<use xlink:href="#glyph-4-6" x="107.671875" y="39.203125"/>
<use xlink:href="#glyph-4-7" x="111.671875" y="39.203125"/>
<use xlink:href="#glyph-4-8" x="113.671875" y="39.203125"/>
<use xlink:href="#glyph-4-9" x="119.671875" y="39.203125"/>
<use xlink:href="#glyph-4-7" x="122.671875" y="39.203125"/>
<use xlink:href="#glyph-4-10" x="124.671875" y="39.203125"/>
<use xlink:href="#glyph-4-8" x="127.671875" y="39.203125"/>
<use xlink:href="#glyph-4-4" x="133.671875" y="39.203125"/>
<use xlink:href="#glyph-4-7" x="139.671875" y="39.203125"/>
<use xlink:href="#glyph-4-11" x="141.671875" y="39.203125"/>
<use xlink:href="#glyph-4-8" x="147.671875" y="39.203125"/>
<use xlink:href="#glyph-4-12" x="153.671875" y="39.203125"/>
<use xlink:href="#glyph-4-13" x="157.671875" y="39.203125"/>
<use xlink:href="#glyph-4-14" x="160.671875" y="39.203125"/>
<use xlink:href="#glyph-4-15" x="163.671875" y="39.203125"/>
<use xlink:href="#glyph-4-16" x="169.671875" y="39.203125"/>
<use xlink:href="#glyph-4-12" x="174.671875" y="39.203125"/>
<use xlink:href="#glyph-4-7" x="178.671875" y="39.203125"/>
<use xlink:href="#glyph-4-8" x="180.671875" y="39.203125"/>
<use xlink:href="#glyph-4-15" x="186.671875" y="39.203125"/>
<use xlink:href="#glyph-4-7" x="192.671875" y="39.203125"/>
<use xlink:href="#glyph-4-17" x="194.671875" y="39.203125"/>
<use xlink:href="#glyph-4-15" x="197.671875" y="39.203125"/>
<use xlink:href="#glyph-4-18" x="203.671875" y="39.203125"/>
<use xlink:href="#glyph-4-5" x="209.671875" y="39.203125"/>
<use xlink:href="#glyph-4-5" x="214.671875" y="39.203125"/>
<use xlink:href="#glyph-4-18" x="219.671875" y="39.203125"/>
<use xlink:href="#glyph-4-19" x="225.671875" y="39.203125"/>
<use xlink:href="#glyph-4-20" x="227.671875" y="39.203125"/>
<use xlink:href="#glyph-4-8" x="231.671875" y="39.203125"/>
<use xlink:href="#glyph-4-3" x="237.671875" y="39.203125"/>
<use xlink:href="#glyph-4-21" x="245.671875" y="39.203125"/>
<use xlink:href="#glyph-4-7" x="247.671875" y="39.203125"/>
<use xlink:href="#glyph-4-22" x="249.671875" y="39.203125"/>
<use xlink:href="#glyph-4-23" x="254.671875" y="39.203125"/>
<use xlink:href="#glyph-4-24" x="259.671875" y="39.203125"/>
<use xlink:href="#glyph-4-25" x="263.671875" y="39.203125"/>
<use xlink:href="#glyph-4-26" x="267.671875" y="39.203125"/>
<use xlink:href="#glyph-4-23" x="271.671875" y="39.203125"/>
<use xlink:href="#glyph-4-24" x="276.671875" y="39.203125"/>
<use xlink:href="#glyph-4-26" x="280.671875" y="39.203125"/>
<use xlink:href="#glyph-4-23" x="284.671875" y="39.203125"/>
<use xlink:href="#glyph-4-27" x="290.671875" y="39.203125"/>
</g>
<g fill="rgb(0%, 0%, 0%)" fill-opacity="1">
<use xlink:href="#glyph-5-1" x="76.671875" y="20.125"/>
<use xlink:href="#glyph-5-2" x="89.671875" y="20.125"/>
<use xlink:href="#glyph-5-3" x="103.671875" y="20.125"/>
<use xlink:href="#glyph-5-4" x="122.671875" y="20.125"/>
<use xlink:href="#glyph-5-5" x="136.671875" y="20.125"/>
<use xlink:href="#glyph-5-6" x="149.671875" y="20.125"/>
<use xlink:href="#glyph-5-7" x="158.671875" y="20.125"/>
<use xlink:href="#glyph-5-8" x="165.671875" y="20.125"/>
<use xlink:href="#glyph-5-9" x="178.671875" y="20.125"/>
<use xlink:href="#glyph-5-10" x="191.671875" y="20.125"/>
<use xlink:href="#glyph-5-11" x="196.671875" y="20.125"/>
<use xlink:href="#glyph-5-12" x="207.671875" y="20.125"/>
<use xlink:href="#glyph-5-5" x="216.671875" y="20.125"/>
<use xlink:href="#glyph-5-12" x="229.671875" y="20.125"/>
<use xlink:href="#glyph-5-7" x="238.671875" y="20.125"/>
<use xlink:href="#glyph-5-11" x="245.671875" y="20.125"/>
<use xlink:href="#glyph-5-12" x="256.671875" y="20.125"/>
<use xlink:href="#glyph-5-7" x="265.671875" y="20.125"/>
<use xlink:href="#glyph-5-13" x="272.671875" y="20.125"/>
<use xlink:href="#glyph-5-5" x="283.671875" y="20.125"/>
<use xlink:href="#glyph-5-14" x="296.671875" y="20.125"/>
<use xlink:href="#glyph-5-10" x="303.671875" y="20.125"/>
<use xlink:href="#glyph-5-14" x="308.671875" y="20.125"/>
<use xlink:href="#glyph-5-5" x="315.671875" y="20.125"/>
<use xlink:href="#glyph-5-8" x="328.671875" y="20.125"/>
<use xlink:href="#glyph-5-9" x="341.671875" y="20.125"/>
<use xlink:href="#glyph-5-15" x="354.671875" y="20.125"/>
<use xlink:href="#glyph-5-5" x="367.671875" y="20.125"/>
<use xlink:href="#glyph-5-9" x="380.671875" y="20.125"/>
<use xlink:href="#glyph-5-16" x="392.671875" y="20.125"/>
<use xlink:href="#glyph-5-11" x="405.671875" y="20.125"/>
</g>
</svg>
