<?xml version="1.0" encoding="UTF-8"?>
<svg xmlns="http://www.w3.org/2000/svg" xmlns:xlink="http://www.w3.org/1999/xlink" width="756" height="504" viewBox="0 0 756 504">
<defs>
<g>
<g id="glyph-0-0">
<path d="M 1.296875 0 L 1.296875 -28.6875 L 24.0625 -28.6875 L 24.0625 0 Z M 20.46875 -3.59375 L 20.46875 -25.09375 L 4.890625 -25.09375 L 4.890625 -3.59375 Z M 20.46875 -3.59375 "/>
</g>
<g id="glyph-0-1">
<path d="M 7.078125 7.828125 L 3.515625 7.828125 L 3.515625 -19.59375 C 3.515625 -25.726562 6.53125 -28.851562 12.5625 -28.96875 C 14.925781 -28.96875 16.898438 -28.378906 18.484375 -27.203125 C 20.054688 -25.992188 20.851562 -24.269531 20.875 -22.03125 C 20.851562 -18.519531 19.226562 -16.269531 16 -15.28125 L 16 -15.203125 C 20.070312 -14.554688 22.140625 -12.171875 22.203125 -8.046875 C 22.179688 -5.609375 21.460938 -3.601562 20.046875 -2.03125 C 18.566406 -0.4375 16.578125 0.367188 14.078125 0.390625 C 12.554688 0.390625 11.273438 0.164062 10.234375 -0.28125 C 9.171875 -0.726562 8.117188 -1.523438 7.078125 -2.671875 Z M 7.125 -9.65625 C 7.125 -8.71875 7.21875 -7.816406 7.40625 -6.953125 C 7.582031 -6.128906 7.890625 -5.375 8.328125 -4.6875 C 8.773438 -4.007812 9.410156 -3.488281 10.234375 -3.125 C 11.046875 -2.695312 12.078125 -2.484375 13.328125 -2.484375 C 15.003906 -2.484375 16.3125 -3.03125 17.25 -4.125 C 18.144531 -5.164062 18.59375 -6.515625 18.59375 -8.171875 C 18.570312 -10.128906 17.960938 -11.523438 16.765625 -12.359375 C 15.566406 -13.128906 14.070312 -13.515625 12.28125 -13.515625 C 11.601562 -13.492188 10.921875 -13.457031 10.234375 -13.40625 L 10.234375 -16.40625 C 10.816406 -16.40625 11.378906 -16.421875 11.921875 -16.453125 C 13.410156 -16.472656 14.675781 -16.878906 15.71875 -17.671875 C 16.738281 -18.453125 17.257812 -19.710938 17.28125 -21.453125 C 17.207031 -24.535156 15.566406 -26.078125 12.359375 -26.078125 C 10.515625 -26.046875 9.179688 -25.5 8.359375 -24.4375 C 7.535156 -23.34375 7.125 -21.863281 7.125 -20 Z M 7.125 -9.65625 "/>
</g>
</g>
<clipPath id="clip-0">
<path clip-rule="nonzero" d="M 5.480469 437 L 750.523438 437 L 750.523438 439 L 5.480469 439 Z M 5.480469 437 "/>
</clipPath>
<clipPath id="clip-1">
<path clip-rule="nonzero" d="M 207 5.480469 L 210 5.480469 L 210 458.328125 L 207 458.328125 Z M 207 5.480469 "/>
</clipPath>
</defs>
<rect x="-75.6" y="-50.4" width="907.2" height="604.8" fill="rgb(100%, 100%, 100%)" fill-opacity="1"/>
<path fill-rule="nonzero" fill="rgb(18.431373%, 30.980392%, 30.980392%)" fill-opacity="0.901961" d="M 39.34375 437.605469 L 40.191406 437.601562 L 41.039062 437.59375 L 41.886719 437.589844 L 42.730469 437.582031 L 43.578125 437.578125 L 44.425781 437.570312 L 45.269531 437.5625 L 47.8125 437.539062 L 48.65625 437.53125 L 50.351562 437.515625 L 51.199219 437.503906 L 52.042969 437.496094 L 52.890625 437.484375 L 53.738281 437.476562 L 54.585938 437.464844 L 55.429688 437.453125 L 56.277344 437.445312 L 57.125 437.433594 L 57.972656 437.417969 L 58.816406 437.40625 L 59.664062 437.394531 L 60.511719 437.378906 L 61.359375 437.367188 L 62.203125 437.351562 L 63.050781 437.335938 L 63.898438 437.324219 L 64.742188 437.304688 L 66.4375 437.273438 L 67.285156 437.253906 L 68.128906 437.238281 L 70.671875 437.179688 L 71.515625 437.15625 L 72.363281 437.136719 L 74.058594 437.089844 L 74.902344 437.066406 L 75.75 437.042969 L 77.445312 436.988281 L 78.289062 436.960938 L 79.984375 436.90625 L 80.832031 436.875 L 81.675781 436.84375 L 82.523438 436.8125 L 83.371094 436.777344 L 84.214844 436.746094 L 85.0625 436.710938 L 85.910156 436.671875 L 86.757812 436.636719 L 87.601562 436.597656 L 88.449219 436.558594 L 90.144531 436.472656 L 90.988281 436.429688 L 93.53125 436.289062 L 94.375 436.238281 L 96.070312 436.136719 L 96.917969 436.082031 L 97.761719 436.023438 L 98.609375 435.96875 L 99.457031 435.90625 L 100.304688 435.847656 L 101.148438 435.78125 L 101.996094 435.71875 L 102.84375 435.652344 L 103.6875 435.582031 L 104.535156 435.511719 L 106.230469 435.363281 L 107.074219 435.285156 L 109.617188 435.039062 L 110.460938 434.949219 L 112.15625 434.769531 L 113.003906 434.675781 L 113.847656 434.578125 L 115.542969 434.375 L 116.390625 434.269531 L 117.234375 434.160156 L 118.082031 434.046875 L 119.777344 433.8125 L 120.621094 433.691406 L 121.46875 433.566406 L 122.316406 433.4375 L 123.160156 433.308594 L 124.007812 433.171875 L 125.703125 432.890625 L 126.546875 432.742188 L 127.394531 432.59375 L 128.242188 432.4375 L 129.089844 432.277344 L 129.933594 432.117188 L 130.78125 431.949219 L 131.628906 431.777344 L 132.476562 431.601562 L 133.320312 431.421875 L 134.167969 431.238281 L 135.015625 431.046875 L 135.863281 430.851562 L 136.707031 430.652344 L 137.554688 430.449219 L 138.402344 430.238281 L 139.25 430.023438 L 140.09375 429.800781 L 140.941406 429.578125 L 141.789062 429.34375 L 142.632812 429.109375 L 144.328125 428.617188 L 145.175781 428.359375 L 146.019531 428.101562 L 146.867188 427.832031 L 147.714844 427.558594 L 148.5625 427.277344 L 149.40625 426.992188 L 151.101562 426.398438 L 151.949219 426.089844 L 152.792969 425.773438 L 153.640625 425.453125 L 154.488281 425.121094 L 155.335938 424.785156 L 156.179688 424.441406 L 157.027344 424.089844 L 157.875 423.726562 L 158.722656 423.359375 L 159.566406 422.984375 L 160.414062 422.597656 L 161.261719 422.203125 L 162.105469 421.800781 L 162.953125 421.390625 L 163.800781 420.972656 L 164.648438 420.542969 L 165.492188 420.105469 L 166.339844 419.65625 L 167.1875 419.199219 L 168.035156 418.734375 L 168.878906 418.257812 L 169.726562 417.769531 L 170.574219 417.273438 L 171.421875 416.765625 L 172.265625 416.25 L 173.113281 415.722656 L 173.960938 415.183594 L 174.808594 414.636719 L 175.652344 414.074219 L 176.5 413.503906 L 177.347656 412.921875 L 178.195312 412.328125 L 179.039062 411.722656 L 179.886719 411.105469 L 180.734375 410.472656 L 181.578125 409.832031 L 182.425781 409.179688 L 183.273438 408.511719 L 184.121094 407.835938 L 184.964844 407.144531 L 185.8125 406.4375 L 186.660156 405.722656 L 187.507812 404.992188 L 188.351562 404.246094 L 189.199219 403.492188 L 190.046875 402.71875 L 190.894531 401.9375 L 191.738281 401.136719 L 192.585938 400.324219 L 193.433594 399.5 L 194.28125 398.65625 L 195.125 397.800781 L 195.972656 396.933594 L 196.820312 396.046875 L 197.667969 395.148438 L 198.511719 394.230469 L 199.359375 393.300781 L 200.207031 392.355469 L 201.054688 391.394531 L 201.898438 390.417969 L 202.746094 389.425781 L 203.59375 388.417969 L 204.4375 387.394531 L 205.285156 386.355469 L 206.132812 385.296875 L 206.980469 384.226562 L 207.824219 383.136719 L 208.671875 382.03125 L 209.519531 380.90625 L 210.367188 379.765625 L 211.210938 378.609375 L 212.058594 377.4375 L 212.90625 376.246094 L 213.753906 375.039062 L 214.597656 373.8125 L 215.445312 372.570312 L 216.292969 371.3125 L 217.140625 370.035156 L 217.984375 368.738281 L 218.832031 367.425781 L 219.679688 366.09375 L 220.527344 364.746094 L 221.371094 363.378906 L 222.21875 361.992188 L 223.066406 360.589844 L 223.910156 359.171875 L 224.757812 357.730469 L 225.605469 356.273438 L 226.453125 354.796875 L 227.296875 353.304688 L 228.144531 351.792969 L 228.992188 350.261719 L 229.839844 348.710938 L 230.683594 347.144531 L 231.53125 345.558594 L 232.378906 343.957031 L 233.226562 342.332031 L 234.070312 340.691406 L 234.917969 339.035156 L 235.765625 337.355469 L 236.613281 335.660156 L 237.457031 333.945312 L 238.304688 332.214844 L 239.152344 330.464844 L 240 328.695312 L 240.84375 326.910156 L 241.691406 325.105469 L 242.539062 323.28125 L 243.382812 321.441406 L 244.230469 319.582031 L 245.078125 317.707031 L 245.925781 315.8125 L 246.769531 313.902344 L 247.617188 311.976562 L 248.464844 310.03125 L 249.3125 308.066406 L 250.15625 306.085938 L 251.003906 304.089844 L 251.851562 302.078125 L 252.699219 300.046875 L 253.542969 298.003906 L 254.390625 295.941406 L 255.238281 293.863281 L 256.085938 291.769531 L 256.929688 289.65625 L 257.777344 287.53125 L 258.625 285.390625 L 259.472656 283.234375 L 260.316406 281.066406 L 261.164062 278.878906 L 262.011719 276.679688 L 262.855469 274.46875 L 263.703125 272.238281 L 264.550781 270 L 265.398438 267.746094 L 266.242188 265.476562 L 267.089844 263.195312 L 267.9375 260.902344 L 268.785156 258.597656 L 269.628906 256.28125 L 270.476562 253.953125 L 271.324219 251.613281 L 272.171875 249.261719 L 273.015625 246.902344 L 273.863281 244.53125 L 274.710938 242.148438 L 275.558594 239.757812 L 276.402344 237.359375 L 277.25 234.949219 L 278.097656 232.53125 L 278.945312 230.105469 L 279.789062 227.671875 L 280.636719 225.234375 L 281.484375 222.785156 L 282.328125 220.332031 L 283.175781 217.871094 L 284.023438 215.40625 L 284.871094 212.9375 L 285.714844 210.460938 L 287.410156 205.5 L 288.257812 203.011719 L 289.101562 200.523438 L 289.949219 198.03125 L 291.644531 193.039062 L 292.488281 190.542969 L 295.03125 183.054688 L 295.875 180.558594 L 298.417969 173.082031 L 299.261719 170.597656 L 300.109375 168.113281 L 300.957031 165.636719 L 301.800781 163.164062 L 302.648438 160.695312 L 303.496094 158.230469 L 304.34375 155.773438 L 305.1875 153.324219 L 306.035156 150.882812 L 306.882812 148.449219 L 307.730469 146.023438 L 308.574219 143.605469 L 309.421875 141.199219 L 310.269531 138.804688 L 311.117188 136.417969 L 311.960938 134.042969 L 312.808594 131.679688 L 313.65625 129.328125 L 314.503906 126.992188 L 315.347656 124.667969 L 316.195312 122.359375 L 317.042969 120.0625 L 317.890625 117.785156 L 318.734375 115.519531 L 319.582031 113.273438 L 320.429688 111.042969 L 321.273438 108.828125 L 322.121094 106.636719 L 322.96875 104.460938 L 323.816406 102.300781 L 324.660156 100.164062 L 325.507812 98.050781 L 326.355469 95.953125 L 327.203125 93.878906 L 328.046875 91.828125 L 328.894531 89.796875 L 329.742188 87.792969 L 330.589844 85.808594 L 331.433594 83.851562 L 332.28125 81.917969 L 333.128906 80.007812 L 333.976562 78.125 L 334.820312 76.265625 L 335.667969 74.4375 L 336.515625 72.632812 L 337.363281 70.859375 L 338.207031 69.113281 L 339.054688 67.394531 L 339.902344 65.707031 L 340.746094 64.046875 L 341.59375 62.417969 L 342.441406 60.820312 L 343.289062 59.25 L 344.132812 57.714844 L 344.980469 56.210938 L 345.828125 54.738281 L 346.675781 53.300781 L 347.519531 51.894531 L 348.367188 50.523438 L 349.214844 49.183594 L 350.0625 47.878906 L 350.90625 46.609375 L 351.753906 45.378906 L 352.601562 44.179688 L 353.449219 43.015625 L 354.292969 41.890625 L 355.140625 40.800781 L 355.988281 39.746094 L 356.835938 38.730469 L 357.679688 37.75 L 358.527344 36.808594 L 359.375 35.90625 L 360.21875 35.042969 L 361.066406 34.214844 L 361.914062 33.425781 L 362.761719 32.679688 L 363.605469 31.96875 L 364.453125 31.300781 L 365.300781 30.667969 L 366.148438 30.078125 L 366.992188 29.527344 L 367.839844 29.015625 L 368.6875 28.546875 L 369.535156 28.117188 L 370.378906 27.726562 L 371.226562 27.378906 L 372.074219 27.070312 L 372.921875 26.804688 L 373.765625 26.578125 L 374.613281 26.394531 L 375.460938 26.25 L 376.308594 26.144531 L 377.152344 26.085938 L 378 26.0625 L 378.847656 26.085938 L 379.691406 26.144531 L 380.539062 26.25 L 381.386719 26.394531 L 382.234375 26.578125 L 383.078125 26.804688 L 383.925781 27.070312 L 384.773438 27.378906 L 385.621094 27.726562 L 386.464844 28.117188 L 387.3125 28.546875 L 388.160156 29.015625 L 389.007812 29.527344 L 389.851562 30.078125 L 390.699219 30.667969 L 391.546875 31.300781 L 392.394531 31.96875 L 393.238281 32.679688 L 394.085938 33.425781 L 394.933594 34.214844 L 395.78125 35.042969 L 396.625 35.90625 L 397.472656 36.808594 L 398.320312 37.75 L 399.164062 38.730469 L 400.011719 39.746094 L 400.859375 40.800781 L 401.707031 41.890625 L 402.550781 43.015625 L 403.398438 44.179688 L 404.246094 45.378906 L 405.09375 46.609375 L 405.9375 47.878906 L 406.785156 49.183594 L 407.632812 50.523438 L 408.480469 51.894531 L 409.324219 53.300781 L 410.171875 54.738281 L 411.019531 56.210938 L 411.867188 57.714844 L 412.710938 59.25 L 413.558594 60.820312 L 414.40625 62.417969 L 415.253906 64.046875 L 416.097656 65.707031 L 416.945312 67.394531 L 417.792969 69.113281 L 418.636719 70.859375 L 419.484375 72.632812 L 420.332031 74.4375 L 421.179688 76.265625 L 422.023438 78.125 L 422.871094 80.007812 L 423.71875 81.917969 L 424.566406 83.851562 L 425.410156 85.808594 L 426.257812 87.792969 L 427.105469 89.796875 L 427.953125 91.828125 L 428.796875 93.878906 L 429.644531 95.953125 L 430.492188 98.050781 L 431.339844 100.164062 L 432.183594 102.300781 L 433.03125 104.460938 L 433.878906 106.636719 L 434.726562 108.828125 L 435.570312 111.042969 L 436.417969 113.273438 L 437.265625 115.519531 L 438.109375 117.785156 L 438.957031 120.0625 L 439.804688 122.359375 L 440.652344 124.667969 L 441.496094 126.992188 L 442.34375 129.328125 L 443.191406 131.679688 L 444.039062 134.042969 L 444.882812 136.417969 L 445.730469 138.804688 L 446.578125 141.199219 L 447.425781 143.605469 L 448.269531 146.023438 L 449.117188 148.449219 L 449.964844 150.882812 L 450.8125 153.324219 L 451.65625 155.773438 L 452.503906 158.230469 L 453.351562 160.695312 L 454.199219 163.164062 L 455.042969 165.636719 L 455.890625 168.113281 L 456.738281 170.597656 L 457.582031 173.082031 L 460.125 180.558594 L 460.96875 183.054688 L 463.511719 190.542969 L 464.355469 193.039062 L 466.050781 198.03125 L 466.898438 200.523438 L 467.742188 203.011719 L 468.589844 205.5 L 470.285156 210.460938 L 471.128906 212.9375 L 471.976562 215.40625 L 472.824219 217.871094 L 473.671875 220.332031 L 474.515625 222.785156 L 475.363281 225.234375 L 476.210938 227.671875 L 477.054688 230.105469 L 477.902344 232.53125 L 478.75 234.949219 L 479.597656 237.359375 L 480.441406 239.757812 L 481.289062 242.148438 L 482.136719 244.53125 L 482.984375 246.902344 L 483.828125 249.261719 L 484.675781 251.613281 L 485.523438 253.953125 L 486.371094 256.28125 L 487.214844 258.597656 L 488.0625 260.902344 L 488.910156 263.195312 L 489.757812 265.476562 L 490.601562 267.746094 L 491.449219 270 L 492.296875 272.238281 L 493.144531 274.46875 L 493.988281 276.679688 L 494.835938 278.878906 L 495.683594 281.066406 L 496.527344 283.234375 L 497.375 285.390625 L 498.222656 287.53125 L 499.070312 289.65625 L 499.914062 291.769531 L 500.761719 293.863281 L 501.609375 295.941406 L 502.457031 298.003906 L 503.300781 300.046875 L 504.148438 302.078125 L 504.996094 304.089844 L 505.84375 306.085938 L 506.6875 308.066406 L 507.535156 310.03125 L 508.382812 311.976562 L 509.230469 313.902344 L 510.074219 315.8125 L 510.921875 317.707031 L 511.769531 319.582031 L 512.617188 321.441406 L 513.460938 323.28125 L 514.308594 325.105469 L 515.15625 326.910156 L 516 328.695312 L 516.847656 330.464844 L 517.695312 332.214844 L 518.542969 333.945312 L 519.386719 335.660156 L 520.234375 337.355469 L 521.082031 339.035156 L 521.929688 340.691406 L 522.773438 342.332031 L 523.621094 343.957031 L 524.46875 345.558594 L 525.316406 347.144531 L 526.160156 348.710938 L 527.007812 350.261719 L 527.855469 351.792969 L 528.703125 353.304688 L 529.546875 354.796875 L 530.394531 356.273438 L 531.242188 357.730469 L 532.089844 359.171875 L 532.933594 360.589844 L 533.78125 361.992188 L 534.628906 363.378906 L 535.472656 364.746094 L 536.320312 366.09375 L 537.167969 367.425781 L 538.015625 368.738281 L 538.859375 370.035156 L 539.707031 371.3125 L 540.554688 372.570312 L 541.402344 373.8125 L 542.246094 375.039062 L 543.09375 376.246094 L 543.941406 377.4375 L 544.789062 378.609375 L 545.632812 379.765625 L 546.480469 380.90625 L 547.328125 382.03125 L 548.175781 383.136719 L 549.019531 384.226562 L 549.867188 385.296875 L 550.714844 386.355469 L 551.5625 387.394531 L 552.40625 388.417969 L 553.253906 389.425781 L 554.101562 390.417969 L 554.945312 391.394531 L 555.792969 392.355469 L 556.640625 393.300781 L 557.488281 394.230469 L 558.332031 395.148438 L 559.179688 396.046875 L 560.027344 396.933594 L 560.875 397.800781 L 561.71875 398.65625 L 562.566406 399.5 L 563.414062 400.324219 L 564.261719 401.136719 L 565.105469 401.9375 L 565.953125 402.71875 L 566.800781 403.492188 L 567.648438 404.246094 L 568.492188 404.992188 L 569.339844 405.722656 L 570.1875 406.4375 L 571.035156 407.144531 L 571.878906 407.835938 L 572.726562 408.511719 L 573.574219 409.179688 L 574.421875 409.832031 L 575.265625 410.472656 L 576.113281 411.105469 L 576.960938 411.722656 L 577.804688 412.328125 L 578.652344 412.921875 L 579.5 413.503906 L 580.347656 414.074219 L 581.191406 414.636719 L 582.039062 415.183594 L 582.886719 415.722656 L 583.734375 416.25 L 584.578125 416.765625 L 585.425781 417.273438 L 586.273438 417.769531 L 587.121094 418.257812 L 587.964844 418.734375 L 588.8125 419.199219 L 589.660156 419.65625 L 590.507812 420.105469 L 591.351562 420.542969 L 592.199219 420.972656 L 593.046875 421.390625 L 593.894531 421.800781 L 594.738281 422.203125 L 595.585938 422.597656 L 596.433594 422.984375 L 597.277344 423.359375 L 598.125 423.726562 L 598.972656 424.089844 L 599.820312 424.441406 L 600.664062 424.785156 L 601.511719 425.121094 L 602.359375 425.453125 L 603.207031 425.773438 L 604.050781 426.089844 L 604.898438 426.398438 L 606.59375 426.992188 L 607.4375 427.277344 L 608.285156 427.558594 L 609.132812 427.832031 L 609.980469 428.101562 L 610.824219 428.359375 L 611.671875 428.617188 L 613.367188 429.109375 L 614.210938 429.34375 L 615.058594 429.578125 L 615.90625 429.800781 L 616.75 430.023438 L 617.597656 430.238281 L 618.445312 430.449219 L 619.292969 430.652344 L 620.136719 430.851562 L 620.984375 431.046875 L 621.832031 431.238281 L 622.679688 431.421875 L 623.523438 431.601562 L 624.371094 431.777344 L 625.21875 431.949219 L 626.066406 432.117188 L 626.910156 432.277344 L 627.757812 432.4375 L 628.605469 432.59375 L 629.453125 432.742188 L 630.296875 432.890625 L 631.992188 433.171875 L 632.839844 433.308594 L 633.683594 433.4375 L 634.53125 433.566406 L 635.378906 433.691406 L 636.222656 433.8125 L 637.917969 434.046875 L 638.765625 434.160156 L 639.609375 434.269531 L 640.457031 434.375 L 642.152344 434.578125 L 642.996094 434.675781 L 643.84375 434.769531 L 645.539062 434.949219 L 646.382812 435.039062 L 648.925781 435.285156 L 649.769531 435.363281 L 651.464844 435.511719 L 652.3125 435.582031 L 653.15625 435.652344 L 654.003906 435.71875 L 654.851562 435.78125 L 655.695312 435.847656 L 656.542969 435.90625 L 657.390625 435.96875 L 658.238281 436.023438 L 659.082031 436.082031 L 659.929688 436.136719 L 661.625 436.238281 L 662.46875 436.289062 L 665.011719 436.429688 L 665.855469 436.472656 L 667.550781 436.558594 L 668.398438 436.597656 L 669.242188 436.636719 L 670.089844 436.671875 L 670.9375 436.710938 L 671.785156 436.746094 L 672.628906 436.777344 L 673.476562 436.8125 L 674.324219 436.84375 L 675.167969 436.875 L 676.015625 436.90625 L 677.710938 436.960938 L 678.554688 436.988281 L 680.25 437.042969 L 681.097656 437.066406 L 681.941406 437.089844 L 683.636719 437.136719 L 684.484375 437.15625 L 685.328125 437.179688 L 687.871094 437.238281 L 688.714844 437.253906 L 689.5625 437.273438 L 691.257812 437.304688 L 692.101562 437.324219 L 692.949219 437.335938 L 693.796875 437.351562 L 694.640625 437.367188 L 695.488281 437.378906 L 696.335938 437.394531 L 697.183594 437.40625 L 698.027344 437.417969 L 698.875 437.433594 L 699.722656 437.445312 L 700.570312 437.453125 L 701.414062 437.464844 L 702.261719 437.476562 L 703.109375 437.484375 L 703.957031 437.496094 L 704.800781 437.503906 L 705.648438 437.515625 L 707.34375 437.53125 L 708.1875 437.539062 L 710.730469 437.5625 L 711.574219 437.570312 L 712.421875 437.578125 L 713.269531 437.582031 L 714.113281 437.589844 L 714.960938 437.59375 L 715.808594 437.601562 L 716.65625 437.605469 L 716.65625 437.746094 L 39.34375 437.746094 Z M 39.34375 437.605469 "/>
<g clip-path="url(#clip-0)">
<path fill="none" stroke-width="1.066978" stroke-linecap="butt" stroke-linejoin="round" stroke="rgb(0%, 0%, 0%)" stroke-opacity="1" stroke-miterlimit="10" d="M 5.480469 437.746094 L 750.519531 437.746094 "/>
</g>
<g clip-path="url(#clip-1)">
<path fill="none" stroke-width="2.133957" stroke-linecap="butt" stroke-linejoin="round" stroke="rgb(0%, 0%, 0%)" stroke-opacity="1" stroke-dasharray="8.535827 8.535827" stroke-miterlimit="10" d="M 208.671875 458.328125 L 208.671875 5.480469 "/>
</g>
<g fill="rgb(30.196078%, 30.196078%, 30.196078%)" fill-opacity="1">
<use xlink:href="#glyph-0-1" x="196.671875" y="489.320312"/>
</g>
</svg>
