<?xml version="1.0" encoding="UTF-8"?>
<svg xmlns="http://www.w3.org/2000/svg" xmlns:xlink="http://www.w3.org/1999/xlink" width="756" height="432" viewBox="0 0 756 432">
<rect x="-75.6" y="-43.2" width="907.2" height="518.4" fill="rgb(100%, 100%, 100%)" fill-opacity="1"/>
<path fill="none" stroke-width="1.066978" stroke-linecap="butt" stroke-linejoin="round" stroke="rgb(100%, 91.764706%, 27.45098%)" stroke-opacity="0.8" stroke-miterlimit="10" d="M 367.234375 201.511719 L 367.234375 194.511719 "/>
<path fill="none" stroke-width="1.066978" stroke-linecap="butt" stroke-linejoin="round" stroke="rgb(96.862745%, 87.058824%, 29.803922%)" stroke-opacity="0.8" stroke-miterlimit="10" d="M 189.476562 189.476562 L 189.476562 116.429688 "/>
<path fill="none" stroke-width="1.066978" stroke-linecap="butt" stroke-linejoin="round" stroke="rgb(64.705882%, 61.176471%, 46.27451%)" stroke-opacity="0.8" stroke-miterlimit="10" d="M 445.359375 426.109375 L 445.359375 228.832031 "/>
<path fill="none" stroke-width="1.066978" stroke-linecap="butt" stroke-linejoin="round" stroke="rgb(95.294118%, 85.882353%, 30.980392%)" stroke-opacity="0.8" stroke-miterlimit="10" d="M 389.390625 286.039062 L 389.390625 204.246094 "/>
<path fill="none" stroke-width="1.066978" stroke-linecap="butt" stroke-linejoin="round" stroke="rgb(100%, 91.764706%, 27.45098%)" stroke-opacity="0.8" stroke-miterlimit="10" d="M 306.941406 177.667969 L 306.941406 168.027344 "/>
<path fill="none" stroke-width="1.066978" stroke-linecap="butt" stroke-linejoin="round" stroke="rgb(99.607843%, 89.411765%, 27.058824%)" stroke-opacity="0.8" stroke-miterlimit="10" d="M 394.792969 260.804688 L 394.792969 206.617188 "/>
<path fill="none" stroke-width="1.066978" stroke-linecap="butt" stroke-linejoin="round" stroke="rgb(100%, 91.372549%, 26.666667%)" stroke-opacity="0.8" stroke-miterlimit="10" d="M 388.179688 179.410156 L 388.179688 203.714844 "/>
<path fill="none" stroke-width="1.066978" stroke-linecap="butt" stroke-linejoin="round" stroke="rgb(65.098039%, 61.568627%, 45.882353%)" stroke-opacity="0.8" stroke-miterlimit="10" d="M 274.824219 350.371094 L 274.824219 153.921875 "/>
<path fill="none" stroke-width="1.066978" stroke-linecap="butt" stroke-linejoin="round" stroke="rgb(100%, 91.764706%, 27.058824%)" stroke-opacity="0.8" stroke-miterlimit="10" d="M 476.203125 229.835938 L 476.203125 242.378906 "/>
<path fill="none" stroke-width="1.066978" stroke-linecap="butt" stroke-linejoin="round" stroke="rgb(62.745098%, 59.607843%, 46.666667%)" stroke-opacity="0.8" stroke-miterlimit="10" d="M 574.777344 82.710938 L 574.777344 285.679688 "/>
<path fill="none" stroke-width="1.066978" stroke-linecap="butt" stroke-linejoin="round" stroke="rgb(60.392157%, 57.647059%, 46.666667%)" stroke-opacity="0.8" stroke-miterlimit="10" d="M 293.164062 371.207031 L 293.164062 161.976562 "/>
<path fill="none" stroke-width="1.066978" stroke-linecap="butt" stroke-linejoin="round" stroke="rgb(95.686275%, 86.27451%, 30.588235%)" stroke-opacity="0.8" stroke-miterlimit="10" d="M 248.972656 223.316406 L 248.972656 142.566406 "/>
<path fill="none" stroke-width="1.066978" stroke-linecap="butt" stroke-linejoin="round" stroke="rgb(96.470588%, 86.666667%, 30.196078%)" stroke-opacity="0.8" stroke-miterlimit="10" d="M 395.292969 283.363281 L 395.292969 206.839844 "/>
<path fill="none" stroke-width="1.066978" stroke-linecap="butt" stroke-linejoin="round" stroke="rgb(90.196078%, 81.960784%, 34.901961%)" stroke-opacity="0.8" stroke-miterlimit="10" d="M 301.746094 275.265625 L 301.746094 165.746094 "/>
<path fill="none" stroke-width="1.066978" stroke-linecap="butt" stroke-linejoin="round" stroke="rgb(90.196078%, 81.960784%, 34.901961%)" stroke-opacity="0.8" stroke-miterlimit="10" d="M 585.644531 182.09375 L 585.644531 290.453125 "/>
<path fill="none" stroke-width="1.066978" stroke-linecap="butt" stroke-linejoin="round" stroke="rgb(100%, 91.372549%, 26.666667%)" stroke-opacity="0.8" stroke-miterlimit="10" d="M 290.578125 139.503906 L 290.578125 160.839844 "/>
<path fill="none" stroke-width="1.066978" stroke-linecap="butt" stroke-linejoin="round" stroke="rgb(98.431373%, 88.627451%, 28.235294%)" stroke-opacity="0.8" stroke-miterlimit="10" d="M 463.320312 177.328125 L 463.320312 236.71875 "/>
<path fill="none" stroke-width="1.066978" stroke-linecap="butt" stroke-linejoin="round" stroke="rgb(100%, 91.764706%, 27.058824%)" stroke-opacity="0.8" stroke-miterlimit="10" d="M 560.628906 265.4375 L 560.628906 279.464844 "/>
<path fill="none" stroke-width="1.066978" stroke-linecap="butt" stroke-linejoin="round" stroke="rgb(45.882353%, 45.882353%, 45.882353%)" stroke-opacity="0.8" stroke-miterlimit="10" d="M 720.980469 101.378906 L 720.980469 349.902344 "/>
<path fill="none" stroke-width="1.066978" stroke-linecap="butt" stroke-linejoin="round" stroke="rgb(99.215686%, 89.019608%, 27.45098%)" stroke-opacity="0.8" stroke-miterlimit="10" d="M 417.945312 271.328125 L 417.945312 216.789062 "/>
<path fill="none" stroke-width="1.066978" stroke-linecap="butt" stroke-linejoin="round" stroke="rgb(94.901961%, 85.490196%, 31.372549%)" stroke-opacity="0.8" stroke-miterlimit="10" d="M 607.621094 215.023438 L 607.621094 300.105469 "/>
<path fill="none" stroke-width="1.066978" stroke-linecap="butt" stroke-linejoin="round" stroke="rgb(98.039216%, 88.235294%, 28.627451%)" stroke-opacity="0.8" stroke-miterlimit="10" d="M 442.425781 291.804688 L 442.425781 227.542969 "/>
<path fill="none" stroke-width="1.066978" stroke-linecap="butt" stroke-linejoin="round" stroke="rgb(96.862745%, 87.058824%, 29.803922%)" stroke-opacity="0.8" stroke-miterlimit="10" d="M 382.902344 273.664062 L 382.902344 201.394531 "/>
<path fill="none" stroke-width="1.066978" stroke-linecap="butt" stroke-linejoin="round" stroke="rgb(100%, 90.588235%, 25.882353%)" stroke-opacity="0.8" stroke-miterlimit="10" d="M 418.148438 252.5 L 418.148438 216.878906 "/>
<path fill="none" stroke-width="1.066978" stroke-linecap="butt" stroke-linejoin="round" stroke="rgb(99.215686%, 89.019608%, 27.45098%)" stroke-opacity="0.8" stroke-miterlimit="10" d="M 563.035156 224.292969 L 563.035156 280.519531 "/>
<path fill="none" stroke-width="1.066978" stroke-linecap="butt" stroke-linejoin="round" stroke="rgb(100%, 90.980392%, 26.27451%)" stroke-opacity="0.8" stroke-miterlimit="10" d="M 400.765625 242.886719 L 400.765625 209.242188 "/>
<path fill="none" stroke-width="1.066978" stroke-linecap="butt" stroke-linejoin="round" stroke="rgb(100%, 91.764706%, 27.058824%)" stroke-opacity="0.8" stroke-miterlimit="10" d="M 352.726562 175.820312 L 352.726562 188.140625 "/>
<path fill="none" stroke-width="1.066978" stroke-linecap="butt" stroke-linejoin="round" stroke="rgb(90.196078%, 81.960784%, 34.901961%)" stroke-opacity="0.8" stroke-miterlimit="10" d="M 258.289062 255.675781 L 258.289062 146.65625 "/>
<path fill="none" stroke-width="1.066978" stroke-linecap="butt" stroke-linejoin="round" stroke="rgb(27.45098%, 31.372549%, 41.960784%)" stroke-opacity="0.8" stroke-miterlimit="10" d="M 119.765625 376.828125 L 119.765625 85.808594 "/>
<path fill="none" stroke-width="1.066978" stroke-linecap="butt" stroke-linejoin="round" stroke="rgb(60.392157%, 57.647059%, 46.666667%)" stroke-opacity="0.8" stroke-miterlimit="10" d="M 536.390625 59.4375 L 536.390625 268.816406 "/>
<path fill="none" stroke-width="1.066978" stroke-linecap="butt" stroke-linejoin="round" stroke="rgb(95.294118%, 85.882353%, 30.980392%)" stroke-opacity="0.8" stroke-miterlimit="10" d="M 282.457031 239.226562 L 282.457031 157.273438 "/>
<path fill="none" stroke-width="1.066978" stroke-linecap="butt" stroke-linejoin="round" stroke="rgb(95.294118%, 85.882353%, 30.980392%)" stroke-opacity="0.8" stroke-miterlimit="10" d="M 431.554688 306.046875 L 431.554688 222.765625 "/>
<path fill="none" stroke-width="1.066978" stroke-linecap="butt" stroke-linejoin="round" stroke="rgb(97.647059%, 87.843137%, 29.019608%)" stroke-opacity="0.8" stroke-miterlimit="10" d="M 478.320312 177.332031 L 478.320312 243.308594 "/>
<path fill="none" stroke-width="1.066978" stroke-linecap="butt" stroke-linejoin="round" stroke="rgb(96.470588%, 86.666667%, 30.196078%)" stroke-opacity="0.8" stroke-miterlimit="10" d="M 504.621094 178.855469 L 504.621094 254.863281 "/>
<path fill="none" stroke-width="1.066978" stroke-linecap="butt" stroke-linejoin="round" stroke="rgb(60.784314%, 58.039216%, 46.666667%)" stroke-opacity="0.8" stroke-miterlimit="10" d="M 246.652344 350.351562 L 246.652344 141.546875 "/>
<path fill="none" stroke-width="1.066978" stroke-linecap="butt" stroke-linejoin="round" stroke="rgb(23.529412%, 29.019608%, 41.960784%)" stroke-opacity="0.8" stroke-miterlimit="10" d="M 648.132812 20.289062 L 648.132812 317.902344 "/>
<path fill="none" stroke-width="1.066978" stroke-linecap="butt" stroke-linejoin="round" stroke="rgb(68.235294%, 63.921569%, 45.490196%)" stroke-opacity="0.8" stroke-miterlimit="10" d="M 649.636719 130.695312 L 649.636719 318.5625 "/>
<path fill="none" stroke-width="1.066978" stroke-linecap="butt" stroke-linejoin="round" stroke="rgb(81.568627%, 74.509804%, 40.392157%)" stroke-opacity="0.8" stroke-miterlimit="10" d="M 574.21875 140.367188 L 574.21875 285.433594 "/>
<path fill="none" stroke-width="1.066978" stroke-linecap="butt" stroke-linejoin="round" stroke="rgb(100%, 91.764706%, 27.45098%)" stroke-opacity="0.8" stroke-miterlimit="10" d="M 471.667969 242.59375 L 471.667969 240.386719 "/>
<path fill="none" stroke-width="1.066978" stroke-linecap="butt" stroke-linejoin="round" stroke="rgb(100%, 91.764706%, 27.058824%)" stroke-opacity="0.8" stroke-miterlimit="10" d="M 385.703125 213.867188 L 385.703125 202.625 "/>
<path fill="none" stroke-width="1.066978" stroke-linecap="butt" stroke-linejoin="round" stroke="rgb(98.823529%, 89.019608%, 27.843137%)" stroke-opacity="0.8" stroke-miterlimit="10" d="M 472.871094 183.523438 L 472.871094 240.914062 "/>
<path fill="none" stroke-width="1.066978" stroke-linecap="butt" stroke-linejoin="round" stroke="rgb(90.980392%, 82.352941%, 34.901961%)" stroke-opacity="0.8" stroke-miterlimit="10" d="M 503.554688 147.578125 L 503.554688 254.394531 "/>
<path fill="none" stroke-width="1.066978" stroke-linecap="butt" stroke-linejoin="round" stroke="rgb(100%, 90.980392%, 26.27451%)" stroke-opacity="0.8" stroke-miterlimit="10" d="M 548.136719 245.054688 L 548.136719 273.976562 "/>
<path fill="none" stroke-width="1.066978" stroke-linecap="butt" stroke-linejoin="round" stroke="rgb(98.039216%, 88.235294%, 28.627451%)" stroke-opacity="0.8" stroke-miterlimit="10" d="M 323.648438 239.714844 L 323.648438 175.367188 "/>
<path fill="none" stroke-width="1.066978" stroke-linecap="butt" stroke-linejoin="round" stroke="rgb(93.72549%, 84.313725%, 32.54902%)" stroke-opacity="0.8" stroke-miterlimit="10" d="M 333.292969 271.890625 L 333.292969 179.601562 "/>
<path fill="none" stroke-width="1.066978" stroke-linecap="butt" stroke-linejoin="round" stroke="rgb(94.509804%, 85.098039%, 31.764706%)" stroke-opacity="0.8" stroke-miterlimit="10" d="M 352.40625 275.703125 L 352.40625 188 "/>
<path fill="none" stroke-width="1.066978" stroke-linecap="butt" stroke-linejoin="round" stroke="rgb(92.54902%, 83.529412%, 33.333333%)" stroke-opacity="0.8" stroke-miterlimit="10" d="M 234.125 233.328125 L 234.125 136.042969 "/>
<path fill="none" stroke-width="1.066978" stroke-linecap="butt" stroke-linejoin="round" stroke="rgb(91.764706%, 82.745098%, 34.117647%)" stroke-opacity="0.8" stroke-miterlimit="10" d="M 459.863281 133.332031 L 459.863281 235.203125 "/>
<path fill="none" stroke-width="1.066978" stroke-linecap="butt" stroke-linejoin="round" stroke="rgb(100%, 91.372549%, 26.666667%)" stroke-opacity="0.8" stroke-miterlimit="10" d="M 467.40625 218.070312 L 467.40625 238.515625 "/>
<path fill="none" stroke-width="1.066978" stroke-linecap="butt" stroke-linejoin="round" stroke="rgb(91.764706%, 82.745098%, 34.117647%)" stroke-opacity="0.8" stroke-miterlimit="10" d="M 614.066406 201.6875 L 614.066406 302.9375 "/>
<path fill="none" stroke-width="1.066978" stroke-linecap="butt" stroke-linejoin="round" stroke="rgb(97.254902%, 87.45098%, 29.411765%)" stroke-opacity="0.8" stroke-miterlimit="10" d="M 304.710938 238.535156 L 304.710938 167.046875 "/>
<path fill="none" stroke-width="1.066978" stroke-linecap="butt" stroke-linejoin="round" stroke="rgb(67.058824%, 62.745098%, 45.490196%)" stroke-opacity="0.8" stroke-miterlimit="10" d="M 230.890625 326.097656 L 230.890625 134.621094 "/>
<path fill="none" stroke-width="1.066978" stroke-linecap="butt" stroke-linejoin="round" stroke="rgb(98.823529%, 89.019608%, 27.843137%)" stroke-opacity="0.8" stroke-miterlimit="10" d="M 540.660156 212.414062 L 540.660156 270.691406 "/>
<path fill="none" stroke-width="1.066978" stroke-linecap="butt" stroke-linejoin="round" stroke="rgb(100%, 90.196078%, 25.882353%)" stroke-opacity="0.8" stroke-miterlimit="10" d="M 465.914062 280.199219 L 465.914062 237.859375 "/>
<path fill="none" stroke-width="1.066978" stroke-linecap="butt" stroke-linejoin="round" stroke="rgb(81.960784%, 74.901961%, 40%)" stroke-opacity="0.8" stroke-miterlimit="10" d="M 295.207031 306.382812 L 295.207031 162.875 "/>
<path fill="none" stroke-width="1.066978" stroke-linecap="butt" stroke-linejoin="round" stroke="rgb(100%, 91.764706%, 27.058824%)" stroke-opacity="0.8" stroke-miterlimit="10" d="M 449.652344 243.605469 L 449.652344 230.714844 "/>
<path fill="none" stroke-width="1.066978" stroke-linecap="butt" stroke-linejoin="round" stroke="rgb(78.431373%, 72.156863%, 41.568627%)" stroke-opacity="0.8" stroke-miterlimit="10" d="M 527.382812 109.734375 L 527.382812 264.859375 "/>
<path fill="none" stroke-width="1.066978" stroke-linecap="butt" stroke-linejoin="round" stroke="rgb(100%, 91.764706%, 27.45098%)" stroke-opacity="0.8" stroke-miterlimit="10" d="M 304.554688 163.964844 L 304.554688 166.980469 "/>
<path fill="none" stroke-width="1.066978" stroke-linecap="butt" stroke-linejoin="round" stroke="rgb(86.666667%, 78.823529%, 37.254902%)" stroke-opacity="0.8" stroke-miterlimit="10" d="M 588.804688 167.050781 L 588.804688 291.839844 "/>
<path fill="none" stroke-width="1.066978" stroke-linecap="butt" stroke-linejoin="round" stroke="rgb(100%, 91.372549%, 26.666667%)" stroke-opacity="0.8" stroke-miterlimit="10" d="M 426.972656 244.347656 L 426.972656 220.753906 "/>
<path fill="none" stroke-width="1.066978" stroke-linecap="butt" stroke-linejoin="round" stroke="rgb(0%, 12.54902%, 30.196078%)" stroke-opacity="0.8" stroke-miterlimit="10" d="M 37.652344 389.625 L 37.652344 49.738281 "/>
<path fill="none" stroke-width="1.066978" stroke-linecap="butt" stroke-linejoin="round" stroke="rgb(12.156863%, 23.529412%, 42.745098%)" stroke-opacity="0.8" stroke-miterlimit="10" d="M 71.144531 376.402344 L 71.144531 64.453125 "/>
<path fill="none" stroke-width="1.066978" stroke-linecap="butt" stroke-linejoin="round" stroke="rgb(100%, 89.803922%, 26.27451%)" stroke-opacity="0.8" stroke-miterlimit="10" d="M 436.960938 179.796875 L 436.960938 225.140625 "/>
<path fill="none" stroke-width="1.066978" stroke-linecap="butt" stroke-linejoin="round" stroke="rgb(100%, 90.588235%, 25.882353%)" stroke-opacity="0.8" stroke-miterlimit="10" d="M 289.769531 199.753906 L 289.769531 160.484375 "/>
<path fill="none" stroke-width="1.066978" stroke-linecap="butt" stroke-linejoin="round" stroke="rgb(92.156863%, 83.137255%, 33.72549%)" stroke-opacity="0.8" stroke-miterlimit="10" d="M 331.980469 279.507812 L 331.980469 179.027344 "/>
<path fill="none" stroke-width="1.066978" stroke-linecap="butt" stroke-linejoin="round" stroke="rgb(98.823529%, 88.627451%, 27.843137%)" stroke-opacity="0.8" stroke-miterlimit="10" d="M 407.667969 153.175781 L 407.667969 212.273438 "/>
<path fill="none" stroke-width="1.066978" stroke-linecap="butt" stroke-linejoin="round" stroke="rgb(100%, 90.196078%, 25.882353%)" stroke-opacity="0.8" stroke-miterlimit="10" d="M 371.742188 239.914062 L 371.742188 196.492188 "/>
<path fill="none" stroke-width="1.066978" stroke-linecap="butt" stroke-linejoin="round" stroke="rgb(67.058824%, 62.745098%, 45.490196%)" stroke-opacity="0.8" stroke-miterlimit="10" d="M 279.359375 347.890625 L 279.359375 155.914062 "/>
<path fill="none" stroke-width="1.066978" stroke-linecap="butt" stroke-linejoin="round" stroke="rgb(80.784314%, 73.72549%, 40.784314%)" stroke-opacity="0.8" stroke-miterlimit="10" d="M 239.042969 286.386719 L 239.042969 138.203125 "/>
<path fill="none" stroke-width="1.066978" stroke-linecap="butt" stroke-linejoin="round" stroke="rgb(100%, 89.803922%, 26.666667%)" stroke-opacity="0.8" stroke-miterlimit="10" d="M 341.792969 231.941406 L 341.792969 183.339844 "/>
<path fill="none" stroke-width="1.066978" stroke-linecap="butt" stroke-linejoin="round" stroke="rgb(90.588235%, 81.960784%, 34.901961%)" stroke-opacity="0.8" stroke-miterlimit="10" d="M 642.058594 207.265625 L 642.058594 315.234375 "/>
<path fill="none" stroke-width="1.066978" stroke-linecap="butt" stroke-linejoin="round" stroke="rgb(97.254902%, 87.45098%, 29.411765%)" stroke-opacity="0.8" stroke-miterlimit="10" d="M 581.523438 216.964844 L 581.523438 288.644531 "/>
<path fill="none" stroke-width="1.066978" stroke-linecap="butt" stroke-linejoin="round" stroke="rgb(100%, 90.588235%, 25.882353%)" stroke-opacity="0.8" stroke-miterlimit="10" d="M 380.261719 163.84375 L 380.261719 200.234375 "/>
<path fill="none" stroke-width="1.066978" stroke-linecap="butt" stroke-linejoin="round" stroke="rgb(100%, 91.764706%, 27.058824%)" stroke-opacity="0.8" stroke-miterlimit="10" d="M 340.5 171.34375 L 340.5 182.769531 "/>
<path fill="none" stroke-width="1.066978" stroke-linecap="butt" stroke-linejoin="round" stroke="rgb(88.627451%, 80.392157%, 36.078431%)" stroke-opacity="0.8" stroke-miterlimit="10" d="M 110.730469 199.167969 L 110.730469 81.839844 "/>
<path fill="none" stroke-width="1.066978" stroke-linecap="butt" stroke-linejoin="round" stroke="rgb(87.058824%, 79.215686%, 37.254902%)" stroke-opacity="0.8" stroke-miterlimit="10" d="M 352.8125 311.289062 L 352.8125 188.175781 "/>
<path fill="none" stroke-width="1.066978" stroke-linecap="butt" stroke-linejoin="round" stroke="rgb(100%, 90.980392%, 26.27451%)" stroke-opacity="0.8" stroke-miterlimit="10" d="M 466.773438 208.175781 L 466.773438 238.238281 "/>
<path fill="none" stroke-width="1.066978" stroke-linecap="butt" stroke-linejoin="round" stroke="rgb(88.235294%, 80%, 36.470588%)" stroke-opacity="0.8" stroke-miterlimit="10" d="M 195.171875 238.007812 L 195.171875 118.933594 "/>
<path fill="none" stroke-width="1.066978" stroke-linecap="butt" stroke-linejoin="round" stroke="rgb(92.156863%, 83.137255%, 33.72549%)" stroke-opacity="0.8" stroke-miterlimit="10" d="M 492.074219 148.726562 L 492.074219 249.351562 "/>
<path fill="none" stroke-width="1.066978" stroke-linecap="butt" stroke-linejoin="round" stroke="rgb(100%, 89.803922%, 26.666667%)" stroke-opacity="0.8" stroke-miterlimit="10" d="M 500.746094 205.757812 L 500.746094 253.160156 "/>
<path fill="none" stroke-width="1.066978" stroke-linecap="butt" stroke-linejoin="round" stroke="rgb(98.039216%, 88.235294%, 28.627451%)" stroke-opacity="0.8" stroke-miterlimit="10" d="M 204.058594 187.699219 L 204.058594 122.835938 "/>
<path fill="none" stroke-width="1.066978" stroke-linecap="butt" stroke-linejoin="round" stroke="rgb(49.411765%, 49.019608%, 47.058824%)" stroke-opacity="0.8" stroke-miterlimit="10" d="M 533.210938 28.746094 L 533.210938 267.421875 "/>
<path fill="none" stroke-width="1.066978" stroke-linecap="butt" stroke-linejoin="round" stroke="rgb(95.686275%, 86.27451%, 30.588235%)" stroke-opacity="0.8" stroke-miterlimit="10" d="M 322.617188 254.511719 L 322.617188 174.914062 "/>
<path fill="none" stroke-width="1.066978" stroke-linecap="butt" stroke-linejoin="round" stroke="rgb(75.686275%, 69.803922%, 42.745098%)" stroke-opacity="0.8" stroke-miterlimit="10" d="M 299.601562 329.425781 L 299.601562 164.804688 "/>
<path fill="none" stroke-width="1.066978" stroke-linecap="butt" stroke-linejoin="round" stroke="rgb(98.823529%, 88.627451%, 27.843137%)" stroke-opacity="0.8" stroke-miterlimit="10" d="M 501.605469 194.773438 L 501.605469 253.539062 "/>
<path fill="none" stroke-width="1.066978" stroke-linecap="butt" stroke-linejoin="round" stroke="rgb(91.764706%, 82.745098%, 34.117647%)" stroke-opacity="0.8" stroke-miterlimit="10" d="M 426.441406 322.15625 L 426.441406 220.519531 "/>
<path fill="none" stroke-width="1.066978" stroke-linecap="butt" stroke-linejoin="round" stroke="rgb(100%, 90.588235%, 25.882353%)" stroke-opacity="0.8" stroke-miterlimit="10" d="M 313.503906 205.425781 L 313.503906 170.910156 "/>
<path fill="none" stroke-width="1.066978" stroke-linecap="butt" stroke-linejoin="round" stroke="rgb(49.803922%, 49.019608%, 47.058824%)" stroke-opacity="0.8" stroke-miterlimit="10" d="M 191.511719 355.558594 L 191.511719 117.324219 "/>
<path fill="none" stroke-width="1.066978" stroke-linecap="butt" stroke-linejoin="round" stroke="rgb(88.235294%, 80%, 36.470588%)" stroke-opacity="0.8" stroke-miterlimit="10" d="M 509.949219 138.316406 L 509.949219 257.203125 "/>
<path fill="none" stroke-width="1.066978" stroke-linecap="butt" stroke-linejoin="round" stroke="rgb(69.803922%, 65.098039%, 44.705882%)" stroke-opacity="0.8" stroke-miterlimit="10" d="M 205.035156 305.933594 L 205.035156 123.265625 "/>
<path fill="none" stroke-width="1.066978" stroke-linecap="butt" stroke-linejoin="round" stroke="rgb(44.313725%, 44.313725%, 45.490196%)" stroke-opacity="0.8" stroke-miterlimit="10" d="M 85.113281 323.203125 L 85.113281 70.585938 "/>
<path fill="none" stroke-width="1.066978" stroke-linecap="butt" stroke-linejoin="round" stroke="rgb(100%, 91.764706%, 27.45098%)" stroke-opacity="0.8" stroke-miterlimit="10" d="M 515.453125 249.179688 L 515.453125 259.621094 "/>
<path fill="none" stroke-width="1.066978" stroke-linecap="butt" stroke-linejoin="round" stroke="rgb(95.686275%, 86.27451%, 30.588235%)" stroke-opacity="0.8" stroke-miterlimit="10" d="M 500.179688 173.363281 L 500.179688 252.910156 "/>
<path fill="none" stroke-width="1.066978" stroke-linecap="butt" stroke-linejoin="round" stroke="rgb(100%, 91.764706%, 27.45098%)" stroke-opacity="0.8" stroke-miterlimit="10" d="M 455.734375 226.59375 L 455.734375 233.386719 "/>
<path fill="none" stroke-width="1.066978" stroke-linecap="butt" stroke-linejoin="round" stroke="rgb(12.941176%, 23.921569%, 42.745098%)" stroke-opacity="0.8" stroke-miterlimit="10" d="M 20.617188 353.582031 L 20.617188 42.257812 "/>
<path fill="none" stroke-width="1.066978" stroke-linecap="butt" stroke-linejoin="round" stroke="rgb(96.862745%, 87.058824%, 29.803922%)" stroke-opacity="0.8" stroke-miterlimit="10" d="M 328.890625 251.953125 L 328.890625 177.671875 "/>
<path fill="none" stroke-width="1.066978" stroke-linecap="butt" stroke-linejoin="round" stroke="rgb(100%, 90.588235%, 25.882353%)" stroke-opacity="0.8" stroke-miterlimit="10" d="M 382.722656 165.050781 L 382.722656 201.316406 "/>
<path fill="none" stroke-width="1.066978" stroke-linecap="butt" stroke-linejoin="round" stroke="rgb(100%, 91.372549%, 26.666667%)" stroke-opacity="0.8" stroke-miterlimit="10" d="M 549.410156 250.953125 L 549.410156 274.535156 "/>
<path fill="none" stroke-width="1.066978" stroke-linecap="butt" stroke-linejoin="round" stroke="rgb(100%, 91.764706%, 27.45098%)" stroke-opacity="0.8" stroke-miterlimit="10" d="M 415.679688 225.183594 L 415.679688 215.792969 "/>
<path fill="none" stroke-width="1.066978" stroke-linecap="butt" stroke-linejoin="round" stroke="rgb(68.235294%, 63.921569%, 45.490196%)" stroke-opacity="0.8" stroke-miterlimit="10" d="M 178.9375 299.460938 L 178.9375 111.800781 "/>
<path fill-rule="nonzero" fill="rgb(18.431373%, 30.980392%, 30.980392%)" fill-opacity="0.901961" stroke-width="0.708661" stroke-linecap="round" stroke-linejoin="round" stroke="rgb(18.431373%, 30.980392%, 30.980392%)" stroke-opacity="0.901961" stroke-miterlimit="10" d="M 372.925781 201.511719 C 372.925781 204.65625 370.378906 207.203125 367.234375 207.203125 C 364.09375 207.203125 361.546875 204.65625 361.546875 201.511719 C 361.546875 198.371094 364.09375 195.824219 367.234375 195.824219 C 370.378906 195.824219 372.925781 198.371094 372.925781 201.511719 "/>
<path fill-rule="nonzero" fill="rgb(18.431373%, 30.980392%, 30.980392%)" fill-opacity="0.901961" stroke-width="0.708661" stroke-linecap="round" stroke-linejoin="round" stroke="rgb(18.431373%, 30.980392%, 30.980392%)" stroke-opacity="0.901961" stroke-miterlimit="10" d="M 195.164062 189.476562 C 195.164062 192.617188 192.617188 195.164062 189.476562 195.164062 C 186.332031 195.164062 183.785156 192.617188 183.785156 189.476562 C 183.785156 186.335938 186.332031 183.785156 189.476562 183.785156 C 192.617188 183.785156 195.164062 186.335938 195.164062 189.476562 "/>
<path fill-rule="nonzero" fill="rgb(18.431373%, 30.980392%, 30.980392%)" fill-opacity="0.901961" stroke-width="0.708661" stroke-linecap="round" stroke-linejoin="round" stroke="rgb(18.431373%, 30.980392%, 30.980392%)" stroke-opacity="0.901961" stroke-miterlimit="10" d="M 451.050781 426.109375 C 451.050781 429.25 448.503906 431.796875 445.359375 431.796875 C 442.21875 431.796875 439.671875 429.25 439.671875 426.109375 C 439.671875 422.96875 442.21875 420.417969 445.359375 420.417969 C 448.503906 420.417969 451.050781 422.96875 451.050781 426.109375 "/>
<path fill-rule="nonzero" fill="rgb(18.431373%, 30.980392%, 30.980392%)" fill-opacity="0.901961" stroke-width="0.708661" stroke-linecap="round" stroke-linejoin="round" stroke="rgb(18.431373%, 30.980392%, 30.980392%)" stroke-opacity="0.901961" stroke-miterlimit="10" d="M 395.078125 286.039062 C 395.078125 289.179688 392.53125 291.726562 389.390625 291.726562 C 386.25 291.726562 383.703125 289.179688 383.703125 286.039062 C 383.703125 282.894531 386.25 280.347656 389.390625 280.347656 C 392.53125 280.347656 395.078125 282.894531 395.078125 286.039062 "/>
<path fill-rule="nonzero" fill="rgb(18.431373%, 30.980392%, 30.980392%)" fill-opacity="0.901961" stroke-width="0.708661" stroke-linecap="round" stroke-linejoin="round" stroke="rgb(18.431373%, 30.980392%, 30.980392%)" stroke-opacity="0.901961" stroke-miterlimit="10" d="M 312.628906 177.667969 C 312.628906 180.808594 310.082031 183.355469 306.941406 183.355469 C 303.800781 183.355469 301.253906 180.808594 301.253906 177.667969 C 301.253906 174.523438 303.800781 171.976562 306.941406 171.976562 C 310.082031 171.976562 312.628906 174.523438 312.628906 177.667969 "/>
<path fill-rule="nonzero" fill="rgb(18.431373%, 30.980392%, 30.980392%)" fill-opacity="0.901961" stroke-width="0.708661" stroke-linecap="round" stroke-linejoin="round" stroke="rgb(18.431373%, 30.980392%, 30.980392%)" stroke-opacity="0.901961" stroke-miterlimit="10" d="M 400.480469 260.804688 C 400.480469 263.949219 397.933594 266.496094 394.792969 266.496094 C 391.652344 266.496094 389.105469 263.949219 389.105469 260.804688 C 389.105469 257.664062 391.652344 255.117188 394.792969 255.117188 C 397.933594 255.117188 400.480469 257.664062 400.480469 260.804688 "/>
<path fill-rule="nonzero" fill="rgb(18.431373%, 30.980392%, 30.980392%)" fill-opacity="0.901961" stroke-width="0.708661" stroke-linecap="round" stroke-linejoin="round" stroke="rgb(18.431373%, 30.980392%, 30.980392%)" stroke-opacity="0.901961" stroke-miterlimit="10" d="M 393.871094 179.410156 C 393.871094 182.554688 391.324219 185.101562 388.179688 185.101562 C 385.039062 185.101562 382.492188 182.554688 382.492188 179.410156 C 382.492188 176.269531 385.039062 173.722656 388.179688 173.722656 C 391.324219 173.722656 393.871094 176.269531 393.871094 179.410156 "/>
<path fill-rule="nonzero" fill="rgb(18.431373%, 30.980392%, 30.980392%)" fill-opacity="0.901961" stroke-width="0.708661" stroke-linecap="round" stroke-linejoin="round" stroke="rgb(18.431373%, 30.980392%, 30.980392%)" stroke-opacity="0.901961" stroke-miterlimit="10" d="M 280.515625 350.371094 C 280.515625 353.511719 277.96875 356.058594 274.824219 356.058594 C 271.683594 356.058594 269.136719 353.511719 269.136719 350.371094 C 269.136719 347.226562 271.683594 344.679688 274.824219 344.679688 C 277.96875 344.679688 280.515625 347.226562 280.515625 350.371094 "/>
<path fill-rule="nonzero" fill="rgb(18.431373%, 30.980392%, 30.980392%)" fill-opacity="0.901961" stroke-width="0.708661" stroke-linecap="round" stroke-linejoin="round" stroke="rgb(18.431373%, 30.980392%, 30.980392%)" stroke-opacity="0.901961" stroke-miterlimit="10" d="M 481.894531 229.835938 C 481.894531 232.976562 479.347656 235.527344 476.203125 235.527344 C 473.0625 235.527344 470.515625 232.976562 470.515625 229.835938 C 470.515625 226.695312 473.0625 224.148438 476.203125 224.148438 C 479.347656 224.148438 481.894531 226.695312 481.894531 229.835938 "/>
<path fill-rule="nonzero" fill="rgb(18.431373%, 30.980392%, 30.980392%)" fill-opacity="0.901961" stroke-width="0.708661" stroke-linecap="round" stroke-linejoin="round" stroke="rgb(18.431373%, 30.980392%, 30.980392%)" stroke-opacity="0.901961" stroke-miterlimit="10" d="M 580.46875 82.710938 C 580.46875 85.855469 577.921875 88.402344 574.777344 88.402344 C 571.636719 88.402344 569.089844 85.855469 569.089844 82.710938 C 569.089844 79.570312 571.636719 77.023438 574.777344 77.023438 C 577.921875 77.023438 580.46875 79.570312 580.46875 82.710938 "/>
<path fill-rule="nonzero" fill="rgb(18.431373%, 30.980392%, 30.980392%)" fill-opacity="0.901961" stroke-width="0.708661" stroke-linecap="round" stroke-linejoin="round" stroke="rgb(18.431373%, 30.980392%, 30.980392%)" stroke-opacity="0.901961" stroke-miterlimit="10" d="M 298.851562 371.207031 C 298.851562 374.347656 296.304688 376.894531 293.164062 376.894531 C 290.023438 376.894531 287.476562 374.347656 287.476562 371.207031 C 287.476562 368.066406 290.023438 365.519531 293.164062 365.519531 C 296.304688 365.519531 298.851562 368.066406 298.851562 371.207031 "/>
<path fill-rule="nonzero" fill="rgb(18.431373%, 30.980392%, 30.980392%)" fill-opacity="0.901961" stroke-width="0.708661" stroke-linecap="round" stroke-linejoin="round" stroke="rgb(18.431373%, 30.980392%, 30.980392%)" stroke-opacity="0.901961" stroke-miterlimit="10" d="M 254.660156 223.316406 C 254.660156 226.457031 252.113281 229.003906 248.972656 229.003906 C 245.832031 229.003906 243.28125 226.457031 243.28125 223.316406 C 243.28125 220.171875 245.832031 217.625 248.972656 217.625 C 252.113281 217.625 254.660156 220.171875 254.660156 223.316406 "/>
<path fill-rule="nonzero" fill="rgb(18.431373%, 30.980392%, 30.980392%)" fill-opacity="0.901961" stroke-width="0.708661" stroke-linecap="round" stroke-linejoin="round" stroke="rgb(18.431373%, 30.980392%, 30.980392%)" stroke-opacity="0.901961" stroke-miterlimit="10" d="M 400.984375 283.363281 C 400.984375 286.507812 398.4375 289.054688 395.292969 289.054688 C 392.152344 289.054688 389.605469 286.507812 389.605469 283.363281 C 389.605469 280.222656 392.152344 277.675781 395.292969 277.675781 C 398.4375 277.675781 400.984375 280.222656 400.984375 283.363281 "/>
<path fill-rule="nonzero" fill="rgb(18.431373%, 30.980392%, 30.980392%)" fill-opacity="0.901961" stroke-width="0.708661" stroke-linecap="round" stroke-linejoin="round" stroke="rgb(18.431373%, 30.980392%, 30.980392%)" stroke-opacity="0.901961" stroke-miterlimit="10" d="M 307.4375 275.265625 C 307.4375 278.40625 304.890625 280.953125 301.746094 280.953125 C 298.605469 280.953125 296.058594 278.40625 296.058594 275.265625 C 296.058594 272.121094 298.605469 269.574219 301.746094 269.574219 C 304.890625 269.574219 307.4375 272.121094 307.4375 275.265625 "/>
<path fill-rule="nonzero" fill="rgb(18.431373%, 30.980392%, 30.980392%)" fill-opacity="0.901961" stroke-width="0.708661" stroke-linecap="round" stroke-linejoin="round" stroke="rgb(18.431373%, 30.980392%, 30.980392%)" stroke-opacity="0.901961" stroke-miterlimit="10" d="M 591.332031 182.09375 C 591.332031 185.238281 588.785156 187.785156 585.644531 187.785156 C 582.5 187.785156 579.953125 185.238281 579.953125 182.09375 C 579.953125 178.953125 582.5 176.40625 585.644531 176.40625 C 588.785156 176.40625 591.332031 178.953125 591.332031 182.09375 "/>
<path fill-rule="nonzero" fill="rgb(18.431373%, 30.980392%, 30.980392%)" fill-opacity="0.901961" stroke-width="0.708661" stroke-linecap="round" stroke-linejoin="round" stroke="rgb(18.431373%, 30.980392%, 30.980392%)" stroke-opacity="0.901961" stroke-miterlimit="10" d="M 296.265625 139.503906 C 296.265625 142.644531 293.71875 145.191406 290.578125 145.191406 C 287.433594 145.191406 284.886719 142.644531 284.886719 139.503906 C 284.886719 136.363281 287.433594 133.816406 290.578125 133.816406 C 293.71875 133.816406 296.265625 136.363281 296.265625 139.503906 "/>
<path fill-rule="nonzero" fill="rgb(18.431373%, 30.980392%, 30.980392%)" fill-opacity="0.901961" stroke-width="0.708661" stroke-linecap="round" stroke-linejoin="round" stroke="rgb(18.431373%, 30.980392%, 30.980392%)" stroke-opacity="0.901961" stroke-miterlimit="10" d="M 469.011719 177.328125 C 469.011719 180.46875 466.464844 183.015625 463.320312 183.015625 C 460.179688 183.015625 457.632812 180.46875 457.632812 177.328125 C 457.632812 174.183594 460.179688 171.636719 463.320312 171.636719 C 466.464844 171.636719 469.011719 174.183594 469.011719 177.328125 "/>
<path fill-rule="nonzero" fill="rgb(18.431373%, 30.980392%, 30.980392%)" fill-opacity="0.901961" stroke-width="0.708661" stroke-linecap="round" stroke-linejoin="round" stroke="rgb(18.431373%, 30.980392%, 30.980392%)" stroke-opacity="0.901961" stroke-miterlimit="10" d="M 566.316406 265.4375 C 566.316406 268.578125 563.769531 271.125 560.628906 271.125 C 557.484375 271.125 554.9375 268.578125 554.9375 265.4375 C 554.9375 262.292969 557.484375 259.746094 560.628906 259.746094 C 563.769531 259.746094 566.316406 262.292969 566.316406 265.4375 "/>
<path fill-rule="nonzero" fill="rgb(18.431373%, 30.980392%, 30.980392%)" fill-opacity="0.901961" stroke-width="0.708661" stroke-linecap="round" stroke-linejoin="round" stroke="rgb(18.431373%, 30.980392%, 30.980392%)" stroke-opacity="0.901961" stroke-miterlimit="10" d="M 726.671875 101.378906 C 726.671875 104.519531 724.125 107.066406 720.980469 107.066406 C 717.839844 107.066406 715.292969 104.519531 715.292969 101.378906 C 715.292969 98.234375 717.839844 95.6875 720.980469 95.6875 C 724.125 95.6875 726.671875 98.234375 726.671875 101.378906 "/>
<path fill-rule="nonzero" fill="rgb(18.431373%, 30.980392%, 30.980392%)" fill-opacity="0.901961" stroke-width="0.708661" stroke-linecap="round" stroke-linejoin="round" stroke="rgb(18.431373%, 30.980392%, 30.980392%)" stroke-opacity="0.901961" stroke-miterlimit="10" d="M 423.636719 271.328125 C 423.636719 274.46875 421.089844 277.015625 417.945312 277.015625 C 414.804688 277.015625 412.257812 274.46875 412.257812 271.328125 C 412.257812 268.1875 414.804688 265.636719 417.945312 265.636719 C 421.089844 265.636719 423.636719 268.1875 423.636719 271.328125 "/>
<path fill-rule="nonzero" fill="rgb(18.431373%, 30.980392%, 30.980392%)" fill-opacity="0.901961" stroke-width="0.708661" stroke-linecap="round" stroke-linejoin="round" stroke="rgb(18.431373%, 30.980392%, 30.980392%)" stroke-opacity="0.901961" stroke-miterlimit="10" d="M 613.308594 215.023438 C 613.308594 218.164062 610.761719 220.710938 607.621094 220.710938 C 604.480469 220.710938 601.929688 218.164062 601.929688 215.023438 C 601.929688 211.878906 604.480469 209.332031 607.621094 209.332031 C 610.761719 209.332031 613.308594 211.878906 613.308594 215.023438 "/>
<path fill-rule="nonzero" fill="rgb(18.431373%, 30.980392%, 30.980392%)" fill-opacity="0.901961" stroke-width="0.708661" stroke-linecap="round" stroke-linejoin="round" stroke="rgb(18.431373%, 30.980392%, 30.980392%)" stroke-opacity="0.901961" stroke-miterlimit="10" d="M 448.113281 291.804688 C 448.113281 294.949219 445.566406 297.496094 442.425781 297.496094 C 439.285156 297.496094 436.738281 294.949219 436.738281 291.804688 C 436.738281 288.664062 439.285156 286.117188 442.425781 286.117188 C 445.566406 286.117188 448.113281 288.664062 448.113281 291.804688 "/>
<path fill-rule="nonzero" fill="rgb(18.431373%, 30.980392%, 30.980392%)" fill-opacity="0.901961" stroke-width="0.708661" stroke-linecap="round" stroke-linejoin="round" stroke="rgb(18.431373%, 30.980392%, 30.980392%)" stroke-opacity="0.901961" stroke-miterlimit="10" d="M 388.589844 273.664062 C 388.589844 276.804688 386.042969 279.351562 382.902344 279.351562 C 379.757812 279.351562 377.210938 276.804688 377.210938 273.664062 C 377.210938 270.519531 379.757812 267.972656 382.902344 267.972656 C 386.042969 267.972656 388.589844 270.519531 388.589844 273.664062 "/>
<path fill-rule="nonzero" fill="rgb(18.431373%, 30.980392%, 30.980392%)" fill-opacity="0.901961" stroke-width="0.708661" stroke-linecap="round" stroke-linejoin="round" stroke="rgb(18.431373%, 30.980392%, 30.980392%)" stroke-opacity="0.901961" stroke-miterlimit="10" d="M 423.835938 252.5 C 423.835938 255.640625 421.289062 258.1875 418.148438 258.1875 C 415.003906 258.1875 412.457031 255.640625 412.457031 252.5 C 412.457031 249.355469 415.003906 246.808594 418.148438 246.808594 C 421.289062 246.808594 423.835938 249.355469 423.835938 252.5 "/>
<path fill-rule="nonzero" fill="rgb(18.431373%, 30.980392%, 30.980392%)" fill-opacity="0.901961" stroke-width="0.708661" stroke-linecap="round" stroke-linejoin="round" stroke="rgb(18.431373%, 30.980392%, 30.980392%)" stroke-opacity="0.901961" stroke-miterlimit="10" d="M 568.722656 224.292969 C 568.722656 227.4375 566.175781 229.984375 563.035156 229.984375 C 559.890625 229.984375 557.34375 227.4375 557.34375 224.292969 C 557.34375 221.152344 559.890625 218.605469 563.035156 218.605469 C 566.175781 218.605469 568.722656 221.152344 568.722656 224.292969 "/>
<path fill-rule="nonzero" fill="rgb(18.431373%, 30.980392%, 30.980392%)" fill-opacity="0.901961" stroke-width="0.708661" stroke-linecap="round" stroke-linejoin="round" stroke="rgb(18.431373%, 30.980392%, 30.980392%)" stroke-opacity="0.901961" stroke-miterlimit="10" d="M 406.457031 242.886719 C 406.457031 246.027344 403.910156 248.574219 400.765625 248.574219 C 397.625 248.574219 395.078125 246.027344 395.078125 242.886719 C 395.078125 239.746094 397.625 237.199219 400.765625 237.199219 C 403.910156 237.199219 406.457031 239.746094 406.457031 242.886719 "/>
<path fill-rule="nonzero" fill="rgb(18.431373%, 30.980392%, 30.980392%)" fill-opacity="0.901961" stroke-width="0.708661" stroke-linecap="round" stroke-linejoin="round" stroke="rgb(18.431373%, 30.980392%, 30.980392%)" stroke-opacity="0.901961" stroke-miterlimit="10" d="M 358.414062 175.820312 C 358.414062 178.960938 355.867188 181.511719 352.726562 181.511719 C 349.582031 181.511719 347.035156 178.960938 347.035156 175.820312 C 347.035156 172.679688 349.582031 170.132812 352.726562 170.132812 C 355.867188 170.132812 358.414062 172.679688 358.414062 175.820312 "/>
<path fill-rule="nonzero" fill="rgb(18.431373%, 30.980392%, 30.980392%)" fill-opacity="0.901961" stroke-width="0.708661" stroke-linecap="round" stroke-linejoin="round" stroke="rgb(18.431373%, 30.980392%, 30.980392%)" stroke-opacity="0.901961" stroke-miterlimit="10" d="M 263.980469 255.675781 C 263.980469 258.816406 261.433594 261.363281 258.289062 261.363281 C 255.148438 261.363281 252.601562 258.816406 252.601562 255.675781 C 252.601562 252.535156 255.148438 249.988281 258.289062 249.988281 C 261.433594 249.988281 263.980469 252.535156 263.980469 255.675781 "/>
<path fill-rule="nonzero" fill="rgb(18.431373%, 30.980392%, 30.980392%)" fill-opacity="0.901961" stroke-width="0.708661" stroke-linecap="round" stroke-linejoin="round" stroke="rgb(18.431373%, 30.980392%, 30.980392%)" stroke-opacity="0.901961" stroke-miterlimit="10" d="M 125.453125 376.828125 C 125.453125 379.972656 122.90625 382.519531 119.765625 382.519531 C 116.621094 382.519531 114.074219 379.972656 114.074219 376.828125 C 114.074219 373.6875 116.621094 371.140625 119.765625 371.140625 C 122.90625 371.140625 125.453125 373.6875 125.453125 376.828125 "/>
<path fill-rule="nonzero" fill="rgb(18.431373%, 30.980392%, 30.980392%)" fill-opacity="0.901961" stroke-width="0.708661" stroke-linecap="round" stroke-linejoin="round" stroke="rgb(18.431373%, 30.980392%, 30.980392%)" stroke-opacity="0.901961" stroke-miterlimit="10" d="M 542.078125 59.4375 C 542.078125 62.578125 539.53125 65.125 536.390625 65.125 C 533.246094 65.125 530.699219 62.578125 530.699219 59.4375 C 530.699219 56.292969 533.246094 53.746094 536.390625 53.746094 C 539.53125 53.746094 542.078125 56.292969 542.078125 59.4375 "/>
<path fill-rule="nonzero" fill="rgb(18.431373%, 30.980392%, 30.980392%)" fill-opacity="0.901961" stroke-width="0.708661" stroke-linecap="round" stroke-linejoin="round" stroke="rgb(18.431373%, 30.980392%, 30.980392%)" stroke-opacity="0.901961" stroke-miterlimit="10" d="M 288.148438 239.226562 C 288.148438 242.371094 285.601562 244.917969 282.457031 244.917969 C 279.316406 244.917969 276.769531 242.371094 276.769531 239.226562 C 276.769531 236.085938 279.316406 233.539062 282.457031 233.539062 C 285.601562 233.539062 288.148438 236.085938 288.148438 239.226562 "/>
<path fill-rule="nonzero" fill="rgb(18.431373%, 30.980392%, 30.980392%)" fill-opacity="0.901961" stroke-width="0.708661" stroke-linecap="round" stroke-linejoin="round" stroke="rgb(18.431373%, 30.980392%, 30.980392%)" stroke-opacity="0.901961" stroke-miterlimit="10" d="M 437.246094 306.046875 C 437.246094 309.1875 434.699219 311.734375 431.554688 311.734375 C 428.414062 311.734375 425.867188 309.1875 425.867188 306.046875 C 425.867188 302.902344 428.414062 300.355469 431.554688 300.355469 C 434.699219 300.355469 437.246094 302.902344 437.246094 306.046875 "/>
<path fill-rule="nonzero" fill="rgb(18.431373%, 30.980392%, 30.980392%)" fill-opacity="0.901961" stroke-width="0.708661" stroke-linecap="round" stroke-linejoin="round" stroke="rgb(18.431373%, 30.980392%, 30.980392%)" stroke-opacity="0.901961" stroke-miterlimit="10" d="M 484.007812 177.332031 C 484.007812 180.476562 481.460938 183.023438 478.320312 183.023438 C 475.175781 183.023438 472.628906 180.476562 472.628906 177.332031 C 472.628906 174.191406 475.175781 171.644531 478.320312 171.644531 C 481.460938 171.644531 484.007812 174.191406 484.007812 177.332031 "/>
<path fill-rule="nonzero" fill="rgb(18.431373%, 30.980392%, 30.980392%)" fill-opacity="0.901961" stroke-width="0.708661" stroke-linecap="round" stroke-linejoin="round" stroke="rgb(18.431373%, 30.980392%, 30.980392%)" stroke-opacity="0.901961" stroke-miterlimit="10" d="M 510.3125 178.855469 C 510.3125 181.996094 507.765625 184.542969 504.621094 184.542969 C 501.480469 184.542969 498.933594 181.996094 498.933594 178.855469 C 498.933594 175.710938 501.480469 173.164062 504.621094 173.164062 C 507.765625 173.164062 510.3125 175.710938 510.3125 178.855469 "/>
<path fill-rule="nonzero" fill="rgb(18.431373%, 30.980392%, 30.980392%)" fill-opacity="0.901961" stroke-width="0.708661" stroke-linecap="round" stroke-linejoin="round" stroke="rgb(18.431373%, 30.980392%, 30.980392%)" stroke-opacity="0.901961" stroke-miterlimit="10" d="M 252.34375 350.351562 C 252.34375 353.496094 249.796875 356.042969 246.652344 356.042969 C 243.511719 356.042969 240.964844 353.496094 240.964844 350.351562 C 240.964844 347.210938 243.511719 344.664062 246.652344 344.664062 C 249.796875 344.664062 252.34375 347.210938 252.34375 350.351562 "/>
<path fill-rule="nonzero" fill="rgb(18.431373%, 30.980392%, 30.980392%)" fill-opacity="0.901961" stroke-width="0.708661" stroke-linecap="round" stroke-linejoin="round" stroke="rgb(18.431373%, 30.980392%, 30.980392%)" stroke-opacity="0.901961" stroke-miterlimit="10" d="M 653.820312 20.289062 C 653.820312 23.433594 651.273438 25.980469 648.132812 25.980469 C 644.988281 25.980469 642.441406 23.433594 642.441406 20.289062 C 642.441406 17.148438 644.988281 14.601562 648.132812 14.601562 C 651.273438 14.601562 653.820312 17.148438 653.820312 20.289062 "/>
<path fill-rule="nonzero" fill="rgb(18.431373%, 30.980392%, 30.980392%)" fill-opacity="0.901961" stroke-width="0.708661" stroke-linecap="round" stroke-linejoin="round" stroke="rgb(18.431373%, 30.980392%, 30.980392%)" stroke-opacity="0.901961" stroke-miterlimit="10" d="M 655.328125 130.695312 C 655.328125 133.839844 652.78125 136.386719 649.636719 136.386719 C 646.496094 136.386719 643.949219 133.839844 643.949219 130.695312 C 643.949219 127.554688 646.496094 125.007812 649.636719 125.007812 C 652.78125 125.007812 655.328125 127.554688 655.328125 130.695312 "/>
<path fill-rule="nonzero" fill="rgb(18.431373%, 30.980392%, 30.980392%)" fill-opacity="0.901961" stroke-width="0.708661" stroke-linecap="round" stroke-linejoin="round" stroke="rgb(18.431373%, 30.980392%, 30.980392%)" stroke-opacity="0.901961" stroke-miterlimit="10" d="M 579.910156 140.367188 C 579.910156 143.511719 577.363281 146.058594 574.21875 146.058594 C 571.078125 146.058594 568.53125 143.511719 568.53125 140.367188 C 568.53125 137.226562 571.078125 134.679688 574.21875 134.679688 C 577.363281 134.679688 579.910156 137.226562 579.910156 140.367188 "/>
<path fill-rule="nonzero" fill="rgb(18.431373%, 30.980392%, 30.980392%)" fill-opacity="0.901961" stroke-width="0.708661" stroke-linecap="round" stroke-linejoin="round" stroke="rgb(18.431373%, 30.980392%, 30.980392%)" stroke-opacity="0.901961" stroke-miterlimit="10" d="M 477.359375 242.59375 C 477.359375 245.734375 474.8125 248.285156 471.667969 248.285156 C 468.527344 248.285156 465.980469 245.734375 465.980469 242.59375 C 465.980469 239.453125 468.527344 236.90625 471.667969 236.90625 C 474.8125 236.90625 477.359375 239.453125 477.359375 242.59375 "/>
<path fill-rule="nonzero" fill="rgb(18.431373%, 30.980392%, 30.980392%)" fill-opacity="0.901961" stroke-width="0.708661" stroke-linecap="round" stroke-linejoin="round" stroke="rgb(18.431373%, 30.980392%, 30.980392%)" stroke-opacity="0.901961" stroke-miterlimit="10" d="M 391.390625 213.867188 C 391.390625 217.007812 388.84375 219.554688 385.703125 219.554688 C 382.558594 219.554688 380.011719 217.007812 380.011719 213.867188 C 380.011719 210.726562 382.558594 208.179688 385.703125 208.179688 C 388.84375 208.179688 391.390625 210.726562 391.390625 213.867188 "/>
<path fill-rule="nonzero" fill="rgb(18.431373%, 30.980392%, 30.980392%)" fill-opacity="0.901961" stroke-width="0.708661" stroke-linecap="round" stroke-linejoin="round" stroke="rgb(18.431373%, 30.980392%, 30.980392%)" stroke-opacity="0.901961" stroke-miterlimit="10" d="M 478.5625 183.523438 C 478.5625 186.667969 476.015625 189.214844 472.871094 189.214844 C 469.730469 189.214844 467.183594 186.667969 467.183594 183.523438 C 467.183594 180.382812 469.730469 177.835938 472.871094 177.835938 C 476.015625 177.835938 478.5625 180.382812 478.5625 183.523438 "/>
<path fill-rule="nonzero" fill="rgb(18.431373%, 30.980392%, 30.980392%)" fill-opacity="0.901961" stroke-width="0.708661" stroke-linecap="round" stroke-linejoin="round" stroke="rgb(18.431373%, 30.980392%, 30.980392%)" stroke-opacity="0.901961" stroke-miterlimit="10" d="M 509.246094 147.578125 C 509.246094 150.722656 506.699219 153.269531 503.554688 153.269531 C 500.414062 153.269531 497.867188 150.722656 497.867188 147.578125 C 497.867188 144.4375 500.414062 141.890625 503.554688 141.890625 C 506.699219 141.890625 509.246094 144.4375 509.246094 147.578125 "/>
<path fill-rule="nonzero" fill="rgb(18.431373%, 30.980392%, 30.980392%)" fill-opacity="0.901961" stroke-width="0.708661" stroke-linecap="round" stroke-linejoin="round" stroke="rgb(18.431373%, 30.980392%, 30.980392%)" stroke-opacity="0.901961" stroke-miterlimit="10" d="M 553.824219 245.054688 C 553.824219 248.199219 551.277344 250.746094 548.136719 250.746094 C 544.992188 250.746094 542.445312 248.199219 542.445312 245.054688 C 542.445312 241.914062 544.992188 239.367188 548.136719 239.367188 C 551.277344 239.367188 553.824219 241.914062 553.824219 245.054688 "/>
<path fill-rule="nonzero" fill="rgb(18.431373%, 30.980392%, 30.980392%)" fill-opacity="0.901961" stroke-width="0.708661" stroke-linecap="round" stroke-linejoin="round" stroke="rgb(18.431373%, 30.980392%, 30.980392%)" stroke-opacity="0.901961" stroke-miterlimit="10" d="M 329.335938 239.714844 C 329.335938 242.859375 326.789062 245.40625 323.648438 245.40625 C 320.507812 245.40625 317.960938 242.859375 317.960938 239.714844 C 317.960938 236.574219 320.507812 234.027344 323.648438 234.027344 C 326.789062 234.027344 329.335938 236.574219 329.335938 239.714844 "/>
<path fill-rule="nonzero" fill="rgb(18.431373%, 30.980392%, 30.980392%)" fill-opacity="0.901961" stroke-width="0.708661" stroke-linecap="round" stroke-linejoin="round" stroke="rgb(18.431373%, 30.980392%, 30.980392%)" stroke-opacity="0.901961" stroke-miterlimit="10" d="M 338.980469 271.890625 C 338.980469 275.03125 336.433594 277.578125 333.292969 277.578125 C 330.148438 277.578125 327.601562 275.03125 327.601562 271.890625 C 327.601562 268.746094 330.148438 266.199219 333.292969 266.199219 C 336.433594 266.199219 338.980469 268.746094 338.980469 271.890625 "/>
<path fill-rule="nonzero" fill="rgb(18.431373%, 30.980392%, 30.980392%)" fill-opacity="0.901961" stroke-width="0.708661" stroke-linecap="round" stroke-linejoin="round" stroke="rgb(18.431373%, 30.980392%, 30.980392%)" stroke-opacity="0.901961" stroke-miterlimit="10" d="M 358.09375 275.703125 C 358.09375 278.84375 355.546875 281.390625 352.40625 281.390625 C 349.261719 281.390625 346.714844 278.84375 346.714844 275.703125 C 346.714844 272.5625 349.261719 270.015625 352.40625 270.015625 C 355.546875 270.015625 358.09375 272.5625 358.09375 275.703125 "/>
<path fill-rule="nonzero" fill="rgb(18.431373%, 30.980392%, 30.980392%)" fill-opacity="0.901961" stroke-width="0.708661" stroke-linecap="round" stroke-linejoin="round" stroke="rgb(18.431373%, 30.980392%, 30.980392%)" stroke-opacity="0.901961" stroke-miterlimit="10" d="M 239.8125 233.328125 C 239.8125 236.46875 237.265625 239.015625 234.125 239.015625 C 230.984375 239.015625 228.4375 236.46875 228.4375 233.328125 C 228.4375 230.1875 230.984375 227.636719 234.125 227.636719 C 237.265625 227.636719 239.8125 230.1875 239.8125 233.328125 "/>
<path fill-rule="nonzero" fill="rgb(18.431373%, 30.980392%, 30.980392%)" fill-opacity="0.901961" stroke-width="0.708661" stroke-linecap="round" stroke-linejoin="round" stroke="rgb(18.431373%, 30.980392%, 30.980392%)" stroke-opacity="0.901961" stroke-miterlimit="10" d="M 465.550781 133.332031 C 465.550781 136.476562 463.003906 139.023438 459.863281 139.023438 C 456.722656 139.023438 454.175781 136.476562 454.175781 133.332031 C 454.175781 130.191406 456.722656 127.644531 459.863281 127.644531 C 463.003906 127.644531 465.550781 130.191406 465.550781 133.332031 "/>
<path fill-rule="nonzero" fill="rgb(18.431373%, 30.980392%, 30.980392%)" fill-opacity="0.901961" stroke-width="0.708661" stroke-linecap="round" stroke-linejoin="round" stroke="rgb(18.431373%, 30.980392%, 30.980392%)" stroke-opacity="0.901961" stroke-miterlimit="10" d="M 473.097656 218.070312 C 473.097656 221.210938 470.546875 223.757812 467.40625 223.757812 C 464.265625 223.757812 461.71875 221.210938 461.71875 218.070312 C 461.71875 214.925781 464.265625 212.378906 467.40625 212.378906 C 470.546875 212.378906 473.097656 214.925781 473.097656 218.070312 "/>
<path fill-rule="nonzero" fill="rgb(18.431373%, 30.980392%, 30.980392%)" fill-opacity="0.901961" stroke-width="0.708661" stroke-linecap="round" stroke-linejoin="round" stroke="rgb(18.431373%, 30.980392%, 30.980392%)" stroke-opacity="0.901961" stroke-miterlimit="10" d="M 619.757812 201.6875 C 619.757812 204.828125 617.210938 207.375 614.066406 207.375 C 610.925781 207.375 608.378906 204.828125 608.378906 201.6875 C 608.378906 198.542969 610.925781 195.996094 614.066406 195.996094 C 617.210938 195.996094 619.757812 198.542969 619.757812 201.6875 "/>
<path fill-rule="nonzero" fill="rgb(18.431373%, 30.980392%, 30.980392%)" fill-opacity="0.901961" stroke-width="0.708661" stroke-linecap="round" stroke-linejoin="round" stroke="rgb(18.431373%, 30.980392%, 30.980392%)" stroke-opacity="0.901961" stroke-miterlimit="10" d="M 310.398438 238.535156 C 310.398438 241.679688 307.851562 244.226562 304.710938 244.226562 C 301.566406 244.226562 299.019531 241.679688 299.019531 238.535156 C 299.019531 235.394531 301.566406 232.847656 304.710938 232.847656 C 307.851562 232.847656 310.398438 235.394531 310.398438 238.535156 "/>
<path fill-rule="nonzero" fill="rgb(18.431373%, 30.980392%, 30.980392%)" fill-opacity="0.901961" stroke-width="0.708661" stroke-linecap="round" stroke-linejoin="round" stroke="rgb(18.431373%, 30.980392%, 30.980392%)" stroke-opacity="0.901961" stroke-miterlimit="10" d="M 236.582031 326.097656 C 236.582031 329.242188 234.035156 331.789062 230.890625 331.789062 C 227.75 331.789062 225.203125 329.242188 225.203125 326.097656 C 225.203125 322.957031 227.75 320.410156 230.890625 320.410156 C 234.035156 320.410156 236.582031 322.957031 236.582031 326.097656 "/>
<path fill-rule="nonzero" fill="rgb(18.431373%, 30.980392%, 30.980392%)" fill-opacity="0.901961" stroke-width="0.708661" stroke-linecap="round" stroke-linejoin="round" stroke="rgb(18.431373%, 30.980392%, 30.980392%)" stroke-opacity="0.901961" stroke-miterlimit="10" d="M 546.347656 212.414062 C 546.347656 215.554688 543.800781 218.101562 540.660156 218.101562 C 537.515625 218.101562 534.96875 215.554688 534.96875 212.414062 C 534.96875 209.269531 537.515625 206.722656 540.660156 206.722656 C 543.800781 206.722656 546.347656 209.269531 546.347656 212.414062 "/>
<path fill-rule="nonzero" fill="rgb(18.431373%, 30.980392%, 30.980392%)" fill-opacity="0.901961" stroke-width="0.708661" stroke-linecap="round" stroke-linejoin="round" stroke="rgb(18.431373%, 30.980392%, 30.980392%)" stroke-opacity="0.901961" stroke-miterlimit="10" d="M 471.605469 280.199219 C 471.605469 283.339844 469.058594 285.886719 465.914062 285.886719 C 462.773438 285.886719 460.226562 283.339844 460.226562 280.199219 C 460.226562 277.054688 462.773438 274.507812 465.914062 274.507812 C 469.058594 274.507812 471.605469 277.054688 471.605469 280.199219 "/>
<path fill-rule="nonzero" fill="rgb(18.431373%, 30.980392%, 30.980392%)" fill-opacity="0.901961" stroke-width="0.708661" stroke-linecap="round" stroke-linejoin="round" stroke="rgb(18.431373%, 30.980392%, 30.980392%)" stroke-opacity="0.901961" stroke-miterlimit="10" d="M 300.894531 306.382812 C 300.894531 309.523438 298.347656 312.070312 295.207031 312.070312 C 292.0625 312.070312 289.515625 309.523438 289.515625 306.382812 C 289.515625 303.242188 292.0625 300.695312 295.207031 300.695312 C 298.347656 300.695312 300.894531 303.242188 300.894531 306.382812 "/>
<path fill-rule="nonzero" fill="rgb(18.431373%, 30.980392%, 30.980392%)" fill-opacity="0.901961" stroke-width="0.708661" stroke-linecap="round" stroke-linejoin="round" stroke="rgb(18.431373%, 30.980392%, 30.980392%)" stroke-opacity="0.901961" stroke-miterlimit="10" d="M 455.339844 243.605469 C 455.339844 246.746094 452.792969 249.292969 449.652344 249.292969 C 446.507812 249.292969 443.960938 246.746094 443.960938 243.605469 C 443.960938 240.460938 446.507812 237.914062 449.652344 237.914062 C 452.792969 237.914062 455.339844 240.460938 455.339844 243.605469 "/>
<path fill-rule="nonzero" fill="rgb(18.431373%, 30.980392%, 30.980392%)" fill-opacity="0.901961" stroke-width="0.708661" stroke-linecap="round" stroke-linejoin="round" stroke="rgb(18.431373%, 30.980392%, 30.980392%)" stroke-opacity="0.901961" stroke-miterlimit="10" d="M 533.070312 109.734375 C 533.070312 112.875 530.523438 115.421875 527.382812 115.421875 C 524.238281 115.421875 521.691406 112.875 521.691406 109.734375 C 521.691406 106.59375 524.238281 104.046875 527.382812 104.046875 C 530.523438 104.046875 533.070312 106.59375 533.070312 109.734375 "/>
<path fill-rule="nonzero" fill="rgb(18.431373%, 30.980392%, 30.980392%)" fill-opacity="0.901961" stroke-width="0.708661" stroke-linecap="round" stroke-linejoin="round" stroke="rgb(18.431373%, 30.980392%, 30.980392%)" stroke-opacity="0.901961" stroke-miterlimit="10" d="M 310.242188 163.964844 C 310.242188 167.105469 307.695312 169.652344 304.554688 169.652344 C 301.414062 169.652344 298.867188 167.105469 298.867188 163.964844 C 298.867188 160.820312 301.414062 158.273438 304.554688 158.273438 C 307.695312 158.273438 310.242188 160.820312 310.242188 163.964844 "/>
<path fill-rule="nonzero" fill="rgb(18.431373%, 30.980392%, 30.980392%)" fill-opacity="0.901961" stroke-width="0.708661" stroke-linecap="round" stroke-linejoin="round" stroke="rgb(18.431373%, 30.980392%, 30.980392%)" stroke-opacity="0.901961" stroke-miterlimit="10" d="M 594.496094 167.050781 C 594.496094 170.195312 591.949219 172.742188 588.804688 172.742188 C 585.664062 172.742188 583.117188 170.195312 583.117188 167.050781 C 583.117188 163.910156 585.664062 161.363281 588.804688 161.363281 C 591.949219 161.363281 594.496094 163.910156 594.496094 167.050781 "/>
<path fill-rule="nonzero" fill="rgb(18.431373%, 30.980392%, 30.980392%)" fill-opacity="0.901961" stroke-width="0.708661" stroke-linecap="round" stroke-linejoin="round" stroke="rgb(18.431373%, 30.980392%, 30.980392%)" stroke-opacity="0.901961" stroke-miterlimit="10" d="M 432.660156 244.347656 C 432.660156 247.488281 430.113281 250.035156 426.972656 250.035156 C 423.828125 250.035156 421.28125 247.488281 421.28125 244.347656 C 421.28125 241.203125 423.828125 238.65625 426.972656 238.65625 C 430.113281 238.65625 432.660156 241.203125 432.660156 244.347656 "/>
<path fill-rule="nonzero" fill="rgb(18.431373%, 30.980392%, 30.980392%)" fill-opacity="0.901961" stroke-width="0.708661" stroke-linecap="round" stroke-linejoin="round" stroke="rgb(18.431373%, 30.980392%, 30.980392%)" stroke-opacity="0.901961" stroke-miterlimit="10" d="M 43.34375 389.625 C 43.34375 392.765625 40.796875 395.316406 37.652344 395.316406 C 34.511719 395.316406 31.964844 392.765625 31.964844 389.625 C 31.964844 386.484375 34.511719 383.9375 37.652344 383.9375 C 40.796875 383.9375 43.34375 386.484375 43.34375 389.625 "/>
<path fill-rule="nonzero" fill="rgb(18.431373%, 30.980392%, 30.980392%)" fill-opacity="0.901961" stroke-width="0.708661" stroke-linecap="round" stroke-linejoin="round" stroke="rgb(18.431373%, 30.980392%, 30.980392%)" stroke-opacity="0.901961" stroke-miterlimit="10" d="M 76.835938 376.402344 C 76.835938 379.542969 74.289062 382.089844 71.144531 382.089844 C 68.003906 382.089844 65.457031 379.542969 65.457031 376.402344 C 65.457031 373.257812 68.003906 370.710938 71.144531 370.710938 C 74.289062 370.710938 76.835938 373.257812 76.835938 376.402344 "/>
<path fill-rule="nonzero" fill="rgb(18.431373%, 30.980392%, 30.980392%)" fill-opacity="0.901961" stroke-width="0.708661" stroke-linecap="round" stroke-linejoin="round" stroke="rgb(18.431373%, 30.980392%, 30.980392%)" stroke-opacity="0.901961" stroke-miterlimit="10" d="M 442.652344 179.796875 C 442.652344 182.941406 440.101562 185.488281 436.960938 185.488281 C 433.820312 185.488281 431.273438 182.941406 431.273438 179.796875 C 431.273438 176.65625 433.820312 174.109375 436.960938 174.109375 C 440.101562 174.109375 442.652344 176.65625 442.652344 179.796875 "/>
<path fill-rule="nonzero" fill="rgb(18.431373%, 30.980392%, 30.980392%)" fill-opacity="0.901961" stroke-width="0.708661" stroke-linecap="round" stroke-linejoin="round" stroke="rgb(18.431373%, 30.980392%, 30.980392%)" stroke-opacity="0.901961" stroke-miterlimit="10" d="M 295.460938 199.753906 C 295.460938 202.898438 292.914062 205.445312 289.769531 205.445312 C 286.628906 205.445312 284.082031 202.898438 284.082031 199.753906 C 284.082031 196.613281 286.628906 194.066406 289.769531 194.066406 C 292.914062 194.066406 295.460938 196.613281 295.460938 199.753906 "/>
<path fill-rule="nonzero" fill="rgb(18.431373%, 30.980392%, 30.980392%)" fill-opacity="0.901961" stroke-width="0.708661" stroke-linecap="round" stroke-linejoin="round" stroke="rgb(18.431373%, 30.980392%, 30.980392%)" stroke-opacity="0.901961" stroke-miterlimit="10" d="M 337.667969 279.507812 C 337.667969 282.648438 335.121094 285.195312 331.980469 285.195312 C 328.835938 285.195312 326.289062 282.648438 326.289062 279.507812 C 326.289062 276.367188 328.835938 273.816406 331.980469 273.816406 C 335.121094 273.816406 337.667969 276.367188 337.667969 279.507812 "/>
<path fill-rule="nonzero" fill="rgb(18.431373%, 30.980392%, 30.980392%)" fill-opacity="0.901961" stroke-width="0.708661" stroke-linecap="round" stroke-linejoin="round" stroke="rgb(18.431373%, 30.980392%, 30.980392%)" stroke-opacity="0.901961" stroke-miterlimit="10" d="M 413.355469 153.175781 C 413.355469 156.316406 410.808594 158.863281 407.667969 158.863281 C 404.523438 158.863281 401.976562 156.316406 401.976562 153.175781 C 401.976562 150.035156 404.523438 147.488281 407.667969 147.488281 C 410.808594 147.488281 413.355469 150.035156 413.355469 153.175781 "/>
<path fill-rule="nonzero" fill="rgb(18.431373%, 30.980392%, 30.980392%)" fill-opacity="0.901961" stroke-width="0.708661" stroke-linecap="round" stroke-linejoin="round" stroke="rgb(18.431373%, 30.980392%, 30.980392%)" stroke-opacity="0.901961" stroke-miterlimit="10" d="M 377.429688 239.914062 C 377.429688 243.054688 374.882812 245.601562 371.742188 245.601562 C 368.601562 245.601562 366.050781 243.054688 366.050781 239.914062 C 366.050781 236.769531 368.601562 234.222656 371.742188 234.222656 C 374.882812 234.222656 377.429688 236.769531 377.429688 239.914062 "/>
<path fill-rule="nonzero" fill="rgb(18.431373%, 30.980392%, 30.980392%)" fill-opacity="0.901961" stroke-width="0.708661" stroke-linecap="round" stroke-linejoin="round" stroke="rgb(18.431373%, 30.980392%, 30.980392%)" stroke-opacity="0.901961" stroke-miterlimit="10" d="M 285.050781 347.890625 C 285.050781 351.035156 282.503906 353.582031 279.359375 353.582031 C 276.21875 353.582031 273.671875 351.035156 273.671875 347.890625 C 273.671875 344.75 276.21875 342.203125 279.359375 342.203125 C 282.503906 342.203125 285.050781 344.75 285.050781 347.890625 "/>
<path fill-rule="nonzero" fill="rgb(18.431373%, 30.980392%, 30.980392%)" fill-opacity="0.901961" stroke-width="0.708661" stroke-linecap="round" stroke-linejoin="round" stroke="rgb(18.431373%, 30.980392%, 30.980392%)" stroke-opacity="0.901961" stroke-miterlimit="10" d="M 244.730469 286.386719 C 244.730469 289.527344 242.183594 292.074219 239.042969 292.074219 C 235.898438 292.074219 233.351562 289.527344 233.351562 286.386719 C 233.351562 283.242188 235.898438 280.695312 239.042969 280.695312 C 242.183594 280.695312 244.730469 283.242188 244.730469 286.386719 "/>
<path fill-rule="nonzero" fill="rgb(18.431373%, 30.980392%, 30.980392%)" fill-opacity="0.901961" stroke-width="0.708661" stroke-linecap="round" stroke-linejoin="round" stroke="rgb(18.431373%, 30.980392%, 30.980392%)" stroke-opacity="0.901961" stroke-miterlimit="10" d="M 347.484375 231.941406 C 347.484375 235.085938 344.9375 237.632812 341.792969 237.632812 C 338.652344 237.632812 336.105469 235.085938 336.105469 231.941406 C 336.105469 228.800781 338.652344 226.253906 341.792969 226.253906 C 344.9375 226.253906 347.484375 228.800781 347.484375 231.941406 "/>
<path fill-rule="nonzero" fill="rgb(18.431373%, 30.980392%, 30.980392%)" fill-opacity="0.901961" stroke-width="0.708661" stroke-linecap="round" stroke-linejoin="round" stroke="rgb(18.431373%, 30.980392%, 30.980392%)" stroke-opacity="0.901961" stroke-miterlimit="10" d="M 647.746094 207.265625 C 647.746094 210.410156 645.199219 212.957031 642.058594 212.957031 C 638.917969 212.957031 636.371094 210.410156 636.371094 207.265625 C 636.371094 204.125 638.917969 201.578125 642.058594 201.578125 C 645.199219 201.578125 647.746094 204.125 647.746094 207.265625 "/>
<path fill-rule="nonzero" fill="rgb(18.431373%, 30.980392%, 30.980392%)" fill-opacity="0.901961" stroke-width="0.708661" stroke-linecap="round" stroke-linejoin="round" stroke="rgb(18.431373%, 30.980392%, 30.980392%)" stroke-opacity="0.901961" stroke-miterlimit="10" d="M 587.214844 216.964844 C 587.214844 220.109375 584.667969 222.65625 581.523438 222.65625 C 578.382812 222.65625 575.835938 220.109375 575.835938 216.964844 C 575.835938 213.824219 578.382812 211.277344 581.523438 211.277344 C 584.667969 211.277344 587.214844 213.824219 587.214844 216.964844 "/>
<path fill-rule="nonzero" fill="rgb(18.431373%, 30.980392%, 30.980392%)" fill-opacity="0.901961" stroke-width="0.708661" stroke-linecap="round" stroke-linejoin="round" stroke="rgb(18.431373%, 30.980392%, 30.980392%)" stroke-opacity="0.901961" stroke-miterlimit="10" d="M 385.953125 163.84375 C 385.953125 166.988281 383.40625 169.535156 380.261719 169.535156 C 377.121094 169.535156 374.574219 166.988281 374.574219 163.84375 C 374.574219 160.703125 377.121094 158.15625 380.261719 158.15625 C 383.40625 158.15625 385.953125 160.703125 385.953125 163.84375 "/>
<path fill-rule="nonzero" fill="rgb(18.431373%, 30.980392%, 30.980392%)" fill-opacity="0.901961" stroke-width="0.708661" stroke-linecap="round" stroke-linejoin="round" stroke="rgb(18.431373%, 30.980392%, 30.980392%)" stroke-opacity="0.901961" stroke-miterlimit="10" d="M 346.191406 171.34375 C 346.191406 174.484375 343.644531 177.03125 340.5 177.03125 C 337.359375 177.03125 334.8125 174.484375 334.8125 171.34375 C 334.8125 168.199219 337.359375 165.652344 340.5 165.652344 C 343.644531 165.652344 346.191406 168.199219 346.191406 171.34375 "/>
<path fill-rule="nonzero" fill="rgb(18.431373%, 30.980392%, 30.980392%)" fill-opacity="0.901961" stroke-width="0.708661" stroke-linecap="round" stroke-linejoin="round" stroke="rgb(18.431373%, 30.980392%, 30.980392%)" stroke-opacity="0.901961" stroke-miterlimit="10" d="M 116.421875 199.167969 C 116.421875 202.308594 113.871094 204.855469 110.730469 204.855469 C 107.589844 204.855469 105.042969 202.308594 105.042969 199.167969 C 105.042969 196.023438 107.589844 193.476562 110.730469 193.476562 C 113.871094 193.476562 116.421875 196.023438 116.421875 199.167969 "/>
<path fill-rule="nonzero" fill="rgb(18.431373%, 30.980392%, 30.980392%)" fill-opacity="0.901961" stroke-width="0.708661" stroke-linecap="round" stroke-linejoin="round" stroke="rgb(18.431373%, 30.980392%, 30.980392%)" stroke-opacity="0.901961" stroke-miterlimit="10" d="M 358.5 311.289062 C 358.5 314.429688 355.953125 316.976562 352.8125 316.976562 C 349.667969 316.976562 347.121094 314.429688 347.121094 311.289062 C 347.121094 308.144531 349.667969 305.597656 352.8125 305.597656 C 355.953125 305.597656 358.5 308.144531 358.5 311.289062 "/>
<path fill-rule="nonzero" fill="rgb(18.431373%, 30.980392%, 30.980392%)" fill-opacity="0.901961" stroke-width="0.708661" stroke-linecap="round" stroke-linejoin="round" stroke="rgb(18.431373%, 30.980392%, 30.980392%)" stroke-opacity="0.901961" stroke-miterlimit="10" d="M 472.460938 208.175781 C 472.460938 211.316406 469.914062 213.863281 466.773438 213.863281 C 463.632812 213.863281 461.082031 211.316406 461.082031 208.175781 C 461.082031 205.03125 463.632812 202.484375 466.773438 202.484375 C 469.914062 202.484375 472.460938 205.03125 472.460938 208.175781 "/>
<path fill-rule="nonzero" fill="rgb(18.431373%, 30.980392%, 30.980392%)" fill-opacity="0.901961" stroke-width="0.708661" stroke-linecap="round" stroke-linejoin="round" stroke="rgb(18.431373%, 30.980392%, 30.980392%)" stroke-opacity="0.901961" stroke-miterlimit="10" d="M 200.863281 238.007812 C 200.863281 241.152344 198.316406 243.699219 195.171875 243.699219 C 192.03125 243.699219 189.484375 241.152344 189.484375 238.007812 C 189.484375 234.867188 192.03125 232.320312 195.171875 232.320312 C 198.316406 232.320312 200.863281 234.867188 200.863281 238.007812 "/>
<path fill-rule="nonzero" fill="rgb(18.431373%, 30.980392%, 30.980392%)" fill-opacity="0.901961" stroke-width="0.708661" stroke-linecap="round" stroke-linejoin="round" stroke="rgb(18.431373%, 30.980392%, 30.980392%)" stroke-opacity="0.901961" stroke-miterlimit="10" d="M 497.761719 148.726562 C 497.761719 151.867188 495.214844 154.414062 492.074219 154.414062 C 488.933594 154.414062 486.382812 151.867188 486.382812 148.726562 C 486.382812 145.582031 488.933594 143.035156 492.074219 143.035156 C 495.214844 143.035156 497.761719 145.582031 497.761719 148.726562 "/>
<path fill-rule="nonzero" fill="rgb(18.431373%, 30.980392%, 30.980392%)" fill-opacity="0.901961" stroke-width="0.708661" stroke-linecap="round" stroke-linejoin="round" stroke="rgb(18.431373%, 30.980392%, 30.980392%)" stroke-opacity="0.901961" stroke-miterlimit="10" d="M 506.433594 205.757812 C 506.433594 208.898438 503.886719 211.445312 500.746094 211.445312 C 497.605469 211.445312 495.058594 208.898438 495.058594 205.757812 C 495.058594 202.617188 497.605469 200.070312 500.746094 200.070312 C 503.886719 200.070312 506.433594 202.617188 506.433594 205.757812 "/>
<path fill-rule="nonzero" fill="rgb(18.431373%, 30.980392%, 30.980392%)" fill-opacity="0.901961" stroke-width="0.708661" stroke-linecap="round" stroke-linejoin="round" stroke="rgb(18.431373%, 30.980392%, 30.980392%)" stroke-opacity="0.901961" stroke-miterlimit="10" d="M 209.746094 187.699219 C 209.746094 190.84375 207.199219 193.390625 204.058594 193.390625 C 200.917969 193.390625 198.367188 190.84375 198.367188 187.699219 C 198.367188 184.558594 200.917969 182.011719 204.058594 182.011719 C 207.199219 182.011719 209.746094 184.558594 209.746094 187.699219 "/>
<path fill-rule="nonzero" fill="rgb(18.431373%, 30.980392%, 30.980392%)" fill-opacity="0.901961" stroke-width="0.708661" stroke-linecap="round" stroke-linejoin="round" stroke="rgb(18.431373%, 30.980392%, 30.980392%)" stroke-opacity="0.901961" stroke-miterlimit="10" d="M 538.898438 28.746094 C 538.898438 31.886719 536.351562 34.433594 533.210938 34.433594 C 530.070312 34.433594 527.523438 31.886719 527.523438 28.746094 C 527.523438 25.601562 530.070312 23.054688 533.210938 23.054688 C 536.351562 23.054688 538.898438 25.601562 538.898438 28.746094 "/>
<path fill-rule="nonzero" fill="rgb(18.431373%, 30.980392%, 30.980392%)" fill-opacity="0.901961" stroke-width="0.708661" stroke-linecap="round" stroke-linejoin="round" stroke="rgb(18.431373%, 30.980392%, 30.980392%)" stroke-opacity="0.901961" stroke-miterlimit="10" d="M 328.308594 254.511719 C 328.308594 257.652344 325.761719 260.199219 322.617188 260.199219 C 319.476562 260.199219 316.929688 257.652344 316.929688 254.511719 C 316.929688 251.367188 319.476562 248.820312 322.617188 248.820312 C 325.761719 248.820312 328.308594 251.367188 328.308594 254.511719 "/>
<path fill-rule="nonzero" fill="rgb(18.431373%, 30.980392%, 30.980392%)" fill-opacity="0.901961" stroke-width="0.708661" stroke-linecap="round" stroke-linejoin="round" stroke="rgb(18.431373%, 30.980392%, 30.980392%)" stroke-opacity="0.901961" stroke-miterlimit="10" d="M 305.289062 329.425781 C 305.289062 332.566406 302.742188 335.113281 299.601562 335.113281 C 296.460938 335.113281 293.910156 332.566406 293.910156 329.425781 C 293.910156 326.285156 296.460938 323.738281 299.601562 323.738281 C 302.742188 323.738281 305.289062 326.285156 305.289062 329.425781 "/>
<path fill-rule="nonzero" fill="rgb(18.431373%, 30.980392%, 30.980392%)" fill-opacity="0.901961" stroke-width="0.708661" stroke-linecap="round" stroke-linejoin="round" stroke="rgb(18.431373%, 30.980392%, 30.980392%)" stroke-opacity="0.901961" stroke-miterlimit="10" d="M 507.296875 194.773438 C 507.296875 197.914062 504.746094 200.460938 501.605469 200.460938 C 498.464844 200.460938 495.917969 197.914062 495.917969 194.773438 C 495.917969 191.632812 498.464844 189.082031 501.605469 189.082031 C 504.746094 189.082031 507.296875 191.632812 507.296875 194.773438 "/>
<path fill-rule="nonzero" fill="rgb(18.431373%, 30.980392%, 30.980392%)" fill-opacity="0.901961" stroke-width="0.708661" stroke-linecap="round" stroke-linejoin="round" stroke="rgb(18.431373%, 30.980392%, 30.980392%)" stroke-opacity="0.901961" stroke-miterlimit="10" d="M 432.132812 322.15625 C 432.132812 325.296875 429.585938 327.847656 426.441406 327.847656 C 423.300781 327.847656 420.753906 325.296875 420.753906 322.15625 C 420.753906 319.015625 423.300781 316.46875 426.441406 316.46875 C 429.585938 316.46875 432.132812 319.015625 432.132812 322.15625 "/>
<path fill-rule="nonzero" fill="rgb(18.431373%, 30.980392%, 30.980392%)" fill-opacity="0.901961" stroke-width="0.708661" stroke-linecap="round" stroke-linejoin="round" stroke="rgb(18.431373%, 30.980392%, 30.980392%)" stroke-opacity="0.901961" stroke-miterlimit="10" d="M 319.191406 205.425781 C 319.191406 208.570312 316.644531 211.117188 313.503906 211.117188 C 310.359375 211.117188 307.8125 208.570312 307.8125 205.425781 C 307.8125 202.285156 310.359375 199.738281 313.503906 199.738281 C 316.644531 199.738281 319.191406 202.285156 319.191406 205.425781 "/>
<path fill-rule="nonzero" fill="rgb(18.431373%, 30.980392%, 30.980392%)" fill-opacity="0.901961" stroke-width="0.708661" stroke-linecap="round" stroke-linejoin="round" stroke="rgb(18.431373%, 30.980392%, 30.980392%)" stroke-opacity="0.901961" stroke-miterlimit="10" d="M 197.203125 355.558594 C 197.203125 358.699219 194.65625 361.246094 191.511719 361.246094 C 188.371094 361.246094 185.824219 358.699219 185.824219 355.558594 C 185.824219 352.417969 188.371094 349.867188 191.511719 349.867188 C 194.65625 349.867188 197.203125 352.417969 197.203125 355.558594 "/>
<path fill-rule="nonzero" fill="rgb(18.431373%, 30.980392%, 30.980392%)" fill-opacity="0.901961" stroke-width="0.708661" stroke-linecap="round" stroke-linejoin="round" stroke="rgb(18.431373%, 30.980392%, 30.980392%)" stroke-opacity="0.901961" stroke-miterlimit="10" d="M 515.640625 138.316406 C 515.640625 141.457031 513.09375 144.007812 509.949219 144.007812 C 506.808594 144.007812 504.261719 141.457031 504.261719 138.316406 C 504.261719 135.175781 506.808594 132.628906 509.949219 132.628906 C 513.09375 132.628906 515.640625 135.175781 515.640625 138.316406 "/>
<path fill-rule="nonzero" fill="rgb(18.431373%, 30.980392%, 30.980392%)" fill-opacity="0.901961" stroke-width="0.708661" stroke-linecap="round" stroke-linejoin="round" stroke="rgb(18.431373%, 30.980392%, 30.980392%)" stroke-opacity="0.901961" stroke-miterlimit="10" d="M 210.722656 305.933594 C 210.722656 309.074219 208.175781 311.621094 205.035156 311.621094 C 201.894531 311.621094 199.347656 309.074219 199.347656 305.933594 C 199.347656 302.789062 201.894531 300.242188 205.035156 300.242188 C 208.175781 300.242188 210.722656 302.789062 210.722656 305.933594 "/>
<path fill-rule="nonzero" fill="rgb(18.431373%, 30.980392%, 30.980392%)" fill-opacity="0.901961" stroke-width="0.708661" stroke-linecap="round" stroke-linejoin="round" stroke="rgb(18.431373%, 30.980392%, 30.980392%)" stroke-opacity="0.901961" stroke-miterlimit="10" d="M 90.800781 323.203125 C 90.800781 326.34375 88.253906 328.890625 85.113281 328.890625 C 81.96875 328.890625 79.421875 326.34375 79.421875 323.203125 C 79.421875 320.0625 81.96875 317.511719 85.113281 317.511719 C 88.253906 317.511719 90.800781 320.0625 90.800781 323.203125 "/>
<path fill-rule="nonzero" fill="rgb(18.431373%, 30.980392%, 30.980392%)" fill-opacity="0.901961" stroke-width="0.708661" stroke-linecap="round" stroke-linejoin="round" stroke="rgb(18.431373%, 30.980392%, 30.980392%)" stroke-opacity="0.901961" stroke-miterlimit="10" d="M 521.144531 249.179688 C 521.144531 252.320312 518.59375 254.867188 515.453125 254.867188 C 512.3125 254.867188 509.765625 252.320312 509.765625 249.179688 C 509.765625 246.035156 512.3125 243.488281 515.453125 243.488281 C 518.59375 243.488281 521.144531 246.035156 521.144531 249.179688 "/>
<path fill-rule="nonzero" fill="rgb(18.431373%, 30.980392%, 30.980392%)" fill-opacity="0.901961" stroke-width="0.708661" stroke-linecap="round" stroke-linejoin="round" stroke="rgb(18.431373%, 30.980392%, 30.980392%)" stroke-opacity="0.901961" stroke-miterlimit="10" d="M 505.867188 173.363281 C 505.867188 176.503906 503.320312 179.050781 500.179688 179.050781 C 497.035156 179.050781 494.488281 176.503906 494.488281 173.363281 C 494.488281 170.21875 497.035156 167.671875 500.179688 167.671875 C 503.320312 167.671875 505.867188 170.21875 505.867188 173.363281 "/>
<path fill-rule="nonzero" fill="rgb(18.431373%, 30.980392%, 30.980392%)" fill-opacity="0.901961" stroke-width="0.708661" stroke-linecap="round" stroke-linejoin="round" stroke="rgb(18.431373%, 30.980392%, 30.980392%)" stroke-opacity="0.901961" stroke-miterlimit="10" d="M 461.425781 226.59375 C 461.425781 229.734375 458.878906 232.28125 455.734375 232.28125 C 452.59375 232.28125 450.046875 229.734375 450.046875 226.59375 C 450.046875 223.449219 452.59375 220.902344 455.734375 220.902344 C 458.878906 220.902344 461.425781 223.449219 461.425781 226.59375 "/>
<path fill-rule="nonzero" fill="rgb(18.431373%, 30.980392%, 30.980392%)" fill-opacity="0.901961" stroke-width="0.708661" stroke-linecap="round" stroke-linejoin="round" stroke="rgb(18.431373%, 30.980392%, 30.980392%)" stroke-opacity="0.901961" stroke-miterlimit="10" d="M 26.308594 353.582031 C 26.308594 356.722656 23.761719 359.269531 20.617188 359.269531 C 17.476562 359.269531 14.929688 356.722656 14.929688 353.582031 C 14.929688 350.4375 17.476562 347.890625 20.617188 347.890625 C 23.761719 347.890625 26.308594 350.4375 26.308594 353.582031 "/>
<path fill-rule="nonzero" fill="rgb(18.431373%, 30.980392%, 30.980392%)" fill-opacity="0.901961" stroke-width="0.708661" stroke-linecap="round" stroke-linejoin="round" stroke="rgb(18.431373%, 30.980392%, 30.980392%)" stroke-opacity="0.901961" stroke-miterlimit="10" d="M 334.582031 251.953125 C 334.582031 255.097656 332.035156 257.644531 328.890625 257.644531 C 325.75 257.644531 323.203125 255.097656 323.203125 251.953125 C 323.203125 248.8125 325.75 246.265625 328.890625 246.265625 C 332.035156 246.265625 334.582031 248.8125 334.582031 251.953125 "/>
<path fill-rule="nonzero" fill="rgb(18.431373%, 30.980392%, 30.980392%)" fill-opacity="0.901961" stroke-width="0.708661" stroke-linecap="round" stroke-linejoin="round" stroke="rgb(18.431373%, 30.980392%, 30.980392%)" stroke-opacity="0.901961" stroke-miterlimit="10" d="M 388.414062 165.050781 C 388.414062 168.195312 385.867188 170.742188 382.722656 170.742188 C 379.582031 170.742188 377.035156 168.195312 377.035156 165.050781 C 377.035156 161.910156 379.582031 159.363281 382.722656 159.363281 C 385.867188 159.363281 388.414062 161.910156 388.414062 165.050781 "/>
<path fill-rule="nonzero" fill="rgb(18.431373%, 30.980392%, 30.980392%)" fill-opacity="0.901961" stroke-width="0.708661" stroke-linecap="round" stroke-linejoin="round" stroke="rgb(18.431373%, 30.980392%, 30.980392%)" stroke-opacity="0.901961" stroke-miterlimit="10" d="M 555.097656 250.953125 C 555.097656 254.09375 552.550781 256.640625 549.410156 256.640625 C 546.265625 256.640625 543.71875 254.09375 543.71875 250.953125 C 543.71875 247.808594 546.265625 245.261719 549.410156 245.261719 C 552.550781 245.261719 555.097656 247.808594 555.097656 250.953125 "/>
<path fill-rule="nonzero" fill="rgb(18.431373%, 30.980392%, 30.980392%)" fill-opacity="0.901961" stroke-width="0.708661" stroke-linecap="round" stroke-linejoin="round" stroke="rgb(18.431373%, 30.980392%, 30.980392%)" stroke-opacity="0.901961" stroke-miterlimit="10" d="M 421.367188 225.183594 C 421.367188 228.324219 418.820312 230.871094 415.679688 230.871094 C 412.535156 230.871094 409.988281 228.324219 409.988281 225.183594 C 409.988281 222.039062 412.535156 219.492188 415.679688 219.492188 C 418.820312 219.492188 421.367188 222.039062 421.367188 225.183594 "/>
<path fill-rule="nonzero" fill="rgb(18.431373%, 30.980392%, 30.980392%)" fill-opacity="0.901961" stroke-width="0.708661" stroke-linecap="round" stroke-linejoin="round" stroke="rgb(18.431373%, 30.980392%, 30.980392%)" stroke-opacity="0.901961" stroke-miterlimit="10" d="M 184.625 299.460938 C 184.625 302.601562 182.078125 305.148438 178.9375 305.148438 C 175.792969 305.148438 173.246094 302.601562 173.246094 299.460938 C 173.246094 296.316406 175.792969 293.769531 178.9375 293.769531 C 182.078125 293.769531 184.625 296.316406 184.625 299.460938 "/>
<path fill="none" stroke-width="4.267913" stroke-linecap="butt" stroke-linejoin="round" stroke="rgb(100%, 64.705882%, 0%)" stroke-opacity="0.901961" stroke-miterlimit="10" d="M -784.800781 -311.535156 L 1526.398438 703.695312 "/>
</svg>
