<?xml version="1.0" encoding="UTF-8"?>
<svg xmlns="http://www.w3.org/2000/svg" xmlns:xlink="http://www.w3.org/1999/xlink" width="756" height="504" viewBox="0 0 756 504">
<rect x="-75.6" y="-50.4" width="907.2" height="604.8" fill="rgb(100%, 100%, 100%)" fill-opacity="1"/>
<path fill-rule="nonzero" fill="rgb(18.431373%, 30.980392%, 30.980392%)" fill-opacity="1" stroke-width="0.708661" stroke-linecap="round" stroke-linejoin="round" stroke="rgb(18.431373%, 30.980392%, 30.980392%)" stroke-opacity="1" stroke-miterlimit="10" d="M 31.640625 494.835938 C 31.640625 500.925781 26.707031 505.859375 20.617188 505.859375 C 14.53125 505.859375 9.59375 500.925781 9.59375 494.835938 C 9.59375 488.746094 14.53125 483.8125 20.617188 483.8125 C 26.707031 483.8125 31.640625 488.746094 31.640625 494.835938 "/>
<path fill-rule="nonzero" fill="rgb(18.431373%, 30.980392%, 30.980392%)" fill-opacity="1" stroke-width="0.708661" stroke-linecap="round" stroke-linejoin="round" stroke="rgb(18.431373%, 30.980392%, 30.980392%)" stroke-opacity="1" stroke-miterlimit="10" d="M 109.460938 494.835938 C 109.460938 500.925781 104.523438 505.859375 98.4375 505.859375 C 92.347656 505.859375 87.414062 500.925781 87.414062 494.835938 C 87.414062 488.746094 92.347656 483.8125 98.4375 483.8125 C 104.523438 483.8125 109.460938 488.746094 109.460938 494.835938 "/>
<path fill-rule="nonzero" fill="rgb(18.431373%, 30.980392%, 30.980392%)" fill-opacity="1" stroke-width="0.708661" stroke-linecap="round" stroke-linejoin="round" stroke="rgb(18.431373%, 30.980392%, 30.980392%)" stroke-opacity="1" stroke-miterlimit="10" d="M 187.277344 494.835938 C 187.277344 500.925781 182.34375 505.859375 176.253906 505.859375 C 170.167969 505.859375 165.230469 500.925781 165.230469 494.835938 C 165.230469 488.746094 170.167969 483.8125 176.253906 483.8125 C 182.34375 483.8125 187.277344 488.746094 187.277344 494.835938 "/>
<path fill-rule="nonzero" fill="rgb(18.431373%, 30.980392%, 30.980392%)" fill-opacity="1" stroke-width="0.708661" stroke-linecap="round" stroke-linejoin="round" stroke="rgb(18.431373%, 30.980392%, 30.980392%)" stroke-opacity="1" stroke-miterlimit="10" d="M 265.097656 494.835938 C 265.097656 500.925781 260.160156 505.859375 254.074219 505.859375 C 247.984375 505.859375 243.046875 500.925781 243.046875 494.835938 C 243.046875 488.746094 247.984375 483.8125 254.074219 483.8125 C 260.160156 483.8125 265.097656 488.746094 265.097656 494.835938 "/>
<path fill-rule="nonzero" fill="rgb(18.431373%, 30.980392%, 30.980392%)" fill-opacity="1" stroke-width="0.708661" stroke-linecap="round" stroke-linejoin="round" stroke="rgb(18.431373%, 30.980392%, 30.980392%)" stroke-opacity="1" stroke-miterlimit="10" d="M 342.914062 494.835938 C 342.914062 500.925781 337.980469 505.859375 331.890625 505.859375 C 325.800781 505.859375 320.867188 500.925781 320.867188 494.835938 C 320.867188 488.746094 325.800781 483.8125 331.890625 483.8125 C 337.980469 483.8125 342.914062 488.746094 342.914062 494.835938 "/>
<path fill-rule="nonzero" fill="rgb(18.431373%, 30.980392%, 30.980392%)" fill-opacity="1" stroke-width="0.708661" stroke-linecap="round" stroke-linejoin="round" stroke="rgb(18.431373%, 30.980392%, 30.980392%)" stroke-opacity="1" stroke-miterlimit="10" d="M 420.734375 494.835938 C 420.734375 500.925781 415.796875 505.859375 409.710938 505.859375 C 403.621094 505.859375 398.683594 500.925781 398.683594 494.835938 C 398.683594 488.746094 403.621094 483.8125 409.710938 483.8125 C 415.796875 483.8125 420.734375 488.746094 420.734375 494.835938 "/>
<path fill-rule="nonzero" fill="rgb(18.431373%, 30.980392%, 30.980392%)" fill-opacity="1" stroke-width="0.708661" stroke-linecap="round" stroke-linejoin="round" stroke="rgb(18.431373%, 30.980392%, 30.980392%)" stroke-opacity="1" stroke-miterlimit="10" d="M 498.550781 494.835938 C 498.550781 500.925781 493.617188 505.859375 487.527344 505.859375 C 481.4375 505.859375 476.503906 500.925781 476.503906 494.835938 C 476.503906 488.746094 481.4375 483.8125 487.527344 483.8125 C 493.617188 483.8125 498.550781 488.746094 498.550781 494.835938 "/>
<path fill-rule="nonzero" fill="rgb(18.431373%, 30.980392%, 30.980392%)" fill-opacity="1" stroke-width="0.708661" stroke-linecap="round" stroke-linejoin="round" stroke="rgb(18.431373%, 30.980392%, 30.980392%)" stroke-opacity="1" stroke-miterlimit="10" d="M 576.371094 494.835938 C 576.371094 500.925781 571.433594 505.859375 565.34375 505.859375 C 559.257812 505.859375 554.320312 500.925781 554.320312 494.835938 C 554.320312 488.746094 559.257812 483.8125 565.34375 483.8125 C 571.433594 483.8125 576.371094 488.746094 576.371094 494.835938 "/>
<path fill-rule="nonzero" fill="rgb(18.431373%, 30.980392%, 30.980392%)" fill-opacity="1" stroke-width="0.708661" stroke-linecap="round" stroke-linejoin="round" stroke="rgb(18.431373%, 30.980392%, 30.980392%)" stroke-opacity="1" stroke-miterlimit="10" d="M 654.1875 494.835938 C 654.1875 500.925781 649.253906 505.859375 643.164062 505.859375 C 637.074219 505.859375 632.140625 500.925781 632.140625 494.835938 C 632.140625 488.746094 637.074219 483.8125 643.164062 483.8125 C 649.253906 483.8125 654.1875 488.746094 654.1875 494.835938 "/>
<path fill-rule="nonzero" fill="rgb(18.431373%, 30.980392%, 30.980392%)" fill-opacity="1" stroke-width="0.708661" stroke-linecap="round" stroke-linejoin="round" stroke="rgb(18.431373%, 30.980392%, 30.980392%)" stroke-opacity="1" stroke-miterlimit="10" d="M 732.007812 494.835938 C 732.007812 500.925781 727.070312 505.859375 720.980469 505.859375 C 714.894531 505.859375 709.957031 500.925781 709.957031 494.835938 C 709.957031 488.746094 714.894531 483.8125 720.980469 483.8125 C 727.070312 483.8125 732.007812 488.746094 732.007812 494.835938 "/>
<path fill-rule="nonzero" fill="rgb(18.431373%, 30.980392%, 30.980392%)" fill-opacity="1" stroke-width="0.708661" stroke-linecap="round" stroke-linejoin="round" stroke="rgb(18.431373%, 30.980392%, 30.980392%)" stroke-opacity="1" stroke-miterlimit="10" d="M 31.640625 442.472656 C 31.640625 448.5625 26.707031 453.496094 20.617188 453.496094 C 14.53125 453.496094 9.59375 448.5625 9.59375 442.472656 C 9.59375 436.382812 14.53125 431.449219 20.617188 431.449219 C 26.707031 431.449219 31.640625 436.382812 31.640625 442.472656 "/>
<path fill-rule="nonzero" fill="rgb(18.431373%, 30.980392%, 30.980392%)" fill-opacity="1" stroke-width="0.708661" stroke-linecap="round" stroke-linejoin="round" stroke="rgb(18.431373%, 30.980392%, 30.980392%)" stroke-opacity="1" stroke-miterlimit="10" d="M 109.460938 442.472656 C 109.460938 448.5625 104.523438 453.496094 98.4375 453.496094 C 92.347656 453.496094 87.414062 448.5625 87.414062 442.472656 C 87.414062 436.382812 92.347656 431.449219 98.4375 431.449219 C 104.523438 431.449219 109.460938 436.382812 109.460938 442.472656 "/>
<path fill-rule="nonzero" fill="rgb(18.431373%, 30.980392%, 30.980392%)" fill-opacity="1" stroke-width="0.708661" stroke-linecap="round" stroke-linejoin="round" stroke="rgb(18.431373%, 30.980392%, 30.980392%)" stroke-opacity="1" stroke-miterlimit="10" d="M 187.277344 442.472656 C 187.277344 448.5625 182.34375 453.496094 176.253906 453.496094 C 170.167969 453.496094 165.230469 448.5625 165.230469 442.472656 C 165.230469 436.382812 170.167969 431.449219 176.253906 431.449219 C 182.34375 431.449219 187.277344 436.382812 187.277344 442.472656 "/>
<path fill-rule="nonzero" fill="rgb(18.431373%, 30.980392%, 30.980392%)" fill-opacity="1" stroke-width="0.708661" stroke-linecap="round" stroke-linejoin="round" stroke="rgb(18.431373%, 30.980392%, 30.980392%)" stroke-opacity="1" stroke-miterlimit="10" d="M 265.097656 442.472656 C 265.097656 448.5625 260.160156 453.496094 254.074219 453.496094 C 247.984375 453.496094 243.046875 448.5625 243.046875 442.472656 C 243.046875 436.382812 247.984375 431.449219 254.074219 431.449219 C 260.160156 431.449219 265.097656 436.382812 265.097656 442.472656 "/>
<path fill-rule="nonzero" fill="rgb(18.431373%, 30.980392%, 30.980392%)" fill-opacity="1" stroke-width="0.708661" stroke-linecap="round" stroke-linejoin="round" stroke="rgb(18.431373%, 30.980392%, 30.980392%)" stroke-opacity="1" stroke-miterlimit="10" d="M 342.914062 442.472656 C 342.914062 448.5625 337.980469 453.496094 331.890625 453.496094 C 325.800781 453.496094 320.867188 448.5625 320.867188 442.472656 C 320.867188 436.382812 325.800781 431.449219 331.890625 431.449219 C 337.980469 431.449219 342.914062 436.382812 342.914062 442.472656 "/>
<path fill-rule="nonzero" fill="rgb(18.431373%, 30.980392%, 30.980392%)" fill-opacity="1" stroke-width="0.708661" stroke-linecap="round" stroke-linejoin="round" stroke="rgb(18.431373%, 30.980392%, 30.980392%)" stroke-opacity="1" stroke-miterlimit="10" d="M 420.734375 442.472656 C 420.734375 448.5625 415.796875 453.496094 409.710938 453.496094 C 403.621094 453.496094 398.683594 448.5625 398.683594 442.472656 C 398.683594 436.382812 403.621094 431.449219 409.710938 431.449219 C 415.796875 431.449219 420.734375 436.382812 420.734375 442.472656 "/>
<path fill-rule="nonzero" fill="rgb(18.431373%, 30.980392%, 30.980392%)" fill-opacity="1" stroke-width="0.708661" stroke-linecap="round" stroke-linejoin="round" stroke="rgb(18.431373%, 30.980392%, 30.980392%)" stroke-opacity="1" stroke-miterlimit="10" d="M 498.550781 442.472656 C 498.550781 448.5625 493.617188 453.496094 487.527344 453.496094 C 481.4375 453.496094 476.503906 448.5625 476.503906 442.472656 C 476.503906 436.382812 481.4375 431.449219 487.527344 431.449219 C 493.617188 431.449219 498.550781 436.382812 498.550781 442.472656 "/>
<path fill-rule="nonzero" fill="rgb(18.431373%, 30.980392%, 30.980392%)" fill-opacity="1" stroke-width="0.708661" stroke-linecap="round" stroke-linejoin="round" stroke="rgb(18.431373%, 30.980392%, 30.980392%)" stroke-opacity="1" stroke-miterlimit="10" d="M 576.371094 442.472656 C 576.371094 448.5625 571.433594 453.496094 565.34375 453.496094 C 559.257812 453.496094 554.320312 448.5625 554.320312 442.472656 C 554.320312 436.382812 559.257812 431.449219 565.34375 431.449219 C 571.433594 431.449219 576.371094 436.382812 576.371094 442.472656 "/>
<path fill-rule="nonzero" fill="rgb(18.431373%, 30.980392%, 30.980392%)" fill-opacity="1" stroke-width="0.708661" stroke-linecap="round" stroke-linejoin="round" stroke="rgb(18.431373%, 30.980392%, 30.980392%)" stroke-opacity="1" stroke-miterlimit="10" d="M 654.1875 442.472656 C 654.1875 448.5625 649.253906 453.496094 643.164062 453.496094 C 637.074219 453.496094 632.140625 448.5625 632.140625 442.472656 C 632.140625 436.382812 637.074219 431.449219 643.164062 431.449219 C 649.253906 431.449219 654.1875 436.382812 654.1875 442.472656 "/>
<path fill-rule="nonzero" fill="rgb(18.431373%, 30.980392%, 30.980392%)" fill-opacity="1" stroke-width="0.708661" stroke-linecap="round" stroke-linejoin="round" stroke="rgb(18.431373%, 30.980392%, 30.980392%)" stroke-opacity="1" stroke-miterlimit="10" d="M 732.007812 442.472656 C 732.007812 448.5625 727.070312 453.496094 720.980469 453.496094 C 714.894531 453.496094 709.957031 448.5625 709.957031 442.472656 C 709.957031 436.382812 714.894531 431.449219 720.980469 431.449219 C 727.070312 431.449219 732.007812 436.382812 732.007812 442.472656 "/>
<path fill-rule="nonzero" fill="rgb(18.431373%, 30.980392%, 30.980392%)" fill-opacity="1" stroke-width="0.708661" stroke-linecap="round" stroke-linejoin="round" stroke="rgb(18.431373%, 30.980392%, 30.980392%)" stroke-opacity="1" stroke-miterlimit="10" d="M 31.640625 390.109375 C 31.640625 396.199219 26.707031 401.132812 20.617188 401.132812 C 14.53125 401.132812 9.59375 396.199219 9.59375 390.109375 C 9.59375 384.019531 14.53125 379.085938 20.617188 379.085938 C 26.707031 379.085938 31.640625 384.019531 31.640625 390.109375 "/>
<path fill-rule="nonzero" fill="rgb(18.431373%, 30.980392%, 30.980392%)" fill-opacity="1" stroke-width="0.708661" stroke-linecap="round" stroke-linejoin="round" stroke="rgb(18.431373%, 30.980392%, 30.980392%)" stroke-opacity="1" stroke-miterlimit="10" d="M 109.460938 390.109375 C 109.460938 396.199219 104.523438 401.132812 98.4375 401.132812 C 92.347656 401.132812 87.414062 396.199219 87.414062 390.109375 C 87.414062 384.019531 92.347656 379.085938 98.4375 379.085938 C 104.523438 379.085938 109.460938 384.019531 109.460938 390.109375 "/>
<path fill-rule="nonzero" fill="rgb(18.431373%, 30.980392%, 30.980392%)" fill-opacity="1" stroke-width="0.708661" stroke-linecap="round" stroke-linejoin="round" stroke="rgb(18.431373%, 30.980392%, 30.980392%)" stroke-opacity="1" stroke-miterlimit="10" d="M 187.277344 390.109375 C 187.277344 396.199219 182.34375 401.132812 176.253906 401.132812 C 170.167969 401.132812 165.230469 396.199219 165.230469 390.109375 C 165.230469 384.019531 170.167969 379.085938 176.253906 379.085938 C 182.34375 379.085938 187.277344 384.019531 187.277344 390.109375 "/>
<path fill-rule="nonzero" fill="rgb(18.431373%, 30.980392%, 30.980392%)" fill-opacity="1" stroke-width="0.708661" stroke-linecap="round" stroke-linejoin="round" stroke="rgb(18.431373%, 30.980392%, 30.980392%)" stroke-opacity="1" stroke-miterlimit="10" d="M 265.097656 390.109375 C 265.097656 396.199219 260.160156 401.132812 254.074219 401.132812 C 247.984375 401.132812 243.046875 396.199219 243.046875 390.109375 C 243.046875 384.019531 247.984375 379.085938 254.074219 379.085938 C 260.160156 379.085938 265.097656 384.019531 265.097656 390.109375 "/>
<path fill-rule="nonzero" fill="rgb(18.431373%, 30.980392%, 30.980392%)" fill-opacity="1" stroke-width="0.708661" stroke-linecap="round" stroke-linejoin="round" stroke="rgb(18.431373%, 30.980392%, 30.980392%)" stroke-opacity="1" stroke-miterlimit="10" d="M 342.914062 390.109375 C 342.914062 396.199219 337.980469 401.132812 331.890625 401.132812 C 325.800781 401.132812 320.867188 396.199219 320.867188 390.109375 C 320.867188 384.019531 325.800781 379.085938 331.890625 379.085938 C 337.980469 379.085938 342.914062 384.019531 342.914062 390.109375 "/>
<path fill-rule="nonzero" fill="rgb(18.431373%, 30.980392%, 30.980392%)" fill-opacity="1" stroke-width="0.708661" stroke-linecap="round" stroke-linejoin="round" stroke="rgb(18.431373%, 30.980392%, 30.980392%)" stroke-opacity="1" stroke-miterlimit="10" d="M 420.734375 390.109375 C 420.734375 396.199219 415.796875 401.132812 409.710938 401.132812 C 403.621094 401.132812 398.683594 396.199219 398.683594 390.109375 C 398.683594 384.019531 403.621094 379.085938 409.710938 379.085938 C 415.796875 379.085938 420.734375 384.019531 420.734375 390.109375 "/>
<path fill-rule="nonzero" fill="rgb(18.431373%, 30.980392%, 30.980392%)" fill-opacity="1" stroke-width="0.708661" stroke-linecap="round" stroke-linejoin="round" stroke="rgb(18.431373%, 30.980392%, 30.980392%)" stroke-opacity="1" stroke-miterlimit="10" d="M 498.550781 390.109375 C 498.550781 396.199219 493.617188 401.132812 487.527344 401.132812 C 481.4375 401.132812 476.503906 396.199219 476.503906 390.109375 C 476.503906 384.019531 481.4375 379.085938 487.527344 379.085938 C 493.617188 379.085938 498.550781 384.019531 498.550781 390.109375 "/>
<path fill-rule="nonzero" fill="rgb(18.431373%, 30.980392%, 30.980392%)" fill-opacity="1" stroke-width="0.708661" stroke-linecap="round" stroke-linejoin="round" stroke="rgb(18.431373%, 30.980392%, 30.980392%)" stroke-opacity="1" stroke-miterlimit="10" d="M 576.371094 390.109375 C 576.371094 396.199219 571.433594 401.132812 565.34375 401.132812 C 559.257812 401.132812 554.320312 396.199219 554.320312 390.109375 C 554.320312 384.019531 559.257812 379.085938 565.34375 379.085938 C 571.433594 379.085938 576.371094 384.019531 576.371094 390.109375 "/>
<path fill-rule="nonzero" fill="rgb(18.431373%, 30.980392%, 30.980392%)" fill-opacity="1" stroke-width="0.708661" stroke-linecap="round" stroke-linejoin="round" stroke="rgb(18.431373%, 30.980392%, 30.980392%)" stroke-opacity="1" stroke-miterlimit="10" d="M 654.1875 390.109375 C 654.1875 396.199219 649.253906 401.132812 643.164062 401.132812 C 637.074219 401.132812 632.140625 396.199219 632.140625 390.109375 C 632.140625 384.019531 637.074219 379.085938 643.164062 379.085938 C 649.253906 379.085938 654.1875 384.019531 654.1875 390.109375 "/>
<path fill-rule="nonzero" fill="rgb(18.431373%, 30.980392%, 30.980392%)" fill-opacity="1" stroke-width="0.708661" stroke-linecap="round" stroke-linejoin="round" stroke="rgb(18.431373%, 30.980392%, 30.980392%)" stroke-opacity="1" stroke-miterlimit="10" d="M 732.007812 390.109375 C 732.007812 396.199219 727.070312 401.132812 720.980469 401.132812 C 714.894531 401.132812 709.957031 396.199219 709.957031 390.109375 C 709.957031 384.019531 714.894531 379.085938 720.980469 379.085938 C 727.070312 379.085938 732.007812 384.019531 732.007812 390.109375 "/>
<path fill-rule="nonzero" fill="rgb(18.431373%, 30.980392%, 30.980392%)" fill-opacity="1" stroke-width="0.708661" stroke-linecap="round" stroke-linejoin="round" stroke="rgb(18.431373%, 30.980392%, 30.980392%)" stroke-opacity="1" stroke-miterlimit="10" d="M 31.640625 337.746094 C 31.640625 343.832031 26.707031 348.769531 20.617188 348.769531 C 14.53125 348.769531 9.59375 343.832031 9.59375 337.746094 C 9.59375 331.65625 14.53125 326.722656 20.617188 326.722656 C 26.707031 326.722656 31.640625 331.65625 31.640625 337.746094 "/>
<path fill-rule="nonzero" fill="rgb(18.431373%, 30.980392%, 30.980392%)" fill-opacity="1" stroke-width="0.708661" stroke-linecap="round" stroke-linejoin="round" stroke="rgb(18.431373%, 30.980392%, 30.980392%)" stroke-opacity="1" stroke-miterlimit="10" d="M 109.460938 337.746094 C 109.460938 343.832031 104.523438 348.769531 98.4375 348.769531 C 92.347656 348.769531 87.414062 343.832031 87.414062 337.746094 C 87.414062 331.65625 92.347656 326.722656 98.4375 326.722656 C 104.523438 326.722656 109.460938 331.65625 109.460938 337.746094 "/>
<path fill-rule="nonzero" fill="rgb(18.431373%, 30.980392%, 30.980392%)" fill-opacity="1" stroke-width="0.708661" stroke-linecap="round" stroke-linejoin="round" stroke="rgb(18.431373%, 30.980392%, 30.980392%)" stroke-opacity="1" stroke-miterlimit="10" d="M 187.277344 337.746094 C 187.277344 343.832031 182.34375 348.769531 176.253906 348.769531 C 170.167969 348.769531 165.230469 343.832031 165.230469 337.746094 C 165.230469 331.65625 170.167969 326.722656 176.253906 326.722656 C 182.34375 326.722656 187.277344 331.65625 187.277344 337.746094 "/>
<path fill-rule="nonzero" fill="rgb(18.431373%, 30.980392%, 30.980392%)" fill-opacity="1" stroke-width="0.708661" stroke-linecap="round" stroke-linejoin="round" stroke="rgb(18.431373%, 30.980392%, 30.980392%)" stroke-opacity="1" stroke-miterlimit="10" d="M 265.097656 337.746094 C 265.097656 343.832031 260.160156 348.769531 254.074219 348.769531 C 247.984375 348.769531 243.046875 343.832031 243.046875 337.746094 C 243.046875 331.65625 247.984375 326.722656 254.074219 326.722656 C 260.160156 326.722656 265.097656 331.65625 265.097656 337.746094 "/>
<path fill-rule="nonzero" fill="rgb(18.431373%, 30.980392%, 30.980392%)" fill-opacity="1" stroke-width="0.708661" stroke-linecap="round" stroke-linejoin="round" stroke="rgb(18.431373%, 30.980392%, 30.980392%)" stroke-opacity="1" stroke-miterlimit="10" d="M 342.914062 337.746094 C 342.914062 343.832031 337.980469 348.769531 331.890625 348.769531 C 325.800781 348.769531 320.867188 343.832031 320.867188 337.746094 C 320.867188 331.65625 325.800781 326.722656 331.890625 326.722656 C 337.980469 326.722656 342.914062 331.65625 342.914062 337.746094 "/>
<path fill-rule="nonzero" fill="rgb(18.431373%, 30.980392%, 30.980392%)" fill-opacity="1" stroke-width="0.708661" stroke-linecap="round" stroke-linejoin="round" stroke="rgb(18.431373%, 30.980392%, 30.980392%)" stroke-opacity="1" stroke-miterlimit="10" d="M 420.734375 337.746094 C 420.734375 343.832031 415.796875 348.769531 409.710938 348.769531 C 403.621094 348.769531 398.683594 343.832031 398.683594 337.746094 C 398.683594 331.65625 403.621094 326.722656 409.710938 326.722656 C 415.796875 326.722656 420.734375 331.65625 420.734375 337.746094 "/>
<path fill-rule="nonzero" fill="rgb(18.431373%, 30.980392%, 30.980392%)" fill-opacity="1" stroke-width="0.708661" stroke-linecap="round" stroke-linejoin="round" stroke="rgb(18.431373%, 30.980392%, 30.980392%)" stroke-opacity="1" stroke-miterlimit="10" d="M 498.550781 337.746094 C 498.550781 343.832031 493.617188 348.769531 487.527344 348.769531 C 481.4375 348.769531 476.503906 343.832031 476.503906 337.746094 C 476.503906 331.65625 481.4375 326.722656 487.527344 326.722656 C 493.617188 326.722656 498.550781 331.65625 498.550781 337.746094 "/>
<path fill-rule="nonzero" fill="rgb(18.431373%, 30.980392%, 30.980392%)" fill-opacity="1" stroke-width="0.708661" stroke-linecap="round" stroke-linejoin="round" stroke="rgb(18.431373%, 30.980392%, 30.980392%)" stroke-opacity="1" stroke-miterlimit="10" d="M 576.371094 337.746094 C 576.371094 343.832031 571.433594 348.769531 565.34375 348.769531 C 559.257812 348.769531 554.320312 343.832031 554.320312 337.746094 C 554.320312 331.65625 559.257812 326.722656 565.34375 326.722656 C 571.433594 326.722656 576.371094 331.65625 576.371094 337.746094 "/>
<path fill-rule="nonzero" fill="rgb(18.431373%, 30.980392%, 30.980392%)" fill-opacity="1" stroke-width="0.708661" stroke-linecap="round" stroke-linejoin="round" stroke="rgb(18.431373%, 30.980392%, 30.980392%)" stroke-opacity="1" stroke-miterlimit="10" d="M 654.1875 337.746094 C 654.1875 343.832031 649.253906 348.769531 643.164062 348.769531 C 637.074219 348.769531 632.140625 343.832031 632.140625 337.746094 C 632.140625 331.65625 637.074219 326.722656 643.164062 326.722656 C 649.253906 326.722656 654.1875 331.65625 654.1875 337.746094 "/>
<path fill-rule="nonzero" fill="rgb(18.431373%, 30.980392%, 30.980392%)" fill-opacity="1" stroke-width="0.708661" stroke-linecap="round" stroke-linejoin="round" stroke="rgb(18.431373%, 30.980392%, 30.980392%)" stroke-opacity="1" stroke-miterlimit="10" d="M 732.007812 337.746094 C 732.007812 343.832031 727.070312 348.769531 720.980469 348.769531 C 714.894531 348.769531 709.957031 343.832031 709.957031 337.746094 C 709.957031 331.65625 714.894531 326.722656 720.980469 326.722656 C 727.070312 326.722656 732.007812 331.65625 732.007812 337.746094 "/>
<path fill-rule="nonzero" fill="rgb(18.431373%, 30.980392%, 30.980392%)" fill-opacity="1" stroke-width="0.708661" stroke-linecap="round" stroke-linejoin="round" stroke="rgb(18.431373%, 30.980392%, 30.980392%)" stroke-opacity="1" stroke-miterlimit="10" d="M 31.640625 285.382812 C 31.640625 291.46875 26.707031 296.40625 20.617188 296.40625 C 14.53125 296.40625 9.59375 291.46875 9.59375 285.382812 C 9.59375 279.292969 14.53125 274.359375 20.617188 274.359375 C 26.707031 274.359375 31.640625 279.292969 31.640625 285.382812 "/>
<path fill-rule="nonzero" fill="rgb(18.431373%, 30.980392%, 30.980392%)" fill-opacity="1" stroke-width="0.708661" stroke-linecap="round" stroke-linejoin="round" stroke="rgb(18.431373%, 30.980392%, 30.980392%)" stroke-opacity="1" stroke-miterlimit="10" d="M 109.460938 285.382812 C 109.460938 291.46875 104.523438 296.40625 98.4375 296.40625 C 92.347656 296.40625 87.414062 291.46875 87.414062 285.382812 C 87.414062 279.292969 92.347656 274.359375 98.4375 274.359375 C 104.523438 274.359375 109.460938 279.292969 109.460938 285.382812 "/>
<path fill-rule="nonzero" fill="rgb(18.431373%, 30.980392%, 30.980392%)" fill-opacity="1" stroke-width="0.708661" stroke-linecap="round" stroke-linejoin="round" stroke="rgb(18.431373%, 30.980392%, 30.980392%)" stroke-opacity="1" stroke-miterlimit="10" d="M 187.277344 285.382812 C 187.277344 291.46875 182.34375 296.40625 176.253906 296.40625 C 170.167969 296.40625 165.230469 291.46875 165.230469 285.382812 C 165.230469 279.292969 170.167969 274.359375 176.253906 274.359375 C 182.34375 274.359375 187.277344 279.292969 187.277344 285.382812 "/>
<path fill-rule="nonzero" fill="rgb(18.431373%, 30.980392%, 30.980392%)" fill-opacity="1" stroke-width="0.708661" stroke-linecap="round" stroke-linejoin="round" stroke="rgb(18.431373%, 30.980392%, 30.980392%)" stroke-opacity="1" stroke-miterlimit="10" d="M 265.097656 285.382812 C 265.097656 291.46875 260.160156 296.40625 254.074219 296.40625 C 247.984375 296.40625 243.046875 291.46875 243.046875 285.382812 C 243.046875 279.292969 247.984375 274.359375 254.074219 274.359375 C 260.160156 274.359375 265.097656 279.292969 265.097656 285.382812 "/>
<path fill-rule="nonzero" fill="rgb(18.431373%, 30.980392%, 30.980392%)" fill-opacity="1" stroke-width="0.708661" stroke-linecap="round" stroke-linejoin="round" stroke="rgb(18.431373%, 30.980392%, 30.980392%)" stroke-opacity="1" stroke-miterlimit="10" d="M 342.914062 285.382812 C 342.914062 291.46875 337.980469 296.40625 331.890625 296.40625 C 325.800781 296.40625 320.867188 291.46875 320.867188 285.382812 C 320.867188 279.292969 325.800781 274.359375 331.890625 274.359375 C 337.980469 274.359375 342.914062 279.292969 342.914062 285.382812 "/>
<path fill-rule="nonzero" fill="rgb(18.431373%, 30.980392%, 30.980392%)" fill-opacity="1" stroke-width="0.708661" stroke-linecap="round" stroke-linejoin="round" stroke="rgb(18.431373%, 30.980392%, 30.980392%)" stroke-opacity="1" stroke-miterlimit="10" d="M 420.734375 285.382812 C 420.734375 291.46875 415.796875 296.40625 409.710938 296.40625 C 403.621094 296.40625 398.683594 291.46875 398.683594 285.382812 C 398.683594 279.292969 403.621094 274.359375 409.710938 274.359375 C 415.796875 274.359375 420.734375 279.292969 420.734375 285.382812 "/>
<path fill-rule="nonzero" fill="rgb(18.431373%, 30.980392%, 30.980392%)" fill-opacity="1" stroke-width="0.708661" stroke-linecap="round" stroke-linejoin="round" stroke="rgb(18.431373%, 30.980392%, 30.980392%)" stroke-opacity="1" stroke-miterlimit="10" d="M 498.550781 285.382812 C 498.550781 291.46875 493.617188 296.40625 487.527344 296.40625 C 481.4375 296.40625 476.503906 291.46875 476.503906 285.382812 C 476.503906 279.292969 481.4375 274.359375 487.527344 274.359375 C 493.617188 274.359375 498.550781 279.292969 498.550781 285.382812 "/>
<path fill-rule="nonzero" fill="rgb(18.431373%, 30.980392%, 30.980392%)" fill-opacity="1" stroke-width="0.708661" stroke-linecap="round" stroke-linejoin="round" stroke="rgb(18.431373%, 30.980392%, 30.980392%)" stroke-opacity="1" stroke-miterlimit="10" d="M 576.371094 285.382812 C 576.371094 291.46875 571.433594 296.40625 565.34375 296.40625 C 559.257812 296.40625 554.320312 291.46875 554.320312 285.382812 C 554.320312 279.292969 559.257812 274.359375 565.34375 274.359375 C 571.433594 274.359375 576.371094 279.292969 576.371094 285.382812 "/>
<path fill-rule="nonzero" fill="rgb(18.431373%, 30.980392%, 30.980392%)" fill-opacity="1" stroke-width="0.708661" stroke-linecap="round" stroke-linejoin="round" stroke="rgb(18.431373%, 30.980392%, 30.980392%)" stroke-opacity="1" stroke-miterlimit="10" d="M 654.1875 285.382812 C 654.1875 291.46875 649.253906 296.40625 643.164062 296.40625 C 637.074219 296.40625 632.140625 291.46875 632.140625 285.382812 C 632.140625 279.292969 637.074219 274.359375 643.164062 274.359375 C 649.253906 274.359375 654.1875 279.292969 654.1875 285.382812 "/>
<path fill-rule="nonzero" fill="rgb(18.431373%, 30.980392%, 30.980392%)" fill-opacity="1" stroke-width="0.708661" stroke-linecap="round" stroke-linejoin="round" stroke="rgb(18.431373%, 30.980392%, 30.980392%)" stroke-opacity="1" stroke-miterlimit="10" d="M 732.007812 285.382812 C 732.007812 291.46875 727.070312 296.40625 720.980469 296.40625 C 714.894531 296.40625 709.957031 291.46875 709.957031 285.382812 C 709.957031 279.292969 714.894531 274.359375 720.980469 274.359375 C 727.070312 274.359375 732.007812 279.292969 732.007812 285.382812 "/>
<path fill-rule="nonzero" fill="rgb(18.431373%, 30.980392%, 30.980392%)" fill-opacity="1" stroke-width="0.708661" stroke-linecap="round" stroke-linejoin="round" stroke="rgb(18.431373%, 30.980392%, 30.980392%)" stroke-opacity="1" stroke-miterlimit="10" d="M 31.640625 233.019531 C 31.640625 239.105469 26.707031 244.042969 20.617188 244.042969 C 14.53125 244.042969 9.59375 239.105469 9.59375 233.019531 C 9.59375 226.929688 14.53125 221.992188 20.617188 221.992188 C 26.707031 221.992188 31.640625 226.929688 31.640625 233.019531 "/>
<path fill-rule="nonzero" fill="rgb(18.431373%, 30.980392%, 30.980392%)" fill-opacity="1" stroke-width="0.708661" stroke-linecap="round" stroke-linejoin="round" stroke="rgb(18.431373%, 30.980392%, 30.980392%)" stroke-opacity="1" stroke-miterlimit="10" d="M 109.460938 233.019531 C 109.460938 239.105469 104.523438 244.042969 98.4375 244.042969 C 92.347656 244.042969 87.414062 239.105469 87.414062 233.019531 C 87.414062 226.929688 92.347656 221.992188 98.4375 221.992188 C 104.523438 221.992188 109.460938 226.929688 109.460938 233.019531 "/>
<path fill-rule="nonzero" fill="rgb(18.431373%, 30.980392%, 30.980392%)" fill-opacity="1" stroke-width="0.708661" stroke-linecap="round" stroke-linejoin="round" stroke="rgb(18.431373%, 30.980392%, 30.980392%)" stroke-opacity="1" stroke-miterlimit="10" d="M 187.277344 233.019531 C 187.277344 239.105469 182.34375 244.042969 176.253906 244.042969 C 170.167969 244.042969 165.230469 239.105469 165.230469 233.019531 C 165.230469 226.929688 170.167969 221.992188 176.253906 221.992188 C 182.34375 221.992188 187.277344 226.929688 187.277344 233.019531 "/>
<path fill-rule="nonzero" fill="rgb(18.431373%, 30.980392%, 30.980392%)" fill-opacity="1" stroke-width="0.708661" stroke-linecap="round" stroke-linejoin="round" stroke="rgb(18.431373%, 30.980392%, 30.980392%)" stroke-opacity="1" stroke-miterlimit="10" d="M 265.097656 233.019531 C 265.097656 239.105469 260.160156 244.042969 254.074219 244.042969 C 247.984375 244.042969 243.046875 239.105469 243.046875 233.019531 C 243.046875 226.929688 247.984375 221.992188 254.074219 221.992188 C 260.160156 221.992188 265.097656 226.929688 265.097656 233.019531 "/>
<path fill-rule="nonzero" fill="rgb(18.431373%, 30.980392%, 30.980392%)" fill-opacity="1" stroke-width="0.708661" stroke-linecap="round" stroke-linejoin="round" stroke="rgb(18.431373%, 30.980392%, 30.980392%)" stroke-opacity="1" stroke-miterlimit="10" d="M 342.914062 233.019531 C 342.914062 239.105469 337.980469 244.042969 331.890625 244.042969 C 325.800781 244.042969 320.867188 239.105469 320.867188 233.019531 C 320.867188 226.929688 325.800781 221.992188 331.890625 221.992188 C 337.980469 221.992188 342.914062 226.929688 342.914062 233.019531 "/>
<path fill-rule="nonzero" fill="rgb(18.431373%, 30.980392%, 30.980392%)" fill-opacity="1" stroke-width="0.708661" stroke-linecap="round" stroke-linejoin="round" stroke="rgb(18.431373%, 30.980392%, 30.980392%)" stroke-opacity="1" stroke-miterlimit="10" d="M 420.734375 233.019531 C 420.734375 239.105469 415.796875 244.042969 409.710938 244.042969 C 403.621094 244.042969 398.683594 239.105469 398.683594 233.019531 C 398.683594 226.929688 403.621094 221.992188 409.710938 221.992188 C 415.796875 221.992188 420.734375 226.929688 420.734375 233.019531 "/>
<path fill-rule="nonzero" fill="rgb(18.431373%, 30.980392%, 30.980392%)" fill-opacity="1" stroke-width="0.708661" stroke-linecap="round" stroke-linejoin="round" stroke="rgb(18.431373%, 30.980392%, 30.980392%)" stroke-opacity="1" stroke-miterlimit="10" d="M 498.550781 233.019531 C 498.550781 239.105469 493.617188 244.042969 487.527344 244.042969 C 481.4375 244.042969 476.503906 239.105469 476.503906 233.019531 C 476.503906 226.929688 481.4375 221.992188 487.527344 221.992188 C 493.617188 221.992188 498.550781 226.929688 498.550781 233.019531 "/>
<path fill-rule="nonzero" fill="rgb(18.431373%, 30.980392%, 30.980392%)" fill-opacity="1" stroke-width="0.708661" stroke-linecap="round" stroke-linejoin="round" stroke="rgb(18.431373%, 30.980392%, 30.980392%)" stroke-opacity="1" stroke-miterlimit="10" d="M 576.371094 233.019531 C 576.371094 239.105469 571.433594 244.042969 565.34375 244.042969 C 559.257812 244.042969 554.320312 239.105469 554.320312 233.019531 C 554.320312 226.929688 559.257812 221.992188 565.34375 221.992188 C 571.433594 221.992188 576.371094 226.929688 576.371094 233.019531 "/>
<path fill-rule="nonzero" fill="rgb(18.431373%, 30.980392%, 30.980392%)" fill-opacity="1" stroke-width="0.708661" stroke-linecap="round" stroke-linejoin="round" stroke="rgb(18.431373%, 30.980392%, 30.980392%)" stroke-opacity="1" stroke-miterlimit="10" d="M 654.1875 233.019531 C 654.1875 239.105469 649.253906 244.042969 643.164062 244.042969 C 637.074219 244.042969 632.140625 239.105469 632.140625 233.019531 C 632.140625 226.929688 637.074219 221.992188 643.164062 221.992188 C 649.253906 221.992188 654.1875 226.929688 654.1875 233.019531 "/>
<path fill-rule="nonzero" fill="rgb(18.431373%, 30.980392%, 30.980392%)" fill-opacity="1" stroke-width="0.708661" stroke-linecap="round" stroke-linejoin="round" stroke="rgb(18.431373%, 30.980392%, 30.980392%)" stroke-opacity="1" stroke-miterlimit="10" d="M 732.007812 233.019531 C 732.007812 239.105469 727.070312 244.042969 720.980469 244.042969 C 714.894531 244.042969 709.957031 239.105469 709.957031 233.019531 C 709.957031 226.929688 714.894531 221.992188 720.980469 221.992188 C 727.070312 221.992188 732.007812 226.929688 732.007812 233.019531 "/>
<path fill-rule="nonzero" fill="rgb(18.431373%, 30.980392%, 30.980392%)" fill-opacity="1" stroke-width="0.708661" stroke-linecap="round" stroke-linejoin="round" stroke="rgb(18.431373%, 30.980392%, 30.980392%)" stroke-opacity="1" stroke-miterlimit="10" d="M 31.640625 180.65625 C 31.640625 186.742188 26.707031 191.679688 20.617188 191.679688 C 14.53125 191.679688 9.59375 186.742188 9.59375 180.65625 C 9.59375 174.566406 14.53125 169.628906 20.617188 169.628906 C 26.707031 169.628906 31.640625 174.566406 31.640625 180.65625 "/>
<path fill-rule="nonzero" fill="rgb(18.431373%, 30.980392%, 30.980392%)" fill-opacity="1" stroke-width="0.708661" stroke-linecap="round" stroke-linejoin="round" stroke="rgb(18.431373%, 30.980392%, 30.980392%)" stroke-opacity="1" stroke-miterlimit="10" d="M 109.460938 180.65625 C 109.460938 186.742188 104.523438 191.679688 98.4375 191.679688 C 92.347656 191.679688 87.414062 186.742188 87.414062 180.65625 C 87.414062 174.566406 92.347656 169.628906 98.4375 169.628906 C 104.523438 169.628906 109.460938 174.566406 109.460938 180.65625 "/>
<path fill-rule="nonzero" fill="rgb(18.431373%, 30.980392%, 30.980392%)" fill-opacity="1" stroke-width="0.708661" stroke-linecap="round" stroke-linejoin="round" stroke="rgb(18.431373%, 30.980392%, 30.980392%)" stroke-opacity="1" stroke-miterlimit="10" d="M 187.277344 180.65625 C 187.277344 186.742188 182.34375 191.679688 176.253906 191.679688 C 170.167969 191.679688 165.230469 186.742188 165.230469 180.65625 C 165.230469 174.566406 170.167969 169.628906 176.253906 169.628906 C 182.34375 169.628906 187.277344 174.566406 187.277344 180.65625 "/>
<path fill-rule="nonzero" fill="rgb(18.431373%, 30.980392%, 30.980392%)" fill-opacity="1" stroke-width="0.708661" stroke-linecap="round" stroke-linejoin="round" stroke="rgb(18.431373%, 30.980392%, 30.980392%)" stroke-opacity="1" stroke-miterlimit="10" d="M 265.097656 180.65625 C 265.097656 186.742188 260.160156 191.679688 254.074219 191.679688 C 247.984375 191.679688 243.046875 186.742188 243.046875 180.65625 C 243.046875 174.566406 247.984375 169.628906 254.074219 169.628906 C 260.160156 169.628906 265.097656 174.566406 265.097656 180.65625 "/>
<path fill-rule="nonzero" fill="rgb(18.431373%, 30.980392%, 30.980392%)" fill-opacity="1" stroke-width="0.708661" stroke-linecap="round" stroke-linejoin="round" stroke="rgb(18.431373%, 30.980392%, 30.980392%)" stroke-opacity="1" stroke-miterlimit="10" d="M 342.914062 180.65625 C 342.914062 186.742188 337.980469 191.679688 331.890625 191.679688 C 325.800781 191.679688 320.867188 186.742188 320.867188 180.65625 C 320.867188 174.566406 325.800781 169.628906 331.890625 169.628906 C 337.980469 169.628906 342.914062 174.566406 342.914062 180.65625 "/>
<path fill-rule="nonzero" fill="rgb(18.431373%, 30.980392%, 30.980392%)" fill-opacity="1" stroke-width="0.708661" stroke-linecap="round" stroke-linejoin="round" stroke="rgb(18.431373%, 30.980392%, 30.980392%)" stroke-opacity="1" stroke-miterlimit="10" d="M 420.734375 180.65625 C 420.734375 186.742188 415.796875 191.679688 409.710938 191.679688 C 403.621094 191.679688 398.683594 186.742188 398.683594 180.65625 C 398.683594 174.566406 403.621094 169.628906 409.710938 169.628906 C 415.796875 169.628906 420.734375 174.566406 420.734375 180.65625 "/>
<path fill-rule="nonzero" fill="rgb(18.431373%, 30.980392%, 30.980392%)" fill-opacity="1" stroke-width="0.708661" stroke-linecap="round" stroke-linejoin="round" stroke="rgb(18.431373%, 30.980392%, 30.980392%)" stroke-opacity="1" stroke-miterlimit="10" d="M 498.550781 180.65625 C 498.550781 186.742188 493.617188 191.679688 487.527344 191.679688 C 481.4375 191.679688 476.503906 186.742188 476.503906 180.65625 C 476.503906 174.566406 481.4375 169.628906 487.527344 169.628906 C 493.617188 169.628906 498.550781 174.566406 498.550781 180.65625 "/>
<path fill-rule="nonzero" fill="rgb(18.431373%, 30.980392%, 30.980392%)" fill-opacity="1" stroke-width="0.708661" stroke-linecap="round" stroke-linejoin="round" stroke="rgb(18.431373%, 30.980392%, 30.980392%)" stroke-opacity="1" stroke-miterlimit="10" d="M 576.371094 180.65625 C 576.371094 186.742188 571.433594 191.679688 565.34375 191.679688 C 559.257812 191.679688 554.320312 186.742188 554.320312 180.65625 C 554.320312 174.566406 559.257812 169.628906 565.34375 169.628906 C 571.433594 169.628906 576.371094 174.566406 576.371094 180.65625 "/>
<path fill-rule="nonzero" fill="rgb(18.431373%, 30.980392%, 30.980392%)" fill-opacity="1" stroke-width="0.708661" stroke-linecap="round" stroke-linejoin="round" stroke="rgb(18.431373%, 30.980392%, 30.980392%)" stroke-opacity="1" stroke-miterlimit="10" d="M 654.1875 180.65625 C 654.1875 186.742188 649.253906 191.679688 643.164062 191.679688 C 637.074219 191.679688 632.140625 186.742188 632.140625 180.65625 C 632.140625 174.566406 637.074219 169.628906 643.164062 169.628906 C 649.253906 169.628906 654.1875 174.566406 654.1875 180.65625 "/>
<path fill-rule="nonzero" fill="rgb(18.431373%, 30.980392%, 30.980392%)" fill-opacity="1" stroke-width="0.708661" stroke-linecap="round" stroke-linejoin="round" stroke="rgb(18.431373%, 30.980392%, 30.980392%)" stroke-opacity="1" stroke-miterlimit="10" d="M 732.007812 180.65625 C 732.007812 186.742188 727.070312 191.679688 720.980469 191.679688 C 714.894531 191.679688 709.957031 186.742188 709.957031 180.65625 C 709.957031 174.566406 714.894531 169.628906 720.980469 169.628906 C 727.070312 169.628906 732.007812 174.566406 732.007812 180.65625 "/>
<path fill-rule="nonzero" fill="rgb(18.431373%, 30.980392%, 30.980392%)" fill-opacity="1" stroke-width="0.708661" stroke-linecap="round" stroke-linejoin="round" stroke="rgb(18.431373%, 30.980392%, 30.980392%)" stroke-opacity="1" stroke-miterlimit="10" d="M 31.640625 128.289062 C 31.640625 134.378906 26.707031 139.316406 20.617188 139.316406 C 14.53125 139.316406 9.59375 134.378906 9.59375 128.289062 C 9.59375 122.203125 14.53125 117.265625 20.617188 117.265625 C 26.707031 117.265625 31.640625 122.203125 31.640625 128.289062 "/>
<path fill-rule="nonzero" fill="rgb(18.431373%, 30.980392%, 30.980392%)" fill-opacity="1" stroke-width="0.708661" stroke-linecap="round" stroke-linejoin="round" stroke="rgb(18.431373%, 30.980392%, 30.980392%)" stroke-opacity="1" stroke-miterlimit="10" d="M 109.460938 128.289062 C 109.460938 134.378906 104.523438 139.316406 98.4375 139.316406 C 92.347656 139.316406 87.414062 134.378906 87.414062 128.289062 C 87.414062 122.203125 92.347656 117.265625 98.4375 117.265625 C 104.523438 117.265625 109.460938 122.203125 109.460938 128.289062 "/>
<path fill-rule="nonzero" fill="rgb(18.431373%, 30.980392%, 30.980392%)" fill-opacity="1" stroke-width="0.708661" stroke-linecap="round" stroke-linejoin="round" stroke="rgb(18.431373%, 30.980392%, 30.980392%)" stroke-opacity="1" stroke-miterlimit="10" d="M 187.277344 128.289062 C 187.277344 134.378906 182.34375 139.316406 176.253906 139.316406 C 170.167969 139.316406 165.230469 134.378906 165.230469 128.289062 C 165.230469 122.203125 170.167969 117.265625 176.253906 117.265625 C 182.34375 117.265625 187.277344 122.203125 187.277344 128.289062 "/>
<path fill-rule="nonzero" fill="rgb(18.431373%, 30.980392%, 30.980392%)" fill-opacity="1" stroke-width="0.708661" stroke-linecap="round" stroke-linejoin="round" stroke="rgb(18.431373%, 30.980392%, 30.980392%)" stroke-opacity="1" stroke-miterlimit="10" d="M 265.097656 128.289062 C 265.097656 134.378906 260.160156 139.316406 254.074219 139.316406 C 247.984375 139.316406 243.046875 134.378906 243.046875 128.289062 C 243.046875 122.203125 247.984375 117.265625 254.074219 117.265625 C 260.160156 117.265625 265.097656 122.203125 265.097656 128.289062 "/>
<path fill-rule="nonzero" fill="rgb(18.431373%, 30.980392%, 30.980392%)" fill-opacity="1" stroke-width="0.708661" stroke-linecap="round" stroke-linejoin="round" stroke="rgb(18.431373%, 30.980392%, 30.980392%)" stroke-opacity="1" stroke-miterlimit="10" d="M 342.914062 128.289062 C 342.914062 134.378906 337.980469 139.316406 331.890625 139.316406 C 325.800781 139.316406 320.867188 134.378906 320.867188 128.289062 C 320.867188 122.203125 325.800781 117.265625 331.890625 117.265625 C 337.980469 117.265625 342.914062 122.203125 342.914062 128.289062 "/>
<path fill-rule="nonzero" fill="rgb(18.431373%, 30.980392%, 30.980392%)" fill-opacity="1" stroke-width="0.708661" stroke-linecap="round" stroke-linejoin="round" stroke="rgb(18.431373%, 30.980392%, 30.980392%)" stroke-opacity="1" stroke-miterlimit="10" d="M 420.734375 128.289062 C 420.734375 134.378906 415.796875 139.316406 409.710938 139.316406 C 403.621094 139.316406 398.683594 134.378906 398.683594 128.289062 C 398.683594 122.203125 403.621094 117.265625 409.710938 117.265625 C 415.796875 117.265625 420.734375 122.203125 420.734375 128.289062 "/>
<path fill-rule="nonzero" fill="rgb(18.431373%, 30.980392%, 30.980392%)" fill-opacity="1" stroke-width="0.708661" stroke-linecap="round" stroke-linejoin="round" stroke="rgb(18.431373%, 30.980392%, 30.980392%)" stroke-opacity="1" stroke-miterlimit="10" d="M 498.550781 128.289062 C 498.550781 134.378906 493.617188 139.316406 487.527344 139.316406 C 481.4375 139.316406 476.503906 134.378906 476.503906 128.289062 C 476.503906 122.203125 481.4375 117.265625 487.527344 117.265625 C 493.617188 117.265625 498.550781 122.203125 498.550781 128.289062 "/>
<path fill-rule="nonzero" fill="rgb(18.431373%, 30.980392%, 30.980392%)" fill-opacity="1" stroke-width="0.708661" stroke-linecap="round" stroke-linejoin="round" stroke="rgb(18.431373%, 30.980392%, 30.980392%)" stroke-opacity="1" stroke-miterlimit="10" d="M 576.371094 128.289062 C 576.371094 134.378906 571.433594 139.316406 565.34375 139.316406 C 559.257812 139.316406 554.320312 134.378906 554.320312 128.289062 C 554.320312 122.203125 559.257812 117.265625 565.34375 117.265625 C 571.433594 117.265625 576.371094 122.203125 576.371094 128.289062 "/>
<path fill-rule="nonzero" fill="rgb(18.431373%, 30.980392%, 30.980392%)" fill-opacity="1" stroke-width="0.708661" stroke-linecap="round" stroke-linejoin="round" stroke="rgb(18.431373%, 30.980392%, 30.980392%)" stroke-opacity="1" stroke-miterlimit="10" d="M 654.1875 128.289062 C 654.1875 134.378906 649.253906 139.316406 643.164062 139.316406 C 637.074219 139.316406 632.140625 134.378906 632.140625 128.289062 C 632.140625 122.203125 637.074219 117.265625 643.164062 117.265625 C 649.253906 117.265625 654.1875 122.203125 654.1875 128.289062 "/>
<path fill-rule="nonzero" fill="rgb(18.431373%, 30.980392%, 30.980392%)" fill-opacity="1" stroke-width="0.708661" stroke-linecap="round" stroke-linejoin="round" stroke="rgb(18.431373%, 30.980392%, 30.980392%)" stroke-opacity="1" stroke-miterlimit="10" d="M 732.007812 128.289062 C 732.007812 134.378906 727.070312 139.316406 720.980469 139.316406 C 714.894531 139.316406 709.957031 134.378906 709.957031 128.289062 C 709.957031 122.203125 714.894531 117.265625 720.980469 117.265625 C 727.070312 117.265625 732.007812 122.203125 732.007812 128.289062 "/>
<path fill-rule="nonzero" fill="rgb(18.431373%, 30.980392%, 30.980392%)" fill-opacity="1" stroke-width="0.708661" stroke-linecap="round" stroke-linejoin="round" stroke="rgb(18.431373%, 30.980392%, 30.980392%)" stroke-opacity="1" stroke-miterlimit="10" d="M 31.640625 75.925781 C 31.640625 82.015625 26.707031 86.953125 20.617188 86.953125 C 14.53125 86.953125 9.59375 82.015625 9.59375 75.925781 C 9.59375 69.839844 14.53125 64.902344 20.617188 64.902344 C 26.707031 64.902344 31.640625 69.839844 31.640625 75.925781 "/>
<path fill-rule="nonzero" fill="rgb(18.431373%, 30.980392%, 30.980392%)" fill-opacity="1" stroke-width="0.708661" stroke-linecap="round" stroke-linejoin="round" stroke="rgb(18.431373%, 30.980392%, 30.980392%)" stroke-opacity="1" stroke-miterlimit="10" d="M 109.460938 75.925781 C 109.460938 82.015625 104.523438 86.953125 98.4375 86.953125 C 92.347656 86.953125 87.414062 82.015625 87.414062 75.925781 C 87.414062 69.839844 92.347656 64.902344 98.4375 64.902344 C 104.523438 64.902344 109.460938 69.839844 109.460938 75.925781 "/>
<path fill-rule="nonzero" fill="rgb(18.431373%, 30.980392%, 30.980392%)" fill-opacity="1" stroke-width="0.708661" stroke-linecap="round" stroke-linejoin="round" stroke="rgb(18.431373%, 30.980392%, 30.980392%)" stroke-opacity="1" stroke-miterlimit="10" d="M 187.277344 75.925781 C 187.277344 82.015625 182.34375 86.953125 176.253906 86.953125 C 170.167969 86.953125 165.230469 82.015625 165.230469 75.925781 C 165.230469 69.839844 170.167969 64.902344 176.253906 64.902344 C 182.34375 64.902344 187.277344 69.839844 187.277344 75.925781 "/>
<path fill-rule="nonzero" fill="rgb(18.431373%, 30.980392%, 30.980392%)" fill-opacity="1" stroke-width="0.708661" stroke-linecap="round" stroke-linejoin="round" stroke="rgb(18.431373%, 30.980392%, 30.980392%)" stroke-opacity="1" stroke-miterlimit="10" d="M 265.097656 75.925781 C 265.097656 82.015625 260.160156 86.953125 254.074219 86.953125 C 247.984375 86.953125 243.046875 82.015625 243.046875 75.925781 C 243.046875 69.839844 247.984375 64.902344 254.074219 64.902344 C 260.160156 64.902344 265.097656 69.839844 265.097656 75.925781 "/>
<path fill-rule="nonzero" fill="rgb(18.431373%, 30.980392%, 30.980392%)" fill-opacity="1" stroke-width="0.708661" stroke-linecap="round" stroke-linejoin="round" stroke="rgb(18.431373%, 30.980392%, 30.980392%)" stroke-opacity="1" stroke-miterlimit="10" d="M 342.914062 75.925781 C 342.914062 82.015625 337.980469 86.953125 331.890625 86.953125 C 325.800781 86.953125 320.867188 82.015625 320.867188 75.925781 C 320.867188 69.839844 325.800781 64.902344 331.890625 64.902344 C 337.980469 64.902344 342.914062 69.839844 342.914062 75.925781 "/>
<path fill-rule="nonzero" fill="rgb(18.431373%, 30.980392%, 30.980392%)" fill-opacity="1" stroke-width="0.708661" stroke-linecap="round" stroke-linejoin="round" stroke="rgb(18.431373%, 30.980392%, 30.980392%)" stroke-opacity="1" stroke-miterlimit="10" d="M 420.734375 75.925781 C 420.734375 82.015625 415.796875 86.953125 409.710938 86.953125 C 403.621094 86.953125 398.683594 82.015625 398.683594 75.925781 C 398.683594 69.839844 403.621094 64.902344 409.710938 64.902344 C 415.796875 64.902344 420.734375 69.839844 420.734375 75.925781 "/>
<path fill-rule="nonzero" fill="rgb(18.431373%, 30.980392%, 30.980392%)" fill-opacity="1" stroke-width="0.708661" stroke-linecap="round" stroke-linejoin="round" stroke="rgb(18.431373%, 30.980392%, 30.980392%)" stroke-opacity="1" stroke-miterlimit="10" d="M 498.550781 75.925781 C 498.550781 82.015625 493.617188 86.953125 487.527344 86.953125 C 481.4375 86.953125 476.503906 82.015625 476.503906 75.925781 C 476.503906 69.839844 481.4375 64.902344 487.527344 64.902344 C 493.617188 64.902344 498.550781 69.839844 498.550781 75.925781 "/>
<path fill-rule="nonzero" fill="rgb(18.431373%, 30.980392%, 30.980392%)" fill-opacity="1" stroke-width="0.708661" stroke-linecap="round" stroke-linejoin="round" stroke="rgb(18.431373%, 30.980392%, 30.980392%)" stroke-opacity="1" stroke-miterlimit="10" d="M 576.371094 75.925781 C 576.371094 82.015625 571.433594 86.953125 565.34375 86.953125 C 559.257812 86.953125 554.320312 82.015625 554.320312 75.925781 C 554.320312 69.839844 559.257812 64.902344 565.34375 64.902344 C 571.433594 64.902344 576.371094 69.839844 576.371094 75.925781 "/>
<path fill-rule="nonzero" fill="rgb(18.431373%, 30.980392%, 30.980392%)" fill-opacity="1" stroke-width="0.708661" stroke-linecap="round" stroke-linejoin="round" stroke="rgb(18.431373%, 30.980392%, 30.980392%)" stroke-opacity="1" stroke-miterlimit="10" d="M 654.1875 75.925781 C 654.1875 82.015625 649.253906 86.953125 643.164062 86.953125 C 637.074219 86.953125 632.140625 82.015625 632.140625 75.925781 C 632.140625 69.839844 637.074219 64.902344 643.164062 64.902344 C 649.253906 64.902344 654.1875 69.839844 654.1875 75.925781 "/>
<path fill-rule="nonzero" fill="rgb(18.431373%, 30.980392%, 30.980392%)" fill-opacity="1" stroke-width="0.708661" stroke-linecap="round" stroke-linejoin="round" stroke="rgb(18.431373%, 30.980392%, 30.980392%)" stroke-opacity="1" stroke-miterlimit="10" d="M 732.007812 75.925781 C 732.007812 82.015625 727.070312 86.953125 720.980469 86.953125 C 714.894531 86.953125 709.957031 82.015625 709.957031 75.925781 C 709.957031 69.839844 714.894531 64.902344 720.980469 64.902344 C 727.070312 64.902344 732.007812 69.839844 732.007812 75.925781 "/>
<path fill-rule="nonzero" fill="rgb(18.431373%, 30.980392%, 30.980392%)" fill-opacity="1" stroke-width="0.708661" stroke-linecap="round" stroke-linejoin="round" stroke="rgb(18.431373%, 30.980392%, 30.980392%)" stroke-opacity="1" stroke-miterlimit="10" d="M 31.640625 23.5625 C 31.640625 29.652344 26.707031 34.585938 20.617188 34.585938 C 14.53125 34.585938 9.59375 29.652344 9.59375 23.5625 C 9.59375 17.476562 14.53125 12.539062 20.617188 12.539062 C 26.707031 12.539062 31.640625 17.476562 31.640625 23.5625 "/>
<path fill-rule="nonzero" fill="rgb(18.431373%, 30.980392%, 30.980392%)" fill-opacity="1" stroke-width="0.708661" stroke-linecap="round" stroke-linejoin="round" stroke="rgb(18.431373%, 30.980392%, 30.980392%)" stroke-opacity="1" stroke-miterlimit="10" d="M 109.460938 23.5625 C 109.460938 29.652344 104.523438 34.585938 98.4375 34.585938 C 92.347656 34.585938 87.414062 29.652344 87.414062 23.5625 C 87.414062 17.476562 92.347656 12.539062 98.4375 12.539062 C 104.523438 12.539062 109.460938 17.476562 109.460938 23.5625 "/>
<path fill-rule="nonzero" fill="rgb(18.431373%, 30.980392%, 30.980392%)" fill-opacity="1" stroke-width="0.708661" stroke-linecap="round" stroke-linejoin="round" stroke="rgb(18.431373%, 30.980392%, 30.980392%)" stroke-opacity="1" stroke-miterlimit="10" d="M 187.277344 23.5625 C 187.277344 29.652344 182.34375 34.585938 176.253906 34.585938 C 170.167969 34.585938 165.230469 29.652344 165.230469 23.5625 C 165.230469 17.476562 170.167969 12.539062 176.253906 12.539062 C 182.34375 12.539062 187.277344 17.476562 187.277344 23.5625 "/>
<path fill-rule="nonzero" fill="rgb(18.431373%, 30.980392%, 30.980392%)" fill-opacity="1" stroke-width="0.708661" stroke-linecap="round" stroke-linejoin="round" stroke="rgb(18.431373%, 30.980392%, 30.980392%)" stroke-opacity="1" stroke-miterlimit="10" d="M 265.097656 23.5625 C 265.097656 29.652344 260.160156 34.585938 254.074219 34.585938 C 247.984375 34.585938 243.046875 29.652344 243.046875 23.5625 C 243.046875 17.476562 247.984375 12.539062 254.074219 12.539062 C 260.160156 12.539062 265.097656 17.476562 265.097656 23.5625 "/>
<path fill-rule="nonzero" fill="rgb(18.431373%, 30.980392%, 30.980392%)" fill-opacity="1" stroke-width="0.708661" stroke-linecap="round" stroke-linejoin="round" stroke="rgb(18.431373%, 30.980392%, 30.980392%)" stroke-opacity="1" stroke-miterlimit="10" d="M 342.914062 23.5625 C 342.914062 29.652344 337.980469 34.585938 331.890625 34.585938 C 325.800781 34.585938 320.867188 29.652344 320.867188 23.5625 C 320.867188 17.476562 325.800781 12.539062 331.890625 12.539062 C 337.980469 12.539062 342.914062 17.476562 342.914062 23.5625 "/>
<path fill-rule="nonzero" fill="rgb(18.431373%, 30.980392%, 30.980392%)" fill-opacity="1" stroke-width="0.708661" stroke-linecap="round" stroke-linejoin="round" stroke="rgb(18.431373%, 30.980392%, 30.980392%)" stroke-opacity="1" stroke-miterlimit="10" d="M 420.734375 23.5625 C 420.734375 29.652344 415.796875 34.585938 409.710938 34.585938 C 403.621094 34.585938 398.683594 29.652344 398.683594 23.5625 C 398.683594 17.476562 403.621094 12.539062 409.710938 12.539062 C 415.796875 12.539062 420.734375 17.476562 420.734375 23.5625 "/>
<path fill-rule="nonzero" fill="rgb(18.431373%, 30.980392%, 30.980392%)" fill-opacity="1" stroke-width="0.708661" stroke-linecap="round" stroke-linejoin="round" stroke="rgb(18.431373%, 30.980392%, 30.980392%)" stroke-opacity="1" stroke-miterlimit="10" d="M 498.550781 23.5625 C 498.550781 29.652344 493.617188 34.585938 487.527344 34.585938 C 481.4375 34.585938 476.503906 29.652344 476.503906 23.5625 C 476.503906 17.476562 481.4375 12.539062 487.527344 12.539062 C 493.617188 12.539062 498.550781 17.476562 498.550781 23.5625 "/>
<path fill-rule="nonzero" fill="rgb(18.431373%, 30.980392%, 30.980392%)" fill-opacity="1" stroke-width="0.708661" stroke-linecap="round" stroke-linejoin="round" stroke="rgb(18.431373%, 30.980392%, 30.980392%)" stroke-opacity="1" stroke-miterlimit="10" d="M 576.371094 23.5625 C 576.371094 29.652344 571.433594 34.585938 565.34375 34.585938 C 559.257812 34.585938 554.320312 29.652344 554.320312 23.5625 C 554.320312 17.476562 559.257812 12.539062 565.34375 12.539062 C 571.433594 12.539062 576.371094 17.476562 576.371094 23.5625 "/>
<path fill-rule="nonzero" fill="rgb(18.431373%, 30.980392%, 30.980392%)" fill-opacity="1" stroke-width="0.708661" stroke-linecap="round" stroke-linejoin="round" stroke="rgb(18.431373%, 30.980392%, 30.980392%)" stroke-opacity="1" stroke-miterlimit="10" d="M 654.1875 23.5625 C 654.1875 29.652344 649.253906 34.585938 643.164062 34.585938 C 637.074219 34.585938 632.140625 29.652344 632.140625 23.5625 C 632.140625 17.476562 637.074219 12.539062 643.164062 12.539062 C 649.253906 12.539062 654.1875 17.476562 654.1875 23.5625 "/>
<path fill-rule="nonzero" fill="rgb(18.431373%, 30.980392%, 30.980392%)" fill-opacity="1" stroke-width="0.708661" stroke-linecap="round" stroke-linejoin="round" stroke="rgb(18.431373%, 30.980392%, 30.980392%)" stroke-opacity="1" stroke-miterlimit="10" d="M 732.007812 23.5625 C 732.007812 29.652344 727.070312 34.585938 720.980469 34.585938 C 714.894531 34.585938 709.957031 29.652344 709.957031 23.5625 C 709.957031 17.476562 714.894531 12.539062 720.980469 12.539062 C 727.070312 12.539062 732.007812 17.476562 732.007812 23.5625 "/>
</svg>
