<?xml version="1.0" encoding="UTF-8"?>
<svg xmlns="http://www.w3.org/2000/svg" xmlns:xlink="http://www.w3.org/1999/xlink" width="756" height="504" viewBox="0 0 756 504">
<rect x="-75.6" y="-50.4" width="907.2" height="604.8" fill="rgb(100%, 100%, 100%)" fill-opacity="1"/>
<path fill="none" stroke-width="6.40187" stroke-linecap="butt" stroke-linejoin="round" stroke="rgb(90.196078%, 25.490196%, 45.098039%)" stroke-opacity="1" stroke-miterlimit="10" d="M -784.800781 693.089844 L 1526.398438 -142.472656 "/>
<path fill-rule="nonzero" fill="rgb(18.431373%, 30.980392%, 30.980392%)" fill-opacity="1" stroke-width="0.708661" stroke-linecap="round" stroke-linejoin="round" stroke="rgb(18.431373%, 30.980392%, 30.980392%)" stroke-opacity="1" stroke-miterlimit="10" d="M 373.992188 234.015625 C 373.992188 237.746094 370.964844 240.769531 367.234375 240.769531 C 363.503906 240.769531 360.480469 237.746094 360.480469 234.015625 C 360.480469 230.285156 363.503906 227.257812 367.234375 227.257812 C 370.964844 227.257812 373.992188 230.285156 373.992188 234.015625 "/>
<path fill-rule="nonzero" fill="rgb(18.431373%, 30.980392%, 30.980392%)" fill-opacity="1" stroke-width="0.708661" stroke-linecap="round" stroke-linejoin="round" stroke="rgb(18.431373%, 30.980392%, 30.980392%)" stroke-opacity="1" stroke-miterlimit="10" d="M 196.230469 220.035156 C 196.230469 223.769531 193.207031 226.792969 189.476562 226.792969 C 185.742188 226.792969 182.71875 223.769531 182.71875 220.035156 C 182.71875 216.304688 185.742188 213.28125 189.476562 213.28125 C 193.207031 213.28125 196.230469 216.304688 196.230469 220.035156 "/>
<path fill-rule="nonzero" fill="rgb(18.431373%, 30.980392%, 30.980392%)" fill-opacity="1" stroke-width="0.708661" stroke-linecap="round" stroke-linejoin="round" stroke="rgb(18.431373%, 30.980392%, 30.980392%)" stroke-opacity="1" stroke-miterlimit="10" d="M 452.117188 494.835938 C 452.117188 498.566406 449.09375 501.59375 445.359375 501.59375 C 441.628906 501.59375 438.605469 498.566406 438.605469 494.835938 C 438.605469 491.105469 441.628906 488.082031 445.359375 488.082031 C 449.09375 488.082031 452.117188 491.105469 452.117188 494.835938 "/>
<path fill-rule="nonzero" fill="rgb(18.431373%, 30.980392%, 30.980392%)" fill-opacity="1" stroke-width="0.708661" stroke-linecap="round" stroke-linejoin="round" stroke="rgb(18.431373%, 30.980392%, 30.980392%)" stroke-opacity="1" stroke-miterlimit="10" d="M 396.148438 332.171875 C 396.148438 335.90625 393.121094 338.929688 389.390625 338.929688 C 385.660156 338.929688 382.632812 335.90625 382.632812 332.171875 C 382.632812 328.441406 385.660156 325.417969 389.390625 325.417969 C 393.121094 325.417969 396.148438 328.441406 396.148438 332.171875 "/>
<path fill-rule="nonzero" fill="rgb(18.431373%, 30.980392%, 30.980392%)" fill-opacity="1" stroke-width="0.708661" stroke-linecap="round" stroke-linejoin="round" stroke="rgb(18.431373%, 30.980392%, 30.980392%)" stroke-opacity="1" stroke-miterlimit="10" d="M 313.699219 206.324219 C 313.699219 210.054688 310.671875 213.078125 306.941406 213.078125 C 303.210938 213.078125 300.183594 210.054688 300.183594 206.324219 C 300.183594 202.589844 303.210938 199.566406 306.941406 199.566406 C 310.671875 199.566406 313.699219 202.589844 313.699219 206.324219 "/>
<path fill-rule="nonzero" fill="rgb(18.431373%, 30.980392%, 30.980392%)" fill-opacity="1" stroke-width="0.708661" stroke-linecap="round" stroke-linejoin="round" stroke="rgb(18.431373%, 30.980392%, 30.980392%)" stroke-opacity="1" stroke-miterlimit="10" d="M 401.550781 302.871094 C 401.550781 306.601562 398.523438 309.628906 394.792969 309.628906 C 391.0625 309.628906 388.035156 306.601562 388.035156 302.871094 C 388.035156 299.140625 391.0625 296.117188 394.792969 296.117188 C 398.523438 296.117188 401.550781 299.140625 401.550781 302.871094 "/>
<path fill-rule="nonzero" fill="rgb(18.431373%, 30.980392%, 30.980392%)" fill-opacity="1" stroke-width="0.708661" stroke-linecap="round" stroke-linejoin="round" stroke="rgb(18.431373%, 30.980392%, 30.980392%)" stroke-opacity="1" stroke-miterlimit="10" d="M 394.9375 208.347656 C 394.9375 212.078125 391.910156 215.105469 388.179688 215.105469 C 384.449219 215.105469 381.425781 212.078125 381.425781 208.347656 C 381.425781 204.617188 384.449219 201.59375 388.179688 201.59375 C 391.910156 201.59375 394.9375 204.617188 394.9375 208.347656 "/>
<path fill-rule="nonzero" fill="rgb(18.431373%, 30.980392%, 30.980392%)" fill-opacity="1" stroke-width="0.708661" stroke-linecap="round" stroke-linejoin="round" stroke="rgb(18.431373%, 30.980392%, 30.980392%)" stroke-opacity="1" stroke-miterlimit="10" d="M 281.582031 406.882812 C 281.582031 410.613281 278.554688 413.636719 274.824219 413.636719 C 271.09375 413.636719 268.070312 410.613281 268.070312 406.882812 C 268.070312 403.148438 271.09375 400.125 274.824219 400.125 C 278.554688 400.125 281.582031 403.148438 281.582031 406.882812 "/>
<path fill-rule="nonzero" fill="rgb(18.431373%, 30.980392%, 30.980392%)" fill-opacity="1" stroke-width="0.708661" stroke-linecap="round" stroke-linejoin="round" stroke="rgb(18.431373%, 30.980392%, 30.980392%)" stroke-opacity="1" stroke-miterlimit="10" d="M 482.960938 266.90625 C 482.960938 270.636719 479.933594 273.664062 476.203125 273.664062 C 472.472656 273.664062 469.449219 270.636719 469.449219 266.90625 C 469.449219 263.175781 472.472656 260.152344 476.203125 260.152344 C 479.933594 260.152344 482.960938 263.175781 482.960938 266.90625 "/>
<path fill-rule="nonzero" fill="rgb(18.431373%, 30.980392%, 30.980392%)" fill-opacity="1" stroke-width="0.708661" stroke-linecap="round" stroke-linejoin="round" stroke="rgb(18.431373%, 30.980392%, 30.980392%)" stroke-opacity="1" stroke-miterlimit="10" d="M 581.535156 96.054688 C 581.535156 99.785156 578.511719 102.808594 574.777344 102.808594 C 571.046875 102.808594 568.023438 99.785156 568.023438 96.054688 C 568.023438 92.320312 571.046875 89.296875 574.777344 89.296875 C 578.511719 89.296875 581.535156 92.320312 581.535156 96.054688 "/>
<path fill-rule="nonzero" fill="rgb(18.431373%, 30.980392%, 30.980392%)" fill-opacity="1" stroke-width="0.708661" stroke-linecap="round" stroke-linejoin="round" stroke="rgb(18.431373%, 30.980392%, 30.980392%)" stroke-opacity="1" stroke-miterlimit="10" d="M 299.921875 431.078125 C 299.921875 434.8125 296.894531 437.835938 293.164062 437.835938 C 289.433594 437.835938 286.40625 434.8125 286.40625 431.078125 C 286.40625 427.347656 289.433594 424.324219 293.164062 424.324219 C 296.894531 424.324219 299.921875 427.347656 299.921875 431.078125 "/>
<path fill-rule="nonzero" fill="rgb(18.431373%, 30.980392%, 30.980392%)" fill-opacity="1" stroke-width="0.708661" stroke-linecap="round" stroke-linejoin="round" stroke="rgb(18.431373%, 30.980392%, 30.980392%)" stroke-opacity="1" stroke-miterlimit="10" d="M 255.726562 259.332031 C 255.726562 263.066406 252.703125 266.089844 248.972656 266.089844 C 245.242188 266.089844 242.214844 263.066406 242.214844 259.332031 C 242.214844 255.601562 245.242188 252.578125 248.972656 252.578125 C 252.703125 252.578125 255.726562 255.601562 255.726562 259.332031 "/>
<path fill-rule="nonzero" fill="rgb(18.431373%, 30.980392%, 30.980392%)" fill-opacity="1" stroke-width="0.708661" stroke-linecap="round" stroke-linejoin="round" stroke="rgb(18.431373%, 30.980392%, 30.980392%)" stroke-opacity="1" stroke-miterlimit="10" d="M 402.050781 329.066406 C 402.050781 332.800781 399.023438 335.824219 395.292969 335.824219 C 391.5625 335.824219 388.539062 332.800781 388.539062 329.066406 C 388.539062 325.335938 391.5625 322.3125 395.292969 322.3125 C 399.023438 322.3125 402.050781 325.335938 402.050781 329.066406 "/>
<path fill-rule="nonzero" fill="rgb(18.431373%, 30.980392%, 30.980392%)" fill-opacity="1" stroke-width="0.708661" stroke-linecap="round" stroke-linejoin="round" stroke="rgb(18.431373%, 30.980392%, 30.980392%)" stroke-opacity="1" stroke-miterlimit="10" d="M 308.503906 319.660156 C 308.503906 323.394531 305.476562 326.417969 301.746094 326.417969 C 298.015625 326.417969 294.992188 323.394531 294.992188 319.660156 C 294.992188 315.929688 298.015625 312.90625 301.746094 312.90625 C 305.476562 312.90625 308.503906 315.929688 308.503906 319.660156 "/>
<path fill-rule="nonzero" fill="rgb(18.431373%, 30.980392%, 30.980392%)" fill-opacity="1" stroke-width="0.708661" stroke-linecap="round" stroke-linejoin="round" stroke="rgb(18.431373%, 30.980392%, 30.980392%)" stroke-opacity="1" stroke-miterlimit="10" d="M 592.398438 211.464844 C 592.398438 215.195312 589.375 218.222656 585.644531 218.222656 C 581.910156 218.222656 578.886719 215.195312 578.886719 211.464844 C 578.886719 207.734375 581.910156 204.707031 585.644531 204.707031 C 589.375 204.707031 592.398438 207.734375 592.398438 211.464844 "/>
<path fill-rule="nonzero" fill="rgb(18.431373%, 30.980392%, 30.980392%)" fill-opacity="1" stroke-width="0.708661" stroke-linecap="round" stroke-linejoin="round" stroke="rgb(18.431373%, 30.980392%, 30.980392%)" stroke-opacity="1" stroke-miterlimit="10" d="M 297.332031 162.003906 C 297.332031 165.734375 294.308594 168.761719 290.578125 168.761719 C 286.84375 168.761719 283.820312 165.734375 283.820312 162.003906 C 283.820312 158.273438 286.84375 155.25 290.578125 155.25 C 294.308594 155.25 297.332031 158.273438 297.332031 162.003906 "/>
<path fill-rule="nonzero" fill="rgb(18.431373%, 30.980392%, 30.980392%)" fill-opacity="1" stroke-width="0.708661" stroke-linecap="round" stroke-linejoin="round" stroke="rgb(18.431373%, 30.980392%, 30.980392%)" stroke-opacity="1" stroke-miterlimit="10" d="M 470.078125 205.925781 C 470.078125 209.660156 467.050781 212.683594 463.320312 212.683594 C 459.589844 212.683594 456.566406 209.660156 456.566406 205.925781 C 456.566406 202.195312 459.589844 199.171875 463.320312 199.171875 C 467.050781 199.171875 470.078125 202.195312 470.078125 205.925781 "/>
<path fill-rule="nonzero" fill="rgb(18.431373%, 30.980392%, 30.980392%)" fill-opacity="1" stroke-width="0.708661" stroke-linecap="round" stroke-linejoin="round" stroke="rgb(18.431373%, 30.980392%, 30.980392%)" stroke-opacity="1" stroke-miterlimit="10" d="M 567.382812 308.25 C 567.382812 311.980469 564.359375 315.003906 560.628906 315.003906 C 556.898438 315.003906 553.871094 311.980469 553.871094 308.25 C 553.871094 304.519531 556.898438 301.492188 560.628906 301.492188 C 564.359375 301.492188 567.382812 304.519531 567.382812 308.25 "/>
<path fill-rule="nonzero" fill="rgb(18.431373%, 30.980392%, 30.980392%)" fill-opacity="1" stroke-width="0.708661" stroke-linecap="round" stroke-linejoin="round" stroke="rgb(18.431373%, 30.980392%, 30.980392%)" stroke-opacity="1" stroke-miterlimit="10" d="M 727.738281 117.730469 C 727.738281 121.460938 724.714844 124.484375 720.980469 124.484375 C 717.25 124.484375 714.226562 121.460938 714.226562 117.730469 C 714.226562 113.996094 717.25 110.972656 720.980469 110.972656 C 724.714844 110.972656 727.738281 113.996094 727.738281 117.730469 "/>
<path fill-rule="nonzero" fill="rgb(18.431373%, 30.980392%, 30.980392%)" fill-opacity="1" stroke-width="0.708661" stroke-linecap="round" stroke-linejoin="round" stroke="rgb(18.431373%, 30.980392%, 30.980392%)" stroke-opacity="1" stroke-miterlimit="10" d="M 424.703125 315.089844 C 424.703125 318.820312 421.679688 321.847656 417.945312 321.847656 C 414.214844 321.847656 411.191406 318.820312 411.191406 315.089844 C 411.191406 311.359375 414.214844 308.335938 417.945312 308.335938 C 421.679688 308.335938 424.703125 311.359375 424.703125 315.089844 "/>
<path fill-rule="nonzero" fill="rgb(18.431373%, 30.980392%, 30.980392%)" fill-opacity="1" stroke-width="0.708661" stroke-linecap="round" stroke-linejoin="round" stroke="rgb(18.431373%, 30.980392%, 30.980392%)" stroke-opacity="1" stroke-miterlimit="10" d="M 614.375 249.703125 C 614.375 253.433594 611.351562 256.460938 607.621094 256.460938 C 603.890625 256.460938 600.863281 253.433594 600.863281 249.703125 C 600.863281 245.972656 603.890625 242.949219 607.621094 242.949219 C 611.351562 242.949219 614.375 245.972656 614.375 249.703125 "/>
<path fill-rule="nonzero" fill="rgb(18.431373%, 30.980392%, 30.980392%)" fill-opacity="1" stroke-width="0.708661" stroke-linecap="round" stroke-linejoin="round" stroke="rgb(18.431373%, 30.980392%, 30.980392%)" stroke-opacity="1" stroke-miterlimit="10" d="M 449.183594 338.871094 C 449.183594 342.601562 446.15625 345.628906 442.425781 345.628906 C 438.695312 345.628906 435.667969 342.601562 435.667969 338.871094 C 435.667969 335.140625 438.695312 332.117188 442.425781 332.117188 C 446.15625 332.117188 449.183594 335.140625 449.183594 338.871094 "/>
<path fill-rule="nonzero" fill="rgb(18.431373%, 30.980392%, 30.980392%)" fill-opacity="1" stroke-width="0.708661" stroke-linecap="round" stroke-linejoin="round" stroke="rgb(18.431373%, 30.980392%, 30.980392%)" stroke-opacity="1" stroke-miterlimit="10" d="M 389.65625 317.800781 C 389.65625 321.535156 386.632812 324.558594 382.902344 324.558594 C 379.167969 324.558594 376.144531 321.535156 376.144531 317.800781 C 376.144531 314.070312 379.167969 311.046875 382.902344 311.046875 C 386.632812 311.046875 389.65625 314.070312 389.65625 317.800781 "/>
<path fill-rule="nonzero" fill="rgb(18.431373%, 30.980392%, 30.980392%)" fill-opacity="1" stroke-width="0.708661" stroke-linecap="round" stroke-linejoin="round" stroke="rgb(18.431373%, 30.980392%, 30.980392%)" stroke-opacity="1" stroke-miterlimit="10" d="M 424.902344 293.222656 C 424.902344 296.957031 421.878906 299.980469 418.148438 299.980469 C 414.414062 299.980469 411.390625 296.957031 411.390625 293.222656 C 411.390625 289.492188 414.414062 286.46875 418.148438 286.46875 C 421.878906 286.46875 424.902344 289.492188 424.902344 293.222656 "/>
<path fill-rule="nonzero" fill="rgb(18.431373%, 30.980392%, 30.980392%)" fill-opacity="1" stroke-width="0.708661" stroke-linecap="round" stroke-linejoin="round" stroke="rgb(18.431373%, 30.980392%, 30.980392%)" stroke-opacity="1" stroke-miterlimit="10" d="M 569.789062 260.472656 C 569.789062 264.203125 566.765625 267.226562 563.035156 267.226562 C 559.300781 267.226562 556.277344 264.203125 556.277344 260.472656 C 556.277344 256.738281 559.300781 253.714844 563.035156 253.714844 C 566.765625 253.714844 569.789062 256.738281 569.789062 260.472656 "/>
<path fill-rule="nonzero" fill="rgb(18.431373%, 30.980392%, 30.980392%)" fill-opacity="1" stroke-width="0.708661" stroke-linecap="round" stroke-linejoin="round" stroke="rgb(18.431373%, 30.980392%, 30.980392%)" stroke-opacity="1" stroke-miterlimit="10" d="M 407.523438 282.0625 C 407.523438 285.792969 404.5 288.816406 400.765625 288.816406 C 397.035156 288.816406 394.011719 285.792969 394.011719 282.0625 C 394.011719 278.332031 397.035156 275.304688 400.765625 275.304688 C 404.5 275.304688 407.523438 278.332031 407.523438 282.0625 "/>
<path fill-rule="nonzero" fill="rgb(18.431373%, 30.980392%, 30.980392%)" fill-opacity="1" stroke-width="0.708661" stroke-linecap="round" stroke-linejoin="round" stroke="rgb(18.431373%, 30.980392%, 30.980392%)" stroke-opacity="1" stroke-miterlimit="10" d="M 359.480469 204.179688 C 359.480469 207.910156 356.457031 210.933594 352.726562 210.933594 C 348.992188 210.933594 345.96875 207.910156 345.96875 204.179688 C 345.96875 200.449219 348.992188 197.421875 352.726562 197.421875 C 356.457031 197.421875 359.480469 200.449219 359.480469 204.179688 "/>
<path fill-rule="nonzero" fill="rgb(18.431373%, 30.980392%, 30.980392%)" fill-opacity="1" stroke-width="0.708661" stroke-linecap="round" stroke-linejoin="round" stroke="rgb(18.431373%, 30.980392%, 30.980392%)" stroke-opacity="1" stroke-miterlimit="10" d="M 265.046875 296.914062 C 265.046875 300.644531 262.019531 303.671875 258.289062 303.671875 C 254.558594 303.671875 251.535156 300.644531 251.535156 296.914062 C 251.535156 293.183594 254.558594 290.15625 258.289062 290.15625 C 262.019531 290.15625 265.046875 293.183594 265.046875 296.914062 "/>
<path fill-rule="nonzero" fill="rgb(18.431373%, 30.980392%, 30.980392%)" fill-opacity="1" stroke-width="0.708661" stroke-linecap="round" stroke-linejoin="round" stroke="rgb(18.431373%, 30.980392%, 30.980392%)" stroke-opacity="1" stroke-miterlimit="10" d="M 126.519531 437.609375 C 126.519531 441.339844 123.496094 444.363281 119.765625 444.363281 C 116.03125 444.363281 113.007812 441.339844 113.007812 437.609375 C 113.007812 433.878906 116.03125 430.851562 119.765625 430.851562 C 123.496094 430.851562 126.519531 433.878906 126.519531 437.609375 "/>
<path fill-rule="nonzero" fill="rgb(18.431373%, 30.980392%, 30.980392%)" fill-opacity="1" stroke-width="0.708661" stroke-linecap="round" stroke-linejoin="round" stroke="rgb(18.431373%, 30.980392%, 30.980392%)" stroke-opacity="1" stroke-miterlimit="10" d="M 543.144531 69.023438 C 543.144531 72.753906 540.121094 75.777344 536.390625 75.777344 C 532.65625 75.777344 529.632812 72.753906 529.632812 69.023438 C 529.632812 65.292969 532.65625 62.265625 536.390625 62.265625 C 540.121094 62.265625 543.144531 65.292969 543.144531 69.023438 "/>
<path fill-rule="nonzero" fill="rgb(18.431373%, 30.980392%, 30.980392%)" fill-opacity="1" stroke-width="0.708661" stroke-linecap="round" stroke-linejoin="round" stroke="rgb(18.431373%, 30.980392%, 30.980392%)" stroke-opacity="1" stroke-miterlimit="10" d="M 289.214844 277.8125 C 289.214844 281.542969 286.191406 284.570312 282.457031 284.570312 C 278.726562 284.570312 275.703125 281.542969 275.703125 277.8125 C 275.703125 274.082031 278.726562 271.058594 282.457031 271.058594 C 286.191406 271.058594 289.214844 274.082031 289.214844 277.8125 "/>
<path fill-rule="nonzero" fill="rgb(18.431373%, 30.980392%, 30.980392%)" fill-opacity="1" stroke-width="0.708661" stroke-linecap="round" stroke-linejoin="round" stroke="rgb(18.431373%, 30.980392%, 30.980392%)" stroke-opacity="1" stroke-miterlimit="10" d="M 438.3125 355.40625 C 438.3125 359.136719 435.285156 362.164062 431.554688 362.164062 C 427.824219 362.164062 424.800781 359.136719 424.800781 355.40625 C 424.800781 351.675781 427.824219 348.652344 431.554688 348.652344 C 435.285156 348.652344 438.3125 351.675781 438.3125 355.40625 "/>
<path fill-rule="nonzero" fill="rgb(18.431373%, 30.980392%, 30.980392%)" fill-opacity="1" stroke-width="0.708661" stroke-linecap="round" stroke-linejoin="round" stroke="rgb(18.431373%, 30.980392%, 30.980392%)" stroke-opacity="1" stroke-miterlimit="10" d="M 485.074219 205.933594 C 485.074219 209.667969 482.050781 212.691406 478.320312 212.691406 C 474.589844 212.691406 471.5625 209.667969 471.5625 205.933594 C 471.5625 202.203125 474.589844 199.179688 478.320312 199.179688 C 482.050781 199.179688 485.074219 202.203125 485.074219 205.933594 "/>
<path fill-rule="nonzero" fill="rgb(18.431373%, 30.980392%, 30.980392%)" fill-opacity="1" stroke-width="0.708661" stroke-linecap="round" stroke-linejoin="round" stroke="rgb(18.431373%, 30.980392%, 30.980392%)" stroke-opacity="1" stroke-miterlimit="10" d="M 511.378906 207.703125 C 511.378906 211.433594 508.351562 214.457031 504.621094 214.457031 C 500.890625 214.457031 497.867188 211.433594 497.867188 207.703125 C 497.867188 203.96875 500.890625 200.945312 504.621094 200.945312 C 508.351562 200.945312 511.378906 203.96875 511.378906 207.703125 "/>
<path fill-rule="nonzero" fill="rgb(18.431373%, 30.980392%, 30.980392%)" fill-opacity="1" stroke-width="0.708661" stroke-linecap="round" stroke-linejoin="round" stroke="rgb(18.431373%, 30.980392%, 30.980392%)" stroke-opacity="1" stroke-miterlimit="10" d="M 253.410156 406.859375 C 253.410156 410.59375 250.386719 413.617188 246.652344 413.617188 C 242.921875 413.617188 239.898438 410.59375 239.898438 406.859375 C 239.898438 403.128906 242.921875 400.105469 246.652344 400.105469 C 250.386719 400.105469 253.410156 403.128906 253.410156 406.859375 "/>
<path fill-rule="nonzero" fill="rgb(18.431373%, 30.980392%, 30.980392%)" fill-opacity="1" stroke-width="0.708661" stroke-linecap="round" stroke-linejoin="round" stroke="rgb(18.431373%, 30.980392%, 30.980392%)" stroke-opacity="1" stroke-miterlimit="10" d="M 654.886719 23.5625 C 654.886719 27.296875 651.863281 30.320312 648.132812 30.320312 C 644.398438 30.320312 641.375 27.296875 641.375 23.5625 C 641.375 19.832031 644.398438 16.808594 648.132812 16.808594 C 651.863281 16.808594 654.886719 19.832031 654.886719 23.5625 "/>
<path fill-rule="nonzero" fill="rgb(18.431373%, 30.980392%, 30.980392%)" fill-opacity="1" stroke-width="0.708661" stroke-linecap="round" stroke-linejoin="round" stroke="rgb(18.431373%, 30.980392%, 30.980392%)" stroke-opacity="1" stroke-miterlimit="10" d="M 656.394531 151.777344 C 656.394531 155.507812 653.367188 158.53125 649.636719 158.53125 C 645.90625 158.53125 642.882812 155.507812 642.882812 151.777344 C 642.882812 148.046875 645.90625 145.019531 649.636719 145.019531 C 653.367188 145.019531 656.394531 148.046875 656.394531 151.777344 "/>
<path fill-rule="nonzero" fill="rgb(18.431373%, 30.980392%, 30.980392%)" fill-opacity="1" stroke-width="0.708661" stroke-linecap="round" stroke-linejoin="round" stroke="rgb(18.431373%, 30.980392%, 30.980392%)" stroke-opacity="1" stroke-miterlimit="10" d="M 580.976562 163.007812 C 580.976562 166.738281 577.953125 169.765625 574.21875 169.765625 C 570.488281 169.765625 567.464844 166.738281 567.464844 163.007812 C 567.464844 159.277344 570.488281 156.253906 574.21875 156.253906 C 577.953125 156.253906 580.976562 159.277344 580.976562 163.007812 "/>
<path fill-rule="nonzero" fill="rgb(18.431373%, 30.980392%, 30.980392%)" fill-opacity="1" stroke-width="0.708661" stroke-linecap="round" stroke-linejoin="round" stroke="rgb(18.431373%, 30.980392%, 30.980392%)" stroke-opacity="1" stroke-miterlimit="10" d="M 478.425781 281.722656 C 478.425781 285.453125 475.402344 288.476562 471.667969 288.476562 C 467.9375 288.476562 464.914062 285.453125 464.914062 281.722656 C 464.914062 277.992188 467.9375 274.964844 471.667969 274.964844 C 475.402344 274.964844 478.425781 277.992188 478.425781 281.722656 "/>
<path fill-rule="nonzero" fill="rgb(18.431373%, 30.980392%, 30.980392%)" fill-opacity="1" stroke-width="0.708661" stroke-linecap="round" stroke-linejoin="round" stroke="rgb(18.431373%, 30.980392%, 30.980392%)" stroke-opacity="1" stroke-miterlimit="10" d="M 392.457031 248.363281 C 392.457031 252.09375 389.433594 255.117188 385.703125 255.117188 C 381.972656 255.117188 378.945312 252.09375 378.945312 248.363281 C 378.945312 244.628906 381.972656 241.605469 385.703125 241.605469 C 389.433594 241.605469 392.457031 244.628906 392.457031 248.363281 "/>
<path fill-rule="nonzero" fill="rgb(18.431373%, 30.980392%, 30.980392%)" fill-opacity="1" stroke-width="0.708661" stroke-linecap="round" stroke-linejoin="round" stroke="rgb(18.431373%, 30.980392%, 30.980392%)" stroke-opacity="1" stroke-miterlimit="10" d="M 479.628906 213.125 C 479.628906 216.859375 476.601562 219.882812 472.871094 219.882812 C 469.140625 219.882812 466.117188 216.859375 466.117188 213.125 C 466.117188 209.394531 469.140625 206.371094 472.871094 206.371094 C 476.601562 206.371094 479.628906 209.394531 479.628906 213.125 "/>
<path fill-rule="nonzero" fill="rgb(18.431373%, 30.980392%, 30.980392%)" fill-opacity="1" stroke-width="0.708661" stroke-linecap="round" stroke-linejoin="round" stroke="rgb(18.431373%, 30.980392%, 30.980392%)" stroke-opacity="1" stroke-miterlimit="10" d="M 510.3125 171.382812 C 510.3125 175.113281 507.289062 178.136719 503.554688 178.136719 C 499.824219 178.136719 496.800781 175.113281 496.800781 171.382812 C 496.800781 167.652344 499.824219 164.625 503.554688 164.625 C 507.289062 164.625 510.3125 167.652344 510.3125 171.382812 "/>
<path fill-rule="nonzero" fill="rgb(18.431373%, 30.980392%, 30.980392%)" fill-opacity="1" stroke-width="0.708661" stroke-linecap="round" stroke-linejoin="round" stroke="rgb(18.431373%, 30.980392%, 30.980392%)" stroke-opacity="1" stroke-miterlimit="10" d="M 554.890625 284.582031 C 554.890625 288.3125 551.867188 291.335938 548.136719 291.335938 C 544.40625 291.335938 541.378906 288.3125 541.378906 284.582031 C 541.378906 280.847656 544.40625 277.824219 548.136719 277.824219 C 551.867188 277.824219 554.890625 280.847656 554.890625 284.582031 "/>
<path fill-rule="nonzero" fill="rgb(18.431373%, 30.980392%, 30.980392%)" fill-opacity="1" stroke-width="0.708661" stroke-linecap="round" stroke-linejoin="round" stroke="rgb(18.431373%, 30.980392%, 30.980392%)" stroke-opacity="1" stroke-miterlimit="10" d="M 330.40625 278.378906 C 330.40625 282.113281 327.378906 285.136719 323.648438 285.136719 C 319.917969 285.136719 316.890625 282.113281 316.890625 278.378906 C 316.890625 274.648438 319.917969 271.625 323.648438 271.625 C 327.378906 271.625 330.40625 274.648438 330.40625 278.378906 "/>
<path fill-rule="nonzero" fill="rgb(18.431373%, 30.980392%, 30.980392%)" fill-opacity="1" stroke-width="0.708661" stroke-linecap="round" stroke-linejoin="round" stroke="rgb(18.431373%, 30.980392%, 30.980392%)" stroke-opacity="1" stroke-miterlimit="10" d="M 340.046875 315.742188 C 340.046875 319.472656 337.023438 322.5 333.292969 322.5 C 329.5625 322.5 326.535156 319.472656 326.535156 315.742188 C 326.535156 312.011719 329.5625 308.988281 333.292969 308.988281 C 337.023438 308.988281 340.046875 312.011719 340.046875 315.742188 "/>
<path fill-rule="nonzero" fill="rgb(18.431373%, 30.980392%, 30.980392%)" fill-opacity="1" stroke-width="0.708661" stroke-linecap="round" stroke-linejoin="round" stroke="rgb(18.431373%, 30.980392%, 30.980392%)" stroke-opacity="1" stroke-miterlimit="10" d="M 359.160156 320.171875 C 359.160156 323.902344 356.136719 326.925781 352.40625 326.925781 C 348.671875 326.925781 345.648438 323.902344 345.648438 320.171875 C 345.648438 316.441406 348.671875 313.414062 352.40625 313.414062 C 356.136719 313.414062 359.160156 316.441406 359.160156 320.171875 "/>
<path fill-rule="nonzero" fill="rgb(18.431373%, 30.980392%, 30.980392%)" fill-opacity="1" stroke-width="0.708661" stroke-linecap="round" stroke-linejoin="round" stroke="rgb(18.431373%, 30.980392%, 30.980392%)" stroke-opacity="1" stroke-miterlimit="10" d="M 240.882812 270.960938 C 240.882812 274.691406 237.855469 277.71875 234.125 277.71875 C 230.394531 277.71875 227.367188 274.691406 227.367188 270.960938 C 227.367188 267.230469 230.394531 264.207031 234.125 264.207031 C 237.855469 264.207031 240.882812 267.230469 240.882812 270.960938 "/>
<path fill-rule="nonzero" fill="rgb(18.431373%, 30.980392%, 30.980392%)" fill-opacity="1" stroke-width="0.708661" stroke-linecap="round" stroke-linejoin="round" stroke="rgb(18.431373%, 30.980392%, 30.980392%)" stroke-opacity="1" stroke-miterlimit="10" d="M 466.621094 154.839844 C 466.621094 158.570312 463.59375 161.59375 459.863281 161.59375 C 456.132812 161.59375 453.105469 158.570312 453.105469 154.839844 C 453.105469 151.105469 456.132812 148.082031 459.863281 148.082031 C 463.59375 148.082031 466.621094 151.105469 466.621094 154.839844 "/>
<path fill-rule="nonzero" fill="rgb(18.431373%, 30.980392%, 30.980392%)" fill-opacity="1" stroke-width="0.708661" stroke-linecap="round" stroke-linejoin="round" stroke="rgb(18.431373%, 30.980392%, 30.980392%)" stroke-opacity="1" stroke-miterlimit="10" d="M 474.164062 253.242188 C 474.164062 256.972656 471.136719 259.996094 467.40625 259.996094 C 463.675781 259.996094 460.652344 256.972656 460.652344 253.242188 C 460.652344 249.511719 463.675781 246.484375 467.40625 246.484375 C 471.136719 246.484375 474.164062 249.511719 474.164062 253.242188 "/>
<path fill-rule="nonzero" fill="rgb(18.431373%, 30.980392%, 30.980392%)" fill-opacity="1" stroke-width="0.708661" stroke-linecap="round" stroke-linejoin="round" stroke="rgb(18.431373%, 30.980392%, 30.980392%)" stroke-opacity="1" stroke-miterlimit="10" d="M 620.824219 234.214844 C 620.824219 237.945312 617.800781 240.972656 614.066406 240.972656 C 610.335938 240.972656 607.3125 237.945312 607.3125 234.214844 C 607.3125 230.484375 610.335938 227.460938 614.066406 227.460938 C 617.800781 227.460938 620.824219 230.484375 620.824219 234.214844 "/>
<path fill-rule="nonzero" fill="rgb(18.431373%, 30.980392%, 30.980392%)" fill-opacity="1" stroke-width="0.708661" stroke-linecap="round" stroke-linejoin="round" stroke="rgb(18.431373%, 30.980392%, 30.980392%)" stroke-opacity="1" stroke-miterlimit="10" d="M 311.464844 277.007812 C 311.464844 280.742188 308.441406 283.765625 304.710938 283.765625 C 300.980469 283.765625 297.953125 280.742188 297.953125 277.007812 C 297.953125 273.277344 300.980469 270.253906 304.710938 270.253906 C 308.441406 270.253906 311.464844 273.277344 311.464844 277.007812 "/>
<path fill-rule="nonzero" fill="rgb(18.431373%, 30.980392%, 30.980392%)" fill-opacity="1" stroke-width="0.708661" stroke-linecap="round" stroke-linejoin="round" stroke="rgb(18.431373%, 30.980392%, 30.980392%)" stroke-opacity="1" stroke-miterlimit="10" d="M 237.648438 378.695312 C 237.648438 382.425781 234.625 385.453125 230.890625 385.453125 C 227.160156 385.453125 224.136719 382.425781 224.136719 378.695312 C 224.136719 374.964844 227.160156 371.941406 230.890625 371.941406 C 234.625 371.941406 237.648438 374.964844 237.648438 378.695312 "/>
<path fill-rule="nonzero" fill="rgb(18.431373%, 30.980392%, 30.980392%)" fill-opacity="1" stroke-width="0.708661" stroke-linecap="round" stroke-linejoin="round" stroke="rgb(18.431373%, 30.980392%, 30.980392%)" stroke-opacity="1" stroke-miterlimit="10" d="M 547.414062 246.671875 C 547.414062 250.40625 544.390625 253.429688 540.660156 253.429688 C 536.929688 253.429688 533.902344 250.40625 533.902344 246.671875 C 533.902344 242.941406 536.929688 239.917969 540.660156 239.917969 C 544.390625 239.917969 547.414062 242.941406 547.414062 246.671875 "/>
<path fill-rule="nonzero" fill="rgb(18.431373%, 30.980392%, 30.980392%)" fill-opacity="1" stroke-width="0.708661" stroke-linecap="round" stroke-linejoin="round" stroke="rgb(18.431373%, 30.980392%, 30.980392%)" stroke-opacity="1" stroke-miterlimit="10" d="M 472.671875 325.390625 C 472.671875 329.121094 469.644531 332.148438 465.914062 332.148438 C 462.183594 332.148438 459.160156 329.121094 459.160156 325.390625 C 459.160156 321.660156 462.183594 318.636719 465.914062 318.636719 C 469.644531 318.636719 472.671875 321.660156 472.671875 325.390625 "/>
<path fill-rule="nonzero" fill="rgb(18.431373%, 30.980392%, 30.980392%)" fill-opacity="1" stroke-width="0.708661" stroke-linecap="round" stroke-linejoin="round" stroke="rgb(18.431373%, 30.980392%, 30.980392%)" stroke-opacity="1" stroke-miterlimit="10" d="M 301.960938 355.800781 C 301.960938 359.53125 298.9375 362.554688 295.207031 362.554688 C 291.476562 362.554688 288.449219 359.53125 288.449219 355.800781 C 288.449219 352.066406 291.476562 349.042969 295.207031 349.042969 C 298.9375 349.042969 301.960938 352.066406 301.960938 355.800781 "/>
<path fill-rule="nonzero" fill="rgb(18.431373%, 30.980392%, 30.980392%)" fill-opacity="1" stroke-width="0.708661" stroke-linecap="round" stroke-linejoin="round" stroke="rgb(18.431373%, 30.980392%, 30.980392%)" stroke-opacity="1" stroke-miterlimit="10" d="M 456.40625 282.894531 C 456.40625 286.628906 453.382812 289.652344 449.652344 289.652344 C 445.921875 289.652344 442.894531 286.628906 442.894531 282.894531 C 442.894531 279.164062 445.921875 276.140625 449.652344 276.140625 C 453.382812 276.140625 456.40625 279.164062 456.40625 282.894531 "/>
<path fill-rule="nonzero" fill="rgb(18.431373%, 30.980392%, 30.980392%)" fill-opacity="1" stroke-width="0.708661" stroke-linecap="round" stroke-linejoin="round" stroke="rgb(18.431373%, 30.980392%, 30.980392%)" stroke-opacity="1" stroke-miterlimit="10" d="M 534.136719 127.433594 C 534.136719 131.164062 531.113281 134.191406 527.382812 134.191406 C 523.652344 134.191406 520.625 131.164062 520.625 127.433594 C 520.625 123.703125 523.652344 120.675781 527.382812 120.675781 C 531.113281 120.675781 534.136719 123.703125 534.136719 127.433594 "/>
<path fill-rule="nonzero" fill="rgb(18.431373%, 30.980392%, 30.980392%)" fill-opacity="1" stroke-width="0.708661" stroke-linecap="round" stroke-linejoin="round" stroke="rgb(18.431373%, 30.980392%, 30.980392%)" stroke-opacity="1" stroke-miterlimit="10" d="M 311.3125 190.410156 C 311.3125 194.140625 308.285156 197.164062 304.554688 197.164062 C 300.824219 197.164062 297.796875 194.140625 297.796875 190.410156 C 297.796875 186.679688 300.824219 183.652344 304.554688 183.652344 C 308.285156 183.652344 311.3125 186.679688 311.3125 190.410156 "/>
<path fill-rule="nonzero" fill="rgb(18.431373%, 30.980392%, 30.980392%)" fill-opacity="1" stroke-width="0.708661" stroke-linecap="round" stroke-linejoin="round" stroke="rgb(18.431373%, 30.980392%, 30.980392%)" stroke-opacity="1" stroke-miterlimit="10" d="M 595.5625 193.996094 C 595.5625 197.726562 592.539062 200.753906 588.804688 200.753906 C 585.074219 200.753906 582.050781 197.726562 582.050781 193.996094 C 582.050781 190.265625 585.074219 187.242188 588.804688 187.242188 C 592.539062 187.242188 595.5625 190.265625 595.5625 193.996094 "/>
<path fill-rule="nonzero" fill="rgb(18.431373%, 30.980392%, 30.980392%)" fill-opacity="1" stroke-width="0.708661" stroke-linecap="round" stroke-linejoin="round" stroke="rgb(18.431373%, 30.980392%, 30.980392%)" stroke-opacity="1" stroke-miterlimit="10" d="M 433.726562 283.757812 C 433.726562 287.488281 430.703125 290.511719 426.972656 290.511719 C 423.242188 290.511719 420.214844 287.488281 420.214844 283.757812 C 420.214844 280.023438 423.242188 277 426.972656 277 C 430.703125 277 433.726562 280.023438 433.726562 283.757812 "/>
<path fill-rule="nonzero" fill="rgb(18.431373%, 30.980392%, 30.980392%)" fill-opacity="1" stroke-width="0.708661" stroke-linecap="round" stroke-linejoin="round" stroke="rgb(18.431373%, 30.980392%, 30.980392%)" stroke-opacity="1" stroke-miterlimit="10" d="M 44.410156 452.46875 C 44.410156 456.199219 41.386719 459.222656 37.652344 459.222656 C 33.921875 459.222656 30.898438 456.199219 30.898438 452.46875 C 30.898438 448.738281 33.921875 445.710938 37.652344 445.710938 C 41.386719 445.710938 44.410156 448.738281 44.410156 452.46875 "/>
<path fill-rule="nonzero" fill="rgb(18.431373%, 30.980392%, 30.980392%)" fill-opacity="1" stroke-width="0.708661" stroke-linecap="round" stroke-linejoin="round" stroke="rgb(18.431373%, 30.980392%, 30.980392%)" stroke-opacity="1" stroke-miterlimit="10" d="M 77.902344 437.109375 C 77.902344 440.84375 74.875 443.867188 71.144531 443.867188 C 67.414062 443.867188 64.390625 440.84375 64.390625 437.109375 C 64.390625 433.378906 67.414062 430.355469 71.144531 430.355469 C 74.875 430.355469 77.902344 433.378906 77.902344 437.109375 "/>
<path fill-rule="nonzero" fill="rgb(18.431373%, 30.980392%, 30.980392%)" fill-opacity="1" stroke-width="0.708661" stroke-linecap="round" stroke-linejoin="round" stroke="rgb(18.431373%, 30.980392%, 30.980392%)" stroke-opacity="1" stroke-miterlimit="10" d="M 443.71875 208.796875 C 443.71875 212.527344 440.691406 215.554688 436.960938 215.554688 C 433.230469 215.554688 430.203125 212.527344 430.203125 208.796875 C 430.203125 205.066406 433.230469 202.039062 436.960938 202.039062 C 440.691406 202.039062 443.71875 205.066406 443.71875 208.796875 "/>
<path fill-rule="nonzero" fill="rgb(18.431373%, 30.980392%, 30.980392%)" fill-opacity="1" stroke-width="0.708661" stroke-linecap="round" stroke-linejoin="round" stroke="rgb(18.431373%, 30.980392%, 30.980392%)" stroke-opacity="1" stroke-miterlimit="10" d="M 296.527344 231.972656 C 296.527344 235.703125 293.5 238.730469 289.769531 238.730469 C 286.039062 238.730469 283.015625 235.703125 283.015625 231.972656 C 283.015625 228.242188 286.039062 225.21875 289.769531 225.21875 C 293.5 225.21875 296.527344 228.242188 296.527344 231.972656 "/>
<path fill-rule="nonzero" fill="rgb(18.431373%, 30.980392%, 30.980392%)" fill-opacity="1" stroke-width="0.708661" stroke-linecap="round" stroke-linejoin="round" stroke="rgb(18.431373%, 30.980392%, 30.980392%)" stroke-opacity="1" stroke-miterlimit="10" d="M 338.734375 324.589844 C 338.734375 328.320312 335.710938 331.34375 331.980469 331.34375 C 328.25 331.34375 325.222656 328.320312 325.222656 324.589844 C 325.222656 320.859375 328.25 317.832031 331.980469 317.832031 C 335.710938 317.832031 338.734375 320.859375 338.734375 324.589844 "/>
<path fill-rule="nonzero" fill="rgb(18.431373%, 30.980392%, 30.980392%)" fill-opacity="1" stroke-width="0.708661" stroke-linecap="round" stroke-linejoin="round" stroke="rgb(18.431373%, 30.980392%, 30.980392%)" stroke-opacity="1" stroke-miterlimit="10" d="M 414.421875 177.882812 C 414.421875 181.613281 411.398438 184.636719 407.667969 184.636719 C 403.933594 184.636719 400.910156 181.613281 400.910156 177.882812 C 400.910156 174.148438 403.933594 171.125 407.667969 171.125 C 411.398438 171.125 414.421875 174.148438 414.421875 177.882812 "/>
<path fill-rule="nonzero" fill="rgb(18.431373%, 30.980392%, 30.980392%)" fill-opacity="1" stroke-width="0.708661" stroke-linecap="round" stroke-linejoin="round" stroke="rgb(18.431373%, 30.980392%, 30.980392%)" stroke-opacity="1" stroke-miterlimit="10" d="M 378.5 278.609375 C 378.5 282.339844 375.472656 285.363281 371.742188 285.363281 C 368.011719 285.363281 364.984375 282.339844 364.984375 278.609375 C 364.984375 274.878906 368.011719 271.851562 371.742188 271.851562 C 375.472656 271.851562 378.5 274.878906 378.5 278.609375 "/>
<path fill-rule="nonzero" fill="rgb(18.431373%, 30.980392%, 30.980392%)" fill-opacity="1" stroke-width="0.708661" stroke-linecap="round" stroke-linejoin="round" stroke="rgb(18.431373%, 30.980392%, 30.980392%)" stroke-opacity="1" stroke-miterlimit="10" d="M 286.117188 404.003906 C 286.117188 407.734375 283.09375 410.757812 279.359375 410.757812 C 275.628906 410.757812 272.605469 407.734375 272.605469 404.003906 C 272.605469 400.269531 275.628906 397.246094 279.359375 397.246094 C 283.09375 397.246094 286.117188 400.269531 286.117188 404.003906 "/>
<path fill-rule="nonzero" fill="rgb(18.431373%, 30.980392%, 30.980392%)" fill-opacity="1" stroke-width="0.708661" stroke-linecap="round" stroke-linejoin="round" stroke="rgb(18.431373%, 30.980392%, 30.980392%)" stroke-opacity="1" stroke-miterlimit="10" d="M 245.796875 332.578125 C 245.796875 336.308594 242.773438 339.332031 239.042969 339.332031 C 235.308594 339.332031 232.285156 336.308594 232.285156 332.578125 C 232.285156 328.84375 235.308594 325.820312 239.042969 325.820312 C 242.773438 325.820312 245.796875 328.84375 245.796875 332.578125 "/>
<path fill-rule="nonzero" fill="rgb(18.431373%, 30.980392%, 30.980392%)" fill-opacity="1" stroke-width="0.708661" stroke-linecap="round" stroke-linejoin="round" stroke="rgb(18.431373%, 30.980392%, 30.980392%)" stroke-opacity="1" stroke-miterlimit="10" d="M 348.550781 269.351562 C 348.550781 273.085938 345.527344 276.109375 341.792969 276.109375 C 338.0625 276.109375 335.039062 273.085938 335.039062 269.351562 C 335.039062 265.621094 338.0625 262.597656 341.792969 262.597656 C 345.527344 262.597656 348.550781 265.621094 348.550781 269.351562 "/>
<path fill-rule="nonzero" fill="rgb(18.431373%, 30.980392%, 30.980392%)" fill-opacity="1" stroke-width="0.708661" stroke-linecap="round" stroke-linejoin="round" stroke="rgb(18.431373%, 30.980392%, 30.980392%)" stroke-opacity="1" stroke-miterlimit="10" d="M 648.816406 240.695312 C 648.816406 244.429688 645.789062 247.453125 642.058594 247.453125 C 638.328125 247.453125 635.300781 244.429688 635.300781 240.695312 C 635.300781 236.964844 638.328125 233.941406 642.058594 233.941406 C 645.789062 233.941406 648.816406 236.964844 648.816406 240.695312 "/>
<path fill-rule="nonzero" fill="rgb(18.431373%, 30.980392%, 30.980392%)" fill-opacity="1" stroke-width="0.708661" stroke-linecap="round" stroke-linejoin="round" stroke="rgb(18.431373%, 30.980392%, 30.980392%)" stroke-opacity="1" stroke-miterlimit="10" d="M 588.28125 251.960938 C 588.28125 255.691406 585.253906 258.71875 581.523438 258.71875 C 577.792969 258.71875 574.769531 255.691406 574.769531 251.960938 C 574.769531 248.230469 577.792969 245.203125 581.523438 245.203125 C 585.253906 245.203125 588.28125 248.230469 588.28125 251.960938 "/>
<path fill-rule="nonzero" fill="rgb(18.431373%, 30.980392%, 30.980392%)" fill-opacity="1" stroke-width="0.708661" stroke-linecap="round" stroke-linejoin="round" stroke="rgb(18.431373%, 30.980392%, 30.980392%)" stroke-opacity="1" stroke-miterlimit="10" d="M 387.019531 190.273438 C 387.019531 194.003906 383.996094 197.027344 380.261719 197.027344 C 376.53125 197.027344 373.507812 194.003906 373.507812 190.273438 C 373.507812 186.539062 376.53125 183.515625 380.261719 183.515625 C 383.996094 183.515625 387.019531 186.539062 387.019531 190.273438 "/>
<path fill-rule="nonzero" fill="rgb(18.431373%, 30.980392%, 30.980392%)" fill-opacity="1" stroke-width="0.708661" stroke-linecap="round" stroke-linejoin="round" stroke="rgb(18.431373%, 30.980392%, 30.980392%)" stroke-opacity="1" stroke-miterlimit="10" d="M 347.257812 198.980469 C 347.257812 202.710938 344.234375 205.734375 340.5 205.734375 C 336.769531 205.734375 333.746094 202.710938 333.746094 198.980469 C 333.746094 195.246094 336.769531 192.222656 340.5 192.222656 C 344.234375 192.222656 347.257812 195.246094 347.257812 198.980469 "/>
<path fill-rule="nonzero" fill="rgb(18.431373%, 30.980392%, 30.980392%)" fill-opacity="1" stroke-width="0.708661" stroke-linecap="round" stroke-linejoin="round" stroke="rgb(18.431373%, 30.980392%, 30.980392%)" stroke-opacity="1" stroke-miterlimit="10" d="M 117.488281 231.289062 C 117.488281 235.019531 114.460938 238.046875 110.730469 238.046875 C 107 238.046875 103.976562 235.019531 103.976562 231.289062 C 103.976562 227.558594 107 224.535156 110.730469 224.535156 C 114.460938 224.535156 117.488281 227.558594 117.488281 231.289062 "/>
<path fill-rule="nonzero" fill="rgb(18.431373%, 30.980392%, 30.980392%)" fill-opacity="1" stroke-width="0.708661" stroke-linecap="round" stroke-linejoin="round" stroke="rgb(18.431373%, 30.980392%, 30.980392%)" stroke-opacity="1" stroke-miterlimit="10" d="M 359.566406 361.496094 C 359.566406 365.226562 356.542969 368.25 352.8125 368.25 C 349.078125 368.25 346.054688 365.226562 346.054688 361.496094 C 346.054688 357.765625 349.078125 354.738281 352.8125 354.738281 C 356.542969 354.738281 359.566406 357.765625 359.566406 361.496094 "/>
<path fill-rule="nonzero" fill="rgb(18.431373%, 30.980392%, 30.980392%)" fill-opacity="1" stroke-width="0.708661" stroke-linecap="round" stroke-linejoin="round" stroke="rgb(18.431373%, 30.980392%, 30.980392%)" stroke-opacity="1" stroke-miterlimit="10" d="M 473.53125 241.75 C 473.53125 245.484375 470.503906 248.507812 466.773438 248.507812 C 463.042969 248.507812 460.015625 245.484375 460.015625 241.75 C 460.015625 238.019531 463.042969 234.996094 466.773438 234.996094 C 470.503906 234.996094 473.53125 238.019531 473.53125 241.75 "/>
<path fill-rule="nonzero" fill="rgb(18.431373%, 30.980392%, 30.980392%)" fill-opacity="1" stroke-width="0.708661" stroke-linecap="round" stroke-linejoin="round" stroke="rgb(18.431373%, 30.980392%, 30.980392%)" stroke-opacity="1" stroke-miterlimit="10" d="M 201.929688 276.398438 C 201.929688 280.128906 198.902344 283.152344 195.171875 283.152344 C 191.441406 283.152344 188.417969 280.128906 188.417969 276.398438 C 188.417969 272.664062 191.441406 269.640625 195.171875 269.640625 C 198.902344 269.640625 201.929688 272.664062 201.929688 276.398438 "/>
<path fill-rule="nonzero" fill="rgb(18.431373%, 30.980392%, 30.980392%)" fill-opacity="1" stroke-width="0.708661" stroke-linecap="round" stroke-linejoin="round" stroke="rgb(18.431373%, 30.980392%, 30.980392%)" stroke-opacity="1" stroke-miterlimit="10" d="M 498.828125 172.710938 C 498.828125 176.445312 495.804688 179.46875 492.074219 179.46875 C 488.34375 179.46875 485.316406 176.445312 485.316406 172.710938 C 485.316406 168.980469 488.34375 165.957031 492.074219 165.957031 C 495.804688 165.957031 498.828125 168.980469 498.828125 172.710938 "/>
<path fill-rule="nonzero" fill="rgb(18.431373%, 30.980392%, 30.980392%)" fill-opacity="1" stroke-width="0.708661" stroke-linecap="round" stroke-linejoin="round" stroke="rgb(18.431373%, 30.980392%, 30.980392%)" stroke-opacity="1" stroke-miterlimit="10" d="M 507.503906 238.945312 C 507.503906 242.675781 504.476562 245.699219 500.746094 245.699219 C 497.015625 245.699219 493.988281 242.675781 493.988281 238.945312 C 493.988281 235.214844 497.015625 232.1875 500.746094 232.1875 C 504.476562 232.1875 507.503906 235.214844 507.503906 238.945312 "/>
<path fill-rule="nonzero" fill="rgb(18.431373%, 30.980392%, 30.980392%)" fill-opacity="1" stroke-width="0.708661" stroke-linecap="round" stroke-linejoin="round" stroke="rgb(18.431373%, 30.980392%, 30.980392%)" stroke-opacity="1" stroke-miterlimit="10" d="M 210.8125 217.976562 C 210.8125 221.707031 207.789062 224.730469 204.058594 224.730469 C 200.328125 224.730469 197.300781 221.707031 197.300781 217.976562 C 197.300781 214.242188 200.328125 211.21875 204.058594 211.21875 C 207.789062 211.21875 210.8125 214.242188 210.8125 217.976562 "/>
<path fill-rule="nonzero" fill="rgb(18.431373%, 30.980392%, 30.980392%)" fill-opacity="1" stroke-width="0.708661" stroke-linecap="round" stroke-linejoin="round" stroke="rgb(18.431373%, 30.980392%, 30.980392%)" stroke-opacity="1" stroke-miterlimit="10" d="M 539.96875 33.382812 C 539.96875 37.113281 536.941406 40.136719 533.210938 40.136719 C 529.480469 40.136719 526.453125 37.113281 526.453125 33.382812 C 526.453125 29.648438 529.480469 26.625 533.210938 26.625 C 536.941406 26.625 539.96875 29.648438 539.96875 33.382812 "/>
<path fill-rule="nonzero" fill="rgb(18.431373%, 30.980392%, 30.980392%)" fill-opacity="1" stroke-width="0.708661" stroke-linecap="round" stroke-linejoin="round" stroke="rgb(18.431373%, 30.980392%, 30.980392%)" stroke-opacity="1" stroke-miterlimit="10" d="M 329.375 295.558594 C 329.375 299.292969 326.347656 302.316406 322.617188 302.316406 C 318.886719 302.316406 315.863281 299.292969 315.863281 295.558594 C 315.863281 291.828125 318.886719 288.804688 322.617188 288.804688 C 326.347656 288.804688 329.375 291.828125 329.375 295.558594 "/>
<path fill-rule="nonzero" fill="rgb(18.431373%, 30.980392%, 30.980392%)" fill-opacity="1" stroke-width="0.708661" stroke-linecap="round" stroke-linejoin="round" stroke="rgb(18.431373%, 30.980392%, 30.980392%)" stroke-opacity="1" stroke-miterlimit="10" d="M 306.355469 382.558594 C 306.355469 386.289062 303.332031 389.316406 299.601562 389.316406 C 295.871094 389.316406 292.84375 386.289062 292.84375 382.558594 C 292.84375 378.828125 295.871094 375.804688 299.601562 375.804688 C 303.332031 375.804688 306.355469 378.828125 306.355469 382.558594 "/>
<path fill-rule="nonzero" fill="rgb(18.431373%, 30.980392%, 30.980392%)" fill-opacity="1" stroke-width="0.708661" stroke-linecap="round" stroke-linejoin="round" stroke="rgb(18.431373%, 30.980392%, 30.980392%)" stroke-opacity="1" stroke-miterlimit="10" d="M 508.363281 226.1875 C 508.363281 229.917969 505.335938 232.945312 501.605469 232.945312 C 497.875 232.945312 494.851562 229.917969 494.851562 226.1875 C 494.851562 222.457031 497.875 219.433594 501.605469 219.433594 C 505.335938 219.433594 508.363281 222.457031 508.363281 226.1875 "/>
<path fill-rule="nonzero" fill="rgb(18.431373%, 30.980392%, 30.980392%)" fill-opacity="1" stroke-width="0.708661" stroke-linecap="round" stroke-linejoin="round" stroke="rgb(18.431373%, 30.980392%, 30.980392%)" stroke-opacity="1" stroke-miterlimit="10" d="M 433.199219 374.117188 C 433.199219 377.847656 430.175781 380.875 426.441406 380.875 C 422.710938 380.875 419.6875 377.847656 419.6875 374.117188 C 419.6875 370.386719 422.710938 367.359375 426.441406 367.359375 C 430.175781 367.359375 433.199219 370.386719 433.199219 374.117188 "/>
<path fill-rule="nonzero" fill="rgb(18.431373%, 30.980392%, 30.980392%)" fill-opacity="1" stroke-width="0.708661" stroke-linecap="round" stroke-linejoin="round" stroke="rgb(18.431373%, 30.980392%, 30.980392%)" stroke-opacity="1" stroke-miterlimit="10" d="M 320.257812 238.558594 C 320.257812 242.292969 317.234375 245.316406 313.503906 245.316406 C 309.773438 245.316406 306.746094 242.292969 306.746094 238.558594 C 306.746094 234.828125 309.773438 231.804688 313.503906 231.804688 C 317.234375 231.804688 320.257812 234.828125 320.257812 238.558594 "/>
<path fill-rule="nonzero" fill="rgb(18.431373%, 30.980392%, 30.980392%)" fill-opacity="1" stroke-width="0.708661" stroke-linecap="round" stroke-linejoin="round" stroke="rgb(18.431373%, 30.980392%, 30.980392%)" stroke-opacity="1" stroke-miterlimit="10" d="M 198.269531 412.90625 C 198.269531 416.636719 195.242188 419.664062 191.511719 419.664062 C 187.78125 419.664062 184.757812 416.636719 184.757812 412.90625 C 184.757812 409.175781 187.78125 406.148438 191.511719 406.148438 C 195.242188 406.148438 198.269531 409.175781 198.269531 412.90625 "/>
<path fill-rule="nonzero" fill="rgb(18.431373%, 30.980392%, 30.980392%)" fill-opacity="1" stroke-width="0.708661" stroke-linecap="round" stroke-linejoin="round" stroke="rgb(18.431373%, 30.980392%, 30.980392%)" stroke-opacity="1" stroke-miterlimit="10" d="M 516.707031 160.625 C 516.707031 164.355469 513.683594 167.382812 509.949219 167.382812 C 506.21875 167.382812 503.195312 164.355469 503.195312 160.625 C 503.195312 156.894531 506.21875 153.871094 509.949219 153.871094 C 513.683594 153.871094 516.707031 156.894531 516.707031 160.625 "/>
<path fill-rule="nonzero" fill="rgb(18.431373%, 30.980392%, 30.980392%)" fill-opacity="1" stroke-width="0.708661" stroke-linecap="round" stroke-linejoin="round" stroke="rgb(18.431373%, 30.980392%, 30.980392%)" stroke-opacity="1" stroke-miterlimit="10" d="M 211.792969 355.277344 C 211.792969 359.007812 208.765625 362.03125 205.035156 362.03125 C 201.304688 362.03125 198.277344 359.007812 198.277344 355.277344 C 198.277344 351.546875 201.304688 348.519531 205.035156 348.519531 C 208.765625 348.519531 211.792969 351.546875 211.792969 355.277344 "/>
<path fill-rule="nonzero" fill="rgb(18.431373%, 30.980392%, 30.980392%)" fill-opacity="1" stroke-width="0.708661" stroke-linecap="round" stroke-linejoin="round" stroke="rgb(18.431373%, 30.980392%, 30.980392%)" stroke-opacity="1" stroke-miterlimit="10" d="M 91.867188 375.332031 C 91.867188 379.0625 88.84375 382.089844 85.113281 382.089844 C 81.378906 382.089844 78.355469 379.0625 78.355469 375.332031 C 78.355469 371.601562 81.378906 368.574219 85.113281 368.574219 C 88.84375 368.574219 91.867188 371.601562 91.867188 375.332031 "/>
<path fill-rule="nonzero" fill="rgb(18.431373%, 30.980392%, 30.980392%)" fill-opacity="1" stroke-width="0.708661" stroke-linecap="round" stroke-linejoin="round" stroke="rgb(18.431373%, 30.980392%, 30.980392%)" stroke-opacity="1" stroke-miterlimit="10" d="M 522.210938 289.367188 C 522.210938 293.101562 519.183594 296.125 515.453125 296.125 C 511.722656 296.125 508.695312 293.101562 508.695312 289.367188 C 508.695312 285.636719 511.722656 282.613281 515.453125 282.613281 C 519.183594 282.613281 522.210938 285.636719 522.210938 289.367188 "/>
<path fill-rule="nonzero" fill="rgb(18.431373%, 30.980392%, 30.980392%)" fill-opacity="1" stroke-width="0.708661" stroke-linecap="round" stroke-linejoin="round" stroke="rgb(18.431373%, 30.980392%, 30.980392%)" stroke-opacity="1" stroke-miterlimit="10" d="M 506.933594 201.324219 C 506.933594 205.054688 503.910156 208.082031 500.179688 208.082031 C 496.449219 208.082031 493.421875 205.054688 493.421875 201.324219 C 493.421875 197.59375 496.449219 194.566406 500.179688 194.566406 C 503.910156 194.566406 506.933594 197.59375 506.933594 201.324219 "/>
<path fill-rule="nonzero" fill="rgb(18.431373%, 30.980392%, 30.980392%)" fill-opacity="1" stroke-width="0.708661" stroke-linecap="round" stroke-linejoin="round" stroke="rgb(18.431373%, 30.980392%, 30.980392%)" stroke-opacity="1" stroke-miterlimit="10" d="M 462.492188 263.140625 C 462.492188 266.871094 459.46875 269.894531 455.734375 269.894531 C 452.003906 269.894531 448.980469 266.871094 448.980469 263.140625 C 448.980469 259.40625 452.003906 256.382812 455.734375 256.382812 C 459.46875 256.382812 462.492188 259.40625 462.492188 263.140625 "/>
<path fill-rule="nonzero" fill="rgb(18.431373%, 30.980392%, 30.980392%)" fill-opacity="1" stroke-width="0.708661" stroke-linecap="round" stroke-linejoin="round" stroke="rgb(18.431373%, 30.980392%, 30.980392%)" stroke-opacity="1" stroke-miterlimit="10" d="M 27.375 410.609375 C 27.375 414.339844 24.347656 417.367188 20.617188 417.367188 C 16.886719 417.367188 13.863281 414.339844 13.863281 410.609375 C 13.863281 406.878906 16.886719 403.855469 20.617188 403.855469 C 24.347656 403.855469 27.375 406.878906 27.375 410.609375 "/>
<path fill-rule="nonzero" fill="rgb(18.431373%, 30.980392%, 30.980392%)" fill-opacity="1" stroke-width="0.708661" stroke-linecap="round" stroke-linejoin="round" stroke="rgb(18.431373%, 30.980392%, 30.980392%)" stroke-opacity="1" stroke-miterlimit="10" d="M 335.648438 292.59375 C 335.648438 296.324219 332.625 299.347656 328.890625 299.347656 C 325.160156 299.347656 322.136719 296.324219 322.136719 292.59375 C 322.136719 288.863281 325.160156 285.835938 328.890625 285.835938 C 332.625 285.835938 335.648438 288.863281 335.648438 292.59375 "/>
<path fill-rule="nonzero" fill="rgb(18.431373%, 30.980392%, 30.980392%)" fill-opacity="1" stroke-width="0.708661" stroke-linecap="round" stroke-linejoin="round" stroke="rgb(18.431373%, 30.980392%, 30.980392%)" stroke-opacity="1" stroke-miterlimit="10" d="M 389.480469 191.675781 C 389.480469 195.40625 386.457031 198.429688 382.722656 198.429688 C 378.992188 198.429688 375.96875 195.40625 375.96875 191.675781 C 375.96875 187.941406 378.992188 184.917969 382.722656 184.917969 C 386.457031 184.917969 389.480469 187.941406 389.480469 191.675781 "/>
<path fill-rule="nonzero" fill="rgb(18.431373%, 30.980392%, 30.980392%)" fill-opacity="1" stroke-width="0.708661" stroke-linecap="round" stroke-linejoin="round" stroke="rgb(18.431373%, 30.980392%, 30.980392%)" stroke-opacity="1" stroke-miterlimit="10" d="M 556.164062 291.429688 C 556.164062 295.160156 553.140625 298.183594 549.410156 298.183594 C 545.675781 298.183594 542.652344 295.160156 542.652344 291.429688 C 542.652344 287.695312 545.675781 284.671875 549.410156 284.671875 C 553.140625 284.671875 556.164062 287.695312 556.164062 291.429688 "/>
<path fill-rule="nonzero" fill="rgb(18.431373%, 30.980392%, 30.980392%)" fill-opacity="1" stroke-width="0.708661" stroke-linecap="round" stroke-linejoin="round" stroke="rgb(18.431373%, 30.980392%, 30.980392%)" stroke-opacity="1" stroke-miterlimit="10" d="M 422.433594 261.5 C 422.433594 265.234375 419.410156 268.257812 415.679688 268.257812 C 411.949219 268.257812 408.921875 265.234375 408.921875 261.5 C 408.921875 257.769531 411.949219 254.746094 415.679688 254.746094 C 419.410156 254.746094 422.433594 257.769531 422.433594 261.5 "/>
<path fill-rule="nonzero" fill="rgb(18.431373%, 30.980392%, 30.980392%)" fill-opacity="1" stroke-width="0.708661" stroke-linecap="round" stroke-linejoin="round" stroke="rgb(18.431373%, 30.980392%, 30.980392%)" stroke-opacity="1" stroke-miterlimit="10" d="M 185.691406 347.757812 C 185.691406 351.492188 182.667969 354.515625 178.9375 354.515625 C 175.203125 354.515625 172.179688 351.492188 172.179688 347.757812 C 172.179688 344.027344 175.203125 341.003906 178.9375 341.003906 C 182.667969 341.003906 185.691406 344.027344 185.691406 347.757812 "/>
</svg>
