<?xml version="1.0" encoding="UTF-8"?>
<svg xmlns="http://www.w3.org/2000/svg" xmlns:xlink="http://www.w3.org/1999/xlink" width="756" height="414" viewBox="0 0 756 414">
<defs>
<g>
<g id="glyph-0-0">
<path d="M 0.453125 0 L 0.453125 -10.046875 L 8.421875 -10.046875 L 8.421875 0 Z M 7.171875 -1.265625 L 7.171875 -8.78125 L 1.703125 -8.78125 L 1.703125 -1.265625 Z M 7.171875 -1.265625 "/>
</g>
<g id="glyph-0-1">
<path d="M 3.78125 -9.796875 C 5.050781 -9.796875 5.96875 -9.269531 6.53125 -8.21875 C 6.96875 -7.414062 7.1875 -6.3125 7.1875 -4.90625 C 7.1875 -3.570312 6.988281 -2.472656 6.59375 -1.609375 C 6.019531 -0.359375 5.082031 0.265625 3.78125 0.265625 C 2.601562 0.265625 1.726562 -0.242188 1.15625 -1.265625 C 0.675781 -2.117188 0.4375 -3.265625 0.4375 -4.703125 C 0.4375 -5.804688 0.582031 -6.757812 0.875 -7.5625 C 1.40625 -9.050781 2.375 -9.796875 3.78125 -9.796875 Z M 3.78125 -0.859375 C 4.414062 -0.859375 4.921875 -1.140625 5.296875 -1.703125 C 5.671875 -2.265625 5.859375 -3.316406 5.859375 -4.859375 C 5.859375 -5.972656 5.722656 -6.890625 5.453125 -7.609375 C 5.179688 -8.328125 4.648438 -8.6875 3.859375 -8.6875 C 3.140625 -8.6875 2.609375 -8.34375 2.265625 -7.65625 C 1.929688 -6.976562 1.765625 -5.976562 1.765625 -4.65625 C 1.765625 -3.65625 1.875 -2.851562 2.09375 -2.25 C 2.414062 -1.320312 2.976562 -0.859375 3.78125 -0.859375 Z M 3.78125 -0.859375 "/>
</g>
<g id="glyph-0-2">
<path d="M 1.203125 -1.484375 L 2.625 -1.484375 L 2.625 0 L 1.203125 0 Z M 1.203125 -1.484375 "/>
</g>
<g id="glyph-0-3">
<path d="M 0.4375 0 C 0.476562 -0.84375 0.648438 -1.578125 0.953125 -2.203125 C 1.265625 -2.828125 1.859375 -3.394531 2.734375 -3.90625 L 4.046875 -4.65625 C 4.628906 -5 5.039062 -5.289062 5.28125 -5.53125 C 5.65625 -5.914062 5.84375 -6.351562 5.84375 -6.84375 C 5.84375 -7.40625 5.671875 -7.851562 5.328125 -8.1875 C 4.984375 -8.53125 4.53125 -8.703125 3.96875 -8.703125 C 3.125 -8.703125 2.539062 -8.378906 2.21875 -7.734375 C 2.039062 -7.390625 1.941406 -6.914062 1.921875 -6.3125 L 0.671875 -6.3125 C 0.691406 -7.164062 0.851562 -7.863281 1.15625 -8.40625 C 1.6875 -9.351562 2.625 -9.828125 3.96875 -9.828125 C 5.09375 -9.828125 5.910156 -9.519531 6.421875 -8.90625 C 6.941406 -8.300781 7.203125 -7.628906 7.203125 -6.890625 C 7.203125 -6.109375 6.925781 -5.4375 6.375 -4.875 C 6.0625 -4.550781 5.488281 -4.160156 4.65625 -3.703125 L 3.71875 -3.1875 C 3.28125 -2.9375 2.929688 -2.703125 2.671875 -2.484375 C 2.210938 -2.085938 1.925781 -1.644531 1.8125 -1.15625 L 7.15625 -1.15625 L 7.15625 0 Z M 0.4375 0 "/>
</g>
<g id="glyph-0-4">
<path d="M 1.734375 -2.5 C 1.816406 -1.789062 2.140625 -1.304688 2.703125 -1.046875 C 2.992188 -0.898438 3.332031 -0.828125 3.71875 -0.828125 C 4.445312 -0.828125 4.984375 -1.0625 5.328125 -1.53125 C 5.679688 -2 5.859375 -2.515625 5.859375 -3.078125 C 5.859375 -3.765625 5.648438 -4.289062 5.234375 -4.65625 C 4.816406 -5.03125 4.316406 -5.21875 3.734375 -5.21875 C 3.316406 -5.21875 2.953125 -5.132812 2.640625 -4.96875 C 2.335938 -4.8125 2.082031 -4.585938 1.875 -4.296875 L 0.8125 -4.359375 L 1.546875 -9.625 L 6.640625 -9.625 L 6.640625 -8.4375 L 2.46875 -8.4375 L 2.0625 -5.71875 C 2.289062 -5.882812 2.503906 -6.015625 2.703125 -6.109375 C 3.066406 -6.253906 3.488281 -6.328125 3.96875 -6.328125 C 4.863281 -6.328125 5.625 -6.035156 6.25 -5.453125 C 6.875 -4.878906 7.1875 -4.148438 7.1875 -3.265625 C 7.1875 -2.335938 6.898438 -1.519531 6.328125 -0.8125 C 5.753906 -0.101562 4.84375 0.25 3.59375 0.25 C 2.800781 0.25 2.097656 0.0234375 1.484375 -0.421875 C 0.867188 -0.867188 0.523438 -1.5625 0.453125 -2.5 Z M 1.734375 -2.5 "/>
</g>
<g id="glyph-0-5">
<path d="M 7.328125 -9.625 L 7.328125 -8.546875 C 7.003906 -8.242188 6.582031 -7.710938 6.0625 -6.953125 C 5.539062 -6.203125 5.082031 -5.390625 4.6875 -4.515625 C 4.289062 -3.660156 3.988281 -2.882812 3.78125 -2.1875 C 3.644531 -1.726562 3.472656 -1 3.265625 0 L 1.90625 0 C 2.21875 -1.863281 2.898438 -3.722656 3.953125 -5.578125 C 4.578125 -6.660156 5.234375 -7.597656 5.921875 -8.390625 L 0.515625 -8.390625 L 0.515625 -9.625 Z M 7.328125 -9.625 "/>
</g>
<g id="glyph-0-6">
<path d="M 1.34375 -6.9375 L 1.34375 -7.875 C 2.226562 -7.957031 2.84375 -8.097656 3.1875 -8.296875 C 3.539062 -8.503906 3.804688 -8.988281 3.984375 -9.75 L 4.953125 -9.75 L 4.953125 0 L 3.640625 0 L 3.640625 -6.9375 Z M 1.34375 -6.9375 "/>
</g>
</g>
<clipPath id="clip-0">
<path clip-rule="nonzero" d="M 38 5.480469 L 40 5.480469 L 40 391.328125 L 38 391.328125 Z M 38 5.480469 "/>
</clipPath>
<clipPath id="clip-1">
<path clip-rule="nonzero" d="M 5.480469 373 L 750.523438 373 L 750.523438 375 L 5.480469 375 Z M 5.480469 373 "/>
</clipPath>
</defs>
<rect x="-75.6" y="-41.4" width="907.2" height="496.8" fill="rgb(100%, 100%, 100%)" fill-opacity="1"/>
<g clip-path="url(#clip-0)">
<path fill="none" stroke-width="1.066978" stroke-linecap="butt" stroke-linejoin="round" stroke="rgb(0%, 0%, 0%)" stroke-opacity="1" stroke-miterlimit="10" d="M 39.34375 391.328125 L 39.34375 5.480469 "/>
</g>
<path fill-rule="nonzero" fill="rgb(85.098039%, 85.098039%, 85.098039%)" fill-opacity="0.8" d="M 39.34375 305.378906 L 40.671875 302.160156 L 41.996094 298.90625 L 43.320312 295.621094 L 44.648438 292.308594 L 45.972656 288.984375 L 47.296875 285.644531 L 48.625 282.300781 L 49.949219 278.960938 L 51.273438 275.628906 L 52.597656 272.3125 L 53.925781 269.007812 L 55.25 265.738281 L 56.574219 262.503906 L 57.902344 259.296875 L 59.226562 256.128906 L 60.550781 253.015625 L 61.878906 249.949219 L 63.203125 246.9375 L 64.527344 243.972656 L 65.855469 241.074219 L 67.179688 238.246094 L 68.503906 235.476562 L 69.832031 232.765625 L 71.15625 230.121094 L 72.480469 227.558594 L 73.808594 225.0625 L 75.132812 222.625 L 76.457031 220.253906 L 77.785156 217.96875 L 79.109375 215.746094 L 80.433594 213.585938 L 81.757812 211.484375 L 83.085938 209.464844 L 84.410156 207.507812 L 85.734375 205.601562 L 87.0625 203.753906 L 88.386719 201.972656 L 89.710938 200.253906 L 91.039062 198.578125 L 92.363281 196.953125 L 93.6875 195.378906 L 95.015625 193.859375 L 96.339844 192.382812 L 97.664062 190.941406 L 98.992188 189.542969 L 100.316406 188.191406 L 101.640625 186.871094 L 102.96875 185.582031 L 104.292969 184.320312 L 105.617188 183.097656 L 106.945312 181.898438 L 108.269531 180.722656 L 109.59375 179.570312 L 110.917969 178.441406 L 112.246094 177.332031 L 113.570312 176.238281 L 114.894531 175.164062 L 116.222656 174.101562 L 117.546875 173.054688 L 118.871094 172.019531 L 120.199219 170.992188 L 121.523438 169.972656 L 122.847656 168.964844 L 124.175781 167.960938 L 125.5 166.964844 L 126.824219 165.972656 L 128.152344 164.984375 L 130.800781 163.015625 L 132.128906 162.035156 L 133.453125 161.058594 L 134.777344 160.078125 L 136.105469 159.097656 L 137.429688 158.121094 L 138.753906 157.140625 L 140.078125 156.164062 L 141.40625 155.183594 L 142.730469 154.207031 L 144.054688 153.226562 L 145.382812 152.25 L 148.03125 150.296875 L 149.359375 149.324219 L 152.007812 147.386719 L 153.335938 146.425781 L 154.660156 145.46875 L 155.984375 144.515625 L 157.3125 143.574219 L 158.636719 142.636719 L 159.960938 141.710938 L 161.289062 140.796875 L 162.613281 139.890625 L 163.9375 139 L 165.261719 138.117188 L 166.589844 137.253906 L 167.914062 136.40625 L 169.238281 135.570312 L 170.566406 134.753906 L 171.890625 133.953125 L 173.214844 133.171875 L 174.542969 132.402344 L 175.867188 131.652344 L 177.191406 130.921875 L 178.519531 130.207031 L 179.84375 129.511719 L 181.167969 128.824219 L 182.496094 128.15625 L 183.820312 127.5 L 185.144531 126.855469 L 186.472656 126.222656 L 187.796875 125.597656 L 189.121094 124.976562 L 190.449219 124.363281 L 193.097656 123.144531 L 194.421875 122.53125 L 195.75 121.914062 L 197.074219 121.292969 L 198.398438 120.660156 L 199.726562 120.019531 L 201.050781 119.367188 L 202.375 118.699219 L 203.703125 118.015625 L 205.027344 117.316406 L 206.351562 116.597656 L 207.679688 115.855469 L 209.003906 115.097656 L 210.328125 114.320312 L 211.65625 113.515625 L 212.980469 112.691406 L 214.304688 111.847656 L 215.632812 110.984375 L 216.957031 110.097656 L 218.28125 109.195312 L 219.609375 108.277344 L 220.933594 107.34375 L 222.257812 106.394531 L 223.582031 105.433594 L 224.910156 104.46875 L 227.558594 102.515625 L 228.886719 101.535156 L 230.210938 100.558594 L 231.535156 99.585938 L 232.863281 98.617188 L 234.1875 97.664062 L 235.511719 96.722656 L 236.839844 95.792969 L 238.164062 94.878906 L 239.488281 93.988281 L 240.816406 93.121094 L 242.140625 92.273438 L 243.464844 91.449219 L 244.792969 90.65625 L 246.117188 89.890625 L 247.441406 89.152344 L 248.769531 88.441406 L 250.09375 87.765625 L 251.417969 87.121094 L 252.742188 86.503906 L 254.070312 85.914062 L 255.394531 85.351562 L 256.71875 84.828125 L 258.046875 84.332031 L 259.371094 83.855469 L 260.695312 83.40625 L 262.023438 82.992188 L 263.347656 82.601562 L 264.671875 82.226562 L 266 81.875 L 267.324219 81.550781 L 268.648438 81.246094 L 269.976562 80.957031 L 271.300781 80.683594 L 272.625 80.429688 L 273.953125 80.191406 L 275.277344 79.96875 L 276.601562 79.757812 L 277.929688 79.5625 L 279.253906 79.378906 L 280.578125 79.207031 L 281.902344 79.046875 L 283.230469 78.898438 L 284.554688 78.761719 L 285.878906 78.636719 L 287.207031 78.519531 L 288.53125 78.414062 L 289.855469 78.320312 L 291.183594 78.234375 L 292.507812 78.160156 L 293.832031 78.09375 L 295.160156 78.039062 L 296.484375 77.996094 L 297.808594 77.960938 L 299.136719 77.933594 L 300.460938 77.917969 L 301.785156 77.910156 L 303.113281 77.910156 L 304.4375 77.917969 L 305.761719 77.933594 L 307.085938 77.957031 L 308.414062 77.984375 L 311.0625 78.054688 L 312.390625 78.097656 L 313.714844 78.140625 L 315.039062 78.1875 L 316.367188 78.234375 L 317.691406 78.28125 L 319.015625 78.324219 L 320.34375 78.367188 L 321.667969 78.40625 L 322.992188 78.4375 L 324.320312 78.464844 L 325.644531 78.484375 L 326.96875 78.496094 L 328.296875 78.5 L 329.621094 78.492188 L 330.945312 78.46875 L 332.273438 78.441406 L 333.597656 78.394531 L 334.921875 78.332031 L 336.246094 78.257812 L 337.574219 78.167969 L 338.898438 78.066406 L 340.222656 77.941406 L 341.550781 77.796875 L 342.875 77.640625 L 344.199219 77.464844 L 345.527344 77.269531 L 346.851562 77.054688 L 348.175781 76.824219 L 349.503906 76.578125 L 350.828125 76.3125 L 352.152344 76.027344 L 353.480469 75.726562 L 354.804688 75.410156 L 356.128906 75.082031 L 357.457031 74.734375 L 358.78125 74.375 L 360.105469 74.003906 L 361.433594 73.625 L 362.757812 73.234375 L 364.082031 72.835938 L 365.40625 72.433594 L 366.734375 72.023438 L 368.058594 71.613281 L 369.382812 71.199219 L 370.710938 70.789062 L 372.035156 70.378906 L 373.359375 69.972656 L 374.6875 69.570312 L 376.011719 69.175781 L 377.335938 68.789062 L 378.664062 68.414062 L 379.988281 68.050781 L 381.3125 67.695312 L 382.640625 67.351562 L 383.964844 67.023438 L 385.289062 66.710938 L 386.617188 66.410156 L 387.941406 66.125 L 389.265625 65.847656 L 390.59375 65.59375 L 391.917969 65.347656 L 393.242188 65.109375 L 394.566406 64.886719 L 395.894531 64.671875 L 397.21875 64.464844 L 398.542969 64.265625 L 399.871094 64.070312 L 402.519531 63.6875 L 403.847656 63.496094 L 405.171875 63.304688 L 406.496094 63.105469 L 407.824219 62.894531 L 409.148438 62.679688 L 410.472656 62.453125 L 411.800781 62.214844 L 413.125 61.957031 L 414.449219 61.683594 L 415.777344 61.398438 L 417.101562 61.089844 L 418.425781 60.757812 L 419.753906 60.40625 L 421.078125 60.035156 L 422.402344 59.644531 L 423.726562 59.222656 L 425.054688 58.78125 L 426.378906 58.320312 L 427.703125 57.839844 L 429.03125 57.335938 L 430.355469 56.8125 L 431.679688 56.269531 L 433.007812 55.714844 L 434.332031 55.144531 L 435.65625 54.558594 L 436.984375 53.960938 L 438.308594 53.355469 L 439.632812 52.746094 L 440.960938 52.132812 L 443.609375 50.90625 L 444.9375 50.296875 L 446.261719 49.695312 L 447.585938 49.101562 L 448.914062 48.519531 L 450.238281 47.953125 L 451.5625 47.40625 L 452.886719 46.878906 L 454.214844 46.371094 L 455.539062 45.882812 L 456.863281 45.425781 L 458.191406 44.996094 L 459.515625 44.59375 L 460.839844 44.21875 L 462.167969 43.875 L 463.492188 43.570312 L 464.816406 43.292969 L 466.144531 43.050781 L 467.46875 42.835938 L 468.792969 42.667969 L 470.121094 42.527344 L 471.445312 42.417969 L 472.769531 42.339844 L 474.097656 42.304688 L 475.421875 42.296875 L 476.746094 42.320312 L 478.070312 42.371094 L 479.398438 42.453125 L 480.722656 42.566406 L 482.046875 42.703125 L 483.375 42.863281 L 484.699219 43.050781 L 486.023438 43.261719 L 487.351562 43.488281 L 488.675781 43.734375 L 490 44 L 491.328125 44.28125 L 492.652344 44.578125 L 493.976562 44.882812 L 495.304688 45.199219 L 496.628906 45.523438 L 497.953125 45.859375 L 499.28125 46.195312 L 501.929688 46.882812 L 503.257812 47.226562 L 504.582031 47.570312 L 505.90625 47.910156 L 507.230469 48.246094 L 508.558594 48.574219 L 509.882812 48.898438 L 511.207031 49.210938 L 512.535156 49.515625 L 513.859375 49.804688 L 515.183594 50.078125 L 516.511719 50.34375 L 517.835938 50.589844 L 519.160156 50.8125 L 520.488281 51.019531 L 521.8125 51.207031 L 523.136719 51.375 L 524.464844 51.511719 L 525.789062 51.625 L 527.113281 51.710938 L 528.441406 51.773438 L 529.765625 51.804688 L 531.089844 51.800781 L 532.417969 51.765625 L 533.742188 51.703125 L 535.066406 51.605469 L 536.390625 51.464844 L 537.71875 51.292969 L 539.042969 51.089844 L 540.367188 50.84375 L 541.695312 50.558594 L 543.019531 50.234375 L 544.34375 49.878906 L 545.671875 49.484375 L 546.996094 49.042969 L 548.320312 48.570312 L 549.648438 48.0625 L 550.972656 47.519531 L 552.296875 46.933594 L 553.625 46.316406 L 554.949219 45.671875 L 556.273438 44.996094 L 557.601562 44.285156 L 558.925781 43.546875 L 560.25 42.789062 L 561.578125 42.007812 L 562.902344 41.207031 L 564.226562 40.386719 L 565.550781 39.554688 L 566.878906 38.710938 L 568.203125 37.859375 L 569.527344 37.003906 L 570.855469 36.148438 L 572.179688 35.292969 L 573.503906 34.441406 L 574.832031 33.605469 L 576.15625 32.777344 L 577.480469 31.964844 L 578.808594 31.167969 L 580.132812 30.402344 L 581.457031 29.660156 L 582.785156 28.941406 L 584.109375 28.253906 L 585.433594 27.601562 L 586.761719 26.992188 L 588.085938 26.417969 L 589.410156 25.875 L 590.738281 25.382812 L 592.0625 24.9375 L 593.386719 24.535156 L 594.710938 24.175781 L 596.039062 23.859375 L 597.363281 23.605469 L 598.6875 23.394531 L 600.015625 23.226562 L 601.339844 23.101562 L 602.664062 23.039062 L 603.992188 23.019531 L 605.316406 23.039062 L 606.640625 23.101562 L 607.96875 23.21875 L 609.292969 23.375 L 610.617188 23.570312 L 611.945312 23.800781 L 613.269531 24.074219 L 614.59375 24.382812 L 615.921875 24.726562 L 617.246094 25.09375 L 618.570312 25.492188 L 619.894531 25.921875 L 621.222656 26.375 L 622.546875 26.847656 L 623.871094 27.339844 L 625.199219 27.855469 L 626.523438 28.382812 L 627.847656 28.925781 L 629.175781 29.480469 L 630.5 30.050781 L 631.824219 30.625 L 633.152344 31.210938 L 634.476562 31.800781 L 635.800781 32.398438 L 637.128906 33.003906 L 638.453125 33.609375 L 639.777344 34.222656 L 641.105469 34.84375 L 642.429688 35.46875 L 643.753906 36.101562 L 645.082031 36.742188 L 646.40625 37.390625 L 647.730469 38.054688 L 649.054688 38.730469 L 650.382812 39.421875 L 651.707031 40.132812 L 653.03125 40.871094 L 654.359375 41.636719 L 655.683594 42.429688 L 657.007812 43.253906 L 658.335938 44.132812 L 659.660156 45.058594 L 660.984375 46.03125 L 662.3125 47.054688 L 663.636719 48.15625 L 664.960938 49.335938 L 666.289062 50.589844 L 667.613281 51.921875 L 668.9375 53.351562 L 670.265625 54.90625 L 671.589844 56.558594 L 672.914062 58.320312 L 674.242188 60.203125 L 675.566406 62.257812 L 676.890625 64.441406 L 678.214844 66.761719 L 679.542969 69.222656 L 680.867188 71.898438 L 682.191406 74.730469 L 683.519531 77.726562 L 684.84375 80.886719 L 686.167969 84.269531 L 687.496094 87.847656 L 688.820312 91.601562 L 690.144531 95.53125 L 691.472656 99.683594 L 692.796875 104.050781 L 694.121094 108.597656 L 695.449219 113.316406 L 696.773438 118.234375 L 698.097656 123.367188 L 699.425781 128.664062 L 700.75 134.121094 L 702.074219 139.730469 L 703.402344 145.542969 L 704.726562 151.480469 L 706.050781 157.539062 L 707.375 163.710938 L 708.703125 170.019531 L 710.027344 176.414062 L 711.351562 182.878906 L 712.679688 189.40625 L 714.003906 195.992188 L 715.328125 202.605469 L 716.65625 209.230469 L 716.65625 373.789062 L 39.34375 373.789062 Z M 39.34375 305.378906 "/>
<path fill-rule="nonzero" fill="rgb(90.196078%, 25.490196%, 45.098039%)" fill-opacity="1" d="M 39.34375 305.378906 L 40.671875 302.160156 L 41.996094 298.90625 L 43.320312 295.621094 L 44.648438 292.308594 L 45.972656 288.984375 L 47.296875 285.644531 L 48.625 282.300781 L 49.949219 278.960938 L 51.273438 275.628906 L 52.597656 272.3125 L 53.925781 269.007812 L 55.25 265.738281 L 56.574219 262.503906 L 57.902344 259.296875 L 59.226562 256.128906 L 60.550781 253.015625 L 61.878906 249.949219 L 63.203125 246.9375 L 64.527344 243.972656 L 65.855469 241.074219 L 67.179688 238.246094 L 68.503906 235.476562 L 69.832031 232.765625 L 71.15625 230.121094 L 72.480469 227.558594 L 72.480469 373.789062 L 39.34375 373.789062 Z M 39.34375 305.378906 "/>
<g clip-path="url(#clip-1)">
<path fill="none" stroke-width="1.066978" stroke-linecap="butt" stroke-linejoin="round" stroke="rgb(0%, 0%, 0%)" stroke-opacity="1" stroke-miterlimit="10" d="M 5.480469 373.789062 L 750.519531 373.789062 "/>
</g>
<g fill="rgb(30.196078%, 30.196078%, 30.196078%)" fill-opacity="1">
<use xlink:href="#glyph-0-1" x="25.34375" y="404.299805"/>
<use xlink:href="#glyph-0-2" x="33.34375" y="404.299805"/>
<use xlink:href="#glyph-0-1" x="37.34375" y="404.299805"/>
<use xlink:href="#glyph-0-1" x="45.34375" y="404.299805"/>
</g>
<g fill="rgb(30.196078%, 30.196078%, 30.196078%)" fill-opacity="1">
<use xlink:href="#glyph-0-1" x="194.671875" y="404.299805"/>
<use xlink:href="#glyph-0-2" x="202.671875" y="404.299805"/>
<use xlink:href="#glyph-0-3" x="206.671875" y="404.299805"/>
<use xlink:href="#glyph-0-4" x="214.671875" y="404.299805"/>
</g>
<g fill="rgb(30.196078%, 30.196078%, 30.196078%)" fill-opacity="1">
<use xlink:href="#glyph-0-1" x="364" y="404.299805"/>
<use xlink:href="#glyph-0-2" x="372" y="404.299805"/>
<use xlink:href="#glyph-0-4" x="376" y="404.299805"/>
<use xlink:href="#glyph-0-1" x="384" y="404.299805"/>
</g>
<g fill="rgb(30.196078%, 30.196078%, 30.196078%)" fill-opacity="1">
<use xlink:href="#glyph-0-1" x="533.328125" y="404.299805"/>
<use xlink:href="#glyph-0-2" x="541.328125" y="404.299805"/>
<use xlink:href="#glyph-0-5" x="545.328125" y="404.299805"/>
<use xlink:href="#glyph-0-4" x="553.328125" y="404.299805"/>
</g>
<g fill="rgb(30.196078%, 30.196078%, 30.196078%)" fill-opacity="1">
<use xlink:href="#glyph-0-6" x="702.65625" y="404.299805"/>
<use xlink:href="#glyph-0-2" x="710.65625" y="404.299805"/>
<use xlink:href="#glyph-0-1" x="714.65625" y="404.299805"/>
<use xlink:href="#glyph-0-1" x="722.65625" y="404.299805"/>
</g>
</svg>
